<svg xmlns="http://www.w3.org/2000/svg" xmlns:xlink="http://www.w3.org/1999/xlink" width="103" height="103" viewBox="0 0 103 103">
  <defs>
    <filter id="Trazado_978624" x="0" y="0" width="103" height="103" filterUnits="userSpaceOnUse">
      <feOffset dy="3" input="SourceAlpha"/>
      <feGaussianBlur stdDeviation="3" result="blur"/>
      <feFlood flood-opacity="0.161"/>
      <feComposite operator="in" in2="blur"/>
      <feComposite in="SourceGraphic"/>
    </filter>
  </defs>
  <g id="Grupo_1227284" data-name="Grupo 1227284" transform="translate(-171 -679)">
    <g id="Grupo_1225038" data-name="Grupo 1225038" transform="translate(180 685)">
      <g id="Grupo_1222970" data-name="Grupo 1222970">
        <g id="Grupo_1222589" data-name="Grupo 1222589">
          <g id="Grupo_1203109" data-name="Grupo 1203109">
            <g id="Grupo_1176881" data-name="Grupo 1176881">
              <g id="Grupo_1175148" data-name="Grupo 1175148">
                <g id="Grupo_1173798" data-name="Grupo 1173798">
                  <g id="Grupo_1171925" data-name="Grupo 1171925">
                    <g id="Grupo_1164524" data-name="Grupo 1164524">
                      <g id="Grupo_1144123" data-name="Grupo 1144123">
                        <g transform="matrix(1, 0, 0, 1, -9, -6)" filter="url(#Trazado_978624)">
                          <g id="Trazado_978624-2" data-name="Trazado 978624" transform="translate(9 6)" fill="#e7f2f8">
                            <path d="M 42.5 83.5 C 36.96437835693359 83.5 31.59512901306152 82.41617584228516 26.54141235351562 80.27863311767578 C 21.65934181213379 78.21369171142578 17.27447128295898 75.25723266601562 13.50862312316895 71.49137878417969 C 9.742764472961426 67.72553253173828 6.786305904388428 63.34066009521484 4.721364498138428 58.45858764648438 C 2.583823442459106 53.40486907958984 1.5 48.03562164306641 1.5 42.5 C 1.5 36.96437835693359 2.583823442459106 31.59512901306152 4.721364498138428 26.54141235351562 C 6.786305904388428 21.65934181213379 9.742764472961426 17.27447128295898 13.50862312316895 13.50862312316895 C 17.27447128295898 9.742764472961426 21.65934181213379 6.786305904388428 26.54141235351562 4.721364498138428 C 31.59512901306152 2.583823442459106 36.96437835693359 1.5 42.5 1.5 C 48.03562164306641 1.5 53.40486907958984 2.583823442459106 58.45858764648438 4.721364498138428 C 63.34066009521484 6.786305904388428 67.72553253173828 9.742764472961426 71.49137878417969 13.50862312316895 C 75.25723266601562 17.27447128295898 78.21369171142578 21.65934181213379 80.27863311767578 26.54141235351562 C 82.41617584228516 31.59512901306152 83.5 36.96437835693359 83.5 42.5 C 83.5 48.03562164306641 82.41617584228516 53.40486907958984 80.27863311767578 58.45858764648438 C 78.21369171142578 63.34066009521484 75.25723266601562 67.72553253173828 71.49137878417969 71.49137878417969 C 67.72553253173828 75.25723266601562 63.34066009521484 78.21369171142578 58.45858764648438 80.27863311767578 C 53.40486907958984 82.41617584228516 48.03562164306641 83.5 42.5 83.5 Z" stroke="none"/>
                            <path d="M 42.5 3 C 37.16621398925781 3 31.99356079101562 4.043960571289062 27.125732421875 6.102882385253906 C 22.42246627807617 8.092185974121094 18.19785308837891 10.94070434570312 14.56928253173828 14.56928253173828 C 10.94070434570312 18.19785308837891 8.092185974121094 22.42246627807617 6.102882385253906 27.125732421875 C 4.043960571289062 31.99356079101562 3 37.16621398925781 3 42.5 C 3 47.83378601074219 4.043960571289062 53.00643920898438 6.102882385253906 57.87425231933594 C 8.092185974121094 62.57753372192383 10.94070434570312 66.80213165283203 14.56928253173828 70.43071746826172 C 18.19786834716797 74.05929565429688 22.42246627807617 76.90781402587891 27.125732421875 78.89711761474609 C 31.99356079101562 80.95603942871094 37.16621398925781 82 42.5 82 C 47.83378601074219 82 53.00642395019531 80.95603942871094 57.87425231933594 78.89711761474609 C 62.57753372192383 76.90781402587891 66.80213165283203 74.05929565429688 70.43071746826172 70.43071746826172 C 74.05929565429688 66.80213165283203 76.90781402587891 62.57753372192383 78.89711761474609 57.87425231933594 C 80.95603942871094 53.00642395019531 82 47.83378601074219 82 42.5 C 82 37.16621398925781 80.95603942871094 31.99356079101562 78.89711761474609 27.125732421875 C 76.90781402587891 22.42246627807617 74.05929565429688 18.19786834716797 70.43071746826172 14.56928253173828 C 66.80213165283203 10.94070434570312 62.57753372192383 8.092185974121094 57.87425231933594 6.102882385253906 C 53.00643920898438 4.043960571289062 47.83378601074219 3 42.5 3 M 42.5 0 C 65.97209167480469 0 85 19.02789306640625 85 42.5 C 85 65.97209167480469 65.97209167480469 85 42.5 85 C 19.02789306640625 85 0 65.97209167480469 0 42.5 C 0 19.02789306640625 19.02789306640625 0 42.5 0 Z" stroke="none" fill="#248abf"/>
                          </g>
                        </g>
                      </g>
                    </g>
                  </g>
                </g>
              </g>
            </g>
          </g>
        </g>
      </g>
    </g>
    <g id="escuela_2_" data-name="escuela (2)" transform="translate(195.164 697.709)">
      <g id="Grupo_1227265" data-name="Grupo 1227265" transform="translate(3.845 28.253)">
        <path id="Trazado_1189875" data-name="Trazado 1189875" d="M36.009,264.509H82.991V288H36.009Z" transform="translate(-36.009 -264.509)" fill="#fae0bd"/>
      </g>
      <g id="Grupo_1227266" data-name="Grupo 1227266" transform="translate(11.32 28.253)">
        <path id="Trazado_1189876" data-name="Trazado 1189876" d="M106.009,264.509h32.033V288H106.009Z" transform="translate(-106.009 -264.509)" fill="#f8c7a5"/>
      </g>
      <g id="Grupo_1227267" data-name="Grupo 1227267" transform="translate(8.116 37.397)">
        <path id="Trazado_1189877" data-name="Trazado 1189877" d="M78.145,356.558h34.169a2.136,2.136,0,0,0,2.136-2.136v-2.136a2.136,2.136,0,0,0-2.136-2.136H78.145a2.136,2.136,0,0,0-2.136,2.136v2.136A2.136,2.136,0,0,0,78.145,356.558Z" transform="translate(-76.009 -350.151)" fill="#a0bce7"/>
      </g>
      <g id="Grupo_1227268" data-name="Grupo 1227268" transform="translate(11.32 37.397)">
        <path id="Trazado_1189878" data-name="Trazado 1189878" d="M106.009,350.151h32.033v6.407H106.009Z" transform="translate(-106.009 -350.151)" fill="#8ea3e2"/>
      </g>
      <g id="Grupo_1227269" data-name="Grupo 1227269" transform="translate(0.802 14.509)">
        <path id="Trazado_1189879" data-name="Trazado 1189879" d="M54.557,135.793H13.531a2.136,2.136,0,0,0-2.044,1.516L7.6,150.122a2.136,2.136,0,0,0,2.044,2.755H58.441a2.136,2.136,0,0,0,2.044-2.755L56.6,137.309a2.136,2.136,0,0,0-2.044-1.516Z" transform="translate(-7.51 -135.793)" fill="#e26e7e"/>
      </g>
      <g id="Grupo_1227270" data-name="Grupo 1227270" transform="translate(27.336 0.811)">
        <path id="Trazado_1189880" data-name="Trazado 1189880" d="M263.483,13.916h-7.474V7.509h7.474a1.068,1.068,0,0,1,1.068,1.068v4.271A1.068,1.068,0,0,1,263.483,13.916Z" transform="translate(-256.009 -7.509)" fill="#f7ef87"/>
      </g>
      <g id="Grupo_1227271" data-name="Grupo 1227271" transform="translate(27.336 0.811)">
        <path id="Trazado_1189881" data-name="Trazado 1189881" d="M260.28,12.848V8.577a1.068,1.068,0,0,1,1.068-1.068h-5.339v6.407h5.339A1.068,1.068,0,0,1,260.28,12.848Z" transform="translate(-256.009 -7.509)" fill="#f2d98d"/>
      </g>
      <g id="Grupo_1227272" data-name="Grupo 1227272" transform="translate(15.591 11.939)">
        <path id="Trazado_1189882" data-name="Trazado 1189882" d="M169.5,123.478l-11.746-11.746-11.746,11.746v28.059H169.5Z" transform="translate(-146.009 -111.732)" fill="#fbf1cf"/>
      </g>
      <g id="Grupo_1227273" data-name="Grupo 1227273" transform="translate(15.591 17.278)">
        <path id="Trazado_1189883" data-name="Trazado 1189883" d="M146.009,168.139V196.2h6.407V161.732Z" transform="translate(-146.009 -161.732)" fill="#fae0bd"/>
      </g>
      <g id="Grupo_1227274" data-name="Grupo 1227274" transform="translate(19.862 37.397)">
        <path id="Trazado_1189884" data-name="Trazado 1189884" d="M200.958,364.5H186.009V352.287a2.136,2.136,0,0,1,2.136-2.136h10.678a2.136,2.136,0,0,1,2.136,2.136Z" transform="translate(-186.009 -350.151)" fill="#6e768f"/>
      </g>
      <g id="Grupo_1227275" data-name="Grupo 1227275" transform="translate(19.862 37.397)">
        <path id="Trazado_1189885" data-name="Trazado 1189885" d="M192.416,350.151h-4.271a2.136,2.136,0,0,0-2.136,2.136V364.5h4.271V352.287A2.136,2.136,0,0,1,192.416,350.151Z" transform="translate(-186.009 -350.151)" fill="#565e75"/>
      </g>
      <g id="Grupo_1227277" data-name="Grupo 1227277" transform="translate(12.388 9.353)">
        <g id="Grupo_1227276" data-name="Grupo 1227276">
          <path id="Trazado_1189886" data-name="Trazado 1189886" d="M143.772,104.593a2.13,2.13,0,0,1-1.51-.625l-11.3-11.3-11.3,11.3a2.136,2.136,0,0,1-3.02-3.02l12.813-12.813a2.136,2.136,0,0,1,3.02,0l12.813,12.813a2.136,2.136,0,0,1-1.51,3.646Z" transform="translate(-116.01 -87.509)" fill="#ec9eb0"/>
        </g>
      </g>
      <g id="Grupo_1227278" data-name="Grupo 1227278" transform="translate(12.387 10.77)">
        <path id="Trazado_1189887" data-name="Trazado 1189887" d="M128.38,101.938a2.567,2.567,0,0,1,.276-1.161L116.634,112.8a2.136,2.136,0,1,0,3.02,3.02l11.3-11.3a2.578,2.578,0,0,1-2.578-2.578Z" transform="translate(-116.009 -100.777)" fill="#e68a97"/>
      </g>
      <g id="Grupo_1227279" data-name="Grupo 1227279" transform="translate(21.997 23.051)">
        <circle id="Elipse_14715" data-name="Elipse 14715" cx="5.339" cy="5.339" r="5.339" fill="#a0bce7"/>
      </g>
      <g id="Grupo_1227280" data-name="Grupo 1227280" transform="translate(21.997 23.051)">
        <path id="Trazado_1189888" data-name="Trazado 1189888" d="M209.212,221.132a5.341,5.341,0,0,1,3.737-5.094,5.339,5.339,0,1,0,0,10.188A5.341,5.341,0,0,1,209.212,221.132Z" transform="translate(-206.009 -215.793)" fill="#8ea3e2"/>
      </g>
      <g id="Grupo_1227281" data-name="Grupo 1227281" transform="translate(0.802 49.608)">
        <path id="Trazado_1189889" data-name="Trazado 1189889" d="M58.442,468.78H9.645a2.136,2.136,0,0,1,0-4.271h48.8a2.136,2.136,0,0,1,0,4.271Z" transform="translate(-7.509 -464.509)" fill="#ec9eb0"/>
      </g>
      <g id="Grupo_1227282" data-name="Grupo 1227282" transform="translate(0.802 49.608)">
        <path id="Trazado_1189890" data-name="Trazado 1189890" d="M16.051,466.645a2.136,2.136,0,0,1,2.136-2.136H9.645a2.136,2.136,0,0,0,0,4.271h8.542A2.136,2.136,0,0,1,16.051,466.645Z" transform="translate(-7.509 -464.509)" fill="#e68a97"/>
      </g>
      <g id="Grupo_1227283" data-name="Grupo 1227283" transform="translate(0 0.01)">
        <path id="Trazado_1189891" data-name="Trazado 1189891" d="M249.31,242.03h2.136a.8.8,0,1,0,0-1.6h-1.335v-1.335a.8.8,0,1,0-1.6,0v2.136A.8.8,0,0,0,249.31,242.03Z" transform="translate(-221.974 -212.85)"/>
        <path id="Trazado_1189892" data-name="Trazado 1189892" d="M204.649,220.572a6.14,6.14,0,1,0-6.14-6.14A6.147,6.147,0,0,0,204.649,220.572Zm0-10.678a4.538,4.538,0,1,1-4.538,4.538A4.543,4.543,0,0,1,204.649,209.895Z" transform="translate(-177.313 -186.053)"/>
        <path id="Trazado_1189893" data-name="Trazado 1189893" d="M51.735,48.807h-.107V32.394h.105a2.936,2.936,0,0,0,2.81-3.788L50.66,15.792a2.92,2.92,0,0,0-2.81-2.085H33.708l-4.3-4.3a2.919,2.919,0,0,0-1.276-.749V8.018h6.674A1.871,1.871,0,0,0,36.679,6.15V1.879A1.871,1.871,0,0,0,34.811.01H27.336a.8.8,0,0,0-.8.8V8.663a2.92,2.92,0,0,0-1.276.749l-4.3,4.3H6.823a2.92,2.92,0,0,0-2.81,2.085L.129,28.606a2.936,2.936,0,0,0,2.81,3.788h.105V39a.8.8,0,1,0,1.6,0V32.394H14.79v4.2H10.252a2.94,2.94,0,0,0-2.936,2.936v2.136A2.94,2.94,0,0,0,10.252,44.6H14.79v4.2H4.646V42.2a.8.8,0,1,0-1.6,0v6.605H2.938a2.936,2.936,0,0,0,0,5.873h48.8a2.936,2.936,0,0,0,0-5.873Zm-23.6-47.2h6.674a.267.267,0,0,1,.267.267V6.15a.267.267,0,0,1-.267.267H28.137Zm21.889,47.2H39.883V44.6h4.538a2.94,2.94,0,0,0,2.936-2.936V39.533A2.94,2.94,0,0,0,44.421,36.6H39.883v-4.2H50.027ZM39.883,38.2h4.538a1.336,1.336,0,0,1,1.335,1.335v2.136A1.336,1.336,0,0,1,44.421,43H39.883ZM47.85,15.309a1.327,1.327,0,0,1,1.277.948L53.011,29.07a1.335,1.335,0,0,1-1.277,1.722H39.883V27.226c.088.008.177.012.267.012a2.936,2.936,0,0,0,2.076-5.013L35.31,15.309ZM2.939,30.792A1.335,1.335,0,0,1,1.662,29.07L5.546,16.257a1.327,1.327,0,0,1,1.277-.948h12.54l-6.916,6.916a2.936,2.936,0,0,0,2.076,5.013c.09,0,.179,0,.267-.012v3.566H2.939ZM10.252,43a1.336,1.336,0,0,1-1.335-1.335V39.533A1.336,1.336,0,0,1,10.252,38.2H14.79V43Zm6.14-16.436q.108-.089.208-.189L27.336,15.641l2.78,2.78a.8.8,0,1,0,1.133-1.132L27.9,13.942a.8.8,0,0,0-1.133,0l-11.3,11.3a1.335,1.335,0,0,1-1.888-1.888L26.393,10.545a1.336,1.336,0,0,1,1.888,0L41.093,23.358a1.335,1.335,0,0,1-1.888,1.888l-5.7-5.7a.8.8,0,1,0-1.133,1.132l5.7,5.7c.067.067.136.13.208.189v22.24H35.612V39.533A2.94,2.94,0,0,0,32.675,36.6H22a2.94,2.94,0,0,0-2.936,2.936v9.274H16.392Zm4.271,22.24V39.533A1.336,1.336,0,0,1,22,38.2h4.538V48.807ZM28.137,38.2h4.538a1.336,1.336,0,0,1,1.335,1.335v9.274H28.137Zm23.6,14.88H2.938a1.335,1.335,0,1,1,0-2.669h48.8a1.335,1.335,0,0,1,0,2.669Z" transform="translate(0 -0.01)"/>
      </g>
    </g>
  </g>
</svg>
