<svg xmlns="http://www.w3.org/2000/svg" xmlns:xlink="http://www.w3.org/1999/xlink" width="103" height="103" viewBox="0 0 103 103">
  <defs>
    <filter id="Trazado_978624" x="0" y="0" width="103" height="103" filterUnits="userSpaceOnUse">
      <feOffset dy="3" input="SourceAlpha"/>
      <feGaussianBlur stdDeviation="3" result="blur"/>
      <feFlood flood-opacity="0.161"/>
      <feComposite operator="in" in2="blur"/>
      <feComposite in="SourceGraphic"/>
    </filter>
  </defs>
  <g id="Grupo_1227285" data-name="Grupo 1227285" transform="translate(-195 -449.906)">
    <g id="Grupo_1226902" data-name="Grupo 1226902" transform="translate(0 -2597.094)">
      <g id="Grupo_1226078" data-name="Grupo 1226078" transform="translate(4 -5248.644)">
        <g id="Grupo_1224953" data-name="Grupo 1224953" transform="translate(20 7462.644)">
          <g id="Grupo_1222589" data-name="Grupo 1222589">
            <g id="Grupo_1203109" data-name="Grupo 1203109" transform="translate(180 839)">
              <g id="Grupo_1176881" data-name="Grupo 1176881">
                <g id="Grupo_1175148" data-name="Grupo 1175148">
                  <g id="Grupo_1173798" data-name="Grupo 1173798">
                    <g id="Grupo_1171925" data-name="Grupo 1171925">
                      <g id="Grupo_1164524" data-name="Grupo 1164524">
                        <g id="Grupo_1144123" data-name="Grupo 1144123">
                          <g transform="matrix(1, 0, 0, 1, -9, -6)" filter="url(#Trazado_978624)">
                            <g id="Trazado_978624-2" data-name="Trazado 978624" transform="translate(9 6)" fill="#fcf5f0">
                              <path d="M 42.5 83.5 C 36.96437835693359 83.5 31.59512901306152 82.41617584228516 26.54141235351562 80.27863311767578 C 21.65934181213379 78.21369171142578 17.27447128295898 75.25723266601562 13.50862312316895 71.49137878417969 C 9.742764472961426 67.72553253173828 6.786305904388428 63.34066009521484 4.721364498138428 58.45858764648438 C 2.583823442459106 53.40486907958984 1.5 48.03562164306641 1.5 42.5 C 1.5 36.96437835693359 2.583823442459106 31.59512901306152 4.721364498138428 26.54141235351562 C 6.786305904388428 21.65934181213379 9.742764472961426 17.27447128295898 13.50862312316895 13.50862312316895 C 17.27447128295898 9.742764472961426 21.65934181213379 6.786305904388428 26.54141235351562 4.721364498138428 C 31.59512901306152 2.583823442459106 36.96437835693359 1.5 42.5 1.5 C 48.03562164306641 1.5 53.40486907958984 2.583823442459106 58.45858764648438 4.721364498138428 C 63.34066009521484 6.786305904388428 67.72553253173828 9.742764472961426 71.49137878417969 13.50862312316895 C 75.25723266601562 17.27447128295898 78.21369171142578 21.65934181213379 80.27863311767578 26.54141235351562 C 82.41617584228516 31.59512901306152 83.5 36.96437835693359 83.5 42.5 C 83.5 48.03562164306641 82.41617584228516 53.40486907958984 80.27863311767578 58.45858764648438 C 78.21369171142578 63.34066009521484 75.25723266601562 67.72553253173828 71.49137878417969 71.49137878417969 C 67.72553253173828 75.25723266601562 63.34066009521484 78.21369171142578 58.45858764648438 80.27863311767578 C 53.40486907958984 82.41617584228516 48.03562164306641 83.5 42.5 83.5 Z" stroke="none"/>
                              <path d="M 42.5 3 C 37.16621398925781 3 31.99356079101562 4.043960571289062 27.125732421875 6.102882385253906 C 22.42246627807617 8.092185974121094 18.19785308837891 10.94070434570312 14.56928253173828 14.56928253173828 C 10.94070434570312 18.19785308837891 8.092185974121094 22.42246627807617 6.102882385253906 27.125732421875 C 4.043960571289062 31.99356079101562 3 37.16621398925781 3 42.5 C 3 47.83378601074219 4.043960571289062 53.00643920898438 6.102882385253906 57.87425231933594 C 8.092185974121094 62.57753372192383 10.94070434570312 66.80213165283203 14.56928253173828 70.43071746826172 C 18.19786834716797 74.05929565429688 22.42246627807617 76.90781402587891 27.125732421875 78.89711761474609 C 31.99356079101562 80.95603942871094 37.16621398925781 82 42.5 82 C 47.83378601074219 82 53.00642395019531 80.95603942871094 57.87425231933594 78.89711761474609 C 62.57753372192383 76.90781402587891 66.80213165283203 74.05929565429688 70.43071746826172 70.43071746826172 C 74.05929565429688 66.80213165283203 76.90781402587891 62.57753372192383 78.89711761474609 57.87425231933594 C 80.95603942871094 53.00642395019531 82 47.83378601074219 82 42.5 C 82 37.16621398925781 80.95603942871094 31.99356079101562 78.89711761474609 27.125732421875 C 76.90781402587891 22.42246627807617 74.05929565429688 18.19786834716797 70.43071746826172 14.56928253173828 C 66.80213165283203 10.94070434570312 62.57753372192383 8.092185974121094 57.87425231933594 6.102882385253906 C 53.00643920898438 4.043960571289062 47.83378601074219 3 42.5 3 M 42.5 0 C 65.97209167480469 0 85 19.02789306640625 85 42.5 C 85 65.97209167480469 65.97209167480469 85 42.5 85 C 19.02789306640625 85 0 65.97209167480469 0 42.5 C 0 19.02789306640625 19.02789306640625 0 42.5 0 Z" stroke="none" fill="#eca675"/>
                            </g>
                          </g>
                        </g>
                      </g>
                    </g>
                  </g>
                </g>
              </g>
            </g>
          </g>
        </g>
      </g>
    </g>
    <g id="_11._Book_Stack" data-name="11. Book Stack" transform="translate(217.595 412.727)">
      <rect id="Rectángulo_422767" data-name="Rectángulo 422767" width="56" height="10" rx="5" transform="translate(1 96)" fill="#b1da7a"/>
      <path id="Trazado_1189894" data-name="Trazado 1189894" d="M62.2,401.807H9.807A1.807,1.807,0,0,1,8,400v2.71a1.807,1.807,0,0,0,1.807,1.807H62.2A1.807,1.807,0,0,0,64,402.71V400A1.807,1.807,0,0,1,62.2,401.807Z" transform="translate(-7.097 -298.062)" fill="#96bf5b"/>
      <path id="Trazado_1189895" data-name="Trazado 1189895" d="M55.1,348.646H10.84a.9.9,0,0,1,0-1.807H55.1a.9.9,0,0,0,.9-.9V338.71a.9.9,0,0,0-.9-.9H2.71a.9.9,0,0,0-.9.9v7.226a.9.9,0,0,0,.9.9H7.226a.9.9,0,0,1,0,1.807H2.71A2.71,2.71,0,0,1,0,345.936V338.71A2.71,2.71,0,0,1,2.71,336H55.1a2.71,2.71,0,0,1,2.71,2.71v7.226A2.71,2.71,0,0,1,55.1,348.646Z" transform="translate(0 -241.288)"/>
      <path id="Trazado_1189896" data-name="Trazado 1189896" d="M64,344h43.358v10.84H64Z" transform="translate(-56.774 -248.385)" fill="#73cab2"/>
      <path id="Trazado_1189897" data-name="Trazado 1189897" d="M64,416h43.358v2.71H64Z" transform="translate(-56.774 -312.255)" fill="#64af93"/>
      <path id="Trazado_1189898" data-name="Trazado 1189898" d="M100.262,348.646H60.516a.9.9,0,0,1,0-1.807H99.358v-9.033H57.807v9.936a.9.9,0,0,1-1.807,0V336.9a.9.9,0,0,1,.9-.9h43.358a.9.9,0,0,1,.9.9v10.84A.9.9,0,0,1,100.262,348.646Z" transform="translate(-49.677 -241.288)"/>
      <path id="Trazado_1189899" data-name="Trazado 1189899" d="M27.613,208.13a4.516,4.516,0,0,0,4.516,4.516H74.585a1.807,1.807,0,0,1,0,3.613H32.13a8.13,8.13,0,1,1,0-16.259H74.585a1.807,1.807,0,0,1,0,3.613H32.13A4.516,4.516,0,0,0,27.613,208.13Z" transform="translate(-21.29 -120.644)" fill="#6fc3e2"/>
      <path id="Trazado_1189900" data-name="Trazado 1189900" d="M75.768,266.317a1.8,1.8,0,0,1-1.192.452H32.121a8.13,8.13,0,0,1-8.017-6.776,8.13,8.13,0,0,0,8.017,9.485H74.576a1.805,1.805,0,0,0,1.192-3.162Z" transform="translate(-21.281 -173.863)" fill="#62acc7"/>
      <path id="Trazado_1189901" data-name="Trazado 1189901" d="M67.488,210.066H25.033a9.033,9.033,0,0,1,0-18.066H67.488a2.71,2.71,0,1,1,0,5.42H25.033a3.613,3.613,0,0,0,0,7.226H67.488a2.71,2.71,0,1,1,0,5.42ZM25.033,193.807a7.226,7.226,0,0,0,0,14.453H67.488a.9.9,0,1,0,0-1.807H25.033a5.42,5.42,0,1,1,0-10.84H67.488a.9.9,0,1,0,0-1.807Z" transform="translate(-14.193 -113.547)"/>
      <path id="Trazado_1189902" data-name="Trazado 1189902" d="M60.516,241.033h41.552V232H60.516a4.516,4.516,0,1,0,0,9.033Z" transform="translate(-49.677 -149.031)" fill="#f6edc8"/>
      <path id="Trazado_1189903" data-name="Trazado 1189903" d="M60.505,232a4.516,4.516,0,0,0-4.31,5.871,4.516,4.516,0,0,1,4.31-3.162h41.552V232Z" transform="translate(-49.666 -149.031)" fill="#f4dcb5"/>
      <path id="Trazado_1189904" data-name="Trazado 1189904" d="M94.971,234.84H53.42a5.42,5.42,0,1,1,0-10.84H94.971a.9.9,0,0,1,.9.9v9.033A.9.9,0,0,1,94.971,234.84ZM53.42,225.807a3.613,3.613,0,1,0,0,7.226H94.068v-7.226Z" transform="translate(-42.58 -141.934)"/>
      <path id="Trazado_1189905" data-name="Trazado 1189905" d="M112,272v11.743l2.71-1.807,2.71,1.807V272Z" transform="translate(-99.354 -184.514)" fill="#e9a648"/>
      <path id="Trazado_1189906" data-name="Trazado 1189906" d="M109.822,277.4l-2.209-1.474L105.4,277.4a.9.9,0,0,1-1.4-.752V264.9a.9.9,0,0,1,.9-.9h5.42a.9.9,0,0,1,.9.9v11.743a.9.9,0,0,1-1.4.752Zm-1.707-3.311,1.305.871v-9.152h-3.613v9.152l1.305-.871A.9.9,0,0,1,108.115,274.088Z" transform="translate(-92.257 -177.418)"/>
      <path id="Trazado_1189907" data-name="Trazado 1189907" d="M115.358,79.226a7.226,7.226,0,0,1-7.226,7.226H73.807a1.807,1.807,0,0,1,0-3.613h34.325a3.613,3.613,0,0,0,0-7.226H73.807a1.807,1.807,0,0,1,0-3.613h34.325A7.226,7.226,0,0,1,115.358,79.226Z" transform="translate(-63.87 -7.097)" fill="#cd4f5f"/>
      <path id="Trazado_1189908" data-name="Trazado 1189908" d="M108.132,129.871H73.807a1.8,1.8,0,0,1-1.192-.452,1.8,1.8,0,0,0,1.192,3.162h34.325a7.226,7.226,0,0,0,7.1-8.581A7.226,7.226,0,0,1,108.132,129.871Z" transform="translate(-63.87 -53.225)" fill="#b24654"/>
      <path id="Trazado_1189909" data-name="Trazado 1189909" d="M101.035,80.259H66.71a2.71,2.71,0,0,1,0-5.42h34.325a2.71,2.71,0,1,0,0-5.42H66.71a2.71,2.71,0,0,1,0-5.42H96.519a.9.9,0,0,1,0,1.807H66.71a.9.9,0,0,0,0,1.807h34.325a4.516,4.516,0,1,1,0,9.033H66.71a.9.9,0,0,0,0,1.807h34.325a6.323,6.323,0,1,0,0-12.646h-.9a.9.9,0,1,1,0-1.807h.9a8.13,8.13,0,1,1,0,16.259Z" transform="translate(-56.774)"/>
      <path id="Trazado_1189910" data-name="Trazado 1189910" d="M129.422,111.226H96V104h33.422a3.613,3.613,0,1,1,0,7.226Z" transform="translate(-85.16 -35.484)" fill="#f6edc8"/>
      <path id="Trazado_1189911" data-name="Trazado 1189911" d="M129.422,104H96v2.71h33.422a3.613,3.613,0,0,1,3.35,2.259,3.615,3.615,0,0,0-3.35-4.969Z" transform="translate(-85.16 -35.484)" fill="#f4dcb5"/>
      <path id="Trazado_1189912" data-name="Trazado 1189912" d="M122.325,105.033H88.9a.9.9,0,0,1-.9-.9V96.9a.9.9,0,0,1,.9-.9h33.422a4.516,4.516,0,0,1,0,9.033Zm-32.519-1.807h32.519a2.71,2.71,0,0,0,0-5.42H89.807Z" transform="translate(-78.064 -28.387)"/>
      <path id="Trazado_1189913" data-name="Trazado 1189913" d="M130.455,265.807H88.9a.9.9,0,0,1,0-1.807h41.552a.9.9,0,1,1,0,1.807Z" transform="translate(-78.064 -177.418)"/>
      <path id="Trazado_1189914" data-name="Trazado 1189914" d="M121.422,129.807H88.9a.9.9,0,1,1,0-1.807h32.519a.9.9,0,1,1,0,1.807Z" transform="translate(-78.064 -56.774)"/>
    </g>
  </g>
</svg>
