<svg xmlns="http://www.w3.org/2000/svg" xmlns:xlink="http://www.w3.org/1999/xlink" width="103" height="103" viewBox="0 0 103 103">
  <defs>
    <filter id="Trazado_978624" x="0" y="0" width="103" height="103" filterUnits="userSpaceOnUse">
      <feOffset dy="3" input="SourceAlpha"/>
      <feGaussianBlur stdDeviation="3" result="blur"/>
      <feFlood flood-opacity="0.161"/>
      <feComposite operator="in" in2="blur"/>
      <feComposite in="SourceGraphic"/>
    </filter>
  </defs>
  <g id="Grupo_1228948" data-name="Grupo 1228948" transform="translate(-171 -3608.104)">
    <g id="Grupo_1226960" data-name="Grupo 1226960" transform="translate(180 3614.104)">
      <g id="Grupo_1225980" data-name="Grupo 1225980">
        <g id="Grupo_1222970" data-name="Grupo 1222970">
          <g id="Grupo_1222589" data-name="Grupo 1222589">
            <g id="Grupo_1203109" data-name="Grupo 1203109">
              <g id="Grupo_1176881" data-name="Grupo 1176881">
                <g id="Grupo_1175148" data-name="Grupo 1175148">
                  <g id="Grupo_1173798" data-name="Grupo 1173798">
                    <g id="Grupo_1171925" data-name="Grupo 1171925">
                      <g id="Grupo_1164524" data-name="Grupo 1164524">
                        <g id="Grupo_1144123" data-name="Grupo 1144123">
                          <g transform="matrix(1, 0, 0, 1, -9, -6)" filter="url(#Trazado_978624)">
                            <g id="Trazado_978624-2" data-name="Trazado 978624" transform="translate(9 6)" fill="#f2f4f0">
                              <path d="M 42.5 83.5 C 36.96437835693359 83.5 31.59512901306152 82.41617584228516 26.54141235351562 80.27863311767578 C 21.65934181213379 78.21369171142578 17.27447128295898 75.25723266601562 13.50862312316895 71.49137878417969 C 9.742764472961426 67.72553253173828 6.786305904388428 63.34066009521484 4.721364498138428 58.45858764648438 C 2.583823442459106 53.40486907958984 1.5 48.03562164306641 1.5 42.5 C 1.5 36.96437835693359 2.583823442459106 31.59512901306152 4.721364498138428 26.54141235351562 C 6.786305904388428 21.65934181213379 9.742764472961426 17.27447128295898 13.50862312316895 13.50862312316895 C 17.27447128295898 9.742764472961426 21.65934181213379 6.786305904388428 26.54141235351562 4.721364498138428 C 31.59512901306152 2.583823442459106 36.96437835693359 1.5 42.5 1.5 C 48.03562164306641 1.5 53.40486907958984 2.583823442459106 58.45858764648438 4.721364498138428 C 63.34066009521484 6.786305904388428 67.72553253173828 9.742764472961426 71.49137878417969 13.50862312316895 C 75.25723266601562 17.27447128295898 78.21369171142578 21.65934181213379 80.27863311767578 26.54141235351562 C 82.41617584228516 31.59512901306152 83.5 36.96437835693359 83.5 42.5 C 83.5 48.03562164306641 82.41617584228516 53.40486907958984 80.27863311767578 58.45858764648438 C 78.21369171142578 63.34066009521484 75.25723266601562 67.72553253173828 71.49137878417969 71.49137878417969 C 67.72553253173828 75.25723266601562 63.34066009521484 78.21369171142578 58.45858764648438 80.27863311767578 C 53.40486907958984 82.41617584228516 48.03562164306641 83.5 42.5 83.5 Z" stroke="none"/>
                              <path d="M 42.5 3 C 37.16621398925781 3 31.99356079101562 4.043960571289062 27.125732421875 6.102882385253906 C 22.42246627807617 8.092185974121094 18.19785308837891 10.94070434570312 14.56928253173828 14.56928253173828 C 10.94070434570312 18.19785308837891 8.092185974121094 22.42246627807617 6.102882385253906 27.125732421875 C 4.043960571289062 31.99356079101562 3 37.16621398925781 3 42.5 C 3 47.83378601074219 4.043960571289062 53.00643920898438 6.102882385253906 57.87425231933594 C 8.092185974121094 62.57753372192383 10.94070434570312 66.80213165283203 14.56928253173828 70.43071746826172 C 18.19786834716797 74.05929565429688 22.42246627807617 76.90781402587891 27.125732421875 78.89711761474609 C 31.99356079101562 80.95603942871094 37.16621398925781 82 42.5 82 C 47.83378601074219 82 53.00642395019531 80.95603942871094 57.87425231933594 78.89711761474609 C 62.57753372192383 76.90781402587891 66.80213165283203 74.05929565429688 70.43071746826172 70.43071746826172 C 74.05929565429688 66.80213165283203 76.90781402587891 62.57753372192383 78.89711761474609 57.87425231933594 C 80.95603942871094 53.00642395019531 82 47.83378601074219 82 42.5 C 82 37.16621398925781 80.95603942871094 31.99356079101562 78.89711761474609 27.125732421875 C 76.90781402587891 22.42246627807617 74.05929565429688 18.19786834716797 70.43071746826172 14.56928253173828 C 66.80213165283203 10.94070434570312 62.57753372192383 8.092185974121094 57.87425231933594 6.102882385253906 C 53.00643920898438 4.043960571289062 47.83378601074219 3 42.5 3 M 42.5 0 C 65.97209167480469 0 85 19.02789306640625 85 42.5 C 85 65.97209167480469 65.97209167480469 85 42.5 85 C 19.02789306640625 85 0 65.97209167480469 0 42.5 C 0 19.02789306640625 19.02789306640625 0 42.5 0 Z" stroke="none" fill="#4a5641"/>
                            </g>
                          </g>
                        </g>
                      </g>
                    </g>
                  </g>
                </g>
              </g>
            </g>
          </g>
        </g>
      </g>
    </g>
    <g id="educacion-ambiental_1_" data-name="educacion-ambiental (1)" transform="translate(194.301 3628.19)">
      <g id="Grupo_1228945" data-name="Grupo 1228945" transform="translate(0.995 1.095)">
        <circle id="Elipse_14723" data-name="Elipse 14723" cx="20.369" cy="20.369" r="20.369" transform="translate(6.936 0)" fill="#b6e6fa"/>
        <path id="Trazado_1191161" data-name="Trazado 1191161" d="M74.792,28.137A20.369,20.369,0,0,1,93.784,7.815c-.455-.03-.914-.047-1.376-.047a20.369,20.369,0,0,0,0,40.737c.463,0,.921-.017,1.376-.047A20.369,20.369,0,0,1,74.792,28.137Z" transform="translate(-65.103 -7.768)" fill="#54c9f3"/>
        <g id="Grupo_1228943" data-name="Grupo 1228943" transform="translate(6.936 0)">
          <path id="Trazado_1191162" data-name="Trazado 1191162" d="M228.384,13.09l2.508,5.161h4.2l3.56-3.551a20.4,20.4,0,0,0-19.474-6.5l4.168,4.894Z" transform="translate(-202.979 -7.768)" fill="#b6efbb"/>
          <path id="Trazado_1191163" data-name="Trazado 1191163" d="M78.14,83.766,83.5,79.6l-1.538-5.223H76.757A20.408,20.408,0,0,0,72.557,92l5.583-3.789Z" transform="translate(-72.039 -67.043)" fill="#b6efbb"/>
          <path id="Trazado_1191164" data-name="Trazado 1191164" d="M388.345,129.612l-5.274,1.992v2.385l2.553,2.576-1.123,4.223,3.674,3.182a20.443,20.443,0,0,0,.17-14.359Z" transform="translate(-348.826 -116.197)" fill="#b6efbb"/>
        </g>
        <path id="Trazado_1191165" data-name="Trazado 1191165" d="M63.448,414.333l-.921-3.855-26.183,6.275L9.959,410.478l-.92,3.855L36.344,420.8Z" transform="translate(-9.039 -366.139)" fill="#ffaa81"/>
        <path id="Trazado_1191166" data-name="Trazado 1191166" d="M70.185,378.967a7.261,7.261,0,0,0-5.606-6.974l-16.462-3.93-1.051,5.409,23.118,5.5,23.109-5.542-1.051-5.409-16.654,3.976A7.081,7.081,0,0,0,70.185,378.967Z" transform="translate(-42.88 -328.353)" fill="#fff"/>
        <g id="Grupo_1228944" data-name="Grupo 1228944" transform="translate(21.8 16.097)">
          <path id="Trazado_1191167" data-name="Trazado 1191167" d="M212.543,157.809a4.5,4.5,0,0,1,1.116-2.721c1.487-1.489,4.331-1.058,4.331-1.058s.431,2.843-1.058,4.331-4.39,1.058-4.39,1.058-2.9.431-4.389-1.058-1.058-4.331-1.058-4.331,2.843-.43,4.331,1.058a4.486,4.486,0,0,1,1.115,2.721" transform="translate(-207.039 -153.973)" fill="#feef8f"/>
        </g>
        <path id="Trazado_1191168" data-name="Trazado 1191168" d="M172.7,221.1s-6.142-.93-9.356,2.285a9.382,9.382,0,0,0-2.333,5.879,10.043,10.043,0,0,0-2.487-5.879c-3.215-3.215-9.356-2.285-9.356-2.285s-.93,6.142,2.285,9.356,9.634,2.285,9.634,2.285,6.113.93,9.328-2.285S172.7,221.1,172.7,221.1Z" transform="translate(-133.624 -197.498)" fill="#feef8f"/>
        <path id="Trazado_1191169" data-name="Trazado 1191169" d="M74.792,87.412a20.285,20.285,0,0,1,4.718-13.035H76.757A20.408,20.408,0,0,0,72.557,92L75,90.337A20.535,20.535,0,0,1,74.792,87.412Z" transform="translate(-65.103 -67.043)" fill="#54e072"/>
        <path id="Trazado_1191170" data-name="Trazado 1191170" d="M154.2,230.457c-3.215-3.215-2.285-9.356-2.285-9.356s.238-.036.644-.069a16.279,16.279,0,0,0-3.4.069s-.93,6.142,2.285,9.356c2.556,2.556,7.138,2.492,8.908,2.358A9.759,9.759,0,0,1,154.2,230.457Z" transform="translate(-133.625 -197.502)" fill="#f7d700"/>
        <path id="Trazado_1191171" data-name="Trazado 1191171" d="M260.564,232.738l-.077-3.478a9.381,9.381,0,0,1,2.333-5.879,9.5,9.5,0,0,1,5.96-2.354c-1.658-.136-6.13-.229-8.713,2.354a9.382,9.382,0,0,0-2.333,5.879l.077,3.478a16.136,16.136,0,0,0,3.388.069c-.4-.033-.635-.069-.635-.069Z" transform="translate(-230.353 -197.498)" fill="#f7d700"/>
        <path id="Trazado_1191172" data-name="Trazado 1191172" d="M50.774,369.069l-2.656-.634-1.05,5.409,2.856.679Z" transform="translate(-42.881 -328.725)" fill="#dededf"/>
        <path id="Trazado_1191173" data-name="Trazado 1191173" d="M12.835,411.162l-2.876-.684-.92,3.855,2.884.683Z" transform="translate(-9.039 -366.139)" fill="#fe7732"/>
      </g>
      <g id="Grupo_1228946" data-name="Grupo 1228946" transform="translate(25.823 11.641)">
        <path id="Trazado_1191174" data-name="Trazado 1191174" d="M234.539,103.555h1.652v1.652h-1.652Z" transform="translate(-234.539 -103.555)"/>
        <path id="Trazado_1191175" data-name="Trazado 1191175" d="M264.539,103.555h1.651v1.652h-1.651Z" transform="translate(-261.236 -103.555)"/>
      </g>
      <g id="Grupo_1228947" data-name="Grupo 1228947" transform="translate(0 0.269)">
        <path id="Trazado_1191176" data-name="Trazado 1191176" d="M55.095,44.438l-3.039.728-1.051-5.411L33.513,43.932a7.784,7.784,0,0,0-4.387,2.854V42.64a21.194,21.194,0,1,0-1.652,0v4.284a8.193,8.193,0,0,0-4.589-2.993l-10.481-2.5-.383,1.606,10.48,2.5a6.507,6.507,0,0,1,4.876,5.1L6.144,45.591l.735-3.782,3.533.844.384-1.606L5.586,39.8l-1.05,5.407L1.3,44.439,0,49.9l28.3,6.707,21.045-5.024-.383-1.606L29.126,54.714V52.36l24.746-5.931.537,2.249-3.839.917.384,1.606L56.4,49.9ZM27.475,54.716,1.991,48.677l.537-2.249,24.947,5.934ZM47.843,21.463A19.468,19.468,0,0,1,46.9,27.45L44.537,25.4l1.112-4.182L43,18.547V17.073l3.937-1.487a19.475,19.475,0,0,1,.9,5.878ZM28.3,1.92A19.49,19.49,0,0,1,42.458,8L39.7,10.751H36.362L33.854,5.591H28.682L25.7,2.093a19.628,19.628,0,0,1,2.6-.173ZM8.757,21.463a19.448,19.448,0,0,1,4.3-12.209h4.185l1.2,4.09-5.236,4.069V21.82L9.02,24.661a19.6,19.6,0,0,1-.263-3.2Zm18.717,12.8L18.432,25.4c1.935-.015,5,.3,6.875,2.165a8.88,8.88,0,0,1,2.168,4.824v1.876Zm-.963,1.369c-2.017.019-5.227-.284-7.108-2.165s-2.185-4.994-2.164-6.925Zm.963-13.759A4.33,4.33,0,0,1,24.495,21a4.291,4.291,0,0,1-.874-2.98,4.293,4.293,0,0,1,2.98.874,3.707,3.707,0,0,1,.874,2.188Zm1.358-4.148a4,4,0,0,0-.534.664,3.933,3.933,0,0,0-.53-.664c-1.763-1.763-4.906-1.311-5.039-1.29l-.6.091-.091.6c-.02.133-.473,3.276,1.29,5.039a5.836,5.836,0,0,0,4.148,1.356v4.108a7.836,7.836,0,0,0-1-1.234c-3.47-3.47-9.8-2.558-10.064-2.518l-.6.091-.091.6c-.041.268-.952,6.594,2.518,10.064C20.9,37.3,25.4,37.378,27.474,37.255v3.733A19.582,19.582,0,0,1,9.391,26.406l5.467-3.71V18.222l5.486-4.264L18.472,7.6H14.537a19.535,19.535,0,0,1,9.29-5.165l4.092,4.8h4.9L35.329,12.4h5.059l3.159-3.151a19.561,19.561,0,0,1,2.829,4.782l-5.024,1.9v3.3l2.459,2.481-1.134,4.264L46.288,29.1A19.578,19.578,0,0,1,29.126,40.988V37.237c1.848.144,6.454.182,9.239-2.6,3.47-3.47,2.558-9.8,2.518-10.064l-.091-.6-.6-.091c-.268-.041-6.594-.952-10.064,2.518a7.331,7.331,0,0,0-1,1.257V23.521a5.839,5.839,0,0,0,4.147-1.356c1.763-1.763,1.311-4.906,1.291-5.039l-.091-.6-.6-.091c-.133-.02-3.277-.473-5.039,1.29Zm.294,16.768V33.8l.074-.875a8.687,8.687,0,0,1,2.094-5.364c1.879-1.879,4.97-2.183,6.9-2.165Zm10.239-7.925c.019,1.931-.284,5.016-2.167,6.9s-4.95,2.181-6.875,2.164ZM29.126,21.872v-.8A3.709,3.709,0,0,1,30,18.892a4.29,4.29,0,0,1,2.979-.874A4.29,4.29,0,0,1,32.106,21a4.329,4.329,0,0,1-2.98.874Zm.087,28.77a6.235,6.235,0,0,1,4.683-5.1l15.816-3.776.736,3.79Z" transform="translate(0 -0.269)"/>
      </g>
    </g>
  </g>
</svg>
