<svg xmlns="http://www.w3.org/2000/svg" xmlns:xlink="http://www.w3.org/1999/xlink" width="93.934" height="93.934" viewBox="0 0 93.934 93.934">
  <defs>
    <filter id="Trazado_978624" x="0" y="0" width="93.934" height="93.934" filterUnits="userSpaceOnUse">
      <feOffset dy="3" input="SourceAlpha"/>
      <feGaussianBlur stdDeviation="3" result="blur"/>
      <feFlood flood-opacity="0.161"/>
      <feComposite operator="in" in2="blur"/>
      <feComposite in="SourceGraphic"/>
    </filter>
  </defs>
  <g id="Grupo_1228961" data-name="Grupo 1228961" transform="translate(-190 -3983.22)">
    <g id="Grupo_1226961" data-name="Grupo 1226961" transform="translate(0 -11.918)">
      <g id="Grupo_1225961" data-name="Grupo 1225961" transform="translate(0 2131.139)">
        <g id="Grupo_1224945" data-name="Grupo 1224945" transform="translate(0.001 -1279.381)">
          <g id="Grupo_1214679" data-name="Grupo 1214679" transform="translate(-631 2418.347)">
            <g id="Grupo_1212848" data-name="Grupo 1212848" transform="translate(212 -798.5)">
              <g id="Grupo_1210963" data-name="Grupo 1210963" transform="translate(0 -377.186)">
                <g id="Grupo_1208068" data-name="Grupo 1208068" transform="translate(412 470.719)">
                  <g id="Grupo_1144123" data-name="Grupo 1144123" transform="translate(206 1436)">
                    <g transform="matrix(1, 0, 0, 1, -9, -6)" filter="url(#Trazado_978624)">
                      <g id="Trazado_978624-2" data-name="Trazado 978624" transform="translate(9 6)" fill="#e7f2f8">
                        <path d="M 37.966796875 74.43359375 C 33.04315185546875 74.43359375 28.26757431030273 73.46962738037109 23.77274131774902 71.56847381591797 C 19.43047523498535 69.73184967041016 15.53040790557861 67.10224914550781 12.18087482452393 63.75271987915039 C 8.831341743469238 60.4031867980957 6.201741218566895 56.50312042236328 4.365118980407715 52.16086196899414 C 2.463963508605957 47.66601943969727 1.499996900558472 42.89044189453125 1.499996900558472 37.966796875 C 1.499996900558472 33.04315185546875 2.463963508605957 28.26757431030273 4.365118980407715 23.77274131774902 C 6.201741218566895 19.43047523498535 8.831341743469238 15.53040790557861 12.18087482452393 12.18087482452393 C 15.53040790557861 8.831341743469238 19.43047523498535 6.201741218566895 23.77274131774902 4.365118980407715 C 28.26757431030273 2.463963508605957 33.04315185546875 1.499996900558472 37.966796875 1.499996900558472 C 42.89044189453125 1.499996900558472 47.66601943969727 2.463963508605957 52.16086196899414 4.365118980407715 C 56.50312042236328 6.201741218566895 60.4031867980957 8.831341743469238 63.75271987915039 12.18087482452393 C 67.10224914550781 15.53040790557861 69.73184967041016 19.43047523498535 71.56847381591797 23.77274131774902 C 73.46962738037109 28.26757431030273 74.43359375 33.04315185546875 74.43359375 37.966796875 C 74.43359375 42.89044189453125 73.46962738037109 47.66601943969727 71.56847381591797 52.16086196899414 C 69.73184967041016 56.50313186645508 67.10224914550781 60.4031867980957 63.75271987915039 63.75271987915039 C 60.4031867980957 67.10224914550781 56.50313186645508 69.73184967041016 52.16086196899414 71.56847381591797 C 47.66601943969727 73.46962738037109 42.89044189453125 74.43359375 37.966796875 74.43359375 Z" stroke="none"/>
                        <path d="M 37.966796875 3 C 33.2449836730957 3 28.66600799560547 3.924095153808594 24.35705947875977 5.746635437011719 C 20.19359588623047 7.507621765136719 16.45379638671875 10.02927398681641 13.24153518676758 13.24153518676758 C 10.02927398681641 16.45379638671875 7.507621765136719 20.19359588623047 5.746635437011719 24.35705947875977 C 3.924095153808594 28.66600799560547 3 33.2449836730957 3 37.966796875 C 3 42.6886100769043 3.924095153808594 47.26758575439453 5.746635437011719 51.57653427124023 C 7.507621765136719 55.73999786376953 10.02927398681641 59.47979736328125 13.24153518676758 62.69205856323242 C 16.45379638671875 65.90431976318359 20.19359588623047 68.42597198486328 24.35705947875977 70.18695831298828 C 28.66600799560547 72.00949859619141 33.2449836730957 72.93359375 37.966796875 72.93359375 C 42.6886100769043 72.93359375 47.26758575439453 72.00949859619141 51.57653427124023 70.18695831298828 C 55.73999786376953 68.42597198486328 59.47979736328125 65.90431976318359 62.69205856323242 62.69205856323242 C 65.90431976318359 59.47979736328125 68.42597198486328 55.73999786376953 70.18695831298828 51.57653427124023 C 72.00949859619141 47.26758575439453 72.93359375 42.6886100769043 72.93359375 37.966796875 C 72.93359375 33.2449836730957 72.00949859619141 28.66600799560547 70.18695831298828 24.35705947875977 C 68.42597198486328 20.19359588623047 65.90431976318359 16.45379638671875 62.69205856323242 13.24153518676758 C 59.47979736328125 10.02927398681641 55.73999786376953 7.507621765136719 51.57653427124023 5.746635437011719 C 47.26758575439453 3.924095153808594 42.6886100769043 3 37.966796875 3 M 37.966796875 0 C 58.93528366088867 0 75.93359375 16.99831008911133 75.93359375 37.966796875 C 75.93359375 58.93528366088867 58.93528366088867 75.93359375 37.966796875 75.93359375 C 16.99831008911133 75.93359375 0 58.93528366088867 0 37.966796875 C 0 16.99831008911133 16.99831008911133 0 37.966796875 0 Z" stroke="none" fill="#248abf"/>
                      </g>
                    </g>
                  </g>
                </g>
              </g>
            </g>
          </g>
        </g>
      </g>
    </g>
    <g id="educacion-sexual" transform="translate(165.102 4003.5)">
      <g id="Grupo_1228949" data-name="Grupo 1228949" transform="translate(53.784 0.694)">
        <path id="Trazado_1191177" data-name="Trazado 1191177" d="M66.47,50.567H60.59V11.325A3.825,3.825,0,0,1,64.415,7.5H66.47V50.567Z" transform="translate(-60.59 -7.5)" fill="#c4e2ff"/>
      </g>
      <g id="Grupo_1228950" data-name="Grupo 1228950" transform="translate(57.816 0.694)">
        <path id="Trazado_1191178" data-name="Trazado 1191178" d="M104.173,7.505h1.848V50.572h-1.848Z" transform="translate(-104.173 -7.505)" fill="#b3dafe"/>
      </g>
      <g id="Grupo_1228951" data-name="Grupo 1228951" transform="translate(59.664 0.694)">
        <path id="Trazado_1191179" data-name="Trazado 1191179" d="M154.432,47.649H124.149V7.5h29.763a.52.52,0,0,1,.52.52Z" transform="translate(-124.149 -7.5)" fill="#eaf6ff"/>
      </g>
      <g id="Grupo_1228952" data-name="Grupo 1228952" transform="translate(87.567 0.694)">
        <path id="Trazado_1191180" data-name="Trazado 1191180" d="M428.156,8.023V47.653H426.3V8.023a.52.52,0,0,0-.52-.519h1.86a.52.52,0,0,1,.52.519Z" transform="translate(-425.776 -7.504)" fill="#d8ecfe"/>
      </g>
      <g id="Grupo_1228955" data-name="Grupo 1228955" transform="translate(63.226 4.654)">
        <g id="Grupo_1228953" data-name="Grupo 1228953" transform="translate(0)">
          <path id="Trazado_1191181" data-name="Trazado 1191181" d="M184.12,50.746l-.011-.011a1.462,1.462,0,0,0-1.387-.386c-.164.041-.328.084-.495.115l-5.223.98a1.465,1.465,0,1,0,.54,2.881l1.111-.208-2.626,2.626a8.48,8.48,0,1,0,2.073,2.072l2.889-2.889-.268,1.78a1.466,1.466,0,0,0,2.9.436l.921-6.131a1.466,1.466,0,0,0-.424-1.264Zm-9.039,16.881a5.56,5.56,0,1,1,0-7.863A5.525,5.525,0,0,1,175.082,67.627Z" transform="translate(-162.658 -50.306)" fill="#8ac9fe"/>
        </g>
        <g id="Grupo_1228954" data-name="Grupo 1228954" transform="translate(2.241 0.004)">
          <path id="Trazado_1191182" data-name="Trazado 1191182" d="M206.106,50.782l-.011-.011a1.453,1.453,0,0,0-.93-.425,1.457,1.457,0,0,1,.014.51l-.921,6.131a1.467,1.467,0,0,1-1.448,1.247l-.091,0a1.466,1.466,0,0,0,2.89-.054l.921-6.131A1.466,1.466,0,0,0,206.106,50.782Zm-6.018,8.069,1.415-1.415,1.475-1.474.2-1.591a.451.451,0,0,0-.769-.374l-3.837,3.893a.735.735,0,0,0-.075.942,6.5,6.5,0,0,1,1.613,3.877,7.9,7.9,0,0,1-2.323,5.836,8.495,8.495,0,0,1-10.9.934c.079.087.162.173.245.257a8.494,8.494,0,0,0,12.958-10.884Z" transform="translate(-186.885 -50.346)" fill="#60b7ff"/>
        </g>
      </g>
      <g id="Grupo_1228956" data-name="Grupo 1228956" transform="translate(64.507 15.002)">
        <path id="Trazado_1191183" data-name="Trazado 1191183" d="M195.905,164.651a8.493,8.493,0,0,0-12.957,10.884l-1.493,1.493L180.423,176a1.466,1.466,0,0,0-2.073,2.073l1.032,1.032-2.441,2.441a1.466,1.466,0,1,0,2.073,2.073l2.441-2.441,1.032,1.032a1.466,1.466,0,1,0,2.073-2.073l-1.032-1.032,1.495-1.495a8.492,8.492,0,0,0,10.883-12.956Zm-2.073,9.936a5.56,5.56,0,1,1,0-7.864A5.567,5.567,0,0,1,193.832,174.588Z" transform="translate(-176.511 -162.164)" fill="#fd8087"/>
      </g>
      <g id="Grupo_1228957" data-name="Grupo 1228957" transform="translate(64.568 18.398)">
        <path id="Trazado_1191184" data-name="Trazado 1191184" d="M197.287,198.874a8.652,8.652,0,0,1-1.638,9.932,7.427,7.427,0,0,1-5.776,2.045,7.332,7.332,0,0,1-4.291-1.39.628.628,0,0,0-.8.066l-1.287,1.33a.628.628,0,0,0-.017.879l.641.679,1.495-1.495a8.492,8.492,0,0,0,11.671-12.047Zm-12.134,14.573-.822-.822a1.491,1.491,0,0,1-2.233,1.914l.983.982a1.466,1.466,0,0,0,2.072-2.073Zm-3.151,1-.605-.605a.628.628,0,0,0-.888,0l-2.04,2.039a1.484,1.484,0,0,1-1.054.437,1.51,1.51,0,0,1-.249-.021,1.466,1.466,0,0,0,2.446.632l2.437-2.437Z" transform="translate(-177.166 -198.874)" fill="#fe646f"/>
      </g>
      <g id="Grupo_1228958" data-name="Grupo 1228958" transform="translate(53.784 40.843)">
        <path id="Trazado_1191185" data-name="Trazado 1191185" d="M96.753,441.5H63.508a2.918,2.918,0,1,0,0,5.837H96.233a.52.52,0,0,0,.52-.52Z" transform="translate(-60.59 -441.503)" fill="#f9f3f1"/>
      </g>
      <g id="Grupo_1228959" data-name="Grupo 1228959" transform="translate(87.567 40.843)">
        <path id="Trazado_1191186" data-name="Trazado 1191186" d="M428.156,441.5v5.317a.52.52,0,0,1-.52.519h-1.86a.52.52,0,0,0,.52-.519V441.5Z" transform="translate(-425.776 -441.501)" fill="#f3eae6"/>
      </g>
      <g id="Grupo_1228960" data-name="Grupo 1228960" transform="translate(53.09)">
        <path id="Trazado_1191187" data-name="Trazado 1191187" d="M255.474,188.186a6.254,6.254,0,1,0,4.422-1.832A6.213,6.213,0,0,0,255.474,188.186Zm.981.981a4.84,4.84,0,0,1,2.061-1.227,4.857,4.857,0,0,1-3.423,3.886A4.829,4.829,0,0,1,256.455,189.167Zm6.882,0a4.867,4.867,0,1,1-6.882,6.882c-.031-.031-.059-.062-.089-.094a9.194,9.194,0,0,0,6.409-7.272,4.923,4.923,0,0,1,.563.484ZM261.467,188a7.793,7.793,0,0,1-5.945,6.743,4.818,4.818,0,0,1-.448-1.481,6.209,6.209,0,0,0,3.065-1.683h0a6.226,6.226,0,0,0,1.8-3.837A4.867,4.867,0,0,1,261.467,188Z" transform="translate(-235.089 -169.115)"/>
        <path id="Trazado_1191188" data-name="Trazado 1191188" d="M161.994,65.773a9.068,9.068,0,0,0,.682,1.355l-.6.6-.541-.541a2.16,2.16,0,0,0-3.054,3.054l.541.541-1.951,1.951a2.16,2.16,0,0,0,3.054,3.054l1.951-1.951.541.541a2.16,2.16,0,1,0,3.054-3.054l-.541-.541.605-.605a9.187,9.187,0,1,0,7.131-16.726,9.037,9.037,0,0,0-.68-1.354l1.021-1.021a2.16,2.16,0,0,0,1.839,2.174,2.158,2.158,0,0,0,2.457-1.815l.921-6.131a2.165,2.165,0,0,0-.615-1.854l-.015-.016a2.162,2.162,0,0,0-2.122-.549l-.451.1-5.151.966a2.16,2.16,0,0,0-.077,4.229l-.862.862a9.188,9.188,0,1,0-7.134,16.727Zm-.535-4.962a4.938,4.938,0,0,1-.561-.482,4.867,4.867,0,0,1,6.882-6.882c.03.03.059.062.088.092a9.206,9.206,0,0,0-6.409,7.271Zm14.573-3.986a7.8,7.8,0,0,1-9.994,11.9.694.694,0,0,0-.889.077l-1.495,1.495a.694.694,0,0,0,0,.981l1.032,1.032a.772.772,0,1,1-1.092,1.092l-1.032-1.032a.694.694,0,0,0-.981,0l-2.441,2.441a.772.772,0,0,1-1.092-1.092l2.441-2.441a.694.694,0,0,0,0-.981l-1.032-1.032a.772.772,0,0,1,1.092-1.092l1.032,1.032a.694.694,0,0,0,.981,0l1.493-1.493a.694.694,0,0,0,.076-.89,7.8,7.8,0,0,1,11.9-9.994Zm-17.208-5.451a7.8,7.8,0,0,1,9.994-.871.694.694,0,0,0,.89-.076l2.626-2.626a.694.694,0,0,0-.619-1.173l-1.111.208a.772.772,0,1,1-.285-1.518s5.682-1.082,5.724-1.094a.774.774,0,0,1,.758.19l.01.01.011.011a.774.774,0,0,1,.223.666l-.921,6.131a.77.77,0,0,1-.878.649A.772.772,0,0,1,174.6,51l.263-1.753a.718.718,0,0,0-.286-.7.694.694,0,0,0-.887.079L170.8,51.519a.694.694,0,0,0-.076.89,7.686,7.686,0,0,1,.477.769q-.339-.025-.683-.025a9.34,9.34,0,0,0-1.116.067,6.254,6.254,0,1,0-8.069,9.152,9.281,9.281,0,0,0,.179,1.786,7.8,7.8,0,0,1-2.687-12.783Z" transform="translate(-145.711 -38.846)"/>
        <path id="Trazado_1191189" data-name="Trazado 1191189" d="M89.427,0H57.608A4.523,4.523,0,0,0,53.09,4.518V9.972a.694.694,0,0,0,1.388,0V4.518a3.134,3.134,0,0,1,3.131-3.131H58.97V40.149H56.7a3.594,3.594,0,0,0-2.224.769V13.149a.694.694,0,0,0-1.388,0V43.761A3.616,3.616,0,0,0,56.7,47.373H80.167a.694.694,0,1,0,0-1.388H56.7a2.225,2.225,0,0,1,0-4.449H89.253v1.531H57.992a.694.694,0,1,0,0,1.388H89.253v1.531H83.4a.694.694,0,1,0,0,1.388h6.03a1.216,1.216,0,0,0,1.214-1.214V1.214A1.216,1.216,0,0,0,89.427,0Zm-.174,40.149h-28.9V1.388h28.9V40.149Z" transform="translate(-53.09)"/>
      </g>
    </g>
  </g>
</svg>
