<svg xmlns="http://www.w3.org/2000/svg" xmlns:xlink="http://www.w3.org/1999/xlink" width="103" height="103" viewBox="0 0 103 103">
  <defs>
    <filter id="Trazado_978624" x="0" y="0" width="103" height="103" filterUnits="userSpaceOnUse">
      <feOffset dy="3" input="SourceAlpha"/>
      <feGaussianBlur stdDeviation="3" result="blur"/>
      <feFlood flood-opacity="0.161"/>
      <feComposite operator="in" in2="blur"/>
      <feComposite in="SourceGraphic"/>
    </filter>
  </defs>
  <g id="Grupo_1228984" data-name="Grupo 1228984" transform="translate(-195 -1955.906)">
    <g id="Grupo_1226969" data-name="Grupo 1226969" transform="translate(0 -1091.094)">
      <g id="Grupo_1226078" data-name="Grupo 1226078" transform="translate(4 -5248.644)">
        <g id="Grupo_1224953" data-name="Grupo 1224953" transform="translate(20 7462.644)">
          <g id="Grupo_1222589" data-name="Grupo 1222589">
            <g id="Grupo_1203109" data-name="Grupo 1203109" transform="translate(180 839)">
              <g id="Grupo_1176881" data-name="Grupo 1176881">
                <g id="Grupo_1175148" data-name="Grupo 1175148">
                  <g id="Grupo_1173798" data-name="Grupo 1173798">
                    <g id="Grupo_1171925" data-name="Grupo 1171925">
                      <g id="Grupo_1164524" data-name="Grupo 1164524">
                        <g id="Grupo_1144123" data-name="Grupo 1144123">
                          <g transform="matrix(1, 0, 0, 1, -9, -6)" filter="url(#Trazado_978624)">
                            <g id="Trazado_978624-2" data-name="Trazado 978624" transform="translate(9 6)" fill="#f2f4f0">
                              <path d="M 42.5 83.5 C 36.96437835693359 83.5 31.59512901306152 82.41617584228516 26.54141235351562 80.27863311767578 C 21.65934181213379 78.21369171142578 17.27447128295898 75.25723266601562 13.50862312316895 71.49137878417969 C 9.742764472961426 67.72553253173828 6.786305904388428 63.34066009521484 4.721364498138428 58.45858764648438 C 2.583823442459106 53.40486907958984 1.5 48.03562164306641 1.5 42.5 C 1.5 36.96437835693359 2.583823442459106 31.59512901306152 4.721364498138428 26.54141235351562 C 6.786305904388428 21.65934181213379 9.742764472961426 17.27447128295898 13.50862312316895 13.50862312316895 C 17.27447128295898 9.742764472961426 21.65934181213379 6.786305904388428 26.54141235351562 4.721364498138428 C 31.59512901306152 2.583823442459106 36.96437835693359 1.5 42.5 1.5 C 48.03562164306641 1.5 53.40486907958984 2.583823442459106 58.45858764648438 4.721364498138428 C 63.34066009521484 6.786305904388428 67.72553253173828 9.742764472961426 71.49137878417969 13.50862312316895 C 75.25723266601562 17.27447128295898 78.21369171142578 21.65934181213379 80.27863311767578 26.54141235351562 C 82.41617584228516 31.59512901306152 83.5 36.96437835693359 83.5 42.5 C 83.5 48.03562164306641 82.41617584228516 53.40486907958984 80.27863311767578 58.45858764648438 C 78.21369171142578 63.34066009521484 75.25723266601562 67.72553253173828 71.49137878417969 71.49137878417969 C 67.72553253173828 75.25723266601562 63.34066009521484 78.21369171142578 58.45858764648438 80.27863311767578 C 53.40486907958984 82.41617584228516 48.03562164306641 83.5 42.5 83.5 Z" stroke="none"/>
                              <path d="M 42.5 3 C 37.16621398925781 3 31.99356079101562 4.043960571289062 27.125732421875 6.102882385253906 C 22.42246627807617 8.092185974121094 18.19785308837891 10.94070434570312 14.56928253173828 14.56928253173828 C 10.94070434570312 18.19785308837891 8.092185974121094 22.42246627807617 6.102882385253906 27.125732421875 C 4.043960571289062 31.99356079101562 3 37.16621398925781 3 42.5 C 3 47.83378601074219 4.043960571289062 53.00643920898438 6.102882385253906 57.87425231933594 C 8.092185974121094 62.57753372192383 10.94070434570312 66.80213165283203 14.56928253173828 70.43071746826172 C 18.19786834716797 74.05929565429688 22.42246627807617 76.90781402587891 27.125732421875 78.89711761474609 C 31.99356079101562 80.95603942871094 37.16621398925781 82 42.5 82 C 47.83378601074219 82 53.00642395019531 80.95603942871094 57.87425231933594 78.89711761474609 C 62.57753372192383 76.90781402587891 66.80213165283203 74.05929565429688 70.43071746826172 70.43071746826172 C 74.05929565429688 66.80213165283203 76.90781402587891 62.57753372192383 78.89711761474609 57.87425231933594 C 80.95603942871094 53.00642395019531 82 47.83378601074219 82 42.5 C 82 37.16621398925781 80.95603942871094 31.99356079101562 78.89711761474609 27.125732421875 C 76.90781402587891 22.42246627807617 74.05929565429688 18.19786834716797 70.43071746826172 14.56928253173828 C 66.80213165283203 10.94070434570312 62.57753372192383 8.092185974121094 57.87425231933594 6.102882385253906 C 53.00643920898438 4.043960571289062 47.83378601074219 3 42.5 3 M 42.5 0 C 65.97209167480469 0 85 19.02789306640625 85 42.5 C 85 65.97209167480469 65.97209167480469 85 42.5 85 C 19.02789306640625 85 0 65.97209167480469 0 42.5 C 0 19.02789306640625 19.02789306640625 0 42.5 0 Z" stroke="none" fill="#4a5641"/>
                            </g>
                          </g>
                        </g>
                      </g>
                    </g>
                  </g>
                </g>
              </g>
            </g>
          </g>
        </g>
      </g>
    </g>
    <g id="international-childrens-day" transform="translate(218.45 1974)">
      <g id="Grupo_1228982" data-name="Grupo 1228982" transform="translate(0.822 0.822)">
        <g id="Grupo_1228971" data-name="Grupo 1228971" transform="translate(10.683 12.217)">
          <path id="Trazado_1191271" data-name="Trazado 1191271" d="M181.339,133.5l-8.759-10.417a16.374,16.374,0,0,0-4-1.329l-.01,0-14.3,5.239v23.184l14.3,4.064a16.417,16.417,0,0,0,3.913-1.281l9.443-16.086A16.469,16.469,0,0,0,181.339,133.5Z" transform="translate(-148.871 -121.447)" fill="#b9f0ff"/>
          <path id="Trazado_1191272" data-name="Trazado 1191272" d="M121.546,270.3a16.634,16.634,0,0,0,3.151-.3,18.319,18.319,0,0,1-9.731-18.243l-9.961,1.6a16.775,16.775,0,0,0,.057,1.807A16.547,16.547,0,0,0,121.546,270.3Z" transform="translate(-105.001 -237.209)" fill="#7ce3ff"/>
          <path id="Trazado_1191273" data-name="Trazado 1191273" d="M321.394,133.891s0,2.138.01,2.43a2.244,2.244,0,0,0,.671,1.856l.927.779a1.726,1.726,0,0,1-.22,2.852,1.32,1.32,0,0,0,.606,2.5h6.765A16.575,16.575,0,0,0,321.394,133.891Z" transform="translate(-297.684 -132.259)" fill="#70dcba"/>
          <path id="Trazado_1191274" data-name="Trazado 1191274" d="M197.841,135.652l1.069.468a1.8,1.8,0,0,1,.892.894,1.306,1.306,0,0,0,1.245.747,1.356,1.356,0,0,0,1.243-1.342v-3.246a8.672,8.672,0,0,1,1.7-5.155,8.673,8.673,0,0,0,1.7-5.156V121.75l-.01,0-9.73,3.566v10.679A1.728,1.728,0,0,1,197.841,135.652Z" transform="translate(-185.982 -121.447)" fill="#70dcba"/>
          <path id="Trazado_1191275" data-name="Trazado 1191275" d="M121.545,119l-.237,0a16.542,16.542,0,0,0-11.533,28.167l3.007-4.217a2.435,2.435,0,0,0-.375-3.76l-.025-.016c-1.07-.693-.855-2.2.037-3.086l2.524-2.524.018-.017,0,0A18.332,18.332,0,0,1,124.7,119.3a16.621,16.621,0,0,0-3.151-.3Z" transform="translate(-105.001 -119)" fill="#18c08b"/>
          <path id="Trazado_1191276" data-name="Trazado 1191276" d="M297.63,259.756h-9.123a4.3,4.3,0,0,0-4.3,4.293v1.684a5.472,5.472,0,0,0,1.6,3.869,5.482,5.482,0,0,1,1.6,3.917,4.03,4.03,0,0,0,.767,2.322,16.544,16.544,0,0,0,9.481-14.963C297.661,260.5,297.649,260.127,297.63,259.756Z" transform="translate(-264.571 -244.333)" fill="#70dcba"/>
        </g>
        <g id="Grupo_1228974" data-name="Grupo 1228974" transform="translate(0 33.419)">
          <g id="Grupo_1228972" data-name="Grupo 1228972" transform="translate(0)">
            <path id="Trazado_1191277" data-name="Trazado 1191277" d="M18.019,312.5,7.5,323.017l4.714,6.446a9.531,9.531,0,0,0,7.693,3.9,10.51,10.51,0,0,0,8.631-10.349Z" transform="translate(-7.5 -312.5)" fill="#ffddcf"/>
            <path id="Trazado_1191278" data-name="Trazado 1191278" d="M10.987,397.469l-1.741-1.358L7.5,397.467a10.525,10.525,0,0,0,12.407,10.35,10.623,10.623,0,0,1-8.92-10.349Z" transform="translate(-7.5 -386.95)" fill="#ffcbbe"/>
          </g>
          <g id="Grupo_1228973" data-name="Grupo 1228973">
            <path id="Trazado_1191279" data-name="Trazado 1191279" d="M155.164,355.821l-2.689,1.359-.83,2.418a8,8,0,0,0,5.243,1.995A10.469,10.469,0,0,0,155.164,355.821Z" transform="translate(-135.85 -351.074)" fill="#ffb357"/>
            <path id="Trazado_1191280" data-name="Trazado 1191280" d="M61.112,320.389a13.94,13.94,0,0,1-2.145,1.148,10.536,10.536,0,0,0-1.44-.925H50.806a4.484,4.484,0,0,0-4.483,4.483v3.668l1.489,1.137h3.8a11.625,11.625,0,0,0,10.919-8.467A.941.941,0,0,0,61.112,320.389Z" transform="translate(-42.069 -319.383)" fill="#ffce71"/>
            <path id="Trazado_1191281" data-name="Trazado 1191281" d="M19.762,312.644a10.6,10.6,0,0,0-1.743-.144A10.519,10.519,0,0,0,7.5,323.017h5.743a2.87,2.87,0,0,1-.349-2.34,8.877,8.877,0,0,1,7.131-6.457l2.933-.491A10.432,10.432,0,0,0,19.762,312.644Z" transform="translate(-7.5 -312.5)" fill="#ffb357"/>
          </g>
        </g>
        <g id="Grupo_1228977" data-name="Grupo 1228977" transform="translate(30.825 26.471)">
          <g id="Grupo_1228975" data-name="Grupo 1228975" transform="translate(0 7.1)">
            <path id="Trazado_1191282" data-name="Trazado 1191282" d="M301.091,313.9h-3.5l-8.764,10.369,8.764,10.369h3.5a10.516,10.516,0,0,0,0-20.738Z" transform="translate(-288.825 -313.898)" fill="#ffd4bd"/>
            <path id="Trazado_1191283" data-name="Trazado 1191283" d="M292.313,378.558a10.551,10.551,0,0,1,.309-2.54l-1.909-1.164-1.582,1.164a10.521,10.521,0,0,0,11.96,12.895A10.5,10.5,0,0,1,292.313,378.558Z" transform="translate(-288.825 -368.174)" fill="#ffbf9d"/>
          </g>
          <path id="Trazado_1191284" data-name="Trazado 1191284" d="M433.915,252.876l-1.742-3.039a1.488,1.488,0,0,0-1.3-.742,1.449,1.449,0,0,0-.758.218,9.9,9.9,0,0,0-4.661,8.792h2.454a9.477,9.477,0,0,1,5.068-3.03,1.493,1.493,0,0,0,.937-2.2Z" transform="translate(-410.485 -249.095)" fill="#d6948c"/>
          <path id="Trazado_1191285" data-name="Trazado 1191285" d="M402.312,282.128a2.588,2.588,0,1,0-.182,5.169c.061,0,.122,0,.182-.006a2.588,2.588,0,0,0,0-5.163Z" transform="translate(-387.411 -278.503)" fill="#ffb5c0"/>
          <circle id="Elipse_14724" data-name="Elipse 14724" cx="2.588" cy="2.588" r="2.588" transform="matrix(0.987, -0.16, 0.16, 0.987, 15.88, 6.66)" fill="#ffdbe0"/>
          <g id="Grupo_1228976" data-name="Grupo 1228976" transform="translate(0.007 6.431)">
            <path id="Trazado_1191286" data-name="Trazado 1191286" d="M340.582,319.092a11.019,11.019,0,0,0-3.109-4.68,1.373,1.373,0,0,0-.927-.341h-.353a1.388,1.388,0,0,0-.71-1.068,11.006,11.006,0,0,0-2.152-.908h-5.309l-4.622,5.525v2.516h.724a14.491,14.491,0,0,0,10.246-4.244l3.3,3.3a3.228,3.228,0,0,0,2.283.946h.383A1.014,1.014,0,0,0,340.582,319.092Z" transform="translate(-319.618 -311.622)" fill="#d6948c"/>
            <path id="Trazado_1191287" data-name="Trazado 1191287" d="M297.554,307.94a11.028,11.028,0,0,0-8.616,7.317,1.015,1.015,0,0,0,.246,1.043h3.483a10.324,10.324,0,0,1,8.47-7.845c.4-.058.9-.124,1.461-.2a11.124,11.124,0,0,0-5.044-.319Z" transform="translate(-288.885 -307.787)" fill="#bd7669"/>
          </g>
        </g>
        <g id="Grupo_1228981" data-name="Grupo 1228981" transform="translate(15.799)">
          <g id="Grupo_1228978" data-name="Grupo 1228978">
            <path id="Trazado_1191288" data-name="Trazado 1191288" d="M210.169,21.017a2.422,2.422,0,0,0-2.046-1.488,2.424,2.424,0,0,0-3.051-3.051,2.424,2.424,0,0,0-3.987-1.651L191.9,17.3v7.072h16.028a2.425,2.425,0,0,0,2.238-3.351Z" transform="translate(-187.498 -13.505)" fill="#676fb2"/>
            <path id="Trazado_1191289" data-name="Trazado 1191289" d="M163.122,7.5a2.422,2.422,0,0,0-2.158,1.321,2.424,2.424,0,0,0-3.987,1.651,2.424,2.424,0,0,0-3.051,3.051,2.423,2.423,0,0,0,.191,4.839H164.8V9.556a2.7,2.7,0,0,0,.479-.735A2.422,2.422,0,0,0,163.122,7.5Z" transform="translate(-151.693 -7.5)" fill="#4c5699"/>
          </g>
          <g id="Grupo_1228979" data-name="Grupo 1228979" transform="translate(1.683 6.503)">
            <path id="Trazado_1191290" data-name="Trazado 1191290" d="M206.716,71.161,202.4,66.847H189.811V77.959l6.18,4.165h2.688a9.756,9.756,0,0,0,8.037-10.964Z" transform="translate(-187.318 -66.847)" fill="#db9e82"/>
            <path id="Trazado_1191291" data-name="Trazado 1191291" d="M170.288,102.445a9.783,9.783,0,0,1,.2-1.983l-3.339.631a9.752,9.752,0,0,0,11.267,10.964A9.748,9.748,0,0,1,170.288,102.445Z" transform="translate(-167.057 -96.779)" fill="#c8866a"/>
          </g>
          <g id="Grupo_1228980" data-name="Grupo 1228980" transform="translate(1.573 1.919)">
            <path id="Trazado_1191292" data-name="Trazado 1191292" d="M214.55,33.592a10.248,10.248,0,0,0-8.156-7.3h-2.468l-5.543,4.521v3.606a6.277,6.277,0,0,0,1.694-1.207,6.724,6.724,0,0,1,9.238,0,6.273,6.273,0,0,0,4.436,1.838h.6A9.7,9.7,0,0,0,214.143,34Z" transform="translate(-194.841 -26.155)" fill="#676fb2"/>
            <path id="Trazado_1191293" data-name="Trazado 1191293" d="M175.908,25.016a10.267,10.267,0,0,0-9.856,7.435l.409.409a9.7,9.7,0,0,0-.206,1.053h.6a6.269,6.269,0,0,0,2.742-.631,9.764,9.764,0,0,1,6.765-7.361,2.7,2.7,0,0,0,1.227-.768A10.36,10.36,0,0,0,175.908,25.016Z" transform="translate(-166.052 -25.016)" fill="#4c5699"/>
          </g>
        </g>
      </g>
      <g id="Grupo_1228983" data-name="Grupo 1228983" transform="translate(0 0)">
        <path id="Trazado_1191294" data-name="Trazado 1191294" d="M325.615,413.734a.822.822,0,0,0-.822.822v1.315a.822.822,0,0,0,1.644,0v-1.315A.822.822,0,0,0,325.615,413.734Z" transform="translate(-289.206 -368.401)"/>
        <path id="Trazado_1191295" data-name="Trazado 1191295" d="M430.615,413.734a.822.822,0,0,0-.822.822v1.315a.822.822,0,0,0,1.644,0v-1.315A.822.822,0,0,0,430.615,413.734Z" transform="translate(-382.701 -368.401)"/>
        <path id="Trazado_1191296" data-name="Trazado 1191296" d="M365.8,425.56a.822.822,0,0,0-1.159.08,1.569,1.569,0,0,1-2.369,0,.822.822,0,1,0-1.239,1.08,3.213,3.213,0,0,0,4.847,0,.822.822,0,0,0-.079-1.159Z" transform="translate(-321.292 -378.752)"/>
        <path id="Trazado_1191297" data-name="Trazado 1191297" d="M196.822,119.856a.822.822,0,0,0-.822.822v1.315a.822.822,0,1,0,1.644,0v-1.315A.822.822,0,0,0,196.822,119.856Z" transform="translate(-174.524 -106.723)"/>
        <path id="Trazado_1191298" data-name="Trazado 1191298" d="M301.822,119.856a.822.822,0,0,0-.822.822v1.315a.822.822,0,1,0,1.644,0v-1.315A.822.822,0,0,0,301.822,119.856Z" transform="translate(-268.02 -106.723)"/>
        <path id="Trazado_1191299" data-name="Trazado 1191299" d="M237,131.682a.822.822,0,0,0-1.159.08,1.569,1.569,0,0,1-2.369,0,.822.822,0,0,0-1.239,1.08,3.213,3.213,0,0,0,4.847,0A.822.822,0,0,0,237,131.682Z" transform="translate(-206.611 -117.074)"/>
        <path id="Trazado_1191300" data-name="Trazado 1191300" d="M45.144,425.871v-1.315a.822.822,0,1,0-1.644,0v1.315a.822.822,0,0,0,1.644,0Z" transform="translate(-38.734 -377.306)"/>
        <path id="Trazado_1191301" data-name="Trazado 1191301" d="M150.144,425.871v-1.315a.822.822,0,1,0-1.644,0v1.315a.822.822,0,0,0,1.644,0Z" transform="translate(-132.229 -377.306)"/>
        <path id="Trazado_1191302" data-name="Trazado 1191302" d="M82.16,437.824a3.215,3.215,0,0,0,2.423-1.1.822.822,0,0,0-1.239-1.08,1.569,1.569,0,0,1-2.369,0,.822.822,0,0,0-1.239,1.08A3.215,3.215,0,0,0,82.16,437.824Z" transform="translate(-70.819 -387.657)"/>
        <path id="Trazado_1191303" data-name="Trazado 1191303" d="M55.789,30.666l-1.743-3.041a2.309,2.309,0,0,0-3.2-.814A10.4,10.4,0,0,0,47.4,30.26a3.356,3.356,0,0,0-2-.034A17.329,17.329,0,0,0,43.03,20.8a.822.822,0,1,0-1.417.832,15.671,15.671,0,0,1,1.231,2.634H37.209a.5.5,0,0,1-.223-.952,2.548,2.548,0,0,0,.366-4.208l-.438-.368a10.486,10.486,0,0,0,.825-1.533,15.788,15.788,0,0,1,2.037,1.907A.822.822,0,1,0,41,18.017a17.441,17.441,0,0,0-2.7-2.45,10.49,10.49,0,0,0,.284-3.442,3.25,3.25,0,0,0-.4-5.906,3.249,3.249,0,0,0-3.363-3.363,3.25,3.25,0,0,0-4.394-1.82,3.248,3.248,0,0,0-4.756,0,3.249,3.249,0,0,0-4.394,1.82,3.249,3.249,0,0,0-3.363,3.362,3.251,3.251,0,0,0-.4,5.906,10.517,10.517,0,0,0,.281,3.44,17.385,17.385,0,0,0-6.689,17.857A11.353,11.353,0,0,0,0,44.758a11.217,11.217,0,0,0,1.252,5.184.822.822,0,0,0,1.461-.752,9.558,9.558,0,0,1-1.035-3.61h8.705a12.257,12.257,0,0,0,6.184-1.8A8.8,8.8,0,0,0,21,45.536a9.691,9.691,0,0,1-16.505,6.09.822.822,0,0,0-1.16,1.164A11.334,11.334,0,0,0,22.6,46.073a17.386,17.386,0,0,0,8.393.627,11.337,11.337,0,1,0,22.262-4.281,1.844,1.844,0,0,0,.141-1.491,11.825,11.825,0,0,0-.929-2.054,3.41,3.41,0,0,0,.963-4.547,8.556,8.556,0,0,1,.892-.253,2.314,2.314,0,0,0,1.47-3.409Zm-6.828,6.462a10.231,10.231,0,0,1,2.859,4.279,2.4,2.4,0,0,1-1.535-.7l-2.717-2.717,1-1a.562.562,0,0,1,.394.134Zm-1.789-5.186a1.7,1.7,0,0,1,.951,1.709,3.424,3.424,0,0,0-.48.588,11.719,11.719,0,0,0-3.011-1.077,1.74,1.74,0,0,1,2.54-1.22Zm-1.347,5.469a13.579,13.579,0,0,1-9.666,4H32.5a10.238,10.238,0,0,1,14.62-5.592.565.565,0,0,1,.158.137Zm-2.163-5.987A3.4,3.4,0,0,0,43,32.932a11.879,11.879,0,0,0-10.063,4.36,4.614,4.614,0,0,1-.979-2.854V32.755a3.473,3.473,0,0,1,3.478-3.472h8.327a15.344,15.344,0,0,1-.106,2.141Zm-15.608-9.51h-.012a8.906,8.906,0,0,1-8.9-9.455,7.106,7.106,0,0,0,4.87-2.077,5.5,5.5,0,0,1,4.038-1.6,5.5,5.5,0,0,1,4.038,1.6,7.07,7.07,0,0,0,4.87,2.077A8.925,8.925,0,0,1,28.054,21.914ZM18.92,7.665a.822.822,0,0,0,.716-1.072,1.6,1.6,0,0,1,2.017-2.017.822.822,0,0,0,1.072-.716,1.6,1.6,0,0,1,2.635-1.091.822.822,0,0,0,1.264-.251,1.6,1.6,0,0,1,2.852,0,.822.822,0,0,0,1.264.251A1.6,1.6,0,0,1,33.375,3.86a.822.822,0,0,0,1.072.716,1.6,1.6,0,0,1,2.017,2.017.822.822,0,0,0,.716,1.072,1.6,1.6,0,0,1,.263,3.152H37.1a5.417,5.417,0,0,1-3.855-1.6,7.085,7.085,0,0,0-5.2-2.078,7.085,7.085,0,0,0-5.2,2.078,5.455,5.455,0,0,1-3.855,1.6h-.338a1.6,1.6,0,0,1,.263-3.152ZM18.36,17.2a10.559,10.559,0,0,0,8.716,6.308,9.487,9.487,0,0,0-.084,1.253v3.246a.538.538,0,0,1-.46.521.489.489,0,0,1-.463-.277,2.623,2.623,0,0,0-1.305-1.3l-1.069-.468a2.54,2.54,0,0,0-2.784.493l0,0-.04.038-2.524,2.524a2.8,2.8,0,0,0,.109,4.364,1.588,1.588,0,0,1,.646.845,13.162,13.162,0,0,1-1.279.691,11.2,11.2,0,0,0-4.993-1.933A15.737,15.737,0,0,1,18.36,17.2Zm-8,26.732H1.679a9.709,9.709,0,0,1,9.662-8.874,9.611,9.611,0,0,1,4.6,1.16A18.62,18.62,0,0,1,13,37.009a.822.822,0,0,0,.289,1.618,20.086,20.086,0,0,0,7.093-2.718.12.12,0,0,1,.115.156,10.907,10.907,0,0,1-1.074,2.507,10.7,10.7,0,0,1-9.063,5.364Zm9.72-3.38A9.538,9.538,0,0,1,21,43.882a7.141,7.141,0,0,1-3.02-1.111A12.527,12.527,0,0,0,20.079,40.556Zm10.99,1.861a11.185,11.185,0,0,0-.237,2.642,15.756,15.756,0,0,1-8.154-.7,11.192,11.192,0,0,0-1.59-5.4,12.5,12.5,0,0,0,.99-2.447,1.757,1.757,0,0,0-1.4-2.225,3.225,3.225,0,0,0-1.327-1.758c-.605-.392-.349-1.315.159-1.823l2.536-2.535A.9.9,0,0,1,23.034,28l1.069.468a.982.982,0,0,1,.478.492,2.121,2.121,0,0,0,2.027,1.217,2.17,2.17,0,0,0,2.026-2.163V24.765a7.849,7.849,0,0,1,.1-1.232,10.5,10.5,0,0,0,7.18-3.489l.384.323a.906.906,0,0,1-.077,1.493,2.145,2.145,0,0,0,.989,4.049h6.128a15.7,15.7,0,0,1,.313,1.73H35.44a5.115,5.115,0,0,0-5.122,5.115v1.683a6.248,6.248,0,0,0,1.65,4.247,11.839,11.839,0,0,0-1.04,2.244A1.842,1.842,0,0,0,31.069,42.417Zm12.708,11.9A9.7,9.7,0,0,1,32.618,43.058h3.541a15.2,15.2,0,0,0,10.231-3.919l2.733,2.733A4.037,4.037,0,0,0,51.7,43.049a9.693,9.693,0,0,1-7.925,11.273Zm7.776-16.814a11.83,11.83,0,0,0-1.5-1.608,2.154,2.154,0,0,0-1.162-.527,1.764,1.764,0,1,1,2.661,2.135Zm2.407-5.036a10.235,10.235,0,0,0-1.856.61,3.389,3.389,0,0,0-2.406-.308,3.333,3.333,0,0,0-.9-1.653,8.62,8.62,0,0,1,2.91-2.909.662.662,0,0,1,.914.232l1.743,3.042a.662.662,0,0,1-.406.986Z" transform="translate(0 0)"/>
      </g>
    </g>
  </g>
</svg>
