<svg xmlns="http://www.w3.org/2000/svg" xmlns:xlink="http://www.w3.org/1999/xlink" width="113" height="113" viewBox="0 0 113 113">
  <defs>
    <filter id="Trazado_982547" x="0" y="0" width="113" height="113" filterUnits="userSpaceOnUse">
      <feOffset dy="3" input="SourceAlpha"/>
      <feGaussianBlur stdDeviation="3" result="blur"/>
      <feFlood flood-opacity="0.161"/>
      <feComposite operator="in" in2="blur"/>
      <feComposite in="SourceGraphic"/>
    </filter>
  </defs>
  <g id="Grupo_1228993" data-name="Grupo 1228993" transform="translate(-376 -3415.293)">
    <g id="Grupo_1227102" data-name="Grupo 1227102" transform="translate(0 1832.697)">
      <g id="Grupo_1225955" data-name="Grupo 1225955" transform="translate(385 1588.596)">
        <g id="Grupo_1208028" data-name="Grupo 1208028">
          <g id="Grupo_1177675" data-name="Grupo 1177675" transform="translate(0 0)">
            <g id="Grupo_1176928" data-name="Grupo 1176928">
              <g id="Grupo_1172322" data-name="Grupo 1172322">
                <g id="Grupo_1164700" data-name="Grupo 1164700">
                  <g id="Grupo_1160931" data-name="Grupo 1160931">
                    <g id="Grupo_1160749" data-name="Grupo 1160749">
                      <g id="Grupo_1158891" data-name="Grupo 1158891">
                        <g id="Grupo_1157406" data-name="Grupo 1157406">
                          <g id="Grupo_1155793" data-name="Grupo 1155793">
                            <g id="Grupo_1154704" data-name="Grupo 1154704">
                              <g id="Grupo_1150790" data-name="Grupo 1150790">
                                <g id="Grupo_1154214" data-name="Grupo 1154214">
                                  <g id="Grupo_1152583" data-name="Grupo 1152583">
                                    <g id="Grupo_1146973" data-name="Grupo 1146973">
                                      <g id="Grupo_1146954" data-name="Grupo 1146954">
                                        <g transform="matrix(1, 0, 0, 1, -9, -6)" filter="url(#Trazado_982547)">
                                          <g id="Trazado_982547-2" data-name="Trazado 982547" transform="translate(9 6)" fill="#f9e3d4">
                                            <path d="M 47.5000114440918 93.49987030029297 C 41.28938293457031 93.49987030029297 35.26534652709961 92.28384399414062 29.5951976776123 89.88558959960938 C 24.11773109436035 87.56881713867188 19.19814491271973 84.25183868408203 14.97310447692871 80.02680206298828 C 10.74805164337158 75.80176544189453 7.43107795715332 70.88218688964844 5.114304542541504 65.40472412109375 C 2.716038227081299 59.73458862304688 1.500011444091797 53.71054840087891 1.500011444091797 47.49993515014648 C 1.500011444091797 41.28932189941406 2.716038227081299 35.26528167724609 5.114304542541504 29.59514808654785 C 7.43107795715332 24.1176815032959 10.74805164337158 19.1981086730957 14.97310447692871 14.97306823730469 C 19.19814491271973 10.74802875518799 24.11773109436035 7.431055068969727 29.5951976776123 5.11428165435791 C 35.26534652709961 2.716028451919556 41.28938293457031 1.500001788139343 47.5000114440918 1.500001788139343 C 53.71063995361328 1.500001788139343 59.73467636108398 2.716028451919556 65.40482330322266 5.11428165435791 C 70.88229370117188 7.431055068969727 75.8018798828125 10.74802875518799 80.02691650390625 14.97306823730469 C 84.25196838378906 19.1981086730957 87.56894683837891 24.1176815032959 89.88571929931641 29.59514808654785 C 92.28398132324219 35.26528167724609 93.50001525878906 41.28932189941406 93.50001525878906 47.49993515014648 C 93.50001525878906 53.71054840087891 92.28398132324219 59.73458862304688 89.88571929931641 65.40472412109375 C 87.56894683837891 70.88218688964844 84.25196838378906 75.80176544189453 80.02691650390625 80.02680206298828 C 75.8018798828125 84.25183868408203 70.88229370117188 87.56881713867188 65.40482330322266 89.88558959960938 C 59.73467636108398 92.28384399414062 53.71063995361328 93.49987030029297 47.5000114440918 93.49987030029297 Z" stroke="none"/>
                                            <path d="M 47.5000114440918 3 C 41.49122619628906 3 35.66378021240234 4.1761474609375 30.17951965332031 6.495796203613281 C 24.880859375 8.7369384765625 20.12153625488281 11.94596862792969 16.03376770019531 16.03373718261719 C 11.94598388671875 20.12149047851562 8.736968994140625 24.88081359863281 6.495811462402344 30.17947387695312 C 4.176162719726562 35.66371917724609 3.000007629394531 41.49116516113281 3.000007629394531 47.49993515014648 C 3.000007629394531 53.50870513916016 4.176162719726562 59.33615112304688 6.495811462402344 64.82039642333984 C 8.736968994140625 70.11905670166016 11.94598388671875 74.87837982177734 16.03376770019531 78.96613311767578 C 20.12153625488281 83.05390167236328 24.880859375 86.26293182373047 30.17951965332031 88.50407409667969 C 35.66378021240234 90.82372283935547 41.49122619628906 91.99987030029297 47.5000114440918 91.99987030029297 C 53.50879669189453 91.99987030029297 59.33624267578125 90.82372283935547 64.82050323486328 88.50407409667969 C 70.11916351318359 86.26293182373047 74.87848663330078 83.05390167236328 78.96625518798828 78.96613311767578 C 83.05403900146484 74.87837982177734 86.2630615234375 70.11905670166016 88.50421142578125 64.82039642333984 C 90.82386016845703 59.33615112304688 92.00001525878906 53.50870513916016 92.00001525878906 47.49993515014648 C 92.00001525878906 41.49116516113281 90.82386016845703 35.66371917724609 88.50421142578125 30.17947387695312 C 86.2630615234375 24.88081359863281 83.05403900146484 20.12149047851562 78.96625518798828 16.03373718261719 C 74.87848663330078 11.94596862792969 70.11916351318359 8.7369384765625 64.82050323486328 6.495796203613281 C 59.33624267578125 4.1761474609375 53.50879669189453 3 47.5000114440918 3 M 47.5000114440918 0 C 73.73353576660156 0 95.00001525878906 21.26644134521484 95.00001525878906 47.49993515014648 C 95.00001525878906 73.73342895507812 73.73353576660156 94.99987030029297 47.5000114440918 94.99987030029297 C 21.26648712158203 94.99987030029297 7.62939453125e-06 73.73342895507812 7.62939453125e-06 47.49993515014648 C 7.62939453125e-06 21.26644134521484 21.26648712158203 0 47.5000114440918 0 Z" stroke="none" fill="#eca675"/>
                                          </g>
                                        </g>
                                      </g>
                                    </g>
                                  </g>
                                </g>
                              </g>
                            </g>
                          </g>
                        </g>
                      </g>
                    </g>
                  </g>
                </g>
              </g>
            </g>
          </g>
        </g>
      </g>
    </g>
    <g id="aprendizaje_1_" data-name="aprendizaje (1)" transform="translate(380.461 3437.911)">
      <g id="Grupo_1228991" data-name="Grupo 1228991" transform="translate(24.97 0.906)">
        <path id="Trazado_1191304" data-name="Trazado 1191304" d="M84.574,194.154a1.128,1.128,0,0,1,1.128,1.128v31.609a4.666,4.666,0,0,1-4.666,4.666H36.23a4.666,4.666,0,0,1-4.666-4.666V195.282a1.128,1.128,0,0,1,1.128-1.128Z" transform="translate(-31.564 -171.606)" fill="#b3e5ee"/>
        <path id="Trazado_1191305" data-name="Trazado 1191305" d="M59.879,194.154v31.893a3.832,3.832,0,0,0,3.827,3.828H103.47a3.832,3.832,0,0,0,3.827-3.828V194.154Z" transform="translate(-56.458 -171.606)" fill="#86d7e5"/>
        <path id="Trazado_1191306" data-name="Trazado 1191306" d="M121.505,175.283H80.838a.959.959,0,0,0-.959.96V205.1l13.105,4.787,8.188.942,19.623-3.542,1.669-2.186V176.243a.959.959,0,0,0-.959-.96Z" transform="translate(-74.042 -155.014)" fill="#f9f7f7"/>
        <path id="Trazado_1191307" data-name="Trazado 1191307" d="M248.639,175.283h1.812v35.585h-1.812Z" transform="translate(-222.416 -155.014)" fill="#f8f3f2"/>
        <path id="Trazado_1191308" data-name="Trazado 1191308" d="M163.57,175.283l5.314,8.273v.642a3.148,3.148,0,0,0,1.338,2.574v1.009a3.834,3.834,0,0,0,3.83,3.83h1.4a3.834,3.834,0,0,0,3.83-3.83v-1.009a3.148,3.148,0,0,0,1.338-2.574v-.642l5.314-8.273Z" transform="translate(-147.623 -155.014)" fill="#f8f3f2"/>
        <g id="Grupo_1228989" data-name="Grupo 1228989" transform="translate(5.837)">
          <g id="Grupo_1228988" data-name="Grupo 1228988" transform="translate(0 20.269)">
            <g id="XMLID_248_">
              <g id="Grupo_1228987" data-name="Grupo 1228987">
                <g id="Grupo_1228985" data-name="Grupo 1228985">
                  <path id="Trazado_1191309" data-name="Trazado 1191309" d="M84.908,206.118V175.283h-4.07a.959.959,0,0,0-.959.96V205.1l5.193,1.9A2.466,2.466,0,0,1,84.908,206.118Z" transform="translate(-79.879 -175.283)" fill="#f8f3f2"/>
                </g>
                <g id="Grupo_1228986" data-name="Grupo 1228986" transform="translate(0 29.817)">
                  <path id="Trazado_1191310" data-name="Trazado 1191310" d="M101.172,427.832v.04H81.29a1.411,1.411,0,0,1-1.411-1.412V422.1H95.443A5.728,5.728,0,0,1,101.172,427.832Z" transform="translate(-79.879 -422.103)" fill="#f2eae7"/>
                  <path id="Trazado_1191311" data-name="Trazado 1191311" d="M277.432,422.1v4.356a1.411,1.411,0,0,1-1.411,1.412H256.139v-.04a5.728,5.728,0,0,1,5.728-5.728Z" transform="translate(-234.846 -422.103)" fill="#f2eae7"/>
                </g>
              </g>
            </g>
          </g>
          <path id="Trazado_1191312" data-name="Trazado 1191312" d="M239.072,248.154h-5.437v3.7a2.018,2.018,0,0,0,2.018,2.018h1.4a2.018,2.018,0,0,0,2.018-2.018Z" transform="translate(-215.061 -219.082)" fill="#a59ca6"/>
          <path id="Trazado_1191313" data-name="Trazado 1191313" d="M239.072,248.154h-5.437v3.7a2.018,2.018,0,0,0,2.018,2.018h1.4a2.016,2.016,0,0,0,1.792-1.094,2.041,2.041,0,0,1-.237.015h-1.4a2.016,2.016,0,0,1-1.909-1.367.461.461,0,0,1,.436-.61h3.337v-2.658Z" transform="translate(-215.061 -219.082)" fill="#8f8390"/>
          <path id="Trazado_1191314" data-name="Trazado 1191314" d="M180.493,19.548a12.049,12.049,0,1,0-21.9,6.934l5.8,9.026v1.174a1.338,1.338,0,0,0,1.338,1.338h5.437a1.338,1.338,0,0,0,1.338-1.338V35.509l5.8-9.026a11.993,11.993,0,0,0,2.195-6.934Z" transform="translate(-147.152 -7.499)" fill="#fbe88c"/>
          <path id="Trazado_1191315" data-name="Trazado 1191315" d="M163.672,28.021a13.268,13.268,0,0,1-2.295-7.5A12.94,12.94,0,0,1,171.2,7.817a12.051,12.051,0,0,0-12.61,18.666l5.8,9.026v1.174a1.338,1.338,0,0,0,1.338,1.338h3.443Z" transform="translate(-147.153 -7.5)" fill="#fbe372"/>
        </g>
        <g id="Grupo_1228990" data-name="Grupo 1228990" transform="translate(5.837 50.085)">
          <path id="Trazado_1191316" data-name="Trazado 1191316" d="M256.589,451.046a5.712,5.712,0,0,0-.451,2.232v.04H276.02a1.411,1.411,0,0,0,1.411-1.412v-.86H256.589Z" transform="translate(-234.845 -447.55)" fill="#ede2dd"/>
          <path id="Trazado_1191317" data-name="Trazado 1191317" d="M87.387,425.6a2.478,2.478,0,0,1-2.478-2.478V422.1H79.879v4.356a1.411,1.411,0,0,0,1.411,1.412h19.882v-.04a5.71,5.71,0,0,0-.451-2.232Z" transform="translate(-79.879 -422.103)" fill="#ede2dd"/>
        </g>
      </g>
      <g id="Grupo_1228992" data-name="Grupo 1228992" transform="translate(24.064 0)">
        <path id="Trazado_1191318" data-name="Trazado 1191318" d="M77.98,170.064H74.3v-.413a1.868,1.868,0,0,0-1.866-1.866h-7.26a.906.906,0,0,0,0,1.812h7.26a.054.054,0,0,1,.054.054V180.7a.906.906,0,0,0,1.812,0v-8.822H77.98a.222.222,0,0,1,.222.222v31.609a3.764,3.764,0,0,1-3.76,3.76H29.636a3.764,3.764,0,0,1-3.76-3.76V172.1a.222.222,0,0,1,.222-.222h3.8v30.988a2.32,2.32,0,0,0,2.317,2.317H71.981a2.32,2.32,0,0,0,2.317-2.317v-18.3a.906.906,0,1,0-1.812,0V197.6H57.828a6.615,6.615,0,0,0-4.822,2.085v-11.72a.906.906,0,1,0-1.812,0v11.72a6.615,6.615,0,0,0-4.822-2.085H42.254a.906.906,0,0,0,0,1.812h4.117a4.83,4.83,0,0,1,4.743,3.956h-18.9a.506.506,0,0,1-.505-.505v-3.451h6.677a.906.906,0,1,0,0-1.812H31.712v-27.95a.054.054,0,0,1,.054-.054h7.26a.906.906,0,0,0,0-1.812h-7.26a1.868,1.868,0,0,0-1.866,1.866v.413H26.1a2.037,2.037,0,0,0-2.034,2.034v31.609a5.578,5.578,0,0,0,5.572,5.572H74.441a5.578,5.578,0,0,0,5.572-5.572V172.1A2.036,2.036,0,0,0,77.98,170.064ZM57.828,199.413H72.486v3.451a.506.506,0,0,1-.505.505h-18.9a4.829,4.829,0,0,1,4.743-3.956Z" transform="translate(-24.064 -147.516)"/>
        <path id="Trazado_1191319" data-name="Trazado 1191319" d="M150.168,12.712a.907.907,0,0,0,.987-.817,11.143,11.143,0,1,1,20.207,7.472l-.022.032-5.8,9.026a.906.906,0,0,0-.144.49v1.174a.432.432,0,0,1-.432.432h-.059l.577-9.794h1.032a2.681,2.681,0,0,0,2.678-2.678v-.11a2.678,2.678,0,0,0-5.352-.158l-.067,1.134H160.6l-.067-1.134a2.678,2.678,0,0,0-5.352.158v.11a2.681,2.681,0,0,0,2.678,2.678h1.032l.577,9.788a.431.431,0,0,1-.37-.426V28.916a.907.907,0,0,0-.144-.49l-5.8-9.026-.022-.032a11.039,11.039,0,0,1-1.745-3.906.906.906,0,1,0-1.766.406,12.843,12.843,0,0,0,2.018,4.528l5.644,8.786v.908a2.246,2.246,0,0,0,1.338,2.051v1.532a2.927,2.927,0,0,0,2.924,2.924h1.4a2.927,2.927,0,0,0,2.924-2.924V32.141a2.246,2.246,0,0,0,1.338-2.051v-.908l5.644-8.786a12.956,12.956,0,1,0-23.5-8.67.906.906,0,0,0,.817.987Zm15.484,5.176a.866.866,0,0,1,1.731.051v.11a.867.867,0,0,1-.866.866h-.925Zm-7.793,1.027a.867.867,0,0,1-.866-.866v-.11a.866.866,0,0,1,1.731-.051l.061,1.027Zm5.811,1.812-.577,9.794h-1.809l-.577-9.794Zm.391,12.946a1.113,1.113,0,0,1-1.112,1.112h-1.4a1.113,1.113,0,0,1-1.112-1.112V32.333h3.625v1.339Z" transform="translate(-134.213 0)"/>
        <path id="Trazado_1191320" data-name="Trazado 1191320" d="M380.917,31.131a.9.9,0,0,0,.6-.225l1.977-1.736a.906.906,0,0,0-1.2-1.362l-1.977,1.736a.906.906,0,0,0,.6,1.587Z" transform="translate(-337.011 -24.251)"/>
        <path id="Trazado_1191321" data-name="Trazado 1191321" d="M380.319,90.634,382.3,92.37a.906.906,0,0,0,1.2-1.362l-1.977-1.736a.906.906,0,0,0-1.2,1.362Z" transform="translate(-337.011 -78.29)"/>
        <path id="Trazado_1191322" data-name="Trazado 1191322" d="M101.211,29.169l1.977,1.736a.906.906,0,1,0,1.2-1.362l-1.977-1.736a.906.906,0,1,0-1.2,1.362Z" transform="translate(-91.62 -24.25)"/>
        <path id="Trazado_1191323" data-name="Trazado 1191323" d="M101.81,92.6a.9.9,0,0,0,.6-.225l1.977-1.736a.906.906,0,0,0-1.2-1.362l-1.977,1.736a.906.906,0,0,0,.6,1.587Z" transform="translate(-91.621 -78.291)"/>
        <path id="Trazado_1191324" data-name="Trazado 1191324" d="M111.64,253.56a.906.906,0,0,0-.906-.906h-8.925a.906.906,0,1,0,0,1.812h8.925A.906.906,0,0,0,111.64,253.56Z" transform="translate(-91.621 -222.133)"/>
        <path id="Trazado_1191325" data-name="Trazado 1191325" d="M125.405,290.8H115.357a.906.906,0,1,0,0,1.812h10.048a.906.906,0,1,0,0-1.812Z" transform="translate(-103.532 -255.675)"/>
        <path id="Trazado_1191326" data-name="Trazado 1191326" d="M125.405,327.346H115.357a.906.906,0,1,0,0,1.812h10.048a.906.906,0,1,0,0-1.812Z" transform="translate(-103.532 -287.802)"/>
        <path id="Trazado_1191327" data-name="Trazado 1191327" d="M125.405,363.887H115.357a.906.906,0,1,0,0,1.812h10.048a.906.906,0,1,0,0-1.812Z" transform="translate(-103.532 -319.928)"/>
        <path id="Trazado_1191328" data-name="Trazado 1191328" d="M333.233,253.56a.906.906,0,0,0-.906-.906H323.4a.906.906,0,1,0,0,1.812h8.925A.906.906,0,0,0,333.233,253.56Z" transform="translate(-286.445 -222.133)"/>
        <path id="Trazado_1191329" data-name="Trazado 1191329" d="M310.6,290.8H300.553a.906.906,0,1,0,0,1.812H310.6a.906.906,0,1,0,0-1.812Z" transform="translate(-266.356 -255.675)"/>
        <path id="Trazado_1191330" data-name="Trazado 1191330" d="M310.6,327.346H300.553a.906.906,0,1,0,0,1.812H310.6a.906.906,0,1,0,0-1.812Z" transform="translate(-266.356 -287.802)"/>
        <path id="Trazado_1191331" data-name="Trazado 1191331" d="M310.6,363.887H300.553a.906.906,0,1,0,0,1.812H310.6a.906.906,0,1,0,0-1.812Z" transform="translate(-266.356 -319.928)"/>
      </g>
    </g>
  </g>
</svg>
