<svg xmlns="http://www.w3.org/2000/svg" xmlns:xlink="http://www.w3.org/1999/xlink" width="103" height="103" viewBox="0 0 103 103">
  <defs>
    <filter id="Trazado_978624" x="0" y="0" width="103" height="103" filterUnits="userSpaceOnUse">
      <feOffset dy="3" input="SourceAlpha"/>
      <feGaussianBlur stdDeviation="3" result="blur"/>
      <feFlood flood-opacity="0.161"/>
      <feComposite operator="in" in2="blur"/>
      <feComposite in="SourceGraphic"/>
    </filter>
  </defs>
  <g id="Grupo_1229041" data-name="Grupo 1229041" transform="translate(-208 -5219.468)">
    <g id="Grupo_1227108" data-name="Grupo 1227108" transform="translate(217 5225.468)">
      <g id="Grupo_1225980" data-name="Grupo 1225980">
        <g id="Grupo_1222970" data-name="Grupo 1222970">
          <g id="Grupo_1222589" data-name="Grupo 1222589">
            <g id="Grupo_1203109" data-name="Grupo 1203109">
              <g id="Grupo_1176881" data-name="Grupo 1176881">
                <g id="Grupo_1175148" data-name="Grupo 1175148">
                  <g id="Grupo_1173798" data-name="Grupo 1173798">
                    <g id="Grupo_1171925" data-name="Grupo 1171925">
                      <g id="Grupo_1164524" data-name="Grupo 1164524">
                        <g id="Grupo_1144123" data-name="Grupo 1144123">
                          <g transform="matrix(1, 0, 0, 1, -9, -6)" filter="url(#Trazado_978624)">
                            <g id="Trazado_978624-2" data-name="Trazado 978624" transform="translate(9 6)" fill="#f2f4f0">
                              <path d="M 42.5 83.5 C 36.96437835693359 83.5 31.59512901306152 82.41617584228516 26.54141235351562 80.27863311767578 C 21.65934181213379 78.21369171142578 17.27447128295898 75.25723266601562 13.50862312316895 71.49137878417969 C 9.742764472961426 67.72553253173828 6.786305904388428 63.34066009521484 4.721364498138428 58.45858764648438 C 2.583823442459106 53.40486907958984 1.5 48.03562164306641 1.5 42.5 C 1.5 36.96437835693359 2.583823442459106 31.59512901306152 4.721364498138428 26.54141235351562 C 6.786305904388428 21.65934181213379 9.742764472961426 17.27447128295898 13.50862312316895 13.50862312316895 C 17.27447128295898 9.742764472961426 21.65934181213379 6.786305904388428 26.54141235351562 4.721364498138428 C 31.59512901306152 2.583823442459106 36.96437835693359 1.5 42.5 1.5 C 48.03562164306641 1.5 53.40486907958984 2.583823442459106 58.45858764648438 4.721364498138428 C 63.34066009521484 6.786305904388428 67.72553253173828 9.742764472961426 71.49137878417969 13.50862312316895 C 75.25723266601562 17.27447128295898 78.21369171142578 21.65934181213379 80.27863311767578 26.54141235351562 C 82.41617584228516 31.59512901306152 83.5 36.96437835693359 83.5 42.5 C 83.5 48.03562164306641 82.41617584228516 53.40486907958984 80.27863311767578 58.45858764648438 C 78.21369171142578 63.34066009521484 75.25723266601562 67.72553253173828 71.49137878417969 71.49137878417969 C 67.72553253173828 75.25723266601562 63.34066009521484 78.21369171142578 58.45858764648438 80.27863311767578 C 53.40486907958984 82.41617584228516 48.03562164306641 83.5 42.5 83.5 Z" stroke="none"/>
                              <path d="M 42.5 3 C 37.16621398925781 3 31.99356079101562 4.043960571289062 27.125732421875 6.102882385253906 C 22.42246627807617 8.092185974121094 18.19785308837891 10.94070434570312 14.56928253173828 14.56928253173828 C 10.94070434570312 18.19785308837891 8.092185974121094 22.42246627807617 6.102882385253906 27.125732421875 C 4.043960571289062 31.99356079101562 3 37.16621398925781 3 42.5 C 3 47.83378601074219 4.043960571289062 53.00643920898438 6.102882385253906 57.87425231933594 C 8.092185974121094 62.57753372192383 10.94070434570312 66.80213165283203 14.56928253173828 70.43071746826172 C 18.19786834716797 74.05929565429688 22.42246627807617 76.90781402587891 27.125732421875 78.89711761474609 C 31.99356079101562 80.95603942871094 37.16621398925781 82 42.5 82 C 47.83378601074219 82 53.00642395019531 80.95603942871094 57.87425231933594 78.89711761474609 C 62.57753372192383 76.90781402587891 66.80213165283203 74.05929565429688 70.43071746826172 70.43071746826172 C 74.05929565429688 66.80213165283203 76.90781402587891 62.57753372192383 78.89711761474609 57.87425231933594 C 80.95603942871094 53.00642395019531 82 47.83378601074219 82 42.5 C 82 37.16621398925781 80.95603942871094 31.99356079101562 78.89711761474609 27.125732421875 C 76.90781402587891 22.42246627807617 74.05929565429688 18.19786834716797 70.43071746826172 14.56928253173828 C 66.80213165283203 10.94070434570312 62.57753372192383 8.092185974121094 57.87425231933594 6.102882385253906 C 53.00643920898438 4.043960571289062 47.83378601074219 3 42.5 3 M 42.5 0 C 65.97209167480469 0 85 19.02789306640625 85 42.5 C 85 65.97209167480469 65.97209167480469 85 42.5 85 C 19.02789306640625 85 0 65.97209167480469 0 42.5 C 0 19.02789306640625 19.02789306640625 0 42.5 0 Z" stroke="none" fill="#899e78"/>
                            </g>
                          </g>
                        </g>
                      </g>
                    </g>
                  </g>
                </g>
              </g>
            </g>
          </g>
        </g>
      </g>
    </g>
    <g id="impresion-de-la-mano" transform="translate(232.578 5235.64)">
      <path id="Trazado_1191432" data-name="Trazado 1191432" d="M43.946,238.264c-5.589,4.168-13.35,3.112-19.7-3.24-5.225-5.225-8.068-9.831-7.2-14.5.722-3.874,4.024-5.036,6.937-6.024,3.716-1.26,3.438-5.1,7.533-6.234,4.078-1.128,8.734,1.013,13.6,5.883C54.529,223.554,50.171,233.622,43.946,238.264Z" transform="translate(-15.017 -183.669)" fill="#00ce8e"/>
      <path id="Trazado_1191433" data-name="Trazado 1191433" d="M43.947,239.264a17.083,17.083,0,0,0,1.493-1.255c-17.633.519-17.5-20.286-13.168-28.915q-.38.067-.754.17c-4.1,1.133-3.817,4.974-7.533,6.234-2.913.988-6.215,2.15-6.937,6.024-.871,4.671,1.972,9.277,7.2,14.5C30.6,242.376,38.358,243.433,43.947,239.264Z" transform="translate(-15.017 -184.669)" fill="#00c172"/>
      <path id="Trazado_1191434" data-name="Trazado 1191434" d="M182.977,19.159l4.757-8.24a4.1,4.1,0,1,1,7.1,4.1l-4.757,8.24a4.1,4.1,0,0,1-7.1-4.1Z" transform="translate(-162.172 -6.675)" fill="#ffbbd5"/>
      <path id="Trazado_1191435" data-name="Trazado 1191435" d="M356.77,218.611a4.1,4.1,0,0,1,1.5-5.6l8.265-4.772a4.1,4.1,0,1,1,4.1,7.1l-8.265,4.772A4.1,4.1,0,0,1,356.77,218.611Z" transform="translate(-316.668 -183.421)" fill="#827cd1"/>
      <path id="Trazado_1191436" data-name="Trazado 1191436" d="M364.065,225.483l-5.8,3.346a4.1,4.1,0,0,0,4.1,7.1l4.475-2.583C363.311,232.088,363.549,227.6,364.065,225.483Z" transform="translate(-316.667 -199.238)" fill="#625ac4"/>
      <path id="Trazado_1191437" data-name="Trazado 1191437" d="M369.2,372.5a4.1,4.1,0,0,1,3.726-4.441l5.759-.5a4.1,4.1,0,0,1,.715,8.167l-5.759.5A4.1,4.1,0,0,1,369.2,372.5Z" transform="translate(-328.193 -325.523)" fill="#ffb25a"/>
      <path id="Trazado_1191438" data-name="Trazado 1191438" d="M283.6,90.021a4.1,4.1,0,0,1,0-5.8l8.569-8.569a4.1,4.1,0,0,1,5.8,5.8L289.4,90.021A4.1,4.1,0,0,1,283.6,90.021Z" transform="translate(-251.048 -64.978)" fill="#ff6e80"/>
      <path id="Trazado_1191439" data-name="Trazado 1191439" d="M7.5,90.109V84.033a4.1,4.1,0,0,1,8.2,0v6.076a4.1,4.1,0,1,1-8.2,0Z" transform="translate(-6.667 -69.85)" fill="#59d5ff"/>
      <g id="Grupo_1229040" data-name="Grupo 1229040" transform="translate(8.631 32.309)">
        <g id="Grupo_1229039" data-name="Grupo 1229039" transform="translate(0)">
          <ellipse id="Elipse_14728" data-name="Elipse 14728" cx="2.557" cy="3.211" rx="2.557" ry="3.211" transform="translate(0 3.616) rotate(-45)" fill="#fff"/>
          <ellipse id="Elipse_14729" data-name="Elipse 14729" cx="2.557" cy="3.211" rx="2.557" ry="3.211" transform="translate(12.305 15.923) rotate(-45)" fill="#fff"/>
        </g>
      </g>
      <path id="Trazado_1191440" data-name="Trazado 1191440" d="M187.566,29.957l-4.589,7.949a4.1,4.1,0,1,0,7.1,4.1l2.086-3.614c-3.935-1.125-5.385-5.537-4.6-8.434Z" transform="translate(-162.172 -25.422)" fill="#ff96c0"/>
      <path id="Trazado_1191441" data-name="Trazado 1191441" d="M11.6,104.393a4.1,4.1,0,0,0,4.1-4.1V98.02a6.681,6.681,0,0,1-7.066-6.629A4.084,4.084,0,0,0,7.5,94.218v6.076a4.1,4.1,0,0,0,4.1,4.1Z" transform="translate(-6.667 -80.035)" fill="#00c4fc"/>
      <path id="Trazado_1191442" data-name="Trazado 1191442" d="M290.277,102.348l-6.673,6.673a4.1,4.1,0,1,0,5.8,5.8l3.963-3.963C289.9,109.9,289.331,105.081,290.277,102.348Z" transform="translate(-251.048 -89.775)" fill="#f8475e"/>
      <path id="Trazado_1191443" data-name="Trazado 1191443" d="M377.921,378.087c-3.978-2.187-3.193-6.313-2.243-8.033l-2.752.241a4.1,4.1,0,0,0,.715,8.167Z" transform="translate(-328.193 -327.757)" fill="#ff8b43"/>
      <path id="Trazado_1191444" data-name="Trazado 1191444" d="M31.968,25.631a4.929,4.929,0,0,0,6.974,0l8.569-8.569A4.932,4.932,0,0,0,44.07,8.643h-.008a.833.833,0,0,0-.007,1.666,3.266,3.266,0,0,1,2.28,5.576l-8.569,8.569a3.266,3.266,0,0,1-4.619-4.619l7.982-7.982a.833.833,0,1,0-1.178-1.178l-7.982,7.982a4.937,4.937,0,0,0,0,6.974ZM21.889,18.8A4.928,4.928,0,0,0,28.626,17l4.757-8.24a4.932,4.932,0,1,0-8.542-4.932l-4.757,8.24A4.929,4.929,0,0,0,21.889,18.8Zm-.363-5.9,4.757-8.24a3.266,3.266,0,1,1,5.657,3.266l-4.757,8.24A3.266,3.266,0,0,1,21.526,12.9ZM4.931,25.191h0a4.937,4.937,0,0,0,4.932-4.932V14.183A4.928,4.928,0,0,0,4.932,9.252h0A4.937,4.937,0,0,0,0,14.183v6.076a4.929,4.929,0,0,0,4.931,4.932ZM1.665,20.259V14.183a3.266,3.266,0,0,1,6.532,0v6.076a3.266,3.266,0,0,1-6.532,0ZM50.421,41.2l-5.759.5a4.932,4.932,0,1,0,.859,9.826l5.759-.5a4.932,4.932,0,0,0-.86-9.826Zm.714,8.167-5.759.5a3.266,3.266,0,0,1-.569-6.508l5.759-.5a3.266,3.266,0,0,1,.569,6.508ZM16.5,35.253a.7.7,0,0,1,0,.984.833.833,0,0,0,1.178,1.178,2.361,2.361,0,0,0-3.339-3.339.833.833,0,0,0,1.178,1.178.7.7,0,0,1,.984,0ZM56.188,25.9A4.929,4.929,0,0,0,49.451,24.1L41.186,28.87a4.937,4.937,0,0,0-1.805,6.737h0a4.929,4.929,0,0,0,6.737,1.805l8.265-4.772A4.929,4.929,0,0,0,56.188,25.9ZM53.55,31.2,45.285,35.97a3.265,3.265,0,0,1-4.462-1.2h0a3.264,3.264,0,0,1,1.2-4.462l8.265-4.772A3.266,3.266,0,1,1,53.55,31.2ZM26.158,47.075a.833.833,0,0,0,1.178,0A2.361,2.361,0,0,0,24,43.736a.833.833,0,1,0,1.178,1.178.7.7,0,0,1,.984.984A.833.833,0,0,0,26.158,47.075Zm-7.675-7.214a.834.834,0,0,0-.888.774,2.981,2.981,0,0,0,3.181,3.181.833.833,0,1,0-.114-1.662,1.316,1.316,0,0,1-1.4-1.4.833.833,0,0,0-.774-.888Zm-2.2-16.069a7.784,7.784,0,0,0-4.469,3.532A6.174,6.174,0,0,1,8.7,30.041C5.886,31,2.032,32.3,1.212,36.7c-.849,4.557,1.441,9.258,7.427,15.244a23.849,23.849,0,0,0,3.412,2.844.833.833,0,0,0,.938-1.376,22.16,22.16,0,0,1-3.172-2.646C4.26,45.21,2.112,40.966,2.85,37.006c.641-3.439,3.693-4.475,6.386-5.388A7.791,7.791,0,0,0,13.164,28.3a6.159,6.159,0,0,1,3.56-2.9c4.6-1.272,9.409,2.285,12.793,5.67C33.2,34.753,34.991,38.9,34.69,43.061a15.3,15.3,0,0,1-6.258,10.867A12.045,12.045,0,0,1,16.29,55.2a.833.833,0,1,0-.627,1.543,13.835,13.835,0,0,0,13.765-1.477,16.985,16.985,0,0,0,6.923-12.082c.337-4.658-1.619-9.254-5.656-13.292-3.876-3.876-9.137-7.558-14.415-6.1Z"/>
    </g>
  </g>
</svg>
