<svg xmlns="http://www.w3.org/2000/svg" xmlns:xlink="http://www.w3.org/1999/xlink" width="103" height="103" viewBox="0 0 103 103">
  <defs>
    <filter id="Trazado_978624" x="0" y="0" width="103" height="103" filterUnits="userSpaceOnUse">
      <feOffset dy="3" input="SourceAlpha"/>
      <feGaussianBlur stdDeviation="3" result="blur"/>
      <feFlood flood-opacity="0.161"/>
      <feComposite operator="in" in2="blur"/>
      <feComposite in="SourceGraphic"/>
    </filter>
  </defs>
  <g id="Grupo_1228769" data-name="Grupo 1228769" transform="translate(-616.5 -4235)">
    <g id="Grupo_1226907" data-name="Grupo 1226907" transform="translate(420 -2829)">
      <g id="Grupo_1226082" data-name="Grupo 1226082" transform="translate(25.5 6268)">
        <g id="Grupo_1222970" data-name="Grupo 1222970" transform="translate(0 -37)">
          <g id="Grupo_1222589" data-name="Grupo 1222589">
            <g id="Grupo_1203109" data-name="Grupo 1203109" transform="translate(180 839)">
              <g id="Grupo_1176881" data-name="Grupo 1176881">
                <g id="Grupo_1175148" data-name="Grupo 1175148">
                  <g id="Grupo_1173798" data-name="Grupo 1173798">
                    <g id="Grupo_1171925" data-name="Grupo 1171925">
                      <g id="Grupo_1164524" data-name="Grupo 1164524">
                        <g id="Grupo_1144123" data-name="Grupo 1144123">
                          <g transform="matrix(1, 0, 0, 1, -9, -6)" filter="url(#Trazado_978624)">
                            <g id="Trazado_978624-2" data-name="Trazado 978624" transform="translate(9 6)" fill="#f7f5f3">
                              <path d="M 42.5 83.5 C 36.96437835693359 83.5 31.59512901306152 82.41617584228516 26.54141235351562 80.27863311767578 C 21.65934181213379 78.21369171142578 17.27447128295898 75.25723266601562 13.50862312316895 71.49137878417969 C 9.742764472961426 67.72553253173828 6.786305904388428 63.34066009521484 4.721364498138428 58.45858764648438 C 2.583823442459106 53.40486907958984 1.5 48.03562164306641 1.5 42.5 C 1.5 36.96437835693359 2.583823442459106 31.59512901306152 4.721364498138428 26.54141235351562 C 6.786305904388428 21.65934181213379 9.742764472961426 17.27447128295898 13.50862312316895 13.50862312316895 C 17.27447128295898 9.742764472961426 21.65934181213379 6.786305904388428 26.54141235351562 4.721364498138428 C 31.59512901306152 2.583823442459106 36.96437835693359 1.5 42.5 1.5 C 48.03562164306641 1.5 53.40486907958984 2.583823442459106 58.45858764648438 4.721364498138428 C 63.34066009521484 6.786305904388428 67.72553253173828 9.742764472961426 71.49137878417969 13.50862312316895 C 75.25723266601562 17.27447128295898 78.21369171142578 21.65934181213379 80.27863311767578 26.54141235351562 C 82.41617584228516 31.59512901306152 83.5 36.96437835693359 83.5 42.5 C 83.5 48.03562164306641 82.41617584228516 53.40486907958984 80.27863311767578 58.45858764648438 C 78.21369171142578 63.34066009521484 75.25723266601562 67.72553253173828 71.49137878417969 71.49137878417969 C 67.72553253173828 75.25723266601562 63.34066009521484 78.21369171142578 58.45858764648438 80.27863311767578 C 53.40486907958984 82.41617584228516 48.03562164306641 83.5 42.5 83.5 Z" stroke="none"/>
                              <path d="M 42.5 3 C 37.16621398925781 3 31.99356079101562 4.043960571289062 27.125732421875 6.102882385253906 C 22.42246627807617 8.092185974121094 18.19785308837891 10.94070434570312 14.56928253173828 14.56928253173828 C 10.94070434570312 18.19785308837891 8.092185974121094 22.42246627807617 6.102882385253906 27.125732421875 C 4.043960571289062 31.99356079101562 3 37.16621398925781 3 42.5 C 3 47.83378601074219 4.043960571289062 53.00643920898438 6.102882385253906 57.87425231933594 C 8.092185974121094 62.57753372192383 10.94070434570312 66.80213165283203 14.56928253173828 70.43071746826172 C 18.19786834716797 74.05929565429688 22.42246627807617 76.90781402587891 27.125732421875 78.89711761474609 C 31.99356079101562 80.95603942871094 37.16621398925781 82 42.5 82 C 47.83378601074219 82 53.00642395019531 80.95603942871094 57.87425231933594 78.89711761474609 C 62.57753372192383 76.90781402587891 66.80213165283203 74.05929565429688 70.43071746826172 70.43071746826172 C 74.05929565429688 66.80213165283203 76.90781402587891 62.57753372192383 78.89711761474609 57.87425231933594 C 80.95603942871094 53.00642395019531 82 47.83378601074219 82 42.5 C 82 37.16621398925781 80.95603942871094 31.99356079101562 78.89711761474609 27.125732421875 C 76.90781402587891 22.42246627807617 74.05929565429688 18.19786834716797 70.43071746826172 14.56928253173828 C 66.80213165283203 10.94070434570312 62.57753372192383 8.092185974121094 57.87425231933594 6.102882385253906 C 53.00643920898438 4.043960571289062 47.83378601074219 3 42.5 3 M 42.5 0 C 65.97209167480469 0 85 19.02789306640625 85 42.5 C 85 65.97209167480469 65.97209167480469 85 42.5 85 C 19.02789306640625 85 0 65.97209167480469 0 42.5 C 0 19.02789306640625 19.02789306640625 0 42.5 0 Z" stroke="none" fill="#665b4e"/>
                            </g>
                          </g>
                        </g>
                      </g>
                    </g>
                  </g>
                </g>
              </g>
            </g>
          </g>
        </g>
      </g>
    </g>
    <g id="leer_3_" data-name="leer (3)" transform="translate(641.423 4256.9)">
      <g id="Grupo_1228767" data-name="Grupo 1228767" transform="translate(0.776 0.795)">
        <g id="Grupo_1228763" data-name="Grupo 1228763" transform="translate(5.18)">
          <g id="Grupo_1228752" data-name="Grupo 1228752">
            <g id="Grupo_1228751" data-name="Grupo 1228751">
              <g id="Grupo_1228749" data-name="Grupo 1228749" transform="translate(0.498)">
                <g id="Grupo_1228748" data-name="Grupo 1228748">
                  <path id="Trazado_1190623" data-name="Trazado 1190623" d="M87.091,289.119H62.165V281a12.462,12.462,0,0,1,12.462-12.462h0A12.462,12.462,0,0,1,87.09,281v8.114Z" transform="translate(-62.165 -241.435)" fill="#bbf49b"/>
                  <path id="Trazado_1190624" data-name="Trazado 1190624" d="M149.945,307.924h0a3.737,3.737,0,0,1-3.737-3.737v-1.73h7.474v1.73A3.737,3.737,0,0,1,149.945,307.924Z" transform="translate(-137.482 -271.828)" fill="#ffe5d8"/>
                  <g id="Grupo_1228747" data-name="Grupo 1228747" transform="translate(0.592)">
                    <g id="Grupo_1228744" data-name="Grupo 1228744" transform="translate(2.355 8.133)">
                      <path id="Trazado_1190625" data-name="Trazado 1190625" d="M100.064,109.05h0a9.516,9.516,0,0,1-9.516-9.516V85.778h19.032V99.535a9.515,9.515,0,0,1-9.515,9.516Z" transform="translate(-90.547 -85.778)" fill="#ffe5d8"/>
                    </g>
                    <g id="Grupo_1228746" data-name="Grupo 1228746">
                      <path id="Trazado_1190626" data-name="Trazado 1190626" d="M219.455,25.66l-1.128,8.772a6.116,6.116,0,0,1,5.752,6.116l2.368.9V32.8c0-7.142-6.993-7.142-6.993-7.142Z" transform="translate(-202.705 -23.769)" fill="#025f80"/>
                      <path id="Trazado_1190627" data-name="Trazado 1190627" d="M83.918,8.514c-4.17-2.325-16.054-1.38-16.054,7.961v8.647l2.368-.9a5.7,5.7,0,0,1,1.551-4.444,4.237,4.237,0,0,1,3.956-1.107c3.242.565,8.206.81,10.439-3.1a5.14,5.14,0,0,0-2.261-7.061Z" transform="translate(-67.864 -7.442)" fill="#025f80"/>
                      <g id="Grupo_1228745" data-name="Grupo 1228745" transform="translate(8.865 0)">
                        <path id="Trazado_1190628" data-name="Trazado 1190628" d="M160.439,8.518a12.451,12.451,0,0,0-7.189-.93,9,9,0,0,1,3.036.93,5.14,5.14,0,0,1,2.261,7.061,6.767,6.767,0,0,1-5.116,3.271c3.169.391,7.291.189,9.269-3.271A5.14,5.14,0,0,0,160.439,8.518Z" transform="translate(-153.25 -7.446)" fill="#024c67"/>
                      </g>
                    </g>
                  </g>
                </g>
              </g>
              <g id="Grupo_1228750" data-name="Grupo 1228750" transform="translate(0 16.78)">
                <path id="Trazado_1190629" data-name="Trazado 1190629" d="M60.811,173.015H59.342a1.976,1.976,0,1,1,0-3.953h1.469Z" transform="translate(-57.366 -169.062)" fill="#ffe5d8"/>
              </g>
            </g>
          </g>
          <g id="Grupo_1228762" data-name="Grupo 1228762" transform="translate(14.372 11.284)">
            <g id="Grupo_1228755" data-name="Grupo 1228755" transform="translate(0 16.248)">
              <g id="Grupo_1228753" data-name="Grupo 1228753" transform="translate(18.273)">
                <path id="Trazado_1190630" data-name="Trazado 1190630" d="M371.8,273.329l1.026,2.109a7.036,7.036,0,0,0,8.02,3.68,1.132,1.132,0,0,0,.725-1.593l-.479-.984A6.953,6.953,0,0,0,371.8,273.329Z" transform="translate(-371.797 -272.628)" fill="#025f80"/>
              </g>
              <g id="Grupo_1228754" data-name="Grupo 1228754">
                <path id="Trazado_1190631" data-name="Trazado 1190631" d="M205.683,273.329l-1.026,2.109a7.036,7.036,0,0,1-8.02,3.68,1.132,1.132,0,0,1-.725-1.593l.479-.984A6.952,6.952,0,0,1,205.683,273.329Z" transform="translate(-195.797 -272.628)" fill="#025f80"/>
              </g>
            </g>
            <g id="Grupo_1228761" data-name="Grupo 1228761" transform="translate(4.062)">
              <g id="Grupo_1228759" data-name="Grupo 1228759" transform="translate(0.385)">
                <g id="Grupo_1228758" data-name="Grupo 1228758">
                  <path id="Trazado_1190632" data-name="Trazado 1190632" d="M257.9,340.886H238.633v-3.9a9.632,9.632,0,0,1,9.632-9.632h0a9.632,9.632,0,0,1,9.632,9.632v3.9Z" transform="translate(-238.633 -305.42)" fill="#fe93d3"/>
                  <path id="Trazado_1190633" data-name="Trazado 1190633" d="M306.478,356.38h0a2.888,2.888,0,0,1-2.888-2.888v-1.337h5.777v1.337A2.888,2.888,0,0,1,306.478,356.38Z" transform="translate(-296.845 -327.65)" fill="#ffe5d8"/>
                  <g id="Grupo_1228757" data-name="Grupo 1228757" transform="translate(0.231)">
                    <g id="Grupo_1228756" data-name="Grupo 1228756" transform="translate(2.047 7.264)">
                      <path id="Trazado_1190634" data-name="Trazado 1190634" d="M267.925,204.08h0a7.354,7.354,0,0,1-7.354-7.354V186.093h14.71v10.632A7.354,7.354,0,0,1,267.925,204.08Z" transform="translate(-260.57 -186.093)" fill="#ffe5d8"/>
                      <path id="Trazado_1190635" data-name="Trazado 1190635" d="M316.688,186.093v10.632a7.356,7.356,0,0,1-5.279,7.055,7.351,7.351,0,0,0,2.076.3h0a7.354,7.354,0,0,0,7.354-7.354V186.093Z" transform="translate(-306.131 -186.093)" fill="#ffd8ca"/>
                    </g>
                    <path id="Trazado_1190636" data-name="Trazado 1190636" d="M240.857,124.088v6.683l2.057-.7c0-2.469,1.461-2.976,4.122-3.163a9.769,9.769,0,0,0,6.107-2.234,1.037,1.037,0,0,1,1.607.208,10.893,10.893,0,0,0,1.785,2.192,4.709,4.709,0,0,1,1.068,3l2.057.7v-7.378C259.66,113.931,240.857,113.252,240.857,124.088Z" transform="translate(-240.857 -116.129)" fill="#025f80"/>
                  </g>
                </g>
              </g>
              <g id="Grupo_1228760" data-name="Grupo 1228760" transform="translate(0 13.947)">
                <path id="Trazado_1190637" data-name="Trazado 1190637" d="M237.586,253.516h-1.135a1.528,1.528,0,1,1,0-3.055h1.135Z" transform="translate(-234.923 -250.461)" fill="#ffe5d8"/>
                <path id="Trazado_1190638" data-name="Trazado 1190638" d="M402.25,250.462h1.135a1.528,1.528,0,0,1,0,3.055H402.25Z" transform="translate(-384.878 -250.462)" fill="#ffe5d8"/>
              </g>
            </g>
          </g>
        </g>
        <path id="Trazado_1190639" data-name="Trazado 1190639" d="M66.391,371.583a1.681,1.681,0,0,0,1.621-1.236l2.565-9.338-1.155-1.166a4.272,4.272,0,0,0-4.259-1.085l-10.077,3.017c-2.4.762-5.345,1.9-7.069,3.7a2.18,2.18,0,0,1-3.445,0c-1.758-1.776-4.731-2.955-7.089-3.7l-11.044-3.307a2.589,2.589,0,0,0-2.583.658l-1.865,1.882,2.565,9.338a1.681,1.681,0,0,0,1.621,1.236Z" transform="translate(-20.484 -321.926)" fill="#f7f9fa"/>
        <g id="Grupo_1228764" data-name="Grupo 1228764" transform="translate(42.273 36.652)">
          <path id="Trazado_1190640" data-name="Trazado 1190640" d="M422.457,362.9,421.3,361.73a4.272,4.272,0,0,0-4.259-1.085l-.66.2a4.265,4.265,0,0,1,1.285.888l1.155,1.166,1.407,1.564-3.972,7.774a1.681,1.681,0,0,1-1.621,1.236h3.634a1.681,1.681,0,0,0,1.621-1.236Z" transform="translate(-414.637 -360.465)" fill="#d8ecfe"/>
        </g>
        <g id="Grupo_1228765" data-name="Grupo 1228765" transform="translate(19.552 44.74)">
          <path id="Trazado_1190641" data-name="Trazado 1190641" d="M205.191,445.224l2.718-6.72-2.121.661a1.043,1.043,0,0,0-.465.3,4.375,4.375,0,0,1-6.492,0,1.044,1.044,0,0,0-.465-.3l-2.571-.8,3.168,6.861Z" transform="translate(-195.796 -438.363)" fill="#ffe177"/>
        </g>
        <g id="Grupo_1228766" data-name="Grupo 1228766" transform="translate(0 38.887)">
          <path id="Trazado_1190642" data-name="Trazado 1190642" d="M305.213,394.888l3.694-11.825a.667.667,0,0,0-.834-.836L287.287,388.7a1.038,1.038,0,0,0-.728.937l-.273,5.248Z" transform="translate(-257.339 -382.175)" fill="#b98080"/>
          <path id="Trazado_1190643" data-name="Trazado 1190643" d="M435.6,382.227l-3.387,1.055-3.626,11.606h4.153l3.694-11.825A.667.667,0,0,0,435.6,382.227Z" transform="translate(-384.866 -382.175)" fill="#ae6c6c"/>
          <path id="Trazado_1190644" data-name="Trazado 1190644" d="M30.193,394.707l-.273-5.248a1.038,1.038,0,0,0-.728-.937l-20.853-6.5a.667.667,0,0,0-.844.8l3.092,11.877Z" transform="translate(-7.473 -381.994)" fill="#b98080"/>
        </g>
      </g>
      <g id="Grupo_1228768" data-name="Grupo 1228768" transform="translate(0.001 0.025)">
        <path id="Trazado_1190645" data-name="Trazado 1190645" d="M153.277,238.887a.779.779,0,0,0,0,1.1,3.963,3.963,0,0,0,5.6,0,.779.779,0,1,0-1.1-1.1,2.4,2.4,0,0,1-3.4,0A.779.779,0,0,0,153.277,238.887Z" transform="translate(-137.159 -213.883)"/>
        <path id="Trazado_1190646" data-name="Trazado 1190646" d="M117.605,167.827a1.142,1.142,0,0,1,2.284,0,.779.779,0,0,0,1.557,0,2.7,2.7,0,0,0-5.4,0,.779.779,0,0,0,1.557,0Z" transform="translate(-104 -147.986)"/>
        <path id="Trazado_1190647" data-name="Trazado 1190647" d="M311.977,303.879a.779.779,0,1,0-1.1-1.1,1.681,1.681,0,0,1-2.374,0,.779.779,0,0,0-1.1,1.1,3.24,3.24,0,0,0,4.577,0Z" transform="translate(-275.281 -271.141)"/>
        <path id="Trazado_1190648" data-name="Trazado 1190648" d="M282.323,248.76a.779.779,0,0,0,.779-.779,2.263,2.263,0,0,0-4.526,0,.779.779,0,1,0,1.557,0,.706.706,0,0,1,1.412,0A.779.779,0,0,0,282.323,248.76Z" transform="translate(-249.652 -220.209)"/>
        <path id="Trazado_1190649" data-name="Trazado 1190649" d="M341.426,248.76a.779.779,0,0,0,.779-.779.706.706,0,0,1,1.412,0,.779.779,0,1,0,1.557,0,2.263,2.263,0,0,0-4.526,0A.779.779,0,0,0,341.426,248.76Z" transform="translate(-305.28 -220.209)"/>
        <path id="Trazado_1190650" data-name="Trazado 1190650" d="M52.731,39.349a1.584,1.584,0,0,0-1.6-.312c-1.567-1.681-3.507-2.873-5.9-2.156l-2.353.7a10.532,10.532,0,0,0-2.292-2.325,8.181,8.181,0,0,0,.708-.96,7.892,7.892,0,0,0,6.548,1.273,1.948,1.948,0,0,0,1.231-2.688,8.788,8.788,0,0,0-4.01-4.537,2.3,2.3,0,0,0-.475-2.362V19.344a7.145,7.145,0,0,0-3.27-6.045,12.172,12.172,0,0,0-6.9-2,13.359,13.359,0,0,0-2.847.3V9.828c0-6.41-5.169-7.63-6.957-7.858a7.012,7.012,0,0,0-1.131-.782c-2.53-1.411-7.765-1.745-11.811.174a.779.779,0,0,0,.668,1.407c3.484-1.653,8.183-1.449,10.385-.221a4.45,4.45,0,0,1,1.964,5.994c-1.516,2.65-4.756,3.564-9.63,2.715-3.6-.627-6.139,2.06-6.39,5.5-.038.11-.68.037-.84.043V9.828a7.319,7.319,0,0,1,2.123-5.42A.779.779,0,0,0,8.854,3.3,8.822,8.822,0,0,0,6.268,9.828v7.53a2.754,2.754,0,0,0,1.665,4.949h.69a10.467,10.467,0,0,0,2.639,7.253,13.152,13.152,0,0,0-5,6.9c-1.881-.154-3.04,1.365-4.224,2.56A1.483,1.483,0,0,0,.045,40.714L3.137,52.592a.827.827,0,0,0,.95.557.779.779,0,0,0,.557-.95L1.6,40.517l20.661,6.437a.261.261,0,0,1,.182.234l.273,5.248a.779.779,0,0,0,1.555-.081l-.217-4.175a5.156,5.156,0,0,0,5.106,0l-.217,4.175a.779.779,0,0,0,.737.818.838.838,0,0,0,.818-.737l.273-5.248a.261.261,0,0,1,.182-.234l13.085-4.076a.779.779,0,1,0-.463-1.487L30.493,45.466a2.521,2.521,0,0,0-1.216.648,3.63,3.63,0,0,1-5.335,0,2.522,2.522,0,0,0-1.216-.648L3.712,39.543c.761-.768,1.551-1.832,2.8-1.459l11.037,3.3c3.187,1.012,5.463,2.192,6.765,3.507a3.031,3.031,0,0,0,4.561-.012c1.635-1.708,4.514-2.783,6.6-3.451,3.4-1.029,6.806-2.04,10.209-3.059a3.633,3.633,0,0,1,3.779,1.186l-3.064.954A.779.779,0,0,0,46.856,42l4.682-1.459L47.908,52.163a.779.779,0,0,0,.511.975.823.823,0,0,0,.975-.511L53.088,40.8a1.442,1.442,0,0,0-.357-1.453ZM41.284,38.063l-3.4,1.017a3.652,3.652,0,0,0,.187-1.158v-.687a8.157,8.157,0,0,0,1.369-.876A8.965,8.965,0,0,1,41.284,38.063Zm-6.266,1.879a2.167,2.167,0,0,1-2.719-2.11,8.161,8.161,0,0,0,4.219,0,2.186,2.186,0,0,1-1.5,2.11Zm-19.059-7.4a10.265,10.265,0,0,0,2.959.433l.8-.031a1.93,1.93,0,0,0,1.015,2.543,2.957,2.957,0,0,1-4.77-2.337Zm5.4,1.519a.354.354,0,0,1-.219-.5,7.228,7.228,0,0,1,3.669-3.989,2.638,2.638,0,0,0,1.462.283,8.37,8.37,0,0,0,.537,3.024,6.292,6.292,0,0,1-5.449,1.181ZM26.275,28.3h-.356a.749.749,0,0,1,0-1.5h.356Zm2.24,4.589a10.788,10.788,0,0,1-.682-2.916V26.153c.343-2.1,1.243-2.36,3.409-2.512a10.464,10.464,0,0,0,6.59-2.449.258.258,0,0,1,.4.047,11.715,11.715,0,0,0,1.911,2.351,3.866,3.866,0,0,1,.83,2.433c-.007,1.317.01,2.636.01,3.953a6.576,6.576,0,0,1-12.47,2.915Zm15.133-5.337a.75.75,0,0,1-.749.749h-.356v-1.5H42.9a.75.75,0,0,1,.749.749Zm3.547,5.028.479.984a.354.354,0,0,1-.219.5A6.292,6.292,0,0,1,42,32.884a8.463,8.463,0,0,0,.537-3.024A2.639,2.639,0,0,0,44,29.578a6.141,6.141,0,0,1,3.19,3ZM43.031,19.343v5.908c-.186-.011-.376-.006-.561,0a4.842,4.842,0,0,0-1.244-2.778,10.17,10.17,0,0,1-1.659-2.034,1.851,1.851,0,0,0-2.812-.369,8.973,8.973,0,0,1-5.623,2.02c-2.246.158-4.443.545-4.8,3.161-.182,0-.367-.007-.549,0V20.039c0-4.74,4.337-7.181,8.628-7.181,5.657,0,8.617,3.262,8.617,6.485ZM26.037,9.315a5.752,5.752,0,0,0,.125-5.381c1.793.656,3.848,2.211,3.848,5.895v2.225a10.11,10.11,0,0,0-2.327,1.2,6.6,6.6,0,0,0-3.031-2.206A7.05,7.05,0,0,0,26.037,9.315ZM7.933,20.749a1.2,1.2,0,1,1,0-2.4h.69v2.4Zm2.247-3.03c0-2.475,1.06-5.545,4.608-4.927,2.63.458,5.551.6,8.037-.543a5.033,5.033,0,0,1,3.666,2.015A7.688,7.688,0,0,0,24.553,17.6a2.7,2.7,0,0,0-4.166,2.265.779.779,0,1,0,1.557,0,1.143,1.143,0,0,1,1.142-1.142,1.215,1.215,0,0,1,1.142,1.315v5.948a2.3,2.3,0,0,0-.475,2.361,7.656,7.656,0,0,0-3.186,2.918A8.746,8.746,0,0,1,10.18,22.685V17.719ZM18,39.9,7.776,36.837a11.81,11.81,0,0,1,4.637-6.179A10.322,10.322,0,0,0,14.4,31.935v1.22a4.516,4.516,0,0,0,8.171,2.652,7.95,7.95,0,0,0,4.95-1.507,8.176,8.176,0,0,0,.707.959,10.311,10.311,0,0,0-4.187,7.4A22.42,22.42,0,0,0,18.011,39.9L18,39.9Zm9.748,3.908a1.65,1.65,0,0,1-1.139.6,1.614,1.614,0,0,1-1.053-.48,8.962,8.962,0,0,1,3.817-7.573,8.16,8.16,0,0,0,1.369.876v.688a3.665,3.665,0,0,0,1.567,3,13.7,13.7,0,0,0-4.563,2.879Z" transform="translate(-0.001 -0.025)"/>
      </g>
    </g>
  </g>
</svg>
