<svg xmlns="http://www.w3.org/2000/svg" xmlns:xlink="http://www.w3.org/1999/xlink" width="103" height="103" viewBox="0 0 103 103">
  <defs>
    <filter id="Trazado_978624" x="0" y="0" width="103" height="103" filterUnits="userSpaceOnUse">
      <feOffset dy="3" input="SourceAlpha"/>
      <feGaussianBlur stdDeviation="3" result="blur"/>
      <feFlood flood-opacity="0.161"/>
      <feComposite operator="in" in2="blur"/>
      <feComposite in="SourceGraphic"/>
    </filter>
  </defs>
  <g id="Grupo_1228871" data-name="Grupo 1228871" transform="translate(-171 -7329)">
    <g id="Grupo_1226917" data-name="Grupo 1226917" transform="translate(180 7335)">
      <g id="Grupo_1222970" data-name="Grupo 1222970">
        <g id="Grupo_1222589" data-name="Grupo 1222589">
          <g id="Grupo_1203109" data-name="Grupo 1203109">
            <g id="Grupo_1176881" data-name="Grupo 1176881">
              <g id="Grupo_1175148" data-name="Grupo 1175148">
                <g id="Grupo_1173798" data-name="Grupo 1173798">
                  <g id="Grupo_1171925" data-name="Grupo 1171925">
                    <g id="Grupo_1164524" data-name="Grupo 1164524">
                      <g id="Grupo_1144123" data-name="Grupo 1144123">
                        <g transform="matrix(1, 0, 0, 1, -9, -6)" filter="url(#Trazado_978624)">
                          <g id="Trazado_978624-2" data-name="Trazado 978624" transform="translate(9 6)" fill="#e7f2f8">
                            <path d="M 42.5 83.5 C 36.96437835693359 83.5 31.59512901306152 82.41617584228516 26.54141235351562 80.27863311767578 C 21.65934181213379 78.21369171142578 17.27447128295898 75.25723266601562 13.50862312316895 71.49137878417969 C 9.742764472961426 67.72553253173828 6.786305904388428 63.34066009521484 4.721364498138428 58.45858764648438 C 2.583823442459106 53.40486907958984 1.5 48.03562164306641 1.5 42.5 C 1.5 36.96437835693359 2.583823442459106 31.59512901306152 4.721364498138428 26.54141235351562 C 6.786305904388428 21.65934181213379 9.742764472961426 17.27447128295898 13.50862312316895 13.50862312316895 C 17.27447128295898 9.742764472961426 21.65934181213379 6.786305904388428 26.54141235351562 4.721364498138428 C 31.59512901306152 2.583823442459106 36.96437835693359 1.5 42.5 1.5 C 48.03562164306641 1.5 53.40486907958984 2.583823442459106 58.45858764648438 4.721364498138428 C 63.34066009521484 6.786305904388428 67.72553253173828 9.742764472961426 71.49137878417969 13.50862312316895 C 75.25723266601562 17.27447128295898 78.21369171142578 21.65934181213379 80.27863311767578 26.54141235351562 C 82.41617584228516 31.59512901306152 83.5 36.96437835693359 83.5 42.5 C 83.5 48.03562164306641 82.41617584228516 53.40486907958984 80.27863311767578 58.45858764648438 C 78.21369171142578 63.34066009521484 75.25723266601562 67.72553253173828 71.49137878417969 71.49137878417969 C 67.72553253173828 75.25723266601562 63.34066009521484 78.21369171142578 58.45858764648438 80.27863311767578 C 53.40486907958984 82.41617584228516 48.03562164306641 83.5 42.5 83.5 Z" stroke="none"/>
                            <path d="M 42.5 3 C 37.16621398925781 3 31.99356079101562 4.043960571289062 27.125732421875 6.102882385253906 C 22.42246627807617 8.092185974121094 18.19785308837891 10.94070434570312 14.56928253173828 14.56928253173828 C 10.94070434570312 18.19785308837891 8.092185974121094 22.42246627807617 6.102882385253906 27.125732421875 C 4.043960571289062 31.99356079101562 3 37.16621398925781 3 42.5 C 3 47.83378601074219 4.043960571289062 53.00643920898438 6.102882385253906 57.87425231933594 C 8.092185974121094 62.57753372192383 10.94070434570312 66.80213165283203 14.56928253173828 70.43071746826172 C 18.19786834716797 74.05929565429688 22.42246627807617 76.90781402587891 27.125732421875 78.89711761474609 C 31.99356079101562 80.95603942871094 37.16621398925781 82 42.5 82 C 47.83378601074219 82 53.00642395019531 80.95603942871094 57.87425231933594 78.89711761474609 C 62.57753372192383 76.90781402587891 66.80213165283203 74.05929565429688 70.43071746826172 70.43071746826172 C 74.05929565429688 66.80213165283203 76.90781402587891 62.57753372192383 78.89711761474609 57.87425231933594 C 80.95603942871094 53.00642395019531 82 47.83378601074219 82 42.5 C 82 37.16621398925781 80.95603942871094 31.99356079101562 78.89711761474609 27.125732421875 C 76.90781402587891 22.42246627807617 74.05929565429688 18.19786834716797 70.43071746826172 14.56928253173828 C 66.80213165283203 10.94070434570312 62.57753372192383 8.092185974121094 57.87425231933594 6.102882385253906 C 53.00643920898438 4.043960571289062 47.83378601074219 3 42.5 3 M 42.5 0 C 65.97209167480469 0 85 19.02789306640625 85 42.5 C 85 65.97209167480469 65.97209167480469 85 42.5 85 C 19.02789306640625 85 0 65.97209167480469 0 42.5 C 0 19.02789306640625 19.02789306640625 0 42.5 0 Z" stroke="none" fill="#248abf"/>
                          </g>
                        </g>
                      </g>
                    </g>
                  </g>
                </g>
              </g>
            </g>
          </g>
        </g>
      </g>
    </g>
    <g id="maestro_7_" data-name="maestro (7)" transform="translate(194.368 7345.106)">
      <g id="Grupo_1228869" data-name="Grupo 1228869" transform="translate(0.824 5.05)">
        <g id="Grupo_1228868" data-name="Grupo 1228868" transform="translate(0 0)">
          <g id="Grupo_1228867" data-name="Grupo 1228867">
            <g id="Grupo_1228845" data-name="Grupo 1228845" transform="translate(0 15.393)">
              <path id="Trazado_1190772" data-name="Trazado 1190772" d="M23.4,173.927H8.638A1.138,1.138,0,0,1,7.5,172.79V152.945a1.138,1.138,0,0,1,1.138-1.138H23.4a1.138,1.138,0,0,1,1.138,1.138V172.79A1.138,1.138,0,0,1,23.4,173.927Z" transform="translate(-7.5 -151.807)" fill="#f3eae6"/>
              <path id="Trazado_1190773" data-name="Trazado 1190773" d="M117.67,152.95v19.839a1.138,1.138,0,0,1-1.135,1.14h-4.408a1.137,1.137,0,0,0,1.135-1.14V152.95a1.137,1.137,0,0,0-1.135-1.14h4.408A1.138,1.138,0,0,1,117.67,152.95Z" transform="translate(-100.63 -151.81)" fill="#e0d3ce"/>
              <g id="Grupo_1228844" data-name="Grupo 1228844" transform="translate(3.483 5.484)">
                <g id="Grupo_1228843" data-name="Grupo 1228843" transform="translate(1.75)">
                  <path id="Trazado_1190774" data-name="Trazado 1190774" d="M55.621,201.833a.54.54,0,0,0-.376.378,3.489,3.489,0,0,0,.891,3.381,3.452,3.452,0,0,0,3.365.9.54.54,0,0,0,.376-.378,3.489,3.489,0,0,0-.891-3.381A3.452,3.452,0,0,0,55.621,201.833Z" transform="translate(-55.122 -201.709)" fill="#31a7fb"/>
                </g>
                <path id="Trazado_1190775" data-name="Trazado 1190775" d="M49.339,239.181c0,2.527-1.436,5.14-5.07,5.14s-5.07-2.613-5.07-5.14,2.27-3.446,5.07-3.446S49.339,236.654,49.339,239.181Z" transform="translate(-39.198 -231.996)" fill="#e33c53"/>
                <path id="Trazado_1190776" data-name="Trazado 1190776" d="M83.271,239.179c0,2.528-1.436,5.141-5.071,5.141a6.693,6.693,0,0,1-.881-.056,5.428,5.428,0,0,0,2.993-5.176,3.374,3.374,0,0,0-2.482-3.35c.122,0,.245-.005.37-.005C81,235.733,83.271,236.652,83.271,239.179Z" transform="translate(-73.13 -231.994)" fill="#ab283a"/>
              </g>
            </g>
            <g id="Grupo_1228866" data-name="Grupo 1228866" transform="translate(7.639)">
              <g id="Grupo_1228865" data-name="Grupo 1228865">
                <g id="Grupo_1228864" data-name="Grupo 1228864">
                  <g id="Grupo_1228860" data-name="Grupo 1228860" transform="translate(7.752)">
                    <g id="Grupo_1228859" data-name="Grupo 1228859">
                      <g id="Grupo_1228846" data-name="Grupo 1228846" transform="translate(0.801 13.539)">
                        <path id="Trazado_1190777" data-name="Trazado 1190777" d="M183.868,134.936H163.429c0,9.145-8.581,9.2-8.581,15.076a5.01,5.01,0,0,0,5,5.021h27.6a5.01,5.01,0,0,0,5-5.021C192.449,144.135,183.868,144.081,183.868,134.936Z" transform="translate(-154.848 -134.936)" fill="#a64b35"/>
                        <path id="Trazado_1190778" data-name="Trazado 1190778" d="M392.341,150.01a5.01,5.01,0,0,1-5,5.022H383a5.011,5.011,0,0,0,5-5.022c0-5.878-8.581-5.932-8.581-15.077h4.343C383.761,144.078,392.341,144.132,392.341,150.01Z" transform="translate(-354.74 -134.933)" fill="#8b3d2a"/>
                      </g>
                      <g id="Grupo_1228847" data-name="Grupo 1228847" transform="translate(0 27.76)">
                        <path id="Trazado_1190779" data-name="Trazado 1190779" d="M182.351,275.715c-4.184-10.559-12.11-11.121-12.932-11.369h-4.5c-.822.248-8.747.81-12.932,11.369l-4.429,11.2H163.24l3.949-.551,3.921.551H186.78Z" transform="translate(-147.556 -264.346)" fill="#31a7fb"/>
                        <path id="Trazado_1190780" data-name="Trazado 1190780" d="M327.387,286.917h-4.573s-.292-.812-.588-1.561l-3.811-9.643c-4.126-10.409-11.888-11.1-12.893-11.358v-.011h4.5c.822.247,8.748.811,12.932,11.369l3.811,9.643Z" transform="translate(-288.162 -264.344)" fill="#1c96f9"/>
                        <path id="Trazado_1190781" data-name="Trazado 1190781" d="M281.138,286.931c2.123-7.94,2.087-21.447,2.087-21.447v-.028a17.1,17.1,0,0,0-3.777-1.111h-4.5a17.091,17.091,0,0,0-3.777,1.111v.028s-.028,13.506,2.1,21.447l3.928-.551Z" transform="translate(-257.584 -264.346)" fill="#f69583"/>
                        <path id="Trazado_1190782" data-name="Trazado 1190782" d="M277.694,307.475a14.679,14.679,0,0,1-5.967-1.154c.138,4.541.586,12.552,2.039,17.972h7.869c1.449-5.42,1.892-13.432,2.028-17.973A14.676,14.676,0,0,1,277.694,307.475Z" transform="translate(-258.082 -301.707)" fill="#f3eae6"/>
                        <path id="Trazado_1190783" data-name="Trazado 1190783" d="M332.167,306.319c-.135,4.542-.579,12.553-2.028,17.973h-3.92c1.344-5.027,1.822-12.283,1.993-16.932A13.28,13.28,0,0,0,332.167,306.319Z" transform="translate(-306.585 -301.706)" fill="#e0d3ce"/>
                      </g>
                      <g id="Grupo_1228858" data-name="Grupo 1228858" transform="translate(7.275)">
                        <g id="Grupo_1228855" data-name="Grupo 1228855" transform="translate(0 8.518)">
                          <g id="Grupo_1228854" data-name="Grupo 1228854">
                            <g id="Grupo_1228850" data-name="Grupo 1228850" transform="translate(0 4.15)">
                              <g id="Grupo_1228848" data-name="Grupo 1228848" transform="translate(18.829)">
                                <ellipse id="Elipse_14717" data-name="Elipse 14717" cx="2.923" cy="2.868" rx="2.923" ry="2.868" fill="#f69583"/>
                              </g>
                              <g id="Grupo_1228849" data-name="Grupo 1228849">
                                <ellipse id="Elipse_14718" data-name="Elipse 14718" cx="2.923" cy="2.868" rx="2.923" ry="2.868" fill="#fdb0a0"/>
                              </g>
                            </g>
                            <g id="Grupo_1228852" data-name="Grupo 1228852" transform="translate(10.085 14.171)">
                              <g id="Grupo_1228851" data-name="Grupo 1228851">
                                <path id="Trazado_1190784" data-name="Trazado 1190784" d="M305.537,218.206h4.5v6.76h-4.5Z" transform="translate(-305.537 -218.206)" fill="#f69583"/>
                              </g>
                            </g>
                            <g id="Grupo_1228853" data-name="Grupo 1228853" transform="translate(3.583 0.001)">
                              <path id="Trazado_1190785" data-name="Trazado 1190785" d="M255.12,107.185a8.754,8.754,0,0,1-8.754-8.754V89.25h17.508v9.181A8.754,8.754,0,0,1,255.12,107.185Z" transform="translate(-246.366 -89.25)" fill="#ffcec0"/>
                            </g>
                            <path id="Trazado_1190786" data-name="Trazado 1190786" d="M317.9,89.245v9.141a8.786,8.786,0,0,1-7.081,8.633,8.68,8.68,0,0,0,1.671.161,8.774,8.774,0,0,0,8.754-8.794V89.245Z" transform="translate(-300.153 -89.245)" fill="#fdb0a0"/>
                          </g>
                        </g>
                        <g id="Grupo_1228857" data-name="Grupo 1228857" transform="translate(0.836)">
                          <g id="Grupo_1228856" data-name="Grupo 1228856">
                            <path id="Trazado_1190787" data-name="Trazado 1190787" d="M228.555,25.277H221.94a.569.569,0,0,1-.569-.569v-4.62a8.361,8.361,0,0,1,8.361-8.361h4.707v7.665A5.885,5.885,0,0,1,228.555,25.277Z" transform="translate(-221.371 -11.727)" fill="#d46a50"/>
                            <path id="Trazado_1190788" data-name="Trazado 1190788" d="M346.181,25.277h3.479a.569.569,0,0,0,.569-.569v-4.62a8.361,8.361,0,0,0-8.361-8.361H340.3v7.665A5.884,5.884,0,0,0,346.181,25.277Z" transform="translate(-327.228 -11.727)" fill="#d46a50"/>
                            <path id="Trazado_1190789" data-name="Trazado 1190789" d="M350.228,20.11v4.6a.569.569,0,0,1-.567.571h-3.494a5.794,5.794,0,0,1-.622-.033.568.568,0,0,0,.378-.538v-4.6a8.38,8.38,0,0,0-5.627-7.925V11.73h1.59A8.361,8.361,0,0,1,350.228,20.11Z" transform="translate(-327.227 -11.73)" fill="#a64b35"/>
                          </g>
                        </g>
                      </g>
                    </g>
                  </g>
                  <g id="Grupo_1228863" data-name="Grupo 1228863" transform="translate(0 31.566)">
                    <g id="Grupo_1228862" data-name="Grupo 1228862">
                      <path id="Trazado_1190790" data-name="Trazado 1190790" d="M92.917,321.1H78.152a1.138,1.138,0,0,1-1.138-1.138V300.116a1.138,1.138,0,0,1,1.138-1.138H92.917a1.138,1.138,0,0,1,1.138,1.138v19.845A1.138,1.138,0,0,1,92.917,321.1Z" transform="translate(-77.014 -298.978)" fill="#f3eae6"/>
                      <g id="Grupo_1228861" data-name="Grupo 1228861" transform="translate(11.498 0)">
                        <path id="Trazado_1190791" data-name="Trazado 1190791" d="M187.192,300.12v19.839a1.137,1.137,0,0,1-1.135,1.14H181.65a1.138,1.138,0,0,0,1.135-1.14V300.12a1.138,1.138,0,0,0-1.135-1.14h4.407A1.137,1.137,0,0,1,187.192,300.12Z" transform="translate(-181.65 -298.98)" fill="#e0d3ce"/>
                      </g>
                    </g>
                  </g>
                </g>
              </g>
            </g>
          </g>
        </g>
      </g>
      <g id="Grupo_1228870" data-name="Grupo 1228870" transform="translate(0 4.226)">
        <path id="Trazado_1190792" data-name="Trazado 1190792" d="M56.206,55.081,51.777,43.875a23.919,23.919,0,0,0-2.244-4.363h.085a5.841,5.841,0,0,0,5.823-5.845c0-2.993-1.968-4.688-3.871-6.326A14.231,14.231,0,0,1,47.889,23.2a3.648,3.648,0,0,0,.245-4.956,1.388,1.388,0,0,0,.018-.211v-4.6A9.228,9.228,0,0,0,46.9,8.8a.824.824,0,1,0-1.425.829A7.576,7.576,0,0,1,46.5,13.43v4.346H43.266A5.066,5.066,0,0,1,38.219,12.7V5.874h.766a7.451,7.451,0,0,1,4.23,1.309.824.824,0,0,0,.932-1.36,9.092,9.092,0,0,0-5.162-1.6h-6.3A9.2,9.2,0,0,0,23.5,13.412v4.62a1.389,1.389,0,0,0,.018.21,3.647,3.647,0,0,0,.232,4.943A9.972,9.972,0,0,1,22.06,25.5a.824.824,0,0,0,1.194,1.136,11.66,11.66,0,0,0,1.9-2.575,3.78,3.78,0,0,0,1.22.215,9.609,9.609,0,0,0,6.38,7.543v.316a15.774,15.774,0,0,0-7.6,3.82,1.949,1.949,0,0,0-.785-.165H18.689v-4.75a11.259,11.259,0,0,1,1.779-1.869.824.824,0,0,0-1.09-1.236c-.23.2-.461.412-.689.63V21.584a1.964,1.964,0,0,0-1.96-1.965H1.959A1.964,1.964,0,0,0,0,21.584v9.171a.824.824,0,1,0,1.648,0V21.584a.314.314,0,0,1,.311-.316h14.77a.314.314,0,0,1,.311.316V30.8h0v4.988h-2.3a6.8,6.8,0,0,0,.533-2.679c0-2.075-1.258-3.473-3.524-4.016a4.291,4.291,0,0,0-5.409-3.841,1.365,1.365,0,0,0-.954.956A4.331,4.331,0,0,0,5.811,29.5a3.758,3.758,0,0,0-2.328,3.608,6.443,6.443,0,0,0,1.11,3.717,5.223,5.223,0,0,0,3.046,2.041V41.74H1.959a.314.314,0,0,1-.311-.316v-7a.824.824,0,1,0-1.648,0v7a1.964,1.964,0,0,0,1.96,1.965H7.639V57.6A1.964,1.964,0,0,0,9.6,59.561H24.366A1.964,1.964,0,0,0,26.328,57.6V37.754a1.957,1.957,0,0,0-.086-.574,14.131,14.131,0,0,1,2.739-2.294c.007.616.023,1.508.056,2.592a.016.016,0,0,0,0,0c.037,1.219.1,2.679.19,4.264A73.021,73.021,0,0,0,31.1,55.609a.824.824,0,1,0,1.592-.427c-1.3-4.854-1.785-11.915-1.966-16.54a17.47,17.47,0,0,0,10.2,0c-.177,4.625-.657,11.685-1.956,16.542a.824.824,0,1,0,1.592.426c1.765-6.6,2.058-16.782,2.106-20.371A14.8,14.8,0,0,1,47.2,39.092a.821.821,0,0,0,.146.189,21.258,21.258,0,0,1,2.893,5.2l4.428,11.2a.824.824,0,0,0,1.533-.606ZM45.4,19.424H46.76a1.4,1.4,0,0,0,.194-.015,2.005,2.005,0,0,1,.386,1.178,2.069,2.069,0,0,1-1.935,2.036v-3.2ZM25.15,13.412a7.546,7.546,0,0,1,7.537-7.537h3.883v6.841a5.066,5.066,0,0,1-5.06,5.06H25.15Zm1.1,9.211a2.122,2.122,0,0,1-1.006-.34l-.007,0a2.03,2.03,0,0,1-.922-1.692,2.005,2.005,0,0,1,.386-1.178,1.4,1.4,0,0,0,.2.015h1.354v3.2Zm1.648.127V19.424H31.51A6.714,6.714,0,0,0,37.4,15.932a6.7,6.7,0,0,0,5.87,3.492h.49V22.75a7.93,7.93,0,1,1-15.86,0ZM6.937,26.806a2.642,2.642,0,0,1,3.118,2.053q-.329-.018-.677-.018A10.837,10.837,0,0,0,7.456,29,2.678,2.678,0,0,1,6.937,26.806ZM5.132,33.113A2.089,2.089,0,0,1,6.214,31.15a6.36,6.36,0,0,1,3.164-.66,6.36,6.36,0,0,1,3.164.66,2.089,2.089,0,0,1,1.082,1.962,4.817,4.817,0,0,1-.751,2.679H9.6a1.966,1.966,0,0,0-1.873,1.379A3.885,3.885,0,0,1,5.132,33.113ZM24.679,57.6a.314.314,0,0,1-.314.314H9.6a.314.314,0,0,1-.314-.314V37.754A.314.314,0,0,1,9.6,37.44H24.366a.314.314,0,0,1,.314.314V57.6ZM40.985,36.871a14.4,14.4,0,0,1-5.158.884,14.4,14.4,0,0,1-5.156-.883c-.034-1.234-.044-2.152-.047-2.606.567-.146,1.249-.283,2.127-.451v1.179a.824.824,0,1,0,1.648,0V32.221a9.624,9.624,0,0,0,2.855,0v2.772a.824.824,0,1,0,1.648,0V33.827a15.281,15.281,0,0,1,2.126.651C41.025,34.977,41.014,35.807,40.985,36.871Zm3.444-2.509A15.508,15.508,0,0,0,38.9,32.137v-.316a9.609,9.609,0,0,0,6.38-7.543,3.779,3.779,0,0,0,1.205-.21,15.967,15.967,0,0,0,4.007,4.521c1.843,1.586,3.3,2.839,3.3,5.077a4.191,4.191,0,0,1-4.175,4.2h-1.3A16.913,16.913,0,0,0,44.429,34.361Z" transform="translate(0 -4.226)"/>
        <path id="Trazado_1190793" data-name="Trazado 1190793" d="M319.351,166.632a.824.824,0,0,0,.824-.824v-1.2a.824.824,0,0,0-1.648,0v1.2A.824.824,0,0,0,319.351,166.632Z" transform="translate(-283.524 -146.246)"/>
        <path id="Trazado_1190794" data-name="Trazado 1190794" d="M303.951,199.855a.824.824,0,1,0-1.168-1.163,2.35,2.35,0,0,1-3.335,0,.824.824,0,0,0-1.168,1.163,4,4,0,0,0,5.671,0Z" transform="translate(-265.288 -177.107)"/>
        <path id="Trazado_1190795" data-name="Trazado 1190795" d="M281.64,154.818a.826.826,0,0,0-.854.793l-.009.228a.824.824,0,0,0,.793.855h.032a.824.824,0,0,0,.823-.793l.009-.228A.824.824,0,0,0,281.64,154.818Z" transform="translate(-249.922 -138.269)"/>
        <path id="Trazado_1190796" data-name="Trazado 1190796" d="M357.032,156.7h.031a.824.824,0,0,0,.793-.854l-.009-.228a.824.824,0,1,0-1.647.062l.009.228A.824.824,0,0,0,357.032,156.7Z" transform="translate(-317.057 -138.271)"/>
        <path id="Trazado_1190797" data-name="Trazado 1190797" d="M126.384,333.567l.039,0,.256.629a.824.824,0,0,0,1.527-.621l-2.91-7.151a.824.824,0,0,0-.763-.513h0a.824.824,0,0,0-.763.512l-2.929,7.159a.824.824,0,1,0,1.526.624l.261-.638.035,0Zm-1.854-4.653,1.223,3.005H123.3Z" transform="translate(-107.506 -290.559)"/>
        <path id="Trazado_1190798" data-name="Trazado 1190798" d="M105.637,421.114l-.565.568-.035-.035a.824.824,0,1,0-1.168,1.163l.619.621a.824.824,0,0,0,1.168,0l1.149-1.154a.824.824,0,1,0-1.168-1.163Z" transform="translate(-92.242 -375.087)"/>
        <path id="Trazado_1190799" data-name="Trazado 1190799" d="M150.651,426.123H145.56a.824.824,0,1,0,0,1.648h5.091a.824.824,0,1,0,0-1.648Z" transform="translate(-128.831 -379.761)"/>
        <path id="Trazado_1190800" data-name="Trazado 1190800" d="M105.637,452.114l-.565.568-.035-.035a.824.824,0,1,0-1.168,1.163l.619.621a.824.824,0,0,0,1.168,0l1.149-1.154a.824.824,0,1,0-1.168-1.163Z" transform="translate(-92.242 -402.68)"/>
        <path id="Trazado_1190801" data-name="Trazado 1190801" d="M150.651,457.123H145.56a.824.824,0,1,0,0,1.648h5.091a.824.824,0,1,0,0-1.648Z" transform="translate(-128.831 -407.355)"/>
      </g>
    </g>
  </g>
</svg>
