<svg xmlns="http://www.w3.org/2000/svg" xmlns:xlink="http://www.w3.org/1999/xlink" width="108" height="108" viewBox="0 0 108 108">
  <defs>
    <filter id="Trazado_904820" x="0" y="0" width="108" height="108" filterUnits="userSpaceOnUse">
      <feOffset dy="3" input="SourceAlpha"/>
      <feGaussianBlur stdDeviation="3" result="blur"/>
      <feFlood flood-opacity="0.161"/>
      <feComposite operator="in" in2="blur"/>
      <feComposite in="SourceGraphic"/>
    </filter>
  </defs>
  <g id="Grupo_1228896" data-name="Grupo 1228896" transform="translate(-194 -323)">
    <g id="Grupo_1226918" data-name="Grupo 1226918" transform="translate(203 329)">
      <g id="Grupo_1224918" data-name="Grupo 1224918" transform="translate(0)">
        <g id="Grupo_1215980" data-name="Grupo 1215980" transform="translate(0 0)">
          <g id="Grupo_1209015" data-name="Grupo 1209015" transform="translate(0 0)">
            <g id="Grupo_1207774" data-name="Grupo 1207774">
              <g id="Grupo_1206630" data-name="Grupo 1206630">
                <g id="Grupo_1185091" data-name="Grupo 1185091">
                  <g id="Grupo_1179560" data-name="Grupo 1179560">
                    <g id="Grupo_1173787" data-name="Grupo 1173787">
                      <g id="Grupo_1171910" data-name="Grupo 1171910">
                        <g id="Grupo_1167341" data-name="Grupo 1167341">
                          <g id="Grupo_1166792" data-name="Grupo 1166792">
                            <g transform="matrix(1, 0, 0, 1, -9, -6)" filter="url(#Trazado_904820)">
                              <g id="Trazado_904820-2" data-name="Trazado 904820" transform="translate(9 6)" fill="#e7f2f8">
                                <path d="M 44.99999618530273 88.50002288818359 C 39.12687301635742 88.50002288818359 33.43022155761719 87.35009765625 28.06829643249512 85.08218383789062 C 22.88852119445801 82.89133453369141 18.23629570007324 79.75460815429688 14.24084663391113 75.7591552734375 C 10.24540901184082 71.76371002197266 7.108683586120605 67.11148071289062 4.917821407318115 61.93170928955078 C 2.649921178817749 56.56978225708008 1.499996185302734 50.87313079833984 1.499996185302734 45.00000762939453 C 1.499996185302734 39.12688446044922 2.649921178817749 33.43023300170898 4.917821407318115 28.06830787658691 C 7.108683586120605 22.8885326385498 10.24540901184082 18.23630714416504 14.24084663391113 14.24085807800293 C 18.23629570007324 10.24542045593262 22.88852119445801 7.108695030212402 28.06829643249512 4.917832851409912 C 33.43022155761719 2.649932622909546 39.12687301635742 1.500007629394531 44.99999618530273 1.500007629394531 C 50.87311935424805 1.500007629394531 56.56977081298828 2.649932622909546 61.93169784545898 4.917832851409912 C 67.11147308349609 7.108695030212402 71.76369476318359 10.24542045593262 75.75914764404297 14.24085807800293 C 79.75458526611328 18.23630714416504 82.89131164550781 22.8885326385498 85.08216857910156 28.06830787658691 C 87.35007476806641 33.43023300170898 88.5 39.12688446044922 88.5 45.00000762939453 C 88.5 50.87313079833984 87.35007476806641 56.56978225708008 85.08216857910156 61.93170928955078 C 82.89131164550781 67.11148071289062 79.75458526611328 71.76371002197266 75.75914764404297 75.7591552734375 C 71.76369476318359 79.75460815429688 67.11147308349609 82.89133453369141 61.93169784545898 85.08218383789062 C 56.56977081298828 87.35009765625 50.87311935424805 88.50002288818359 44.99999618530273 88.50002288818359 Z" stroke="none"/>
                                <path d="M 44.99999618530273 2.999992370605469 C 39.32870864868164 2.999992370605469 33.82865142822266 4.110054016113281 28.65262603759766 6.299339294433594 C 23.65165710449219 8.414566040039062 19.15968322753906 11.44333648681641 15.301513671875 15.30152130126953 C 11.44333648681641 19.15969085693359 8.414566040039062 23.65164947509766 6.299339294433594 28.65263748168945 C 4.110054016113281 33.82866287231445 2.999992370605469 39.32872009277344 2.999992370605469 45.00000762939453 C 2.999992370605469 50.67129516601562 4.110054016113281 56.17135238647461 6.299339294433594 61.34738159179688 C 8.414566040039062 66.34835052490234 11.44333648681641 70.84032440185547 15.301513671875 74.69849395751953 C 19.15968322753906 78.55666351318359 23.65165710449219 81.58543395996094 28.65262603759766 83.70066833496094 C 33.82865142822266 85.88995361328125 39.32870864868164 87.00000762939453 44.99999618530273 87.00000762939453 C 50.67128372192383 87.00000762939453 56.17134094238281 85.88995361328125 61.34736633300781 83.70066833496094 C 66.34834289550781 81.58543395996094 70.84030914306641 78.55666351318359 74.69847869873047 74.69849395751953 C 78.55665588378906 70.84032440185547 81.58542633056641 66.34835052490234 83.70065307617188 61.34738159179688 C 85.88993835449219 56.17135238647461 87 50.67129516601562 87 45.00000762939453 C 87 39.32872009277344 85.88993835449219 33.82866287231445 83.70065307617188 28.65263748168945 C 81.58542633056641 23.65164947509766 78.55665588378906 19.15969085693359 74.69847869873047 15.30152130126953 C 70.84030914306641 11.44333648681641 66.34834289550781 8.414566040039062 61.34736633300781 6.299339294433594 C 56.17134094238281 4.110054016113281 50.67128372192383 2.999992370605469 44.99999618530273 2.999992370605469 M 44.99999618530273 -7.62939453125e-06 C 69.85281372070312 -7.62939453125e-06 90 20.14719390869141 90 45.00000762939453 C 90 69.85282135009766 69.85281372070312 90.00000762939453 44.99999618530273 90.00000762939453 C 20.14717864990234 90.00000762939453 -7.62939453125e-06 69.85282135009766 -7.62939453125e-06 45.00000762939453 C -7.62939453125e-06 20.14719390869141 20.14717864990234 -7.62939453125e-06 44.99999618530273 -7.62939453125e-06 Z" stroke="none" fill="#248abf"/>
                              </g>
                            </g>
                          </g>
                        </g>
                      </g>
                    </g>
                  </g>
                </g>
              </g>
            </g>
          </g>
        </g>
      </g>
    </g>
    <g id="obediente_6_" data-name="obediente (6)" transform="translate(205.613 344.982)">
      <g id="Grupo_1228872" data-name="Grupo 1228872" transform="translate(26.554 0.85)">
        <path id="Trazado_1190802" data-name="Trazado 1190802" d="M152.979,7.5h-36.1a.567.567,0,0,0-.567.567V23.781h3.717a2.778,2.778,0,0,1,.194,5.549v3.446h0a1.133,1.133,0,0,1,.961,1.119v7.036a1.133,1.133,0,0,1-.961,1.119h0V45.5a2.778,2.778,0,0,1-.194,5.549h-3.717V55.7h7.823a1.134,1.134,0,0,1,1.134,1.134v2.255s0,0,0,0h.864a1.134,1.134,0,0,1,1.134,1.134v3.615h26.278V8.067A.567.567,0,0,0,152.979,7.5Z" transform="translate(-116.315 -7.5)" fill="#fff3de"/>
      </g>
      <g id="Grupo_1228873" data-name="Grupo 1228873" transform="translate(26.554 0.85)">
        <path id="Trazado_1190803" data-name="Trazado 1190803" d="M120.032,23.781l.1,0V8.067A.567.567,0,0,1,120.7,7.5h-3.818a.567.567,0,0,0-.567.567V23.781Z" transform="translate(-116.315 -7.5)" fill="#ffe5c2"/>
        <path id="Trazado_1190804" data-name="Trazado 1190804" d="M120.032,391.629h-3.717v4.652h3.818v-4.654Z" transform="translate(-116.315 -348.085)" fill="#ffe5c2"/>
      </g>
      <g id="Grupo_1228891" data-name="Grupo 1228891" transform="translate(15.928 17.131)">
        <g id="Grupo_1228874" data-name="Grupo 1228874" transform="translate(15.497 11.694)">
          <path id="Trazado_1190805" data-name="Trazado 1190805" d="M159.3,254.29h5.247v3.876H159.3Z" transform="translate(-159.296 -254.29)" fill="#883f2e"/>
          <path id="Trazado_1190806" data-name="Trazado 1190806" d="M237.5,254.29H245v3.876H237.5Z" transform="translate(-228.637 -254.29)" fill="#883f2e"/>
        </g>
        <g id="Grupo_1228875" data-name="Grupo 1228875" transform="translate(15.497 13.701)">
          <path id="Trazado_1190807" data-name="Trazado 1190807" d="M159.3,272h5.247v1.869H159.3Z" transform="translate(-159.296 -272)" fill="#6d3326"/>
          <path id="Trazado_1190808" data-name="Trazado 1190808" d="M237.5,272H245v1.869H237.5Z" transform="translate(-228.637 -272)" fill="#6d3326"/>
        </g>
        <g id="Grupo_1228876" data-name="Grupo 1228876" transform="translate(31.857 10.789)">
          <path id="Trazado_1190809" data-name="Trazado 1190809" d="M324.678,249.153A2.843,2.843,0,0,1,321.835,252H304.262a.646.646,0,0,1-.646-.646v-4.393a.646.646,0,0,1,.646-.646h17.573A2.843,2.843,0,0,1,324.678,249.153Z" transform="translate(-303.616 -246.31)" fill="#ca6e59"/>
        </g>
        <g id="Grupo_1228877" data-name="Grupo 1228877" transform="translate(31.857 10.789)">
          <path id="Trazado_1190810" data-name="Trazado 1190810" d="M307.479,249.562a.646.646,0,0,1-.646-.646V246.31h-2.571a.646.646,0,0,0-.646.646v4.393a.646.646,0,0,0,.646.646h17.573a2.843,2.843,0,0,0,2.813-2.433Z" transform="translate(-303.616 -246.31)" fill="#bb5d4c"/>
        </g>
        <g id="Grupo_1228878" data-name="Grupo 1228878" transform="translate(20.744 10.789)">
          <path id="Trazado_1190811" data-name="Trazado 1190811" d="M209.2,246.878v4.552a.567.567,0,0,1-.567.567h-2.484a.567.567,0,0,1-.567-.567v-4.552a.567.567,0,0,1,.567-.567h2.484A.567.567,0,0,1,209.2,246.878Z" transform="translate(-205.585 -246.311)" fill="#ca6e59"/>
        </g>
        <g id="Grupo_1228879" data-name="Grupo 1228879" transform="translate(20.744 10.789)">
          <path id="Trazado_1190812" data-name="Trazado 1190812" d="M207.228,251.43v-4.552a.567.567,0,0,1,.567-.567h-1.643a.567.567,0,0,0-.567.567v4.552a.567.567,0,0,0,.567.567H207.8A.567.567,0,0,1,207.228,251.43Z" transform="translate(-205.585 -246.311)" fill="#bb5d4c"/>
        </g>
        <g id="Grupo_1228880" data-name="Grupo 1228880" transform="translate(7.042 5.549)">
          <path id="Trazado_1190813" data-name="Trazado 1190813" d="M92.025,312.312H84.876a1.136,1.136,0,0,1-.173-.015v3.446c.064,0,.129-.007.194-.007H92c.065,0,.13,0,.194.007V312.3A1.121,1.121,0,0,1,92.025,312.312Z" transform="translate(-84.703 -299.577)" fill="#883f2e"/>
          <path id="Trazado_1190814" data-name="Trazado 1190814" d="M84.876,312.312a1.136,1.136,0,0,1-.173-.015v3.446c.064,0,.129-.007.194-.007h2.661v-3.424H84.876Z" transform="translate(-84.703 -299.577)" fill="#6d3326"/>
          <path id="Trazado_1190815" data-name="Trazado 1190815" d="M84.876,203.511h7.149a1.138,1.138,0,0,1,.173.015v-3.446c-.064,0-.129.007-.194.007H84.9c-.065,0-.13,0-.194-.007v3.446A1.138,1.138,0,0,1,84.876,203.511Z" transform="translate(-84.703 -200.079)" fill="#883f2e"/>
          <path id="Trazado_1190816" data-name="Trazado 1190816" d="M84.876,203.51h2.682v-3.424H84.9c-.065,0-.13,0-.194-.007v3.446A1.154,1.154,0,0,1,84.876,203.51Z" transform="translate(-84.703 -200.078)" fill="#6d3326"/>
        </g>
        <g id="Grupo_1228881" data-name="Grupo 1228881" transform="translate(6.081 8.98)">
          <path id="Trazado_1190817" data-name="Trazado 1190817" d="M85.641,231.486v7.036a1.134,1.134,0,0,1-1.134,1.134H77.359a1.134,1.134,0,0,1-1.134-1.134v-7.036a1.134,1.134,0,0,1,1.134-1.134h7.149A1.134,1.134,0,0,1,85.641,231.486Z" transform="translate(-76.225 -230.352)" fill="#ca6e59"/>
        </g>
        <g id="Grupo_1228882" data-name="Grupo 1228882" transform="translate(6.081 8.98)">
          <path id="Trazado_1190818" data-name="Trazado 1190818" d="M80.054,238.522v-7.036a1.134,1.134,0,0,1,1.134-1.134H77.359a1.134,1.134,0,0,0-1.134,1.134v7.036a1.134,1.134,0,0,0,1.134,1.134h3.829A1.134,1.134,0,0,1,80.054,238.522Z" transform="translate(-76.225 -230.352)" fill="#bb5d4c"/>
        </g>
        <g id="Grupo_1228885" data-name="Grupo 1228885" transform="translate(0 31.915)">
          <path id="Trazado_1190819" data-name="Trazado 1190819" d="M57.774,436.19a1.159,1.159,0,0,0,.006-.116v-2.255a1.134,1.134,0,0,0-1.134-1.134H41.329a1.134,1.134,0,0,0-1.134,1.134v2.255a1.16,1.16,0,0,0,.006.116Z" transform="translate(-38.198 -432.685)" fill="#ca6e59"/>
          <path id="Trazado_1190820" data-name="Trazado 1190820" d="M44.033,436.19a1.16,1.16,0,0,1-.006-.116v-2.255a1.134,1.134,0,0,1,1.134-1.134H41.329a1.134,1.134,0,0,0-1.134,1.134v2.255a1.159,1.159,0,0,0,.006.116Z" transform="translate(-38.198 -432.685)" fill="#bb5d4c"/>
          <g id="Grupo_1228883" data-name="Grupo 1228883" transform="translate(0 3.392)">
            <path id="Trazado_1190821" data-name="Trazado 1190821" d="M44.156,467.357H23.145a.567.567,0,0,1-.567-.567v-3.048a1.134,1.134,0,0,1,1.134-1.134H43.023a1.134,1.134,0,0,1,1.134,1.134Z" transform="translate(-22.578 -462.608)" fill="#883f2e"/>
          </g>
          <g id="Grupo_1228884" data-name="Grupo 1228884" transform="translate(0 3.392)">
            <path id="Trazado_1190822" data-name="Trazado 1190822" d="M26.366,466.79v-3.048a1.134,1.134,0,0,1,1.134-1.134H23.712a1.134,1.134,0,0,0-1.134,1.134v3.048a.567.567,0,0,0,.567.567h3.788A.567.567,0,0,1,26.366,466.79Z" transform="translate(-22.578 -462.608)" fill="#6d3326"/>
          </g>
        </g>
        <g id="Grupo_1228890" data-name="Grupo 1228890" transform="translate(4.458)">
          <g id="Grupo_1228886" data-name="Grupo 1228886" transform="translate(0 21.708)">
            <path id="Trazado_1190823" data-name="Trazado 1190823" d="M74.568,345.411a2.778,2.778,0,0,1-2.778,2.778H64.683a2.778,2.778,0,1,1,0-5.556H71.79A2.778,2.778,0,0,1,74.568,345.411Z" transform="translate(-61.905 -342.633)" fill="#ca6e59"/>
          </g>
          <g id="Grupo_1228887" data-name="Grupo 1228887" transform="translate(0 21.708)">
            <path id="Trazado_1190824" data-name="Trazado 1190824" d="M65.689,345.411a2.778,2.778,0,0,1,2.778-2.778H64.683a2.778,2.778,0,0,0,0,5.556h3.784A2.778,2.778,0,0,1,65.689,345.411Z" transform="translate(-61.905 -342.633)" fill="#bb5d4c"/>
          </g>
          <g id="Grupo_1228888" data-name="Grupo 1228888" transform="translate(0)">
            <path id="Trazado_1190825" data-name="Trazado 1190825" d="M74.568,153.906a2.778,2.778,0,0,1-2.778,2.778H64.683a2.778,2.778,0,1,1,0-5.556H71.79A2.778,2.778,0,0,1,74.568,153.906Z" transform="translate(-61.905 -151.128)" fill="#ca6e59"/>
          </g>
          <g id="Grupo_1228889" data-name="Grupo 1228889">
            <path id="Trazado_1190826" data-name="Trazado 1190826" d="M65.689,153.906a2.778,2.778,0,0,1,2.778-2.778H64.683a2.778,2.778,0,0,0,0,5.556h3.784A2.778,2.778,0,0,1,65.689,153.906Z" transform="translate(-61.905 -151.128)" fill="#bb5d4c"/>
          </g>
        </g>
      </g>
      <g id="Grupo_1228894" data-name="Grupo 1228894" transform="translate(37.215 6.133)">
        <g id="Grupo_1228892" data-name="Grupo 1228892">
          <circle id="Elipse_14719" data-name="Elipse 14719" cx="7.954" cy="7.954" r="7.954" fill="#4fc123"/>
        </g>
        <g id="Grupo_1228893" data-name="Grupo 1228893" transform="translate(0)">
          <path id="Trazado_1190827" data-name="Trazado 1190827" d="M214.184,62.061a7.956,7.956,0,0,1,6.048-7.722,7.954,7.954,0,1,0,0,15.445A7.956,7.956,0,0,1,214.184,62.061Z" transform="translate(-210.372 -54.107)" fill="#47a920"/>
        </g>
      </g>
      <g id="Grupo_1228895" data-name="Grupo 1228895" transform="translate(15.078 0)">
        <path id="Trazado_1190828" data-name="Trazado 1190828" d="M66,27.07H64.635V12.356a.85.85,0,0,0-.876-.85.874.874,0,0,0-.824.885V27.07h-5.7a.85.85,0,0,0,0,1.7H66a1.993,1.993,0,0,1,0,3.985H48.635V28.77h4.634a.85.85,0,0,0,0-1.7H48.431a1.5,1.5,0,0,0-1.374.9H41.043a1.418,1.418,0,0,0-1.32-.9H37.239a1.418,1.418,0,0,0-1.32.9H32.276v-.73a1.982,1.982,0,0,0-.961-1.7V23.383a3.628,3.628,0,0,0-1.044-7.1H27.4V1.7H62.935V8.388a.85.85,0,0,0,.876.85.874.874,0,0,0,.824-.885V1.417A1.417,1.417,0,0,0,63.218,0H27.12A1.417,1.417,0,0,0,25.7,1.417V16.281H23.164a3.628,3.628,0,0,0-1.044,7.1v2.165a1.982,1.982,0,0,0-.961,1.7v7.036a1.982,1.982,0,0,0,.961,1.7v2.165a3.628,3.628,0,0,0,1.044,7.1H25.7V48.2H19.059a1.986,1.986,0,0,0-1.984,1.984v1.408h-.013a1.986,1.986,0,0,0-1.984,1.984V56.62a1.418,1.418,0,0,0,1.417,1.417H63.218a1.417,1.417,0,0,0,1.417-1.417V34.456H66a3.693,3.693,0,0,0,0-7.386Zm-24.863,2.6h5.794v2.176H41.141Zm-3.618-.9H39.44v3.985H37.523Zm-5.247.9h3.547v2.176H32.276Zm-11.04-9.766a1.93,1.93,0,0,1,1.928-1.928h7.107a1.928,1.928,0,0,1,0,3.856H23.164A1.93,1.93,0,0,1,21.236,19.909Zm1.907,14.655a.284.284,0,0,1-.283-.283V27.245a.284.284,0,0,1,.283-.283h7.149a.284.284,0,0,1,.283.283v7.036a.284.284,0,0,1-.283.283Zm6.472,1.7v1.724H23.82V36.265Zm-5.794-11V23.537h5.794v1.724Zm-.656,18.284a1.928,1.928,0,1,1,0-3.856h7.107a1.928,1.928,0,1,1,0,3.856ZM36.657,56.337H16.778V53.572a.284.284,0,0,1,.283-.283h5.262a.85.85,0,1,0,0-1.7H18.775V50.18a.284.284,0,0,1,.283-.283H34.376a.284.284,0,0,1,.283.283v1.408H26.291a.85.85,0,1,0,0,1.7H36.373a.284.284,0,0,1,.283.283Zm26.278,0H38.357V53.572a1.986,1.986,0,0,0-1.984-1.984H36.36V50.18A1.986,1.986,0,0,0,34.376,48.2H27.4V45.245h2.867a3.628,3.628,0,0,0,1.044-7.1V35.977a1.982,1.982,0,0,0,.961-1.7v-.73H35.92a1.418,1.418,0,0,0,1.32.9h2.484a1.418,1.418,0,0,0,1.32-.9h6.014a1.5,1.5,0,0,0,1.374.9h14.5V56.337Z" transform="translate(-15.078 0)"/>
        <path id="Trazado_1190829" data-name="Trazado 1190829" d="M202.872,55.411a8.8,8.8,0,1,0,8.8-8.8,8.814,8.814,0,0,0-8.8,8.8Zm15.908,0a7.1,7.1,0,1,1-7.1-7.1A7.112,7.112,0,0,1,218.78,55.411Z" transform="translate(-181.585 -41.324)"/>
        <path id="Trazado_1190830" data-name="Trazado 1190830" d="M247.795,102.847a.85.85,0,0,0-1.2,1.2l2.615,2.615a.85.85,0,0,0,1.2,0l4.053-4.053a.85.85,0,0,0-1.2-1.2l-3.452,3.452Z" transform="translate(-220.129 -89.693)"/>
        <path id="Trazado_1190831" data-name="Trazado 1190831" d="M243.681,327.919a.85.85,0,0,0,.85.85h15.635a.85.85,0,0,0,0-1.7H244.531A.85.85,0,0,0,243.681,327.919Z" transform="translate(-217.768 -289.995)"/>
        <path id="Trazado_1190832" data-name="Trazado 1190832" d="M319.411,363.546H311.35a.85.85,0,0,0,0,1.7h8.061a.85.85,0,1,0,0-1.7Z" transform="translate(-277.013 -322.337)"/>
        <path id="Trazado_1190833" data-name="Trazado 1190833" d="M244.531,365.246h4.627a.85.85,0,1,0,0-1.7h-4.627a.85.85,0,1,0,0,1.7Z" transform="translate(-217.768 -322.337)"/>
        <path id="Trazado_1190834" data-name="Trazado 1190834" d="M260.165,400.023H244.53a.85.85,0,0,0,0,1.7h15.635a.85.85,0,1,0,0-1.7Z" transform="translate(-217.767 -354.679)"/>
        <path id="Trazado_1190835" data-name="Trazado 1190835" d="M350.443,436.5H346.35a.85.85,0,1,0,0,1.7h4.093a.85.85,0,0,0,0-1.7Z" transform="translate(-308.046 -387.021)"/>
        <path id="Trazado_1190836" data-name="Trazado 1190836" d="M253.466,436.5h-8.934a.85.85,0,1,0,0,1.7h8.934a.85.85,0,0,0,0-1.7Z" transform="translate(-217.768 -387.021)"/>
      </g>
    </g>
  </g>
</svg>
