<svg xmlns="http://www.w3.org/2000/svg" xmlns:xlink="http://www.w3.org/1999/xlink" width="103" height="103" viewBox="0 0 103 103">
  <defs>
    <filter id="Trazado_978624" x="0" y="0" width="103" height="103" filterUnits="userSpaceOnUse">
      <feOffset dy="3" input="SourceAlpha"/>
      <feGaussianBlur stdDeviation="3" result="blur"/>
      <feFlood flood-opacity="0.161"/>
      <feComposite operator="in" in2="blur"/>
      <feComposite in="SourceGraphic"/>
    </filter>
  </defs>
  <g id="Grupo_1228940" data-name="Grupo 1228940" transform="translate(-196 -2080.391)">
    <g id="Grupo_1226922" data-name="Grupo 1226922" transform="translate(205 2086.391)">
      <g id="Grupo_1224934" data-name="Grupo 1224934" transform="translate(0 0)">
        <g id="Grupo_1222589" data-name="Grupo 1222589">
          <g id="Grupo_1203109" data-name="Grupo 1203109">
            <g id="Grupo_1176881" data-name="Grupo 1176881">
              <g id="Grupo_1175148" data-name="Grupo 1175148">
                <g id="Grupo_1173798" data-name="Grupo 1173798">
                  <g id="Grupo_1171925" data-name="Grupo 1171925">
                    <g id="Grupo_1164524" data-name="Grupo 1164524">
                      <g id="Grupo_1144123" data-name="Grupo 1144123">
                        <g transform="matrix(1, 0, 0, 1, -9, -6)" filter="url(#Trazado_978624)">
                          <g id="Trazado_978624-2" data-name="Trazado 978624" transform="translate(9 6)" fill="#e7f2f8">
                            <path d="M 42.5 83.49997711181641 C 36.96437835693359 83.49997711181641 31.59512901306152 82.41616058349609 26.54141235351562 80.27861785888672 C 21.65934181213379 78.21367645263672 17.27447128295898 75.25721740722656 13.50862312316895 71.49137115478516 C 9.742764472961426 67.72550964355469 6.786305904388428 63.34065246582031 4.721364498138428 58.45858001708984 C 2.583823442459106 53.40486145019531 1.5 48.03561401367188 1.5 42.49999237060547 C 1.5 36.96437072753906 2.583823442459106 31.59512138366699 4.721364498138428 26.54140472412109 C 6.786305904388428 21.65933418273926 9.742764472961426 17.27447509765625 13.50862312316895 13.50862789154053 C 17.27447128295898 9.742769241333008 21.65934181213379 6.786310195922852 26.54141235351562 4.721368789672852 C 31.59512901306152 2.58382773399353 36.96437835693359 1.500004172325134 42.5 1.500004172325134 C 48.03562164306641 1.500004172325134 53.40486907958984 2.58382773399353 58.45858764648438 4.721368789672852 C 63.34066009521484 6.786310195922852 67.72553253173828 9.742769241333008 71.49137878417969 13.50862789154053 C 75.25723266601562 17.27447509765625 78.21369171142578 21.65933418273926 80.27863311767578 26.54140472412109 C 82.41617584228516 31.59512138366699 83.5 36.96437072753906 83.5 42.49999237060547 C 83.5 48.03561401367188 82.41617584228516 53.40486145019531 80.27863311767578 58.45858001708984 C 78.21369171142578 63.34065246582031 75.25723266601562 67.72550964355469 71.49137878417969 71.49137115478516 C 67.72553253173828 75.25721740722656 63.34066009521484 78.21367645263672 58.45858764648438 80.27861785888672 C 53.40486907958984 82.41616058349609 48.03562164306641 83.49997711181641 42.5 83.49997711181641 Z" stroke="none"/>
                            <path d="M 42.5 2.999992370605469 C 37.16621398925781 2.999992370605469 31.99356079101562 4.043952941894531 27.125732421875 6.102874755859375 C 22.42246627807617 8.092178344726562 18.19785308837891 10.94069671630859 14.56928253173828 14.56927490234375 C 10.94070434570312 18.19784545898438 8.092185974121094 22.42245864868164 6.102882385253906 27.12572479248047 C 4.043960571289062 31.99355316162109 3 37.16620635986328 3 42.49999237060547 C 3 47.83377838134766 4.043960571289062 53.00641632080078 6.102867126464844 57.87424468994141 C 8.092185974121094 62.5775260925293 10.94070434570312 66.8021240234375 14.56928253173828 70.43070220947266 C 18.19785308837891 74.05927276611328 22.42246627807617 76.90779113769531 27.125732421875 78.89710998535156 C 31.99356079101562 80.95601654052734 37.16621398925781 81.99997711181641 42.5 81.99997711181641 C 47.83378601074219 81.99997711181641 53.00643920898438 80.95601654052734 57.87425231933594 78.89710998535156 C 62.57753372192383 76.90779113769531 66.80213165283203 74.05927276611328 70.43071746826172 70.43070220947266 C 74.05929565429688 66.8021240234375 76.90781402587891 62.5775260925293 78.89711761474609 57.87424468994141 C 80.95603942871094 53.00641632080078 82 47.83377838134766 82 42.49999237060547 C 82 37.16620635986328 80.95603942871094 31.99355316162109 78.89711761474609 27.12572479248047 C 76.90781402587891 22.42245864868164 74.05929565429688 18.19786071777344 70.43071746826172 14.56927490234375 C 66.80213165283203 10.94069671630859 62.57753372192383 8.092178344726562 57.87425231933594 6.102874755859375 C 53.00643920898438 4.043952941894531 47.83378601074219 2.999992370605469 42.5 2.999992370605469 M 42.5 -7.62939453125e-06 C 65.97209167480469 -7.62939453125e-06 85 19.02788543701172 85 42.49999237060547 C 85 65.97208404541016 65.97209167480469 84.99997711181641 42.5 84.99997711181641 C 19.02789306640625 84.99997711181641 0 65.97208404541016 0 42.49999237060547 C 0 19.02788543701172 19.02789306640625 -7.62939453125e-06 42.5 -7.62939453125e-06 Z" stroke="none" fill="#248abf"/>
                          </g>
                        </g>
                      </g>
                    </g>
                  </g>
                </g>
              </g>
            </g>
          </g>
        </g>
      </g>
    </g>
    <g id="proteger" transform="translate(220.322 2102.104)">
      <path id="Trazado_1190944" data-name="Trazado 1190944" d="M86.862,284.143l-10.631,7.115-3.168-.178-.124-1.247a4.048,4.048,0,0,0-3.461-3.607l-11.24-.985A21.716,21.716,0,0,1,53,282.818a11.56,11.56,0,0,0-5.653-1.536l-5.715-.047V295.2l16.175,6.126a4.4,4.4,0,0,0,1.881.125l.011,0,16.285-2.347a7.207,7.207,0,0,0,3.418-1.532l10.526-9.466a2.513,2.513,0,0,0-3.07-3.965Zm0,0" transform="translate(-37.216 -250.931)" fill="#fae0c1"/>
      <path id="Trazado_1190945" data-name="Trazado 1190945" d="M90.341,312.528a2.506,2.506,0,0,0-.23-.289l-10.7,7.861a7.205,7.205,0,0,1-3.418,1.532L59.7,323.979l-.011,0a4.4,4.4,0,0,1-1.881-.125L41.636,317.73v5.187l16.175,6.126a4.4,4.4,0,0,0,1.881.125l.011,0,16.285-2.347a7.207,7.207,0,0,0,3.418-1.532l10.526-9.466A2.514,2.514,0,0,0,90.341,312.528Zm0,0" transform="translate(-37.216 -278.643)" fill="#efd0af"/>
      <path id="Trazado_1190946" data-name="Trazado 1190946" d="M15.307,267H8.588a1.1,1.1,0,0,1-1.1-1.1V245.384a1.1,1.1,0,0,1,1.1-1.1h6.719a1.1,1.1,0,0,1,1.1,1.1V265.9A1.1,1.1,0,0,1,15.307,267Zm0,0" transform="translate(-6.693 -217.904)" fill="#f43b45"/>
      <path id="Trazado_1190947" data-name="Trazado 1190947" d="M46.8,244.285H42.719V267H46.8a1.1,1.1,0,0,0,1.1-1.1V245.384A1.1,1.1,0,0,0,46.8,244.285Zm0,0" transform="translate(-38.183 -217.904)" fill="#cf3735"/>
      <path id="Trazado_1190948" data-name="Trazado 1190948" d="M148.859,15.1a7.778,7.778,0,0,1-4.764-6.506.769.769,0,0,0-.772-.7l-8.074.047h-.164l-8.074.047a.774.774,0,0,0-.765.719,7.778,7.778,0,0,1-4.694,6.553,1.11,1.11,0,0,0-.666,1.138c.371,3.544,2.529,15.613,14.3,21.041a.366.366,0,0,0,.157.034.372.372,0,0,0,.156-.036c11.7-5.565,13.719-17.658,14.049-21.207a1.115,1.115,0,0,0-.686-1.133Zm0,0" transform="translate(-108.047 -6.61)" fill="#75cff2"/>
      <path id="Trazado_1190949" data-name="Trazado 1190949" d="M248.489,15.1a7.778,7.778,0,0,1-4.764-6.506.769.769,0,0,0-.772-.7l-4.445.026A7.778,7.778,0,0,0,243.3,15.1a1.122,1.122,0,0,1,.692,1.136c-.305,3.29-2.063,13.924-11.644,19.892a24.221,24.221,0,0,0,2.47,1.317.373.373,0,0,0,.157.034.366.366,0,0,0,.156-.036c11.7-5.565,13.72-17.658,14.049-21.207a1.116,1.116,0,0,0-.687-1.133Zm0,0" transform="translate(-207.677 -6.61)" fill="#53b4e4"/>
      <path id="Trazado_1190950" data-name="Trazado 1190950" d="M161.8,59.373C153.751,55,151.416,46.9,150.747,42.92a.426.426,0,0,1,.194-.433,10.407,10.407,0,0,0,4.506-5.918.428.428,0,0,1,.408-.306l12.038-.071a.427.427,0,0,1,.412.3,10.409,10.409,0,0,0,4.575,5.865.425.425,0,0,1,.2.43c-.622,3.985-2.861,12.118-10.863,16.582a.431.431,0,0,1-.413,0Zm0,0" transform="translate(-134.737 -31.903)" fill="#e1e0de"/>
      <path id="Trazado_1190951" data-name="Trazado 1190951" d="M245.677,42.357a10.41,10.41,0,0,1-4.575-5.865.427.427,0,0,0-.412-.3l-4.854.028a10.408,10.408,0,0,0,4.655,6.138.424.424,0,0,1,.2.429c-.557,3.562-2.4,10.438-8.506,15.047a20.364,20.364,0,0,0,2.416,1.539.431.431,0,0,0,.413,0c8-4.464,10.24-12.6,10.863-16.583a.425.425,0,0,0-.2-.43Zm0,0" transform="translate(-207.534 -31.902)" fill="#d6d6d6"/>
      <path id="Trazado_1190952" data-name="Trazado 1190952" d="M33.116,393.689a2.021,2.021,0,1,1-2.021-2.021A2.021,2.021,0,0,1,33.116,393.689Zm0,0" transform="translate(-25.987 -349.64)" fill="#ededed"/>
      <path id="Trazado_1190953" data-name="Trazado 1190953" d="M217.135,99.817a.8.8,0,0,0,1.212-.138l5.3-8a.8.8,0,1,0-1.327-.88l-4.776,7.208-2.654-2.52a.8.8,0,1,0-1.1,1.155l3.342,3.173Zm0,0" transform="translate(-190.874 -80.397)"/>
      <path id="Trazado_1190954" data-name="Trazado 1190954" d="M128.158,31.565a1.18,1.18,0,0,0,.488.107h.007a1.165,1.165,0,0,0,.494-.113c12.108-5.758,14.16-18.182,14.5-21.852a1.9,1.9,0,0,0-1.174-1.942,6.958,6.958,0,0,1-4.276-5.84A1.572,1.572,0,0,0,136.636.5h-.01L120.314.6a1.56,1.56,0,0,0-1.553,1.454,6.96,6.96,0,0,1-4.213,5.882A1.9,1.9,0,0,0,113.4,9.884c.383,3.666,2.581,16.066,14.755,21.681ZM115.174,9.4a8.545,8.545,0,0,0,5.173-7.208l16.265-.1a8.546,8.546,0,0,0,5.25,7.143.32.32,0,0,1,.2.325c-.319,3.44-2.23,15.039-13.418,20.474-11.252-5.3-13.3-16.88-13.657-20.316a.314.314,0,0,1,.187-.323Zm0,0" transform="translate(-101.354)"/>
      <path id="Trazado_1190955" data-name="Trazado 1190955" d="M143.849,39.1a.84.84,0,0,0,.977.559.8.8,0,0,0,.559-.977c-.2-.747-.373-1.5-.507-2.256a11.2,11.2,0,0,0,4.556-5.97l11.5-.068a11.2,11.2,0,0,0,4.626,5.917c-.125.753-.287,1.513-.481,2.263a.8.8,0,1,0,1.542.4c.228-.881.414-1.775.552-2.657a1.217,1.217,0,0,0-.574-1.235,9.61,9.61,0,0,1-4.226-5.417,1.231,1.231,0,0,0-1.17-.864h-.007l-12.039.07a1.232,1.232,0,0,0-1.167.878,9.61,9.61,0,0,1-4.162,5.466,1.217,1.217,0,0,0-.559,1.242c.148.88.344,1.772.583,2.649Zm0,0" transform="translate(-128.041 -25.293)"/>
      <path id="Trazado_1190956" data-name="Trazado 1190956" d="M179.722,147.594a.8.8,0,0,0-1.04.432,20.056,20.056,0,0,1-8.66,10.082,20.064,20.064,0,0,1-8.785-10,.8.8,0,0,0-1.466.624,21.6,21.6,0,0,0,9.668,10.869,1.219,1.219,0,0,0,1.181-.007,21.593,21.593,0,0,0,9.533-10.965.8.8,0,0,0-.433-1.039Zm0,0" transform="translate(-142.753 -131.424)"/>
      <path id="Trazado_1190957" data-name="Trazado 1190957" d="M24.4,384.273a2.817,2.817,0,1,0,2.817,2.817A2.82,2.82,0,0,0,24.4,384.273Zm0,4.042a1.225,1.225,0,1,1,1.225-1.225A1.226,1.226,0,0,1,24.4,388.315Zm0,0" transform="translate(-19.294 -343.031)"/>
      <path id="Trazado_1190958" data-name="Trazado 1190958" d="M53.785,244.742a3.317,3.317,0,0,0-4.58-.886L38.8,250.823l-2.222-.125-.057-.569a4.832,4.832,0,0,0-4.142-4.317l-.042,0-11.216-.983c-.379-.059-1.594-.408-4.932-2.322a12.386,12.386,0,0,0-5.675-1.633v-2.083a1.9,1.9,0,0,0-1.9-1.9H1.9a1.9,1.9,0,0,0-1.9,1.9V259.3a1.9,1.9,0,0,0,1.9,1.9H8.615a1.9,1.9,0,0,0,1.9-1.9v-.565l9.8,3.713a5.483,5.483,0,0,0,2.282.168l16.291-2.348.012,0a8.01,8.01,0,0,0,3.8-1.7l.029-.025,10.521-9.463a3.317,3.317,0,0,0,.539-4.336Zm-1.6,3.149-10.51,9.453a6.416,6.416,0,0,1-3.021,1.349l-16.279,2.347-.014,0h-.008a3.576,3.576,0,0,1-1.508-.1l-10.335-3.914v-9.093a.8.8,0,0,0-1.592,0V259.3a.3.3,0,0,1-.3.3H1.9a.3.3,0,0,1-.3-.3V238.787a.3.3,0,0,1,.3-.3H8.615a.3.3,0,0,1,.3.3v5.558a.8.8,0,1,0,1.592,0v-1.881a10.786,10.786,0,0,1,4.882,1.42c4.026,2.309,5.15,2.468,5.519,2.52l.042,0,11.217.983a3.244,3.244,0,0,1,2.761,2.9l.042.424-15.018.927-.03,0a1.815,1.815,0,0,1-1.239-.648.8.8,0,0,0-1.223,1.02,3.448,3.448,0,0,0,2.32,1.215c.492.051,16.065-.97,16.065-.97l3.122.175a.794.794,0,0,0,.487-.134l10.632-7.115a1.717,1.717,0,0,1,2.093,2.712Zm0,0" transform="translate(0 -211.295)"/>
    </g>
  </g>
</svg>
