<svg xmlns="http://www.w3.org/2000/svg" xmlns:xlink="http://www.w3.org/1999/xlink" width="93.934" height="93.934" viewBox="0 0 93.934 93.934">
  <defs>
    <filter id="Trazado_978624" x="0" y="0" width="93.934" height="93.934" filterUnits="userSpaceOnUse">
      <feOffset dy="3" input="SourceAlpha"/>
      <feGaussianBlur stdDeviation="3" result="blur"/>
      <feFlood flood-opacity="0.161"/>
      <feComposite operator="in" in2="blur"/>
      <feComposite in="SourceGraphic"/>
    </filter>
  </defs>
  <g id="Grupo_1228965" data-name="Grupo 1228965" transform="translate(-820 -3983.221)">
    <g id="Grupo_1226962" data-name="Grupo 1226962" transform="translate(0 -11.918)">
      <g id="Grupo_1225962" data-name="Grupo 1225962" transform="translate(0 2131.139)">
        <g id="Grupo_1224946" data-name="Grupo 1224946" transform="translate(0.001 -1280.072)">
          <g id="Grupo_1214678" data-name="Grupo 1214678" transform="translate(629 2419.039)">
            <g id="Grupo_1212847" data-name="Grupo 1212847" transform="translate(-418 -798.5)">
              <g id="Grupo_1210963" data-name="Grupo 1210963" transform="translate(0 -377.186)">
                <g id="Grupo_1208068" data-name="Grupo 1208068" transform="translate(412 470.719)">
                  <g id="Grupo_1144123" data-name="Grupo 1144123" transform="translate(206 1436)">
                    <g transform="matrix(1, 0, 0, 1, -9, -6)" filter="url(#Trazado_978624)">
                      <g id="Trazado_978624-2" data-name="Trazado 978624" transform="translate(9 6)" fill="#e7f2f8">
                        <path d="M 37.966796875 74.43359375 C 33.04315185546875 74.43359375 28.26757431030273 73.46962738037109 23.77274131774902 71.56847381591797 C 19.43047523498535 69.73184967041016 15.53040790557861 67.10224914550781 12.18087482452393 63.75271987915039 C 8.831341743469238 60.4031867980957 6.201741218566895 56.50312042236328 4.365118980407715 52.16086196899414 C 2.463963508605957 47.66601943969727 1.499996900558472 42.89044189453125 1.499996900558472 37.966796875 C 1.499996900558472 33.04315185546875 2.463963508605957 28.26757431030273 4.365118980407715 23.77274131774902 C 6.201741218566895 19.43047523498535 8.831341743469238 15.53040790557861 12.18087482452393 12.18087482452393 C 15.53040790557861 8.831341743469238 19.43047523498535 6.201741218566895 23.77274131774902 4.365118980407715 C 28.26757431030273 2.463963508605957 33.04315185546875 1.499996900558472 37.966796875 1.499996900558472 C 42.89044189453125 1.499996900558472 47.66601943969727 2.463963508605957 52.16086196899414 4.365118980407715 C 56.50312042236328 6.201741218566895 60.4031867980957 8.831341743469238 63.75271987915039 12.18087482452393 C 67.10224914550781 15.53040790557861 69.73184967041016 19.43047523498535 71.56847381591797 23.77274131774902 C 73.46962738037109 28.26757431030273 74.43359375 33.04315185546875 74.43359375 37.966796875 C 74.43359375 42.89044189453125 73.46962738037109 47.66601943969727 71.56847381591797 52.16086196899414 C 69.73184967041016 56.50313186645508 67.10224914550781 60.4031867980957 63.75271987915039 63.75271987915039 C 60.4031867980957 67.10224914550781 56.50313186645508 69.73184967041016 52.16086196899414 71.56847381591797 C 47.66601943969727 73.46962738037109 42.89044189453125 74.43359375 37.966796875 74.43359375 Z" stroke="none"/>
                        <path d="M 37.966796875 3 C 33.2449836730957 3 28.66600799560547 3.924095153808594 24.35705947875977 5.746635437011719 C 20.19359588623047 7.507621765136719 16.45379638671875 10.02927398681641 13.24153518676758 13.24153518676758 C 10.02927398681641 16.45379638671875 7.507621765136719 20.19359588623047 5.746635437011719 24.35705947875977 C 3.924095153808594 28.66600799560547 3 33.2449836730957 3 37.966796875 C 3 42.6886100769043 3.924095153808594 47.26758575439453 5.746635437011719 51.57653427124023 C 7.507621765136719 55.73999786376953 10.02927398681641 59.47979736328125 13.24153518676758 62.69205856323242 C 16.45379638671875 65.90431976318359 20.19359588623047 68.42597198486328 24.35705947875977 70.18695831298828 C 28.66600799560547 72.00949859619141 33.2449836730957 72.93359375 37.966796875 72.93359375 C 42.6886100769043 72.93359375 47.26758575439453 72.00949859619141 51.57653427124023 70.18695831298828 C 55.73999786376953 68.42597198486328 59.47979736328125 65.90431976318359 62.69205856323242 62.69205856323242 C 65.90431976318359 59.47979736328125 68.42597198486328 55.73999786376953 70.18695831298828 51.57653427124023 C 72.00949859619141 47.26758575439453 72.93359375 42.6886100769043 72.93359375 37.966796875 C 72.93359375 33.2449836730957 72.00949859619141 28.66600799560547 70.18695831298828 24.35705947875977 C 68.42597198486328 20.19359588623047 65.90431976318359 16.45379638671875 62.69205856323242 13.24153518676758 C 59.47979736328125 10.02927398681641 55.73999786376953 7.507621765136719 51.57653427124023 5.746635437011719 C 47.26758575439453 3.924095153808594 42.6886100769043 3 37.966796875 3 M 37.966796875 0 C 58.93528366088867 0 75.93359375 16.99831008911133 75.93359375 37.966796875 C 75.93359375 58.93528366088867 58.93528366088867 75.93359375 37.966796875 75.93359375 C 16.99831008911133 75.93359375 0 58.93528366088867 0 37.966796875 C 0 16.99831008911133 16.99831008911133 0 37.966796875 0 Z" stroke="none" fill="#248abf"/>
                      </g>
                    </g>
                  </g>
                </g>
              </g>
            </g>
          </g>
        </g>
      </g>
    </g>
    <g id="sin-agresion" transform="translate(844.45 4004.246)">
      <g id="Grupo_1228963" data-name="Grupo 1228963" transform="translate(0.731 0.658)">
        <path id="Trazado_1191190" data-name="Trazado 1191190" d="M192.3,354.071h11.173v5.423H192.3Z" transform="translate(-176.1 -323.677)" fill="#ffb09e"/>
        <path id="Trazado_1191191" data-name="Trazado 1191191" d="M105.283,7.5l-9.124.008a2.2,2.2,0,0,0-1.19.35,1.887,1.887,0,0,1-2.04,0,2.2,2.2,0,0,0-1.191-.345l-.283.008a8.223,8.223,0,0,0-8.208,8.238l.026,14.987a3.346,3.346,0,0,0,3.352,3.34l23.582-.042a3.346,3.346,0,0,0,3.34-3.352l-.026-14.987A8.223,8.223,0,0,0,105.283,7.5Z" transform="translate(-76.61 -7.5)" fill="#7ca1b1"/>
        <path id="Trazado_1191192" data-name="Trazado 1191192" d="M314.238,30.695a3.345,3.345,0,0,1-3.34,3.352l-1.838,0c1.23-.678,2.091-3.689,2.089-5l-.028-13.338A8.122,8.122,0,0,0,303.23,7.5l2.744,0a8.223,8.223,0,0,1,8.238,8.209Z" transform="translate(-277.301 -7.5)" fill="#678d98"/>
        <path id="Trazado_1191193" data-name="Trazado 1191193" d="M23.74,415.907,11.608,417.04a4.489,4.489,0,0,0-4.035,4.466v0a2.168,2.168,0,0,0,2.168,2.168H48.979a2.168,2.168,0,0,0,2.168-2.168,4.489,4.489,0,0,0-4.038-4.466l-12.2-1.133Z" transform="translate(-7.573 -380.09)" fill="#62dbfb"/>
        <path id="Trazado_1191194" data-name="Trazado 1191194" d="M448.661,432.039a2.168,2.168,0,0,1-2.169,2.168h-2.631a2.168,2.168,0,0,0,2.169-2.168,6.033,6.033,0,0,0-1.743-3.657,8.426,8.426,0,0,0-.987-.932l1.323.123a4.49,4.49,0,0,1,4.038,4.467Z" transform="translate(-405.087 -390.621)" fill="#01d0fb"/>
        <path id="Trazado_1191195" data-name="Trazado 1191195" d="M79.169,177.755H76.9a1.513,1.513,0,0,1-1.513-1.513v-4.227A1.513,1.513,0,0,1,76.9,170.5h2.266Z" transform="translate(-69.443 -156.208)" fill="#ffcebf"/>
        <path id="Trazado_1191196" data-name="Trazado 1191196" d="M142.593,117.542v7.252a11.669,11.669,0,0,1-5.432,9.858q-.207.132-.421.254a12.464,12.464,0,0,1-12.416,0,11.662,11.662,0,0,1-5.853-10.113v-7.252l8.257-5.091Z" transform="translate(-108.744 -103.247)" fill="#ffdfcf"/>
        <path id="Trazado_1191197" data-name="Trazado 1191197" d="M254.377,161.883v7.252a11.668,11.668,0,0,1-5.432,9.858q-.207.132-.421.254A12.459,12.459,0,0,1,241,180.834a12.445,12.445,0,0,0,4.893-1.586q.214-.122.421-.254a11.66,11.66,0,0,0,5.333-8.345c.008-.061.016-.12.022-.181a11.388,11.388,0,0,0,.077-1.333v-8.08Z" transform="translate(-220.529 -147.588)" fill="#ffcebf"/>
        <path id="Trazado_1191198" data-name="Trazado 1191198" d="M393.526,177.755h2.266a1.513,1.513,0,0,0,1.513-1.513v-4.227a1.513,1.513,0,0,0-1.513-1.513h-2.266Z" transform="translate(-359.678 -156.208)" fill="#ffb09e"/>
        <path id="Trazado_1191199" data-name="Trazado 1191199" d="M129.3,36.843l-12.179,2v9.722h4.637l3.351-4.242c2.516,2.74,8.542,4.242,12.534,4.242h3.719l-.028-6.086Z" transform="translate(-107.516 -34.27)" fill="#7ca1b1"/>
        <path id="Trazado_1191200" data-name="Trazado 1191200" d="M322.253,267.622a11.66,11.66,0,0,1-5.333,8.345,5.1,5.1,0,0,1,5.333-8.345Z" transform="translate(-288.504 -244.561)" fill="#aca6d6"/>
        <path id="Trazado_1191201" data-name="Trazado 1191201" d="M327.426,267.622a11.66,11.66,0,0,1-5.333,8.345,5.087,5.087,0,0,1-.913-1.324,11.661,11.661,0,0,0,3.615-7.02c.008-.061.016-.12.022-.181a5.123,5.123,0,0,1,2.609.181Z" transform="translate(-293.677 -244.561)" fill="#978ecb"/>
        <path id="Trazado_1191202" data-name="Trazado 1191202" d="M64.662,316.15c-1.362,1.362-4.964,2.757-6.326,1.395s.033-4.964,1.395-6.326a3.486,3.486,0,1,1,4.931,4.931Z" transform="translate(-53.376 -283.652)" fill="#7ca1b1"/>
        <path id="Trazado_1191203" data-name="Trazado 1191203" d="M365.116,316.15c1.362,1.362,4.964,2.757,6.326,1.395s-.033-4.964-1.395-6.326a3.486,3.486,0,1,0-4.931,4.931Z" transform="translate(-332.828 -283.652)" fill="#7ca1b1"/>
        <g id="Grupo_1228962" data-name="Grupo 1228962" transform="translate(12.259 8.665)">
          <path id="Trazado_1191204" data-name="Trazado 1191204" d="M154.235,108.891l-4.3,4.3a1.514,1.514,0,0,1-2.14-2.14l4.3-4.3a1.514,1.514,0,1,1,2.14,2.14Z" transform="translate(-147.355 -106.307)" fill="#bc7c63"/>
          <path id="Trazado_1191205" data-name="Trazado 1191205" d="M152.094,113.187l-4.3-4.3a1.514,1.514,0,0,1,2.14-2.14l4.3,4.3a1.514,1.514,0,1,1-2.14,2.14Z" transform="translate(-147.355 -106.307)" fill="#aa6a51"/>
        </g>
        <path id="Trazado_1191206" data-name="Trazado 1191206" d="M401.639,349.935l1.426-1.426a2,2,0,0,0-2.832-2.832l-1.426,1.426-1.426-1.426a2,2,0,0,0-2.832,2.832l1.426,1.426-1.426,1.426a2,2,0,0,0,2.832,2.832l1.426-1.426,1.426,1.426a2,2,0,0,0,2.832-2.832Z" transform="translate(-360.078 -315.484)" fill="#fe646f"/>
      </g>
      <g id="Grupo_1228964" data-name="Grupo 1228964" transform="translate(0.073 0)">
        <path id="Trazado_1191207" data-name="Trazado 1191207" d="M44.352,39.644a2.663,2.663,0,0,0-.169-3.576l-.961-.961.961-.961a2.66,2.66,0,1,0-3.762-3.762l-.961.961-.961-.961a2.659,2.659,0,0,0-4.364,2.832,4.5,4.5,0,0,1-.652-.526,2.829,2.829,0,1,1,4-4c.063.063.129.135.194.212a.658.658,0,1,0,1-.85c-.089-.1-.179-.2-.268-.292A4.12,4.12,0,0,0,37,26.835c.054-.048.107-.1.158-.15a3.977,3.977,0,0,0,1.168-2.833l0-1.572a2.164,2.164,0,0,0,.692-1.587V16.466a2.165,2.165,0,0,0-.7-1.6l-.011-6A8.89,8.89,0,0,0,29.419,0H29.4L20.278.008a2.858,2.858,0,0,0-1.544.454,1.232,1.232,0,0,1-.665.2h0A1.232,1.232,0,0,1,17.4.465,2.858,2.858,0,0,0,15.863.016H15.84l-.274.008a8.859,8.859,0,0,0-6.826,3.23.658.658,0,0,0,1.014.838A7.548,7.548,0,0,1,15.577,1.34H15.6l.273-.008a1.546,1.546,0,0,1,.827.242,2.545,2.545,0,0,0,1.371.4h0a2.545,2.545,0,0,0,1.374-.406,1.546,1.546,0,0,1,.834-.245l9.125-.008h.014a7.574,7.574,0,0,1,7.565,7.552l.01,5.434c-.049,0-.1-.006-.149-.006H30.86a22.516,22.516,0,0,1-10.1-2.532,2.17,2.17,0,0,0-3.5-2.462l-.613.613L16.038,9.3a2.171,2.171,0,0,0-3.071,3.071l.613.613-.613.613a2.158,2.158,0,0,0-.467.7H8.191c-.053,0-.1,0-.156.006l-.01-5.383a7.57,7.57,0,0,1,.321-2.2.658.658,0,1,0-1.26-.38A8.885,8.885,0,0,0,6.71,8.921l.011,5.95a2.165,2.165,0,0,0-.7,1.594v4.227A2.165,2.165,0,0,0,6.733,22.3l0,1.608a3.993,3.993,0,0,0,1.288,2.931,4.12,4.12,0,0,0-1.4.921C5.1,29.279,3.5,33.294,5.226,35.016a2.882,2.882,0,0,0,2.1.746,8.338,8.338,0,0,0,5.153-2.141,4.112,4.112,0,0,0,1.186-2.455,12.531,12.531,0,0,0,2.606,1.883v2.824l-4.344.406a.658.658,0,0,0,.122,1.31l4.877-.455,11.112,0,5.933.551A2.659,2.659,0,0,0,38.5,39.83l.961-.961.961.961a2.663,2.663,0,0,0,2.852.595,3.815,3.815,0,0,1,.373,1.651,1.512,1.512,0,0,1-1.51,1.51H2.9a1.513,1.513,0,0,1-1.51-1.513,3.819,3.819,0,0,1,3.438-3.811L8.8,37.891a.658.658,0,0,0-.122-1.31L4.7,36.953A5.133,5.133,0,0,0,.073,42.076,2.829,2.829,0,0,0,2.9,44.9H42.136a2.829,2.829,0,0,0,2.826-2.826A5.121,5.121,0,0,0,44.352,39.644ZM29.269,31.189A4.438,4.438,0,0,1,32.833,24.1a4.463,4.463,0,0,1,.9.092A11.045,11.045,0,0,1,29.269,31.189Zm7.741-7.335a2.687,2.687,0,0,1-2.567,2.69,12.466,12.466,0,0,0,.774-3.681c.438-.005,1.439.011,1.791-.007Zm.23-8.145a.912.912,0,0,1,.459.757v4.227a.856.856,0,0,1-.855.855H35.236V15.611h1.608a.849.849,0,0,1,.4.1ZM18.194,10.231a.856.856,0,0,1,1.21,0,.906.906,0,0,1-.05,1.26l-.563.563-1.21-1.21Zm-4.3,0a.857.857,0,0,1,1.21,0l4.3,4.3a.856.856,0,0,1-1.21,1.21l-4.3-4.3A.857.857,0,0,1,13.9,10.231Zm1.823,4.894-.613.613a.856.856,0,1,1-1.21-1.21l.613-.613ZM9.8,15.611v5.936H8.191a.856.856,0,0,1-.855-.855V16.466a.856.856,0,0,1,.855-.855ZM8.191,22.863H9.818a12.291,12.291,0,0,0,.79,3.723,2.688,2.688,0,0,1-2.557-2.68l0-1.047c.047,0,.094.005.141.005Zm3.361,9.828a7.168,7.168,0,0,1-2.876,1.551,2.736,2.736,0,0,1-2.52-.156A2.736,2.736,0,0,1,6,31.566,7.166,7.166,0,0,1,7.551,28.69a2.829,2.829,0,1,1,4,4ZM11.114,22.2V15.611h1.273a2.17,2.17,0,0,0,3.651,1.057l.613-.613.613.613A2.171,2.171,0,1,0,20.335,13.6l-.613-.613.193-.193A23.469,23.469,0,0,0,30.86,15.611h3.061V22.2c0,.229-.008.457-.022.684a5.753,5.753,0,0,0-6.82,5.655,5.725,5.725,0,0,0,1.069,3.342,11.846,11.846,0,0,1-11.51-.138A11.031,11.031,0,0,1,11.114,22.2Zm11.4,12.42a13.161,13.161,0,0,0,4.929-.956v2.149H17.589V33.668A13.163,13.163,0,0,0,22.518,34.625Zm6.244,1.256V33.049a12.728,12.728,0,0,0,2.606-1.883,4.112,4.112,0,0,0,1.186,2.455,8.172,8.172,0,0,0,2.916,1.717l-.731.731a2.669,2.669,0,0,0-.287.34Zm12.59,3.02-1.426-1.426a.658.658,0,0,0-.93,0L37.57,38.9a1.344,1.344,0,0,1-1.9-1.9l1.426-1.426a.658.658,0,0,0,0-.93l-1.426-1.426a1.344,1.344,0,1,1,1.9-1.9L39,32.742a.658.658,0,0,0,.93,0l1.426-1.426a1.344,1.344,0,1,1,1.9,1.9l-1.426,1.426a.658.658,0,0,0,0,.93L43.253,37a1.344,1.344,0,1,1-1.9,1.9Z" transform="translate(-0.073 0)"/>
        <path id="Trazado_1191208" data-name="Trazado 1191208" d="M301.1,213q.116.008.23.008a2.913,2.913,0,0,0,2.149-.884.658.658,0,1,0-.961-.9,1.656,1.656,0,0,1-1.33.463,1.486,1.486,0,0,1-1-.395.658.658,0,1,0-1.072.762A2.673,2.673,0,0,0,301.1,213Z" transform="translate(-272.773 -192.51)"/>
        <path id="Trazado_1191209" data-name="Trazado 1191209" d="M229.672,292.73a.657.657,0,0,0,.917-.155,1.486,1.486,0,0,1,1-.395,1.655,1.655,0,0,1,1.33.463.658.658,0,0,0,.961-.9,2.952,2.952,0,0,0-2.379-.877,2.672,2.672,0,0,0-1.988.945A.658.658,0,0,0,229.672,292.73Z" transform="translate(-209.284 -265.352)"/>
        <path id="Trazado_1191210" data-name="Trazado 1191210" d="M165.057,213a2.673,2.673,0,0,0,1.988-.945.658.658,0,0,0-1.072-.762,1.486,1.486,0,0,1-1,.395,1.655,1.655,0,0,1-1.33-.463.658.658,0,1,0-.961.9,2.913,2.913,0,0,0,2.149.884Q164.942,213.008,165.057,213Z" transform="translate(-148.256 -192.51)"/>
        <path id="Trazado_1191211" data-name="Trazado 1191211" d="M182.922,246.284v-.83a.658.658,0,1,0-1.315,0v.83a.658.658,0,1,0,1.315,0Z" transform="translate(-165.687 -223.327)"/>
      </g>
    </g>
  </g>
</svg>
