<svg xmlns="http://www.w3.org/2000/svg" xmlns:xlink="http://www.w3.org/1999/xlink" width="103" height="103" viewBox="0 0 103 103">
  <defs>
    <filter id="Trazado_978624" x="0" y="0" width="103" height="103" filterUnits="userSpaceOnUse">
      <feOffset dy="3" input="SourceAlpha"/>
      <feGaussianBlur stdDeviation="3" result="blur"/>
      <feFlood flood-opacity="0.161"/>
      <feComposite operator="in" in2="blur"/>
      <feComposite in="SourceGraphic"/>
    </filter>
  </defs>
  <g id="Grupo_1228969" data-name="Grupo 1228969" transform="translate(-171 -5862.629)">
    <g id="Grupo_1226966" data-name="Grupo 1226966" transform="translate(180 5868.629)">
      <g id="Grupo_1222970" data-name="Grupo 1222970">
        <g id="Grupo_1222589" data-name="Grupo 1222589">
          <g id="Grupo_1203109" data-name="Grupo 1203109">
            <g id="Grupo_1176881" data-name="Grupo 1176881">
              <g id="Grupo_1175148" data-name="Grupo 1175148">
                <g id="Grupo_1173798" data-name="Grupo 1173798">
                  <g id="Grupo_1171925" data-name="Grupo 1171925">
                    <g id="Grupo_1164524" data-name="Grupo 1164524">
                      <g id="Grupo_1144123" data-name="Grupo 1144123">
                        <g transform="matrix(1, 0, 0, 1, -9, -6)" filter="url(#Trazado_978624)">
                          <g id="Trazado_978624-2" data-name="Trazado 978624" transform="translate(9 6)" fill="#e7f2f8">
                            <path d="M 42.5 83.5 C 36.96437835693359 83.5 31.59512901306152 82.41617584228516 26.54141235351562 80.27863311767578 C 21.65934181213379 78.21369171142578 17.27447128295898 75.25723266601562 13.50862312316895 71.49137878417969 C 9.742764472961426 67.72553253173828 6.786305904388428 63.34066009521484 4.721364498138428 58.45858764648438 C 2.583823442459106 53.40486907958984 1.5 48.03562164306641 1.5 42.5 C 1.5 36.96437835693359 2.583823442459106 31.59512901306152 4.721364498138428 26.54141235351562 C 6.786305904388428 21.65934181213379 9.742764472961426 17.27447128295898 13.50862312316895 13.50862312316895 C 17.27447128295898 9.742764472961426 21.65934181213379 6.786305904388428 26.54141235351562 4.721364498138428 C 31.59512901306152 2.583823442459106 36.96437835693359 1.5 42.5 1.5 C 48.03562164306641 1.5 53.40486907958984 2.583823442459106 58.45858764648438 4.721364498138428 C 63.34066009521484 6.786305904388428 67.72553253173828 9.742764472961426 71.49137878417969 13.50862312316895 C 75.25723266601562 17.27447128295898 78.21369171142578 21.65934181213379 80.27863311767578 26.54141235351562 C 82.41617584228516 31.59512901306152 83.5 36.96437835693359 83.5 42.5 C 83.5 48.03562164306641 82.41617584228516 53.40486907958984 80.27863311767578 58.45858764648438 C 78.21369171142578 63.34066009521484 75.25723266601562 67.72553253173828 71.49137878417969 71.49137878417969 C 67.72553253173828 75.25723266601562 63.34066009521484 78.21369171142578 58.45858764648438 80.27863311767578 C 53.40486907958984 82.41617584228516 48.03562164306641 83.5 42.5 83.5 Z" stroke="none"/>
                            <path d="M 42.5 3 C 37.16621398925781 3 31.99356079101562 4.043960571289062 27.125732421875 6.102882385253906 C 22.42246627807617 8.092185974121094 18.19785308837891 10.94070434570312 14.56928253173828 14.56928253173828 C 10.94070434570312 18.19785308837891 8.092185974121094 22.42246627807617 6.102882385253906 27.125732421875 C 4.043960571289062 31.99356079101562 3 37.16621398925781 3 42.5 C 3 47.83378601074219 4.043960571289062 53.00643920898438 6.102882385253906 57.87425231933594 C 8.092185974121094 62.57753372192383 10.94070434570312 66.80213165283203 14.56928253173828 70.43071746826172 C 18.19786834716797 74.05929565429688 22.42246627807617 76.90781402587891 27.125732421875 78.89711761474609 C 31.99356079101562 80.95603942871094 37.16621398925781 82 42.5 82 C 47.83378601074219 82 53.00642395019531 80.95603942871094 57.87425231933594 78.89711761474609 C 62.57753372192383 76.90781402587891 66.80213165283203 74.05929565429688 70.43071746826172 70.43071746826172 C 74.05929565429688 66.80213165283203 76.90781402587891 62.57753372192383 78.89711761474609 57.87425231933594 C 80.95603942871094 53.00642395019531 82 47.83378601074219 82 42.5 C 82 37.16621398925781 80.95603942871094 31.99356079101562 78.89711761474609 27.125732421875 C 76.90781402587891 22.42246627807617 74.05929565429688 18.19786834716797 70.43071746826172 14.56928253173828 C 66.80213165283203 10.94070434570312 62.57753372192383 8.092185974121094 57.87425231933594 6.102882385253906 C 53.00643920898438 4.043960571289062 47.83378601074219 3 42.5 3 M 42.5 0 C 65.97209167480469 0 85 19.02789306640625 85 42.5 C 85 65.97209167480469 65.97209167480469 85 42.5 85 C 19.02789306640625 85 0 65.97209167480469 0 42.5 C 0 19.02789306640625 19.02789306640625 0 42.5 0 Z" stroke="none" fill="#248abf"/>
                          </g>
                        </g>
                      </g>
                    </g>
                  </g>
                </g>
              </g>
            </g>
          </g>
        </g>
      </g>
    </g>
    <g id="aprender-en-linea_3_" data-name="aprender-en-linea (3)" transform="translate(191.426 5883.922)">
      <g id="Grupo_1228967" data-name="Grupo 1228967" transform="translate(5.118 0.797)">
        <path id="Trazado_1191212" data-name="Trazado 1191212" d="M179.907,428.42a.956.956,0,0,0-.954-.886h-10.62l-.466,6.351h12.441Z" transform="translate(-151.278 -382.893)" fill="#596c76"/>
        <path id="Trazado_1191213" data-name="Trazado 1191213" d="M57.36,102.259H14.472a2.646,2.646,0,0,0-2.646,2.646v24.554L13,131.022H57.535V103.2A2.639,2.639,0,0,0,57.36,102.259Z" transform="translate(-11.821 -92.188)" fill="#99e6fc"/>
        <path id="Trazado_1191214" data-name="Trazado 1191214" d="M182.45,391.784a.957.957,0,0,1,.954.886l.4,5.465h2.438l-.778-10.6h-12.9l-.312,4.251Z" transform="translate(-155.2 -347.143)" fill="#465a61"/>
        <path id="Trazado_1191215" data-name="Trazado 1191215" d="M434.346,102.259h-.08a2.637,2.637,0,0,1,.175.945v27.817h.808l1.743-1.563V104.9A2.646,2.646,0,0,0,434.346,102.259Z" transform="translate(-389.364 -92.188)" fill="#62dbfb"/>
        <path id="Trazado_1191216" data-name="Trazado 1191216" d="M132.906,348.014V346.08a3.846,3.846,0,0,0-3.845-3.846H111.82a3.846,3.846,0,0,0-3.846,3.846v1.934Z" transform="translate(-97.75 -306.659)" fill="#fdb97e"/>
        <path id="Trazado_1191217" data-name="Trazado 1191217" d="M306.691,346.08v1.934h2.628V346.08a3.846,3.846,0,0,0-3.846-3.846h-2.628A3.846,3.846,0,0,1,306.691,346.08Z" transform="translate(-271.911 -306.659)" fill="#fea95c"/>
        <path id="Trazado_1191218" data-name="Trazado 1191218" d="M183.85,348.014l2.366-5.78H172.834l2.366,5.78Z" transform="translate(-155.717 -306.659)" fill="#b3ceec"/>
        <path id="Trazado_1191219" data-name="Trazado 1191219" d="M131.177,42.1a27.862,27.862,0,0,0-11.55,0,7.606,7.606,0,0,0-5.927,6.47h.612v1.408h-.7c0,.156-.01-.081.068,1.394h1v1.408h-.929c.069,1.3.172,3.231.325,6.12H136.72l.461-8.687A7.721,7.721,0,0,0,131.177,42.1Z" transform="translate(-102.793 -37.884)" fill="#9facba"/>
        <path id="Trazado_1191220" data-name="Trazado 1191220" d="M236.064,52.334V50.926h.655c.078-1.473.065-1.237.068-1.394h-1.021V48.124h.937a7.606,7.606,0,0,0-5.927-6.47,35.426,35.426,0,0,0-8.028-.637,35.453,35.453,0,0,1,5.587.637,7.721,7.721,0,0,1,6,8.112l-.461,8.687h2.44c.153-2.889.256-4.821.325-6.12h-.581Z" transform="translate(-200.327 -37.436)" fill="#8d9ca8"/>
        <path id="Trazado_1191221" data-name="Trazado 1191221" d="M109.807,171.053h-5.2a3.632,3.632,0,0,1,0-7.264h5.2Z" transform="translate(-91.504 -147.179)" fill="#ffb09e"/>
        <path id="Trazado_1191222" data-name="Trazado 1191222" d="M287.74,163.79h5.2a3.632,3.632,0,0,1,0,7.264h-5.2Z" transform="translate(-258.411 -147.18)" fill="#f89580"/>
        <path id="Trazado_1191223" data-name="Trazado 1191223" d="M168.885,326.106l-2.749,1.477a.485.485,0,0,0-.095.788l3.63,3.265a.485.485,0,0,0,.6.036l3.027-2.138Z" transform="translate(-149.503 -292.245)" fill="#f2fbff"/>
        <path id="Trazado_1191224" data-name="Trazado 1191224" d="M261.42,327.582l-2.749-1.477-.845.656,1.529.822a.485.485,0,0,1,.095.788l-3.01,2.707.84.594a.485.485,0,0,0,.6-.036l3.63-3.265A.485.485,0,0,0,261.42,327.582Z" transform="translate(-230.438 -292.244)" fill="#dff6fd"/>
        <path id="Trazado_1191225" data-name="Trazado 1191225" d="M194.148,321.86l4.417,3.428,4.45-3.428v-.5h-8.868Z" transform="translate(-174.766 -287.999)" fill="#ffa78f"/>
        <path id="Trazado_1191226" data-name="Trazado 1191226" d="M194.148,251.121a10.843,10.843,0,0,0,8.868-.014v-8.338h-8.868Z" transform="translate(-174.766 -217.765)" fill="#f89580"/>
        <path id="Trazado_1191227" data-name="Trazado 1191227" d="M154.385,94.824v-3.78c0-6.328-5.414-10.6-9.855-10.6a10.663,10.663,0,0,0-9.48,10.6v3.78a10.663,10.663,0,0,0,9.48,10.6C148.962,105.421,154.385,101.162,154.385,94.824Z" transform="translate(-121.949 -72.693)" fill="#ffcebf"/>
        <path id="Trazado_1191228" data-name="Trazado 1191228" d="M224.245,79.872a10.665,10.665,0,0,1,9.48,10.6v3.78a10.665,10.665,0,0,1-9.48,10.6,10.676,10.676,0,0,0,11.92-10.6V90.47A10.676,10.676,0,0,0,224.245,79.872Z" transform="translate(-201.664 -72.12)" fill="#ffb09e"/>
        <path id="Trazado_1191229" data-name="Trazado 1191229" d="M285.615,224.886H284a.725.725,0,1,0,0,1.451h1.613a.725.725,0,1,0,0-1.451Z" transform="translate(-254.422 -201.782)" fill="#fe8f83"/>
        <path id="Trazado_1191230" data-name="Trazado 1191230" d="M135.05,46.128a5.34,5.34,0,0,0,5.172,5.494h10.294a5.34,5.34,0,0,0,5.172-5.494V43.253a7.159,7.159,0,0,0-3.291-1.608,35.32,35.32,0,0,0-13.615,0,7.179,7.179,0,0,0-3.733,2.022Z" transform="translate(-121.949 -37.427)" fill="#9facba"/>
        <path id="Trazado_1191231" data-name="Trazado 1191231" d="M238.053,336.592l3.01-2.707a.485.485,0,0,0-.095-.788l-1.529-.822-3.573,2.773Z" transform="translate(-212.051 -297.758)" fill="#f2fbff"/>
        <path id="Trazado_1191232" data-name="Trazado 1191232" d="M234.008,47.015a28.161,28.161,0,0,0,.059-3.706A7.638,7.638,0,0,0,232,42.059c-1.981-.778-6.574-1.087-9.249-.995a35.453,35.453,0,0,1,5.587.637,7.514,7.514,0,0,1,5.672,5.314Z" transform="translate(-200.327 -37.483)" fill="#8d9ca8"/>
        <path id="Trazado_1191233" data-name="Trazado 1191233" d="M160.051,224.886h1.613a.725.725,0,0,1,0,1.451h-1.613a.725.725,0,0,1,0-1.451Z" transform="translate(-143.645 -201.782)" fill="#fe8f83"/>
        <path id="Trazado_1191234" data-name="Trazado 1191234" d="M11.784,358.188c0,3.985-.051,3.927.175,4.537H54.847a2.646,2.646,0,0,0,2.646-2.646v-1.892H11.784Z" transform="translate(-11.779 -320.917)" fill="#8d9ca8"/>
        <path id="Trazado_1191235" data-name="Trazado 1191235" d="M58.366,358.188v1.892a2.646,2.646,0,0,1-2.646,2.646H13.469a2.646,2.646,0,0,0,2.471,1.7h42.33a2.646,2.646,0,0,0,2.646-2.646v-3.592Z" transform="translate(-13.289 -320.917)" fill="#7a8c98"/>
        <path id="Trazado_1191236" data-name="Trazado 1191236" d="M335.894,23.942l3.377-2.215h.646a6.391,6.391,0,0,0,6.391-6.391V13.892A6.391,6.391,0,0,0,339.918,7.5H335.83a6.391,6.391,0,0,0-6.391,6.391v1.443a6.39,6.39,0,0,0,6.157,6.385l-.127,2.221h.425Z" transform="translate(-295.678 -7.501)" fill="#f2fbff"/>
        <path id="Trazado_1191237" data-name="Trazado 1191237" d="M391.753,7.5h-1.7a6.391,6.391,0,0,1,6.391,6.391v1.443a6.391,6.391,0,0,1-6.391,6.391h-.646l-3.377,2.215-.017.3a.432.432,0,0,0,.668.386l4.427-2.9h.646a6.391,6.391,0,0,0,6.391-6.391V13.891A6.391,6.391,0,0,0,391.753,7.5Z" transform="translate(-346.238 -7.5)" fill="#dff6fd"/>
        <path id="Trazado_1191238" data-name="Trazado 1191238" d="M143.031,468.535a2.018,2.018,0,0,0-2.018-2.018H122.419a2.018,2.018,0,0,0,0,4.037h18.594A2.018,2.018,0,0,0,143.031,468.535Z" transform="translate(-108.857 -417.733)" fill="#8d9ca8"/>
        <path id="Trazado_1191239" data-name="Trazado 1191239" d="M314.469,466.517h-2.126a2.018,2.018,0,0,1,0,4.037h2.126a2.018,2.018,0,0,0,0-4.037Z" transform="translate(-280.399 -417.733)" fill="#7a8c98"/>
        <g id="Grupo_1228966" data-name="Grupo 1228966" transform="translate(18.744 24.887)">
          <path id="Trazado_1191240" data-name="Trazado 1191240" d="M191.183,244.537h-3.035V243.7a2.037,2.037,0,0,1,2.037-2.037h3.035v.832A2.037,2.037,0,0,1,191.183,244.537Z" transform="translate(-188.148 -241.667)" fill="#9facba"/>
          <path id="Trazado_1191241" data-name="Trazado 1191241" d="M237.9,244.537h3.035V243.7a2.037,2.037,0,0,0-2.037-2.037h-3.035v.832A2.037,2.037,0,0,0,237.9,244.537Z" transform="translate(-230.795 -241.667)" fill="#9facba"/>
        </g>
      </g>
      <g id="Grupo_1228968" data-name="Grupo 1228968" transform="translate(4.326 0)">
        <path id="Trazado_1191242" data-name="Trazado 1191242" d="M54.287,1a.8.8,0,0,0-.811,1.372,5.623,5.623,0,0,1,2.751,4.819V8.632a5.6,5.6,0,0,1-4.463,5.479l-.011,0a8.189,8.189,0,0,1-1.766.113.8.8,0,0,0-.437.131l-3.821,2.506.1-1.8a.8.8,0,0,0-.767-.842A5.575,5.575,0,0,1,42,13.169h0a5.616,5.616,0,0,1-2.286-3.876,17.518,17.518,0,0,1-.04-2.03A5.6,5.6,0,0,1,45.27,1.594h5.363a.8.8,0,1,0,0-1.594H45.27a7.2,7.2,0,0,0-6.925,5.264,10.722,10.722,0,0,0-4.673-1.373.8.8,0,1,0-.221,1.579c2.389.334,3.421.608,4.633,1.55L38.061,9.5a4.549,4.549,0,0,1-4.375,4.7H23.39a4.551,4.551,0,0,1-4.374-4.7V7.373A6.367,6.367,0,0,1,22.106,5.8a34.9,34.9,0,0,1,7.727-.63.8.8,0,1,0,.048-1.593,36.5,36.5,0,0,0-8.081.659,7.98,7.98,0,0,0-4.141,2.239l-.006.006a8.69,8.69,0,0,0-2.128,3.594H7.769a3.447,3.447,0,0,0-3.443,3.443V41.66A3.447,3.447,0,0,0,7.769,45.1h3.22a.8.8,0,0,0,0-1.594H7.769A1.851,1.851,0,0,1,5.92,41.66V39.391H51.948V41.66A1.851,1.851,0,0,1,50.1,43.509H14.708a.8.8,0,0,0,0,1.594H21.4l-.27,3.681H18.681a2.815,2.815,0,1,0,0,5.631H39.187a2.815,2.815,0,0,0,0-5.631H36.74l-.27-3.681H50.1a3.447,3.447,0,0,0,3.443-3.443V15.2a7.2,7.2,0,0,0,4.279-6.571V7.188A7.225,7.225,0,0,0,54.287,1ZM40.409,51.6a1.223,1.223,0,0,1-1.221,1.221H18.681a1.221,1.221,0,0,1,0-2.443H39.187A1.223,1.223,0,0,1,40.409,51.6Zm-5.268-2.815H22.727L23,45.1H34.871ZM42.472,21.05a2.774,2.774,0,0,1-2.086,2.708c.016-.223.03-.562.03-.831v-3.78c0-.257-.01-.551-.03-.83a2.949,2.949,0,0,1,.55.207l.024.015a2.748,2.748,0,0,1,1.28,1.36,2.916,2.916,0,0,1,.233,1.129v.022ZM40.528,37.8H36.415A2.344,2.344,0,0,0,37,37.169h1.681A3.064,3.064,0,0,1,40.528,37.8Zm-21.341-.628h1.664a2.375,2.375,0,0,0,.585.628h-4.1A3.05,3.05,0,0,1,19.187,37.169Zm4.633.628-1.3-1.17,1.9-1.022.92.714,1.9,1.478H23.82Zm5.1-.719L25.3,34.267v-.454a11.88,11.88,0,0,0,3.658.574,11.43,11.43,0,0,0,3.616-.585v.452C30.207,36.089,31.04,35.445,28.919,37.079ZM40.583,16.709a4.406,4.406,0,0,0-.443-.069q-.1-.431-.225-.853h.717Zm.119-2.516H39.292a12.072,12.072,0,0,0-.656-1.183,6.392,6.392,0,0,0,.416-.758A7.157,7.157,0,0,0,40.7,14.194Zm-7.016,1.595A5.784,5.784,0,0,0,37.548,14.3a9.856,9.856,0,0,1,1.274,4.851c0,4.174,0,3.868-.008,4.148a9.9,9.9,0,0,1-19.8-.368v-3.78a9.889,9.889,0,0,1,1.047-4.427,5.735,5.735,0,0,0,3.328,1.068ZM15.4,20.825c0-.01,0-.02,0-.031a2.8,2.8,0,0,1,2.045-2.47q-.029.41-.03.823v3.78c0,.252.012.58.029.827A2.8,2.8,0,0,1,15.4,20.825ZM17.7,16.646a4.473,4.473,0,0,0-.756.151l-.054-1.009h1.037C17.837,16.076,17.75,16.41,17.7,16.646Zm1.164-3.058c-.093.166-.2.368-.314.606H16.8l-.059-1.109h0c0-.033,0-.065,0-.1h1.685a6.315,6.315,0,0,0,.435.6Zm-2.012-2.2a7.146,7.146,0,0,1,.574-1.833,6.571,6.571,0,0,0,.275,1.833ZM5.92,13.514a1.851,1.851,0,0,1,1.849-1.849H15.2v.008a9.148,9.148,0,0,0-.045,1.5l.237,4.467a4.425,4.425,0,0,0,2.3,7.788A11.473,11.473,0,0,0,23.7,33.153v1.028a25.23,25.23,0,0,0-2.539,1.394H19.187a4.667,4.667,0,0,0-3.952,2.208l-.009.014H5.92V13.514Zm27.518,22.1,1.893,1.018-1.3,1.17H30.607c1.288-1,.661-.515,2.832-2.188ZM51.948,15.7V37.8H42.642a4.668,4.668,0,0,0-3.961-2.222H36.688a25.834,25.834,0,0,0-2.523-1.385V33.138a11.438,11.438,0,0,0,5.976-7.709,4.391,4.391,0,0,0,3.925-4.378v-.022a4.411,4.411,0,0,0-1.922-3.649c.077-1.456,0,0,.118-2.213a7.17,7.17,0,0,0,1.935.573c-.048.852-.027.479-.1,1.755a1.23,1.23,0,0,0,1.9,1.1l4.227-2.772a8.714,8.714,0,0,0,1.724-.121Z" transform="translate(-4.326 0)"/>
        <path id="Trazado_1191243" data-name="Trazado 1191243" d="M363.826,31.4a.8.8,0,0,0-.8-.8h-6.517a1.016,1.016,0,0,0-.968.722l-1.3,4.369-.065-.355a1.115,1.115,0,0,0-1.1-.916H352.1a.8.8,0,0,0,0,1.594h.587l.431,2.371a1.007,1.007,0,0,0,.938.827l.056,0a1.006,1.006,0,0,0,.967-.722l1.872-6.3h6.081A.8.8,0,0,0,363.826,31.4Z" transform="translate(-314.424 -27.351)"/>
        <path id="Trazado_1191244" data-name="Trazado 1191244" d="M413.192,62.454a.8.8,0,0,0-1.127,0l-1.112,1.112-1.112-1.112a.8.8,0,0,0-1.127,1.127l1.112,1.112L408.714,65.8a.8.8,0,0,0,1.127,1.127l1.112-1.112,1.112,1.112a.8.8,0,0,0,1.127-1.127l-1.112-1.112,1.112-1.112A.8.8,0,0,0,413.192,62.454Z" transform="translate(-365.527 -55.608)"/>
        <path id="Trazado_1191245" data-name="Trazado 1191245" d="M179.064,189.277v1.971a.8.8,0,0,0,1.594,0v-1.971a.8.8,0,0,0-1.594,0Z" transform="translate(-160.493 -168.448)"/>
        <path id="Trazado_1191246" data-name="Trazado 1191246" d="M278.158,192.045a.8.8,0,0,0,.8-.8v-1.971a.8.8,0,0,0-1.594,0v1.971A.8.8,0,0,0,278.158,192.045Z" transform="translate(-248.343 -168.448)"/>
        <path id="Trazado_1191247" data-name="Trazado 1191247" d="M180.647,237v.832a.8.8,0,0,0,.8.8h3.035a2.825,2.825,0,0,0,2.037-.867,2.825,2.825,0,0,0,2.037.867h3.035a.8.8,0,0,0,.8-.8V237a2.837,2.837,0,0,0-2.834-2.834h-6.069A2.837,2.837,0,0,0,180.647,237Zm10.143.035h-2.238a1.241,1.241,0,0,1-1.24-1.275h2.237A1.241,1.241,0,0,1,190.79,237.036Zm-7.309-1.275h2.237a1.241,1.241,0,0,1-1.24,1.275h-2.238A1.241,1.241,0,0,1,183.481,235.76Z" transform="translate(-161.908 -209.279)"/>
      </g>
    </g>
  </g>
</svg>
