<svg xmlns="http://www.w3.org/2000/svg" xmlns:xlink="http://www.w3.org/1999/xlink" width="103" height="103" viewBox="0 0 103 103">
  <defs>
    <filter id="Trazado_978624" x="0" y="0" width="103" height="103" filterUnits="userSpaceOnUse">
      <feOffset dy="3" input="SourceAlpha"/>
      <feGaussianBlur stdDeviation="3" result="blur"/>
      <feFlood flood-opacity="0.161"/>
      <feComposite operator="in" in2="blur"/>
      <feComposite in="SourceGraphic"/>
    </filter>
  </defs>
  <g id="Grupo_1229250" data-name="Grupo 1229250" transform="translate(-195 -738)">
    <g id="Grupo_1225947" data-name="Grupo 1225947" transform="translate(-421 -89)">
      <g id="Grupo_1224934" data-name="Grupo 1224934" transform="translate(445 -6)">
        <g id="Grupo_1222589" data-name="Grupo 1222589">
          <g id="Grupo_1203109" data-name="Grupo 1203109" transform="translate(180 839)">
            <g id="Grupo_1176881" data-name="Grupo 1176881">
              <g id="Grupo_1175148" data-name="Grupo 1175148">
                <g id="Grupo_1173798" data-name="Grupo 1173798">
                  <g id="Grupo_1171925" data-name="Grupo 1171925">
                    <g id="Grupo_1164524" data-name="Grupo 1164524">
                      <g id="Grupo_1144123" data-name="Grupo 1144123">
                        <g transform="matrix(1, 0, 0, 1, -9, -6)" filter="url(#Trazado_978624)">
                          <g id="Trazado_978624-2" data-name="Trazado 978624" transform="translate(9 6)" fill="#e7f2f8">
                            <path d="M 42.5 83.5 C 36.96437835693359 83.5 31.59512901306152 82.41617584228516 26.54141235351562 80.27863311767578 C 21.65934181213379 78.21369171142578 17.27447128295898 75.25723266601562 13.50862312316895 71.49137878417969 C 9.742764472961426 67.72553253173828 6.786305904388428 63.34066009521484 4.721364498138428 58.45858764648438 C 2.583823442459106 53.40486907958984 1.5 48.03562164306641 1.5 42.5 C 1.5 36.96437835693359 2.583823442459106 31.59512901306152 4.721364498138428 26.54141235351562 C 6.786305904388428 21.65934181213379 9.742764472961426 17.27447128295898 13.50862312316895 13.50862312316895 C 17.27447128295898 9.742764472961426 21.65934181213379 6.786305904388428 26.54141235351562 4.721364498138428 C 31.59512901306152 2.583823442459106 36.96437835693359 1.5 42.5 1.5 C 48.03562164306641 1.5 53.40486907958984 2.583823442459106 58.45858764648438 4.721364498138428 C 63.34066009521484 6.786305904388428 67.72553253173828 9.742764472961426 71.49137878417969 13.50862312316895 C 75.25723266601562 17.27447128295898 78.21369171142578 21.65934181213379 80.27863311767578 26.54141235351562 C 82.41617584228516 31.59512901306152 83.5 36.96437835693359 83.5 42.5 C 83.5 48.03562164306641 82.41617584228516 53.40486907958984 80.27863311767578 58.45858764648438 C 78.21369171142578 63.34066009521484 75.25723266601562 67.72553253173828 71.49137878417969 71.49137878417969 C 67.72553253173828 75.25723266601562 63.34066009521484 78.21369171142578 58.45858764648438 80.27863311767578 C 53.40486907958984 82.41617584228516 48.03562164306641 83.5 42.5 83.5 Z" stroke="none"/>
                            <path d="M 42.5 3 C 37.16621398925781 3 31.99356079101562 4.043960571289062 27.125732421875 6.102882385253906 C 22.42246627807617 8.092185974121094 18.19785308837891 10.94070434570312 14.56928253173828 14.56928253173828 C 10.94070434570312 18.19785308837891 8.092185974121094 22.42246627807617 6.102882385253906 27.125732421875 C 4.043960571289062 31.99356079101562 3 37.16621398925781 3 42.5 C 3 47.83378601074219 4.043960571289062 53.00643920898438 6.102882385253906 57.87425231933594 C 8.092185974121094 62.57753372192383 10.94070434570312 66.80213165283203 14.56928253173828 70.43071746826172 C 18.19786834716797 74.05929565429688 22.42246627807617 76.90781402587891 27.125732421875 78.89711761474609 C 31.99356079101562 80.95603942871094 37.16621398925781 82 42.5 82 C 47.83378601074219 82 53.00642395019531 80.95603942871094 57.87425231933594 78.89711761474609 C 62.57753372192383 76.90781402587891 66.80213165283203 74.05929565429688 70.43071746826172 70.43071746826172 C 74.05929565429688 66.80213165283203 76.90781402587891 62.57753372192383 78.89711761474609 57.87425231933594 C 80.95603942871094 53.00642395019531 82 47.83378601074219 82 42.5 C 82 37.16621398925781 80.95603942871094 31.99356079101562 78.89711761474609 27.125732421875 C 76.90781402587891 22.42246627807617 74.05929565429688 18.19786834716797 70.43071746826172 14.56928253173828 C 66.80213165283203 10.94070434570312 62.57753372192383 8.092185974121094 57.87425231933594 6.102882385253906 C 53.00643920898438 4.043960571289062 47.83378601074219 3 42.5 3 M 42.5 0 C 65.97209167480469 0 85 19.02789306640625 85 42.5 C 85 65.97209167480469 65.97209167480469 85 42.5 85 C 19.02789306640625 85 0 65.97209167480469 0 42.5 C 0 19.02789306640625 19.02789306640625 0 42.5 0 Z" stroke="none" fill="#248abf"/>
                          </g>
                        </g>
                      </g>
                    </g>
                  </g>
                </g>
              </g>
            </g>
          </g>
        </g>
      </g>
    </g>
    <g id="Grupo_1228970" data-name="Grupo 1228970" transform="translate(219.383 759.659)">
      <path id="Trazado_1191248" data-name="Trazado 1191248" d="M97.275,233.565a11.05,11.05,0,0,0-.066,8.184l.9,1.766H59.2s-7.244-4.07,0-11.314l38.571-.795Z" transform="translate(-50.805 -207.262)" fill="#f1f2f2"/>
      <path id="Trazado_1191249" data-name="Trazado 1191249" d="M98.113,243.514H59.206s-7.243-4.07,0-11.314l38.571-.8-.5,2.16a10.6,10.6,0,0,0-.55,1.755h-35.3a2.479,2.479,0,1,0,0,4.959H96.741a9.524,9.524,0,0,0,.471,1.47Z" transform="translate(-50.808 -207.261)" fill="#dee1e1"/>
      <path id="Trazado_1191250" data-name="Trazado 1191250" d="M81.372,234.444l-35.564-.056c-4.261,0-7.92-2.718-7.92-6.979a9.707,9.707,0,0,1,.145-3.009,7.718,7.718,0,0,1,7.238-5.038H81.756a1.74,1.74,0,0,1,0,3.48H54.144l-2.7.633-2.345-.633h-3.83a4.234,4.234,0,0,0,0,8.469H81.756a1.741,1.741,0,0,1,1.728,1.945C83.383,234.12,82.264,234.444,81.372,234.444Z" transform="translate(-34.656 -196.539)" fill="#b7e546"/>
      <path id="Trazado_1191251" data-name="Trazado 1191251" d="M81.136,270.536a1.739,1.739,0,0,1-1.728,1.536l-18.025,1.08-18.46-1.08a7.718,7.718,0,0,1-7.057-10.837v1.586a7.715,7.715,0,0,0,7.715,7.715Z" transform="translate(-32.308 -233.819)" fill="#abd641"/>
      <path id="Trazado_1191252" data-name="Trazado 1191252" d="M146.665,256.165v-5.073h-3.616l-1.284.129.077,4.725a.219.219,0,0,0,.3.2l.907-.222,1.015-.4a.219.219,0,0,1,.16,0l2.142.839A.219.219,0,0,0,146.665,256.165Z" transform="translate(-127.178 -224.788)" fill="#ef5227"/>
      <path id="Trazado_1191253" data-name="Trazado 1191253" d="M141.9,251.1v4.836l-1.126.441a.219.219,0,0,1-.3-.2V251.1Z" transform="translate(-126.025 -224.791)" fill="#d83724"/>
      <path id="Trazado_1191254" data-name="Trazado 1191254" d="M134.432,173.154v2.473l-.11,1.1a.768.768,0,0,1-.768.768l-29.232-.11a.767.767,0,0,1-.768-.768l-.219-3.46,15.006-.717Z" transform="translate(-92.964 -154.76)" fill="#fdcd08"/>
      <path id="Trazado_1191255" data-name="Trazado 1191255" d="M437.862,197.8c-.687,1.693-1.378,3.362-2.064,5.055a1.536,1.536,0,0,0,1.41,2.12l1.27.11h3.089a1.536,1.536,0,0,0,1.41-2.12l-1.432-3.53-.9-1.635h-2.782Z" transform="translate(-388.858 -177.34)" fill="#fdcd08"/>
      <path id="Trazado_1191256" data-name="Trazado 1191256" d="M438.081,197.709a4.17,4.17,0,0,0,2.577-.624l-.77-1.924-1.272.38h0l-1.659-.221c-.209.517-.514,1.25-.724,1.767h0l-1.431,3.528a1.536,1.536,0,0,0,1.409,2.12h1.755a1.536,1.536,0,0,1-1.409-2.12l1.069-2.635A.443.443,0,0,1,438.081,197.709Z" transform="translate(-387.971 -174.992)" fill="#faab18"/>
      <path id="Trazado_1191257" data-name="Trazado 1191257" d="M452.357,160.382a2.555,2.555,0,0,0-1.709-2.418c-.258-.089-.633.07-.92.07a2.154,2.154,0,0,0-2.259,2.348,2.231,2.231,0,0,0,2.445,2.258c.288,0,.477.249.735.159A2.555,2.555,0,0,0,452.357,160.382Z" transform="translate(-399.35 -141.85)" fill="#fdcd08"/>
      <path id="Trazado_1191258" data-name="Trazado 1191258" d="M449.23,161.9a2.5,2.5,0,0,1-.823.138,2.556,2.556,0,0,1,0-5.112,2.494,2.494,0,0,1,.823.138,2.565,2.565,0,0,0,0,4.836Z" transform="translate(-397.933 -140.95)" fill="#faab18"/>
      <path id="Trazado_1191259" data-name="Trazado 1191259" d="M63.859,21.368l-7.235,2.5-1.974-.2L40.608,29.417a4.6,4.6,0,0,1-3.011,0L23.554,23.894l-1.974-.021-7.235-2.5a.921.921,0,0,1,0-1.74l23.526-8.144a3.763,3.763,0,0,1,2.463,0l23.526,8.144A.921.921,0,0,1,63.859,21.368Z" transform="translate(-13.182 -11.277)" fill="#868491"/>
      <path id="Trazado_1191260" data-name="Trazado 1191260" d="M120.381,82.815v.743L104.364,89.1a4.6,4.6,0,0,1-3.012,0L85.336,83.558v-.743a3.227,3.227,0,0,1,2.659-3.179,84.24,84.24,0,0,1,29.727,0,3.229,3.229,0,0,1,2.659,3.179Z" transform="translate(-76.938 -70.962)" fill="#77777f"/>
      <path id="Trazado_1191261" data-name="Trazado 1191261" d="M136.213,98.841v6.54H105.446l-.11-6.321a1.255,1.255,0,0,1,1.033-1.235c.313-.056.408-.33.722-.382a82.241,82.241,0,0,1,28.089.163,1.256,1.256,0,0,1,1.033,1.235Z" transform="translate(-94.744 -86.988)" fill="#868491"/>
      <path id="Trazado_1191262" data-name="Trazado 1191262" d="M134.432,175.627v1.207a.768.768,0,0,1-.768.768H104.1a.768.768,0,0,1-.768-.768v-3.68l.987-.717.987.717v1.925a.548.548,0,0,0,.548.548Z" transform="translate(-92.964 -154.76)" fill="#faab18"/>
      <path id="Trazado_1191263" data-name="Trazado 1191263" d="M105.31,106.6v7.938h-1.974V108a1.255,1.255,0,0,1,1.033-1.235C104.683,106.711,105,106.657,105.31,106.6Z" transform="translate(-92.964 -96.149)" fill="#77777f"/>
      <path id="Trazado_1191264" data-name="Trazado 1191264" d="M80.061,389.992a10.32,10.32,0,0,1,0-7.9l.334-1.483H35.544s-5.049,5.489.328,10.866l44.815.336Z" transform="translate(-30.693 -340.101)" fill="#f1f2f2"/>
      <path id="Trazado_1191265" data-name="Trazado 1191265" d="M80.686,391.816l-44.814-.336c-5.378-5.377-.328-10.865-.328-10.865l45.066.083-.549,1.4a10.276,10.276,0,0,0-.49,1.5H38.408a2.479,2.479,0,1,0,0,4.959H79.584A10.4,10.4,0,0,0,80.061,390Z" transform="translate(-30.693 -340.105)" fill="#dee1e1"/>
      <path id="Trazado_1191266" data-name="Trazado 1191266" d="M62.792,375.078,22.242,375c-4.261,0-8.009-2.4-8.009-6.665,0-1.352-.331-3.214.28-4.319a7.713,7.713,0,0,1,6.755-3.986H63.554a1.74,1.74,0,0,1,0,3.48H53.077l-2.738.606-2.3-.606H21.269a4.234,4.234,0,0,0,0,8.469H63.554a1.742,1.742,0,0,1,1.712,2.054c-.148.811-1.62,1.042-2.474,1.042Z" transform="translate(-13.554 -321.78)" fill="#ef5227"/>
      <path id="Trazado_1191267" data-name="Trazado 1191267" d="M60.48,403.018a1.742,1.742,0,0,1-1.712,1.426H16.483a7.716,7.716,0,0,1-6.509-11.859V395.3a7.715,7.715,0,0,0,7.715,7.715Z" transform="translate(-8.768 -350.762)" fill="#d83724"/>
      <path id="Trazado_1191268" data-name="Trazado 1191268" d="M329.307,396.863v-5.114h-3.4l-1.507.092.081,4.8a.219.219,0,0,0,.3.2l1.126-.308.8-.312a.219.219,0,0,1,.16,0l2.142.839a.219.219,0,0,0,.3-.2Z" transform="translate(-289.784 -350.018)" fill="#fdcd08"/>
      <path id="Trazado_1191269" data-name="Trazado 1191269" d="M324.785,391.745v4.792l-1.346.526a.219.219,0,0,1-.3-.2v-5.115Z" transform="translate(-288.659 -350.014)" fill="#faab18"/>
    </g>
    <path id="Trazado_1191270" data-name="Trazado 1191270" d="M55.984,30.629l-1.826-4.5a3.342,3.342,0,0,0-1.7-5.393c0-.216,0-5.637,0-5.867A1.707,1.707,0,0,0,51.3,13.236L28.172,5.229a4.541,4.541,0,0,0-2.959,0L19.455,7.223a.823.823,0,1,0,.538,1.555l5.758-1.993a2.889,2.889,0,0,1,1.883,0L50.761,14.79a.082.082,0,0,1,0,.156L42.8,17.7v-.246a2.054,2.054,0,0,0-1.693-2.024,81.387,81.387,0,0,0-28.828,0,2.054,2.054,0,0,0-1.693,2.024V17.7L2.624,14.946a.082.082,0,0,1,0-.156L16.3,10.056A.823.823,0,1,0,15.76,8.5L2.086,13.236a1.728,1.728,0,0,0,0,3.265l8.5,2.942v8.141A8.534,8.534,0,0,0,6.695,43.174,8.536,8.536,0,0,0,8.537,60.045H50.822a2.562,2.562,0,0,0,.052-5.124,9.424,9.424,0,0,1-.02-6.825,2.562,2.562,0,0,0-.032-5.125h-.508a2.561,2.561,0,0,0-2.392-3.48H47.9a9.418,9.418,0,0,1-.155-6.391,2.311,2.311,0,0,0,1.7.745h4.392a2.314,2.314,0,0,0,1.921-1.025,2.341,2.341,0,0,0,.227-2.192Zm-2.678-6.662a1.667,1.667,0,1,1-1.666-1.69A1.68,1.68,0,0,1,53.306,23.966Zm-2.489-7.3v4.067a3.342,3.342,0,0,0-1.7,5.393l-.574,1.414H42.8v-8.1Zm-38.248.384a79.762,79.762,0,0,1,28.247,0,.41.41,0,0,1,.338.4v5.607H36.086a.823.823,0,0,0,0,1.645h5.069v2.834H12.231V24.708H32.247a.823.823,0,0,0,0-1.645H12.231V17.456a.41.41,0,0,1,.338-.4ZM51.74,45.534a.919.919,0,0,1-.917.917H8.537a5.057,5.057,0,1,0,0,10.114H41.021a.823.823,0,1,0,0-1.645H8.537a3.412,3.412,0,1,1,0-6.823H34.481v4.611a.823.823,0,0,0,1.123.766l2.221-.87,2.221.87a.823.823,0,0,0,1.123-.766V48.1h7.941a11.041,11.041,0,0,0,.016,6.823H44.86a.823.823,0,0,0,0,1.645h5.962a.917.917,0,0,1,0,1.835H8.537a6.892,6.892,0,0,1,0-13.784H50.822a.919.919,0,0,1,.918.917ZM36.126,48.1h3.4V51.5l-1.4-.548a.822.822,0,0,0-.6,0l-1.4.548Zm-14.08-6.961H47.922a.917.917,0,0,1,0,1.835H11.437a6.892,6.892,0,0,1,0-13.784H47.88c-.2.546-.579,1.319-.705,1.835H11.437a5.057,5.057,0,1,0,0,10.114h6.77a.823.823,0,1,0,0-1.645h-6.77a3.412,3.412,0,1,1,0-6.823h3.008v4.572A.823.823,0,0,0,15.568,38l2.221-.87L20.01,38a.823.823,0,0,0,1.123-.766V32.667H46.153a11.042,11.042,0,0,0,0,6.823H22.046a.823.823,0,0,0,0,1.645ZM16.09,32.667h3.4v3.366l-1.4-.548a.822.822,0,0,0-.6,0l-1.4.548Zm38.3-.766a.667.667,0,0,1-.557.3H49.443a.667.667,0,0,1-.557-.3.69.69,0,0,1-.068-.654L50.5,27.1a3.293,3.293,0,0,0,2.274,0l1.683,4.148a.689.689,0,0,1-.067.654Z" transform="translate(218.422 753.986)"/>
  </g>
</svg>
