<svg xmlns="http://www.w3.org/2000/svg" xmlns:xlink="http://www.w3.org/1999/xlink" width="190" height="173" viewBox="0 0 190 173">
  <defs>
    <clipPath id="clip-path">
      <rect id="Rectángulo_422751" data-name="Rectángulo 422751" width="190" height="173" transform="translate(180 286)" fill="#fff" stroke="#707070" stroke-width="1"/>
    </clipPath>
  </defs>
  <g id="Enmascarar_grupo_1225057" data-name="Enmascarar grupo 1225057" transform="translate(-180 -286)" clip-path="url(#clip-path)">
    <g id="Grupo_1227033" data-name="Grupo 1227033" transform="translate(-2206.515 11.508)">
      <g id="Grupo_1226971" data-name="Grupo 1226971" transform="translate(2508.904 370.357)">
        <path id="Trazado_1188967" data-name="Trazado 1188967" d="M2995.963,1042.5H2980.31L2964,975.766a7.6,7.6,0,1,1,14.771-3.609Z" transform="translate(-2963.783 -966.356)" fill="#f9c4b8"/>
      </g>
      <path id="Trazado_1188968" data-name="Trazado 1188968" d="M2569,1008.179c-7.126-9.594-3.044-23.43-3.044-23.43l9.409,9.063Z" transform="translate(-130.806 -610.938)" fill="#fcd105"/>
      <path id="Trazado_1188969" data-name="Trazado 1188969" d="M2716.8,998.185l-64.756-.139,2.768-76.657,35.838-8.855,31.132,8.164Z" transform="translate(-201.673 -552.284)" fill="#fc9705"/>
      <path id="Trazado_1188970" data-name="Trazado 1188970" d="M2698.47,495.366a40.123,40.123,0,0,1,16.6-14.114c10.17-4.566,19.3-6.849,30.926,1.245s10.873,6.487,15.359,8.925c9.547,5.189,6.85,9.132,9.547,18.057s9.132,4.774,10.585,11.623,1.66,18.265,1.66,18.265-10.792,7.68-18.679,10.17c-6.383,2.016-24.7,6.642-24.7,6.642Z" transform="translate(-239.385 -198.627)" fill="#433fab"/>
      <path id="Trazado_1188971" data-name="Trazado 1188971" d="M2579.447,567.663c-9.962,3.113-11.208,6.227-13.075,13.491s-6.227,7.264-9.133,11.415,2.491,10.793.83,14.944-3.114,2.076-7.472,8.095,4.359,25.737,4.359,25.737,17.227-2.076,30.718-5.189c10.787-2.489,32.378-9.755,32.378-9.755l-18.472-58.323Z" transform="translate(-118.286 -272.169)" fill="#433fab"/>
      <g id="Grupo_1226972" data-name="Grupo 1226972" transform="translate(2480.122 345.797)">
        <path id="Trazado_1188972" data-name="Trazado 1188972" d="M2818.11,863.635a7.609,7.609,0,0,1-7.3-9.724l3.736-12.868a7.6,7.6,0,0,1,14.6,4.239l-3.736,12.869A7.6,7.6,0,0,1,2818.11,863.635Z" transform="translate(-2810.501 -835.557)" fill="#efb4ad"/>
      </g>
      <g id="Grupo_1226973" data-name="Grupo 1226973" transform="translate(2412.89 445.509)">
        <path id="Trazado_1188973" data-name="Trazado 1188973" d="M2597.857,1368.571H2453.445a.992.992,0,0,1,0-1.983h144.412a.992.992,0,1,1,0,1.983Z" transform="translate(-2452.453 -1366.588)" fill="#0d0845"/>
      </g>
      <circle id="Elipse_14708" data-name="Elipse 14708" cx="31.548" cy="31.548" r="31.548" transform="translate(2453.069 326.007) rotate(-45)" fill="#efb4ad"/>
      <ellipse id="Elipse_14709" data-name="Elipse 14709" cx="7.887" cy="8.441" rx="7.887" ry="8.441" transform="translate(2456.681 342.301) rotate(-48.953)" fill="#efb4ad"/>
      <ellipse id="Elipse_14710" data-name="Elipse 14710" cx="2.943" cy="4.862" rx="2.943" ry="4.862" transform="translate(2504.741 313.606) rotate(-21.945)" fill="#2c2c2d"/>
      <ellipse id="Elipse_14711" data-name="Elipse 14711" cx="2.864" cy="4.732" rx="2.864" ry="4.732" transform="translate(2488.812 322.273) rotate(-21.945)" fill="#2c2c2d"/>
      <g id="Grupo_1226974" data-name="Grupo 1226974" transform="translate(2501.316 322.158)">
        <path id="Trazado_1188974" data-name="Trazado 1188974" d="M2929.155,720.681a.248.248,0,0,1-.2-.388c.831-1.209,2.94-4.627,2.727-5.907-.075-.448-.527-.539-1.543-.7a10.056,10.056,0,0,1-6.7-3.6.248.248,0,0,1,.372-.328,9.614,9.614,0,0,0,6.407,3.442c1.015.162,1.817.29,1.954,1.109.29,1.739-2.681,6.085-2.808,6.269A.245.245,0,0,1,2929.155,720.681Z" transform="translate(-2923.373 -709.669)" fill="#2c2c2d"/>
      </g>
      <g id="Grupo_1226975" data-name="Grupo 1226975" transform="translate(2497.331 315.952)">
        <path id="Trazado_1188975" data-name="Trazado 1188975" d="M2902.869,680.439l-.719-.407c2.2-3.879,4.955-3.407,5.072-3.385l-.154.812C2906.978,677.444,2904.756,677.1,2902.869,680.439Z" transform="translate(-2902.15 -676.618)" fill="#36334c"/>
      </g>
      <g id="Grupo_1226976" data-name="Grupo 1226976" transform="translate(2466.144 331.818)">
        <path id="Trazado_1188976" data-name="Trazado 1188976" d="M2736.474,763.6a.413.413,0,0,1-.051-.823l13.284-1.66a.413.413,0,1,1,.1.82l-13.283,1.66A.421.421,0,0,1,2736.474,763.6Z" transform="translate(-2736.062 -761.111)" fill="#36334c"/>
      </g>
      <g id="Grupo_1226977" data-name="Grupo 1226977" transform="translate(2462.366 339.26)">
        <path id="Trazado_1188977" data-name="Trazado 1188977" d="M2725.253,806.971a.248.248,0,0,1-.215-.125c-.03-.053-3.06-5.273-6.121-5.59a2.93,2.93,0,0,0-2.542,1.135.248.248,0,1,1-.37-.33,3.4,3.4,0,0,1,2.963-1.3c3.313.344,6.371,5.613,6.5,5.836a.248.248,0,0,1-.215.371Z" transform="translate(-2715.942 -800.745)" fill="#36334c"/>
      </g>
      <g id="Grupo_1226978" data-name="Grupo 1226978" transform="translate(2464.995 340.977)">
        <path id="Trazado_1188978" data-name="Trazado 1188978" d="M2730.188,811.976a.245.245,0,0,1-.16-.059.248.248,0,0,1-.029-.349,5.367,5.367,0,0,1,3.206-1.677.248.248,0,0,1,.055.493,4.944,4.944,0,0,0-2.883,1.506A.251.251,0,0,1,2730.188,811.976Z" transform="translate(-2729.939 -809.889)" fill="#36334c"/>
      </g>
      <g id="Grupo_1226979" data-name="Grupo 1226979" transform="translate(2503.254 337.794)">
        <path id="Trazado_1188979" data-name="Trazado 1188979" d="M2936.633,794.5a5.9,5.9,0,0,1-2.808-.678.248.248,0,0,1,.234-.438c2.951,1.574,6.365-.39,6.4-.41a.248.248,0,0,1,.251.427A8.861,8.861,0,0,1,2936.633,794.5Z" transform="translate(-2933.694 -792.94)" fill="#2c2c2d"/>
      </g>
      <g id="Grupo_1226980" data-name="Grupo 1226980" transform="translate(2504.638 341.323)">
        <path id="Trazado_1188980" data-name="Trazado 1188980" d="M2942.992,812.688a3.452,3.452,0,0,1-1.811-.5.248.248,0,1,1,.259-.423,3.144,3.144,0,0,0,2.356.321.248.248,0,0,1,.149.473A3.442,3.442,0,0,1,2942.992,812.688Z" transform="translate(-2941.063 -811.732)" fill="#2c2c2d"/>
      </g>
      <path id="Trazado_1188981" data-name="Trazado 1188981" d="M2730.683,719.77c.88,4.422.374,8.4-2.008,9.1s-5.066-2.329-6.62-6.561c-2.4-6.528-.375-8.4,2.008-9.1S2728.1,706.788,2730.683,719.77Z" transform="translate(-257.666 -388.879)" fill="#433fab"/>
      <path id="Trazado_1188982" data-name="Trazado 1188982" d="M2749.144,552.562s6.672.411,11.086,2.028c3.8-2.29,6.349-3.688,6.349-3.688s-7.107-3.927-20.064-3.874c-3.363.014-8.6,2.1-11.571,3.666-4.382,2.313-10.546,6.445-14.028,12.662a26.891,26.891,0,0,0-2.629,20.064s15.5-8.44,27.12-17.158a70.226,70.226,0,0,0,10.123-8.768Z" transform="translate(-254.775 -255.408)" fill="#433fab"/>
      <g id="Grupo_1226981" data-name="Grupo 1226981" transform="translate(2493.659 296.768)">
        <path id="Trazado_1188983" data-name="Trazado 1188983" d="M2891.976,578.173a.244.244,0,0,1-.123-.033c-.025-.014-2.553-1.438-9.074-3.2a.248.248,0,1,1,.13-.479c6.6,1.787,9.088,3.194,9.191,3.253a.248.248,0,0,1-.124.463Z" transform="translate(-2882.596 -574.449)" fill="#433fab"/>
      </g>
      <g id="Grupo_1226982" data-name="Grupo 1226982" transform="translate(2428.002 295.568)">
        <path id="Trazado_1188984" data-name="Trazado 1188984" d="M2541.24,640.79c-.317-.6-7.776-14.853-8.237-19.277-.438-4.209,1.148-5.746,4.624-9.114q.427-.414.893-.867c.614-.6,1.158-1.107,1.637-1.554,2.65-2.47,3.2-2.983,2.444-7.08a29.832,29.832,0,0,0-1.082-3.976c-.829-2.536-1.483-4.54.1-7.174,1.308-2.181,3.616-4,5.652-5.611a19.947,19.947,0,0,0,3.492-3.171,5,5,0,0,0,.709-3.4,8.492,8.492,0,0,1,1.124-5.157c3-5,6.772-6.911,12.236-6.207l-.063.492c-5.312-.686-8.826,1.1-11.748,5.97a8.081,8.081,0,0,0-1.053,4.888,5.449,5.449,0,0,1-.8,3.71,20.194,20.194,0,0,1-3.585,3.268c-2,1.582-4.273,3.374-5.535,5.477-1.465,2.441-.872,4.255-.051,6.765a30.209,30.209,0,0,1,1.1,4.039c.808,4.364.088,5.035-2.593,7.533-.477.445-1.019.949-1.629,1.545q-.467.456-.894.869c-3.458,3.351-4.889,4.737-4.475,8.706.451,4.33,8.106,18.95,8.182,19.1Z" transform="translate(-2532.933 -568.059)" fill="#433fab"/>
      </g>
      <g id="Grupo_1226983" data-name="Grupo 1226983" transform="translate(2530.48 309.27)">
        <path id="Trazado_1188985" data-name="Trazado 1188985" d="M3091.857,672.37l-.5-.013c0-.053.144-5.372.554-12.967.415-7.68-.708-9.124-3.567-10.8a15.494,15.494,0,0,0-2.849-1.258c-2.129-.758-3.969-1.412-6.808-6.044l.423-.259c2.748,4.483,4.426,5.08,6.551,5.837a15.905,15.905,0,0,1,2.933,1.3c3.216,1.88,4.218,3.769,3.813,11.251C3092,667,3091.857,672.317,3091.857,672.37Z" transform="translate(-3078.691 -641.031)" fill="#433fab"/>
      </g>
      <ellipse id="Elipse_14712" data-name="Elipse 14712" cx="4.635" cy="4.321" rx="4.635" ry="4.321" transform="translate(2489.111 333.444)" fill="#f26375"/>
      <ellipse id="Elipse_14713" data-name="Elipse 14713" cx="4.082" cy="3.805" rx="4.082" ry="3.805" transform="translate(2511.387 320.954)" fill="#f26375"/>
      <g id="Grupo_1226984" data-name="Grupo 1226984" transform="translate(2501.497 302.76)">
        <path id="Trazado_1188986" data-name="Trazado 1188986" d="M2934.921,627.527a10.583,10.583,0,1,1,10.583-10.583A10.6,10.6,0,0,1,2934.921,627.527Zm0-20.34a9.757,9.757,0,1,0,9.757,9.757A9.768,9.768,0,0,0,2934.921,607.186Z" transform="translate(-2924.338 -606.36)" fill="#36334c"/>
      </g>
      <g id="Grupo_1226985" data-name="Grupo 1226985" transform="translate(2477.974 315.421)">
        <path id="Trazado_1188987" data-name="Trazado 1188987" d="M2810.267,696.2a11.206,11.206,0,1,1,11.206-11.206A11.219,11.219,0,0,1,2810.267,696.2Zm0-21.586a10.38,10.38,0,1,0,10.38,10.38A10.391,10.391,0,0,0,2810.267,674.613Z" transform="translate(-2799.061 -673.787)" fill="#36334c"/>
      </g>
      <g id="Grupo_1226986" data-name="Grupo 1226986" transform="translate(2483.12 354.122)">
        <path id="Trazado_1188988" data-name="Trazado 1188988" d="M2840.76,883.617c-2.254,0-9.423-.251-14.176-3.265a.248.248,0,1,1,.265-.419c5.54,3.513,14.5,3.182,14.593,3.178a.248.248,0,0,1,.021.5C2841.449,883.608,2841.2,883.617,2840.76,883.617Z" transform="translate(-2826.468 -879.894)" fill="#2c2c2d"/>
      </g>
      <g id="Grupo_1226987" data-name="Grupo 1226987" transform="translate(2403.744 329.678)">
        <path id="Trazado_1188989" data-name="Trazado 1188989" d="M2411.348,818.33a7.6,7.6,0,0,1-6.095-12.149L2445.1,752.77a7.6,7.6,0,0,1,12.187,9.093l-25.308,33.919,17.349-5.822a7.6,7.6,0,0,1,4.838,14.415l-40.4,13.56A7.562,7.562,0,0,1,2411.348,818.33Z" transform="translate(-2403.744 -749.713)" fill="#f9c4b8"/>
      </g>
      <g id="Grupo_1226989" data-name="Grupo 1226989" transform="translate(2459.938 299.325)">
        <g id="Grupo_1226988" data-name="Grupo 1226988" transform="translate(0 5.442)">
          <rect id="Rectángulo_422743" data-name="Rectángulo 422743" width="42.165" height="3.306" transform="translate(0 41.828) rotate(-82.727)" fill="#0d0845"/>
        </g>
        <path id="Trazado_1188990" data-name="Trazado 1188990" d="M2733.092,594.334l-1.41-.217a1,1,0,0,1-.833-1.137l.626-4.067a1,1,0,0,1,1.137-.834l1.41.217a1,1,0,0,1,.833,1.137l-.626,4.067A1,1,0,0,1,2733.092,594.334Z" transform="translate(-2725.612 -588.067)" fill="#fdfcfb"/>
        <rect id="Rectángulo_422744" data-name="Rectángulo 422744" width="3.739" height="4.635" transform="matrix(0.994, 0.108, -0.108, 0.994, 5.108, 4.87)" fill="#e8edfd"/>
      </g>
      <path id="Trazado_1188991" data-name="Trazado 1188991" d="M2644.382,698.807c0,6.419-9.355,10.516-15.774,10.516s-13.7-2.491-10.377-12.315c3.138-9.285,6.726-12.176,13.145-12.176S2644.382,692.388,2644.382,698.807Z" transform="translate(-173.536 -367.337)" fill="#f9c4b8"/>
      <g id="Grupo_1226990" data-name="Grupo 1226990" transform="translate(2449.524 314.852)">
        <path id="Trazado_1188992" data-name="Trazado 1188992" d="M2650.609,680.747a3.058,3.058,0,0,1-1.612-5.658c6.435-3.984,16.322-4.319,16.74-4.331a3.058,3.058,0,1,1,.179,6.113c-.083,0-8.673.305-13.7,3.418A3.046,3.046,0,0,1,2650.609,680.747Z" transform="translate(-2647.548 -670.757)" fill="#f9c4b8"/>
      </g>
      <g id="Grupo_1226991" data-name="Grupo 1226991" transform="translate(2454.782 319.279)">
        <path id="Trazado_1188993" data-name="Trazado 1188993" d="M2678.605,702.665a3.058,3.058,0,0,1-.582-6.059l11.346-2.214a3.058,3.058,0,0,1,1.171,6l-11.346,2.214A3.069,3.069,0,0,1,2678.605,702.665Z" transform="translate(-2675.55 -694.334)" fill="#f9c4b8"/>
      </g>
      <g id="Grupo_1226992" data-name="Grupo 1226992" transform="translate(2457.687 325.229)">
        <path id="Trazado_1188994" data-name="Trazado 1188994" d="M2694.078,734.491a3.058,3.058,0,0,1-.795-6.01l8.718-2.352a3.058,3.058,0,1,1,1.593,5.9l-8.718,2.352A3.063,3.063,0,0,1,2694.078,734.491Z" transform="translate(-2691.021 -726.022)" fill="#f9c4b8"/>
      </g>
      <g id="Grupo_1226993" data-name="Grupo 1226993" transform="translate(2459.901 330.349)">
        <path id="Trazado_1188995" data-name="Trazado 1188995" d="M2705.87,761.064a3.058,3.058,0,0,1-.77-6.017l6.365-1.66a3.058,3.058,0,0,1,1.544,5.917l-6.366,1.66A3.053,3.053,0,0,1,2705.87,761.064Z" transform="translate(-2702.813 -753.287)" fill="#f9c4b8"/>
      </g>
      <g id="Grupo_1226994" data-name="Grupo 1226994" transform="translate(2448.556 307.241)">
        <path id="Trazado_1188996" data-name="Trazado 1188996" d="M2645.452,648.932a3.058,3.058,0,0,1-1.8-5.531,28.74,28.74,0,0,0,8.375-11.271,3.058,3.058,0,0,1,5.665,2.3,34.465,34.465,0,0,1-10.443,13.912A3.045,3.045,0,0,1,2645.452,648.932Z" transform="translate(-2642.392 -630.224)" fill="#f9c4b8"/>
      </g>
      <g id="Grupo_1226995" data-name="Grupo 1226995" transform="translate(2427.842 374.255)">
        <path id="Trazado_1188997" data-name="Trazado 1188997" d="M2532.328,994.669a.243.243,0,0,1-.137-.042.247.247,0,0,1-.069-.344l4.7-7.057a.248.248,0,0,1,.412.275l-4.7,7.057A.248.248,0,0,1,2532.328,994.669Z" transform="translate(-2532.08 -987.116)" fill="#36334c"/>
      </g>
      <path id="Trazado_1188998" data-name="Trazado 1188998" d="M2574.031,977.851c1.446-8.507-.022-15.952-3.045-23.431,0,0,1.754-.633,6.748-2.041.157-.043.315-.089.479-.134,1.793-.5,3.977-1.1,6.61-1.791l.885-.2.483-.111,11.822-2.729,11.717,20.572Z" transform="translate(-135.839 -580.61)" fill="#fc9705"/>
      <path id="Trazado_1188999" data-name="Trazado 1188999" d="M3014.866,982.923l-15.013,8.232,4.428-35.146c2.223,2.381,5.378,10.883,7.666,17.7.052.157.1.314.157.469.689,2.069,1.292,3.963,1.758,5.454.052.162.1.321.149.473C3014.549,981.842,3014.866,982.923,3014.866,982.923Z" transform="translate(-484.176 -587.596)" fill="#fc9705"/>
      <g id="Grupo_1226996" data-name="Grupo 1226996" transform="translate(2516.538 388.646)">
        <path id="Trazado_1189000" data-name="Trazado 1189000" d="M3004.688,1094.556h-.012a.248.248,0,0,1-.236-.26l1.453-30.3a.248.248,0,1,1,.495.024l-1.452,30.3A.25.25,0,0,1,3004.688,1094.556Z" transform="translate(-3004.439 -1063.758)" fill="#2c2c2d"/>
      </g>
      <g id="Grupo_1226997" data-name="Grupo 1226997" transform="translate(2437.943 392.104)">
        <path id="Trazado_1189001" data-name="Trazado 1189001" d="M2586.118,1087.558a.248.248,0,0,1-.064-.487l18.265-4.889a.248.248,0,1,1,.128.479l-18.265,4.889A.2.2,0,0,1,2586.118,1087.558Z" transform="translate(-2585.87 -1082.174)" fill="#2c2c2d"/>
      </g>
      <g id="Grupo_1226998" data-name="Grupo 1226998" transform="translate(2455.24 314.685)">
        <path id="Trazado_1189002" data-name="Trazado 1189002" d="M2678.237,672.789a.248.248,0,0,1-.089-.48,48.587,48.587,0,0,1,7.241-2.088c3.153-.548,4.042-.3,4.133-.268a.248.248,0,0,1-.156.47s-.865-.24-3.892.286a48.045,48.045,0,0,0-7.15,2.063A.251.251,0,0,1,2678.237,672.789Z" transform="translate(-2677.988 -669.87)" fill="#36334c"/>
      </g>
      <g id="Grupo_1226999" data-name="Grupo 1226999" transform="translate(2431.582 429.631)">
        <path id="Trazado_1189003" data-name="Trazado 1189003" d="M2599.251,1292.836a1.072,1.072,0,0,1-.764-.319c-2.107-2.133-8.3-7.76-11.6-8.189-5.947-.771-9.787,1.595-13.5,3.883a24.761,24.761,0,0,1-7.044,3.382c-.275.067-.551.141-.831.216-3.247.865-7.288,1.942-13.247-4.908a1.074,1.074,0,0,1,1.621-1.41c5.08,5.839,7.991,5.063,11.073,4.242.292-.078.582-.155.87-.226a23.161,23.161,0,0,0,6.43-3.125c3.844-2.369,8.2-5.054,14.9-4.184,4.632.6,12.029,7.971,12.856,8.81a1.074,1.074,0,0,1-.765,1.829Z" transform="translate(-2551.996 -1282.03)" fill="#e8edfd"/>
      </g>
      <rect id="Rectángulo_422745" data-name="Rectángulo 422745" width="49.675" height="2.491" transform="translate(2428.16 442.999)" fill="#fb7682"/>
      <rect id="Rectángulo_422746" data-name="Rectángulo 422746" width="51.854" height="4.289" transform="translate(2428.85 438.708)" fill="#e8edfd"/>
      <g id="Grupo_1227000" data-name="Grupo 1227000" transform="translate(2429.295 440.257)">
        <path id="Trazado_1189004" data-name="Trazado 1189004" d="M2559.23,1339.116h-19.164a.248.248,0,1,1,0-.5h19.164a.248.248,0,1,1,0,.5Z" transform="translate(-2539.819 -1338.62)" fill="#93a5f4"/>
      </g>
      <g id="Grupo_1227001" data-name="Grupo 1227001" transform="translate(2436.353 441.778)">
        <path id="Trazado_1189005" data-name="Trazado 1189005" d="M2596.053,1347.216h-18.4a.248.248,0,0,1,0-.5h18.4a.248.248,0,0,1,0,.5Z" transform="translate(-2577.402 -1346.72)" fill="#93a5f4"/>
      </g>
      <g id="Grupo_1227002" data-name="Grupo 1227002" transform="translate(2481.154 429.631)">
        <path id="Trazado_1189006" data-name="Trazado 1189006" d="M2817.073,1292.765a1.074,1.074,0,0,1-.764-1.829c.822-.831,8.155-8.14,12.787-8.74,6.7-.87,11.06,1.816,14.9,4.184a23.2,23.2,0,0,0,6.43,3.125c.288.071.578.148.871.226,3.082.821,5.993,1.6,11.073-4.242a1.074,1.074,0,1,1,1.621,1.41c-5.959,6.85-10,5.773-13.247,4.908-.279-.074-.555-.148-.831-.216a24.742,24.742,0,0,1-7.044-3.382c-3.714-2.288-7.554-4.655-13.5-3.883-3.308.429-9.448,6.006-11.535,8.12A1.075,1.075,0,0,1,2817.073,1292.765Z" transform="translate(-2815.999 -1282.028)" fill="#e8edfd"/>
      </g>
      <rect id="Rectángulo_422747" data-name="Rectángulo 422747" width="49.502" height="2.491" transform="translate(2532.836 445.489) rotate(180)" fill="#fb7682"/>
      <rect id="Rectángulo_422748" data-name="Rectángulo 422748" width="51.52" height="4.289" transform="translate(2532.144 442.999) rotate(180)" fill="#e8edfd"/>
      <g id="Grupo_1227003" data-name="Grupo 1227003" transform="translate(2512.04 440.257)">
        <path id="Trazado_1189007" data-name="Trazado 1189007" d="M2999.9,1339.116h-19.164a.248.248,0,1,1,0-.5H2999.9a.248.248,0,1,1,0,.5Z" transform="translate(-2980.488 -1338.62)" fill="#93a5f4"/>
      </g>
      <g id="Grupo_1227004" data-name="Grupo 1227004" transform="translate(2505.743 441.778)">
        <path id="Trazado_1189008" data-name="Trazado 1189008" d="M2965.6,1347.216h-18.4a.248.248,0,1,1,0-.5h18.4a.248.248,0,1,1,0,.5Z" transform="translate(-2946.952 -1346.72)" fill="#93a5f4"/>
      </g>
      <path id="Trazado_1189009" data-name="Trazado 1189009" d="M2798.32,1355.706c2.906-4.846,5.5,0,5.5,0v-2.49h-5.5Z" transform="translate(-320.485 -910.218)" fill="#fb7682"/>
      <rect id="Rectángulo_422749" data-name="Rectángulo 422749" width="6.296" height="0.761" transform="translate(2477.454 444.745)" fill="#fb7682"/>
      <path id="Trazado_1189010" data-name="Trazado 1189010" d="M2866.176,1306.919h-.263a3.86,3.86,0,0,0-3.862,3.861v3.486a3.861,3.861,0,0,0,3.862,3.861H2918.3v-11.208h-52.123Z" transform="translate(-372.249 -872.614)" fill="#433fab"/>
      <g id="Grupo_1227005" data-name="Grupo 1227005" transform="translate(2544.304 434.313)">
        <path id="Trazado_1189011" data-name="Trazado 1189011" d="M3153.053,1308.464a.744.744,0,0,1,0-1.488l10.55-.016a.744.744,0,0,1,0,1.488l-10.55.016Z" transform="translate(-3152.309 -1306.96)" fill="#433fab"/>
      </g>
      <g id="Grupo_1227006" data-name="Grupo 1227006" transform="translate(2544.13 444.035)">
        <path id="Trazado_1189012" data-name="Trazado 1189012" d="M3163.058,1360.225h-10.931a.744.744,0,0,1,0-1.488h10.931a.744.744,0,1,1,0,1.488Z" transform="translate(-3151.384 -1358.738)" fill="#433fab"/>
      </g>
      <path id="Trazado_1189013" data-name="Trazado 1189013" d="M2902.28,1318.131h-4.646a18.5,18.5,0,0,1-.007-11.207h4.645A14.151,14.151,0,0,0,2902.28,1318.131Z" transform="translate(-400.443 -872.618)" fill="#fcd105"/>
      <path id="Trazado_1189014" data-name="Trazado 1189014" d="M2880.542,1318.131a14.151,14.151,0,0,1-.008-11.207h-1.123a15.186,15.186,0,0,0,.009,11.207Z" transform="translate(-385.484 -872.618)" fill="#fcd105"/>
      <path id="Trazado_1189015" data-name="Trazado 1189015" d="M3094.86,1318.131h-4.646a18.5,18.5,0,0,1-.006-11.207h4.644A14.153,14.153,0,0,0,3094.86,1318.131Z" transform="translate(-556.862 -872.618)" fill="#fcd105"/>
      <path id="Trazado_1189016" data-name="Trazado 1189016" d="M3073.112,1318.131a14.153,14.153,0,0,1-.009-11.207h-1.122a15.187,15.187,0,0,0,.008,11.207Z" transform="translate(-541.894 -872.618)" fill="#fcd105"/>
      <path id="Trazado_1189017" data-name="Trazado 1189017" d="M3163.722,1323.118h-10.335a.986.986,0,0,1-.986-.986v-6.26a.986.986,0,0,1,.986-.986h10.335Z" transform="translate(-608.08 -879.085)" fill="#e8edfd"/>
      <g id="Grupo_1227007" data-name="Grupo 1227007" transform="translate(2546.886 437.766)">
        <path id="Trazado_1189018" data-name="Trazado 1189018" d="M3174.241,1325.846h-7.933a.248.248,0,0,1,0-.5h7.933a.248.248,0,1,1,0,.5Z" transform="translate(-3166.061 -1325.35)" fill="#433fab"/>
      </g>
      <g id="Grupo_1227008" data-name="Grupo 1227008" transform="translate(2550.853 439.796)">
        <path id="Trazado_1189019" data-name="Trazado 1189019" d="M3191.308,1336.656h-3.874a.248.248,0,1,1,0-.5h3.874a.248.248,0,1,1,0,.5Z" transform="translate(-3187.187 -1336.16)" fill="#433fab"/>
      </g>
      <rect id="Rectángulo_422750" data-name="Rectángulo 422750" width="53.341" height="8.095" transform="translate(2496.375 425.53)" fill="#e8edfd"/>
      <g id="Grupo_1227009" data-name="Grupo 1227009" transform="translate(2495.01 424.068)">
        <path id="Trazado_1189020" data-name="Trazado 1189020" d="M2945.568,1262.7h-55.034a.744.744,0,1,1,0-1.488h54.27a5.987,5.987,0,0,0,0-7.326h-54.271a.744.744,0,0,1,0-1.488h55.032l.222.3a7.532,7.532,0,0,1,0,9.692Z" transform="translate(-2889.79 -1252.4)" fill="#36334c"/>
      </g>
      <g id="Grupo_1227010" data-name="Grupo 1227010" transform="translate(2522.441 425.579)">
        <path id="Trazado_1189021" data-name="Trazado 1189021" d="M3036.128,1267.677a.248.248,0,0,1-.248-.248v-6.734a.248.248,0,0,1,.5,0v6.734A.248.248,0,0,1,3036.128,1267.677Z" transform="translate(-3035.88 -1260.447)" fill="#433fab"/>
      </g>
      <g id="Grupo_1227011" data-name="Grupo 1227011" transform="translate(2496.751 426.421)">
        <path id="Trazado_1189022" data-name="Trazado 1189022" d="M2909.687,1265.426h-10.378a.248.248,0,0,1,0-.5h10.378a.248.248,0,0,1,0,.5Z" transform="translate(-2899.062 -1264.93)" fill="#433fab"/>
      </g>
      <g id="Grupo_1227012" data-name="Grupo 1227012" transform="translate(2499.103 427.665)">
        <path id="Trazado_1189023" data-name="Trazado 1189023" d="M2921.934,1272.056h-10.1a.248.248,0,0,1,0-.5h10.1a.248.248,0,1,1,0,.5Z" transform="translate(-2911.585 -1271.56)" fill="#433fab"/>
      </g>
      <path id="Trazado_1189024" data-name="Trazado 1189024" d="M3115.672,1158.672c-.741,5.5-4.617,11.148-8.952,9.118-4.06,2.214-8.275-3.937-9.1-9.325s1.534-11.984,9.1-8.479C3115.114,1146.574,3116.413,1153.171,3115.672,1158.672Z" transform="translate(-563.459 -744.352)" fill="#fb7682"/>
      <path id="Trazado_1189025" data-name="Trazado 1189025" d="M3168.209,1161.848c.494,1.554.069,3.076-.951,3.4s-2.247-.672-2.741-2.225-.069-3.076.951-3.4S3167.715,1160.3,3168.209,1161.848Z" transform="translate(-617.755 -752.927)" fill="#fdfcfb"/>
      <path id="Trazado_1189026" data-name="Trazado 1189026" d="M3180.837,1194.261a.84.84,0,1,1-.83-.969A.907.907,0,0,1,3180.837,1194.261Z" transform="translate(-629.828 -780.323)" fill="#fdfcfb"/>
      <g id="Grupo_1227013" data-name="Grupo 1227013" transform="translate(2542.41 397.143)">
        <path id="Trazado_1189027" data-name="Trazado 1189027" d="M3143.074,1118.246a.744.744,0,0,1-.732-.616c-.386-2.214-.019-6.852,4.139-8.564a.744.744,0,0,1,.566,1.375c-4.1,1.69-3.25,6.881-3.241,6.933a.743.743,0,0,1-.6.86A.733.733,0,0,1,3143.074,1118.246Z" transform="translate(-3142.225 -1109.01)" fill="#36334c"/>
      </g>
      <path id="Trazado_1189028" data-name="Trazado 1189028" d="M3116.242,1097.057c1.772,1.953,1.312,5.256,1.312,5.256s-3.332.137-5.1-1.816-1.312-5.256-1.312-5.256S3114.47,1095.1,3116.242,1097.057Z" transform="translate(-574.523 -700.682)" fill="#36334c"/>
      <g id="Grupo_1227014" data-name="Grupo 1227014" transform="translate(2485.459 317.246)">
        <path id="Trazado_1189029" data-name="Trazado 1189029" d="M2839.256,688.641a.247.247,0,0,1-.24-.191c-.009-.038-.841-3.764,2.724-4.928a.248.248,0,1,1,.154.471,3.624,3.624,0,0,0-2.4,4.343.248.248,0,0,1-.185.3A.266.266,0,0,1,2839.256,688.641Z" transform="translate(-2838.925 -683.51)" fill="#2c2c2d"/>
      </g>
      <g id="Grupo_1227015" data-name="Grupo 1227015" transform="translate(2504.637 307.811)">
        <path id="Trazado_1189030" data-name="Trazado 1189030" d="M2941.307,634.335a.248.248,0,0,1-.153-.443c1.034-.812,3.4-.614,3.5-.605a.248.248,0,0,1-.044.494c-.022,0-2.266-.19-3.146.5A.242.242,0,0,1,2941.307,634.335Z" transform="translate(-2941.058 -633.26)" fill="#2c2c2d"/>
      </g>
      <g id="Grupo_1227017" data-name="Grupo 1227017" transform="translate(2545.083 370.026)">
        <g id="Grupo_1227016" data-name="Grupo 1227016" transform="translate(1.762 0)">
          <path id="Trazado_1189031" data-name="Trazado 1189031" d="M2956.308,354.721a.746.746,0,0,1,.008-.181,3.273,3.273,0,0,1,3.346-2.867,8.01,8.01,0,0,1,2.344.617c1.442.543,2.233.784,3.055-.14a3.89,3.89,0,0,0-.044-4.781c-1.053-1.351-2.713-1.574-4.556-.613a.739.739,0,0,1-.684-1.311,5.6,5.6,0,0,1,3.741-.669,4.492,4.492,0,0,1,2.665,1.684,5.352,5.352,0,0,1-.017,6.672c-1.536,1.725-3.28,1.069-4.681.541a6.819,6.819,0,0,0-1.91-.525c-1.443-.086-1.768,1.467-1.8,1.644a.739.739,0,0,1-1.465-.072Z" transform="translate(-2956.306 -344.685)" fill="#fd6107"/>
        </g>
        <path id="Trazado_1189032" data-name="Trazado 1189032" d="M2946.452,422.115a1.075,1.075,0,1,1,.99-1.153A1.075,1.075,0,0,1,2946.452,422.115Z" transform="translate(-2945.296 -407.917)" fill="#fd6107"/>
      </g>
      <g id="Grupo_1227019" data-name="Grupo 1227019" transform="translate(2525.608 351.264)">
        <g id="Grupo_1227018" data-name="Grupo 1227018" transform="translate(0 0)">
          <path id="Trazado_1189033" data-name="Trazado 1189033" d="M2828.125,250.343a1.36,1.36,0,0,1-.174-.279c-.809-1.751-1.42-5.616,2.054-7.709a14.5,14.5,0,0,1,4.131-1.481c2.71-.668,4.137-1.12,4.417-3.342.368-2.926-1.86-6.106-4.967-7.09-2.956-.936-5.664.433-7.429,3.757a1.339,1.339,0,1,1-2.364-1.256,10.142,10.142,0,0,1,4.9-4.835,8.132,8.132,0,0,1,5.7-.219c4.352,1.379,7.346,5.761,6.815,9.977-.523,4.149-3.8,4.958-6.432,5.607a12.341,12.341,0,0,0-3.39,1.175c-2.242,1.351-1.136,4-1,4.3a1.338,1.338,0,0,1-2.26,1.4Z" transform="translate(-2823.636 -227.477)" fill="#fd6107"/>
        </g>
        <ellipse id="Elipse_14714" data-name="Elipse 14714" cx="1.946" cy="1.946" rx="1.946" ry="1.946" transform="translate(3.971 28.916) rotate(-60.389)" fill="#fd6107"/>
      </g>
      <g id="Grupo_1227020" data-name="Grupo 1227020" transform="translate(2484.573 397.569)">
        <path id="Trazado_1189034" data-name="Trazado 1189034" d="M2837.57,1118a3.361,3.361,0,1,1,3.361-3.361A3.365,3.365,0,0,1,2837.57,1118Zm0-6.227a2.865,2.865,0,1,0,2.865,2.866A2.869,2.869,0,0,0,2837.57,1111.775Z" transform="translate(-2834.209 -1111.279)" fill="#e8edfd"/>
      </g>
      <g id="Grupo_1227021" data-name="Grupo 1227021" transform="translate(2499.932 375.776)">
        <path id="Trazado_1189035" data-name="Trazado 1189035" d="M2920.4,1004.014a4.4,4.4,0,1,1,4.4-4.4A4.4,4.4,0,0,1,2920.4,1004.014Zm0-8.3a3.9,3.9,0,1,0,3.9,3.9A3.908,3.908,0,0,0,2920.4,995.712Z" transform="translate(-2916.003 -995.216)" fill="#e8edfd"/>
      </g>
      <g id="Grupo_1227022" data-name="Grupo 1227022" transform="translate(2441.895 369.528)">
        <path id="Trazado_1189036" data-name="Trazado 1189036" d="M2615.378,961.942l-.483.111a4.146,4.146,0,0,1,.041.575,3.9,3.9,0,0,1-7.536,1.421c-.164.045-.322.091-.479.134a4.4,4.4,0,0,0,8.511-1.555A4.184,4.184,0,0,0,2615.378,961.942Z" transform="translate(-2606.921 -961.942)" fill="#e8edfd"/>
      </g>
      <g id="Grupo_1227023" data-name="Grupo 1227023" transform="translate(2455.931 409.194)">
        <path id="Trazado_1189037" data-name="Trazado 1189037" d="M2685.444,1180.741a3.776,3.776,0,1,1,3.776-3.776A3.781,3.781,0,0,1,2685.444,1180.741Zm0-7.058a3.28,3.28,0,1,0,3.28,3.28A3.284,3.284,0,0,0,2685.444,1173.682Z" transform="translate(-2681.667 -1173.188)" fill="#e8edfd"/>
      </g>
      <g id="Grupo_1227024" data-name="Grupo 1227024" transform="translate(2502.422 407.74)">
        <path id="Trazado_1189038" data-name="Trazado 1189038" d="M2934.288,1175.487a5.022,5.022,0,1,1,5.022-5.022A5.027,5.027,0,0,1,2934.288,1175.487Zm0-9.548a4.526,4.526,0,1,0,4.526,4.526A4.531,4.531,0,0,0,2934.288,1165.938Z" transform="translate(-2929.267 -1165.443)" fill="#e8edfd"/>
      </g>
      <g id="Grupo_1227025" data-name="Grupo 1227025" transform="translate(2456.554 369.965)">
        <path id="Trazado_1189039" data-name="Trazado 1189039" d="M2688.351,970.992a3.361,3.361,0,1,1,3.361-3.361A3.365,3.365,0,0,1,2688.351,970.992Zm0-6.226a2.865,2.865,0,1,0,2.865,2.865A2.868,2.868,0,0,0,2688.351,964.766Z" transform="translate(-2684.989 -964.27)" fill="#e8edfd"/>
      </g>
      <g id="Grupo_1227026" data-name="Grupo 1227026" transform="translate(2443.479 381.588)">
        <path id="Trazado_1189040" data-name="Trazado 1189040" d="M2618.094,1031.648a2.739,2.739,0,1,1,2.739-2.739A2.741,2.741,0,0,1,2618.094,1031.648Zm0-4.982a2.243,2.243,0,1,0,2.243,2.243A2.245,2.245,0,0,0,2618.094,1026.666Z" transform="translate(-2615.356 -1026.171)" fill="#e8edfd"/>
      </g>
      <g id="Grupo_1227027" data-name="Grupo 1227027" transform="translate(2464.649 385.74)">
        <path id="Trazado_1189041" data-name="Trazado 1189041" d="M2731.46,1055a3.361,3.361,0,1,1,3.361-3.361A3.365,3.365,0,0,1,2731.46,1055Zm0-6.226a2.865,2.865,0,1,0,2.865,2.865A2.868,2.868,0,0,0,2731.46,1048.775Z" transform="translate(-2728.099 -1048.279)" fill="#e8edfd"/>
      </g>
      <g id="Grupo_1227028" data-name="Grupo 1227028" transform="translate(2525.461 386.116)">
        <path id="Trazado_1189042" data-name="Trazado 1189042" d="M3056.188,1056.207a2.811,2.811,0,0,1-.863.134,2.866,2.866,0,0,1-.9-5.588c-.053-.155-.1-.312-.157-.469a3.361,3.361,0,0,0,1.053,6.553,3.31,3.31,0,0,0,1.012-.157C3056.289,1056.528,3056.239,1056.368,3056.188,1056.207Z" transform="translate(-3051.963 -1050.283)" fill="#e8edfd"/>
      </g>
      <g id="Grupo_1227029" data-name="Grupo 1227029" transform="translate(2474.818 422.477)">
        <path id="Trazado_1189043" data-name="Trazado 1189043" d="M2785.823,1251.066a3.569,3.569,0,1,1,3.569-3.569A3.573,3.573,0,0,1,2785.823,1251.066Zm0-6.642a3.073,3.073,0,1,0,3.073,3.073A3.077,3.077,0,0,0,2785.823,1244.424Z" transform="translate(-2782.254 -1243.928)" fill="#e8edfd"/>
      </g>
      <g id="Grupo_1227030" data-name="Grupo 1227030" transform="translate(2515.292 368.928)">
        <path id="Trazado_1189044" data-name="Trazado 1189044" d="M3000.13,963.391a2.323,2.323,0,1,1,2.323-2.324A2.326,2.326,0,0,1,3000.13,963.391Zm0-4.151a1.828,1.828,0,1,0,1.828,1.828A1.83,1.83,0,0,0,3000.13,959.24Z" transform="translate(-2997.806 -958.744)" fill="#e8edfd"/>
      </g>
      <g id="Grupo_1227031" data-name="Grupo 1227031" transform="translate(2506.989 393.626)">
        <path id="Trazado_1189045" data-name="Trazado 1189045" d="M2957.153,1097.415a3.569,3.569,0,1,1,3.569-3.569A3.573,3.573,0,0,1,2957.153,1097.415Zm0-6.642a3.073,3.073,0,1,0,3.073,3.073A3.077,3.077,0,0,0,2957.153,1090.773Z" transform="translate(-2953.584 -1090.277)" fill="#e8edfd"/>
      </g>
      <g id="Grupo_1227032" data-name="Grupo 1227032" transform="translate(2481.045 376.398)">
        <path id="Trazado_1189046" data-name="Trazado 1189046" d="M2818.154,1004.008a2.739,2.739,0,1,1,2.739-2.738A2.741,2.741,0,0,1,2818.154,1004.008Zm0-4.98a2.243,2.243,0,1,0,2.243,2.243A2.245,2.245,0,0,0,2818.154,999.028Z" transform="translate(-2815.416 -998.531)" fill="#e8edfd"/>
      </g>
    </g>
  </g>
</svg>
