<svg xmlns="http://www.w3.org/2000/svg" xmlns:xlink="http://www.w3.org/1999/xlink" width="113" height="113" viewBox="0 0 113 113">
  <defs>
    <filter id="Trazado_982547" x="0" y="0" width="113" height="113" filterUnits="userSpaceOnUse">
      <feOffset dy="3" input="SourceAlpha"/>
      <feGaussianBlur stdDeviation="3" result="blur"/>
      <feFlood flood-opacity="0.161"/>
      <feComposite operator="in" in2="blur"/>
      <feComposite in="SourceGraphic"/>
    </filter>
  </defs>
  <g id="Grupo_1228999" data-name="Grupo 1228999" transform="translate(-692 -3415.293)">
    <g id="Grupo_1227103" data-name="Grupo 1227103" transform="translate(0 1832.697)">
      <g id="Grupo_1225956" data-name="Grupo 1225956" transform="translate(701 1588.596)">
        <g id="Grupo_1208038" data-name="Grupo 1208038">
          <g id="Grupo_1202104" data-name="Grupo 1202104">
            <g id="Grupo_1201923" data-name="Grupo 1201923" transform="translate(0 0)">
              <g id="Grupo_1176928" data-name="Grupo 1176928">
                <g id="Grupo_1172322" data-name="Grupo 1172322">
                  <g id="Grupo_1164700" data-name="Grupo 1164700">
                    <g id="Grupo_1160931" data-name="Grupo 1160931">
                      <g id="Grupo_1160749" data-name="Grupo 1160749">
                        <g id="Grupo_1158891" data-name="Grupo 1158891">
                          <g id="Grupo_1157406" data-name="Grupo 1157406">
                            <g id="Grupo_1155793" data-name="Grupo 1155793">
                              <g id="Grupo_1154704" data-name="Grupo 1154704">
                                <g id="Grupo_1150790" data-name="Grupo 1150790">
                                  <g id="Grupo_1154214" data-name="Grupo 1154214">
                                    <g id="Grupo_1152583" data-name="Grupo 1152583">
                                      <g id="Grupo_1146973" data-name="Grupo 1146973">
                                        <g id="Grupo_1146954" data-name="Grupo 1146954">
                                          <g transform="matrix(1, 0, 0, 1, -9, -6)" filter="url(#Trazado_982547)">
                                            <g id="Trazado_982547-2" data-name="Trazado 982547" transform="translate(9 6)" fill="#f9e3d4">
                                              <path d="M 47.5000114440918 93.49987030029297 C 41.28938293457031 93.49987030029297 35.26534652709961 92.28384399414062 29.5951976776123 89.88558959960938 C 24.11773109436035 87.56881713867188 19.19814491271973 84.25183868408203 14.97310447692871 80.02680206298828 C 10.74805164337158 75.80176544189453 7.43107795715332 70.88218688964844 5.114304542541504 65.40472412109375 C 2.716038227081299 59.73458862304688 1.500011444091797 53.71054840087891 1.500011444091797 47.49993515014648 C 1.500011444091797 41.28932189941406 2.716038227081299 35.26528167724609 5.114304542541504 29.59514808654785 C 7.43107795715332 24.1176815032959 10.74805164337158 19.1981086730957 14.97310447692871 14.97306823730469 C 19.19814491271973 10.74802875518799 24.11773109436035 7.431055068969727 29.5951976776123 5.11428165435791 C 35.26534652709961 2.716028451919556 41.28938293457031 1.500001788139343 47.5000114440918 1.500001788139343 C 53.71063995361328 1.500001788139343 59.73467636108398 2.716028451919556 65.40482330322266 5.11428165435791 C 70.88229370117188 7.431055068969727 75.8018798828125 10.74802875518799 80.02691650390625 14.97306823730469 C 84.25196838378906 19.1981086730957 87.56894683837891 24.1176815032959 89.88571929931641 29.59514808654785 C 92.28398132324219 35.26528167724609 93.50001525878906 41.28932189941406 93.50001525878906 47.49993515014648 C 93.50001525878906 53.71054840087891 92.28398132324219 59.73458862304688 89.88571929931641 65.40472412109375 C 87.56894683837891 70.88218688964844 84.25196838378906 75.80176544189453 80.02691650390625 80.02680206298828 C 75.8018798828125 84.25183868408203 70.88229370117188 87.56881713867188 65.40482330322266 89.88558959960938 C 59.73467636108398 92.28384399414062 53.71063995361328 93.49987030029297 47.5000114440918 93.49987030029297 Z" stroke="none"/>
                                              <path d="M 47.5000114440918 3 C 41.49122619628906 3 35.66378021240234 4.1761474609375 30.17951965332031 6.495796203613281 C 24.880859375 8.7369384765625 20.12153625488281 11.94596862792969 16.03376770019531 16.03373718261719 C 11.94598388671875 20.12149047851562 8.736968994140625 24.88081359863281 6.495811462402344 30.17947387695312 C 4.176162719726562 35.66371917724609 3.000007629394531 41.49116516113281 3.000007629394531 47.49993515014648 C 3.000007629394531 53.50870513916016 4.176162719726562 59.33615112304688 6.495811462402344 64.82039642333984 C 8.736968994140625 70.11905670166016 11.94598388671875 74.87837982177734 16.03376770019531 78.96613311767578 C 20.12153625488281 83.05390167236328 24.880859375 86.26293182373047 30.17951965332031 88.50407409667969 C 35.66378021240234 90.82372283935547 41.49122619628906 91.99987030029297 47.5000114440918 91.99987030029297 C 53.50879669189453 91.99987030029297 59.33624267578125 90.82372283935547 64.82050323486328 88.50407409667969 C 70.11916351318359 86.26293182373047 74.87848663330078 83.05390167236328 78.96625518798828 78.96613311767578 C 83.05403900146484 74.87837982177734 86.2630615234375 70.11905670166016 88.50421142578125 64.82039642333984 C 90.82386016845703 59.33615112304688 92.00001525878906 53.50870513916016 92.00001525878906 47.49993515014648 C 92.00001525878906 41.49116516113281 90.82386016845703 35.66371917724609 88.50421142578125 30.17947387695312 C 86.2630615234375 24.88081359863281 83.05403900146484 20.12149047851562 78.96625518798828 16.03373718261719 C 74.87848663330078 11.94596862792969 70.11916351318359 8.7369384765625 64.82050323486328 6.495796203613281 C 59.33624267578125 4.1761474609375 53.50879669189453 3 47.5000114440918 3 M 47.5000114440918 0 C 73.73353576660156 0 95.00001525878906 21.26644134521484 95.00001525878906 47.49993515014648 C 95.00001525878906 73.73342895507812 73.73353576660156 94.99987030029297 47.5000114440918 94.99987030029297 C 21.26648712158203 94.99987030029297 7.62939453125e-06 73.73342895507812 7.62939453125e-06 47.49993515014648 C 7.62939453125e-06 21.26644134521484 21.26648712158203 0 47.5000114440918 0 Z" stroke="none" fill="#eca675"/>
                                            </g>
                                          </g>
                                        </g>
                                      </g>
                                    </g>
                                  </g>
                                </g>
                              </g>
                            </g>
                          </g>
                        </g>
                      </g>
                    </g>
                  </g>
                </g>
              </g>
            </g>
          </g>
        </g>
      </g>
    </g>
    <g id="manual" transform="translate(719.235 3440.535)">
      <g id="Grupo_1228997" data-name="Grupo 1228997" transform="translate(0.836 0.828)">
        <g id="Grupo_1228994" data-name="Grupo 1228994" transform="translate(7.024)">
          <path id="Trazado_1191332" data-name="Trazado 1191332" d="M118.973,23.469V57.505a4.857,4.857,0,0,1-4.857,4.857H76a4.857,4.857,0,0,1-4.857-4.857V12.361A4.857,4.857,0,0,1,76,7.5h27.011A6.072,6.072,0,0,1,107.3,9.282l9.894,9.894A6.071,6.071,0,0,1,118.973,23.469Z" transform="translate(-71.14 -7.504)" fill="#f9f6f9"/>
          <path id="Trazado_1191333" data-name="Trazado 1191333" d="M367.465,23.47v1.036a3.552,3.552,0,0,0-3.552-3.552h-5.041a4.857,4.857,0,0,1-4.857-4.857V11.057a3.552,3.552,0,0,0-3.552-3.552H351.5a6.076,6.076,0,0,1,4.294,1.778l9.893,9.893a6.076,6.076,0,0,1,1.778,4.294Z" transform="translate(-319.631 -7.505)" fill="#dddaec"/>
        </g>
        <g id="Grupo_1228996" data-name="Grupo 1228996" transform="translate(0 3.152)">
          <path id="Trazado_1191334" data-name="Trazado 1191334" d="M28.417,40.175a1.861,1.861,0,0,0-.84-2.494l-2.882-1.428a1.861,1.861,0,0,0-2.494.84L16.5,48.6,13.72,43.955a1.86,1.86,0,0,0-2.552-.642l-2.76,1.65a1.861,1.861,0,0,0-.642,2.552l5.472,9.153a1.861,1.861,0,0,0,1.669.905l3.879-.153a1.858,1.858,0,0,0,1.593-1.033Z" transform="translate(-7.502 -36.059)" fill="#b3e59f"/>
          <g id="Grupo_1228995" data-name="Grupo 1228995" transform="translate(0 0)">
            <path id="Trazado_1191335" data-name="Trazado 1191335" d="M90.16,50.542,96.825,37.1a1.851,1.851,0,0,1,.626-.715l-.254-.126a1.861,1.861,0,0,0-2.494.84L89,48.6Z" transform="translate(-80.004 -36.061)" fill="#95d6a4"/>
            <path id="Trazado_1191336" data-name="Trazado 1191336" d="M15.36,113.01l-5.472-9.153a1.861,1.861,0,0,1,.642-2.552l2.649-1.583a1.859,1.859,0,0,0-2.011-.066l-2.76,1.65a1.861,1.861,0,0,0-.642,2.552l5.472,9.153a1.862,1.862,0,0,0,1.669.905l1.572-.062A1.863,1.863,0,0,1,15.36,113.01Z" transform="translate(-7.502 -92.401)" fill="#95d6a4"/>
          </g>
        </g>
      </g>
      <g id="Grupo_1228998" data-name="Grupo 1228998" transform="translate(0.009 0)">
        <path id="Trazado_1191337" data-name="Trazado 1191337" d="M56.521,16.793A6.854,6.854,0,0,0,54.5,11.915L44.607,2.021A6.854,6.854,0,0,0,39.729,0H12.717A5.692,5.692,0,0,0,7.032,5.686v4.967a2.693,2.693,0,0,0-2.955-.129l-2.761,1.65A2.692,2.692,0,0,0,.39,15.861l5.472,9.153a2.691,2.691,0,0,0,1.171,1.057V50.829a5.692,5.692,0,0,0,5.685,5.686h38.12a5.692,5.692,0,0,0,5.685-5.686V48.813a.828.828,0,0,0-1.656,0v2.016a4.034,4.034,0,0,1-4.029,4.03H12.717a4.034,4.034,0,0,1-4.029-4.03V26.306l3.465-.137a2.682,2.682,0,0,0,2.3-1.492L22.493,8.464a2.689,2.689,0,0,0-1.215-3.6L18.4,3.433a2.693,2.693,0,0,0-3.6,1.214L13.027,8.21a.828.828,0,0,0,1.484.735l1.766-3.563a1.035,1.035,0,0,1,1.386-.466l2.881,1.427a1.033,1.033,0,0,1,.467,1.385L12.972,23.943a1.029,1.029,0,0,1-.883.572l-3.878.153a1.039,1.039,0,0,1-.927-.5L1.811,15.011a1.035,1.035,0,0,1,.356-1.417l2.761-1.649a1.034,1.034,0,0,1,1.417.357l2.777,4.645a.828.828,0,0,0,1.452-.057l2.476-4.995a.828.828,0,0,0-1.484-.735l-1.8,3.635L8.688,13V5.686a4.034,4.034,0,0,1,4.029-4.03H38.708A2.727,2.727,0,0,1,41.416,4.38V9.421A5.692,5.692,0,0,0,47.1,15.107h5.041a2.727,2.727,0,0,1,2.724,2.723V45.5a.828.828,0,0,0,1.656,0ZM47.1,13.451a4.034,4.034,0,0,1-4.029-4.03V4.38a4.353,4.353,0,0,0-.4-1.819,5.3,5.3,0,0,1,.763.631l9.894,9.894a5.3,5.3,0,0,1,.632.763,4.354,4.354,0,0,0-1.821-.4Z" transform="translate(-0.009 0)"/>
        <path id="Trazado_1191338" data-name="Trazado 1191338" d="M168.424,339.894H136.49a.828.828,0,0,0,0,1.656h31.934a.828.828,0,1,0,0-1.656Z" transform="translate(-120.689 -302.377)"/>
        <path id="Trazado_1191339" data-name="Trazado 1191339" d="M169.252,394.095a.828.828,0,0,0-.828-.828H136.49a.828.828,0,0,0,0,1.656h31.934A.828.828,0,0,0,169.252,394.095Z" transform="translate(-120.689 -349.858)"/>
        <path id="Trazado_1191340" data-name="Trazado 1191340" d="M136.49,446.64a.828.828,0,1,0,0,1.656h16.277a.828.828,0,1,0,0-1.656Z" transform="translate(-120.689 -397.34)"/>
        <path id="Trazado_1191341" data-name="Trazado 1191341" d="M194.686,251.824a.828.828,0,0,0,.774-.533l.3-.8h2.131l.3.8a.828.828,0,1,0,1.549-.585l-2.019-5.35-.009-.023a.947.947,0,0,0-.879-.589h0a.948.948,0,0,0-.879.591l-.007.019-2.038,5.35a.829.829,0,0,0,.774,1.123Zm2.584-2.988h-.875l.44-1.154Z" transform="translate(-172.461 -217.727)"/>
        <path id="Trazado_1191342" data-name="Trazado 1191342" d="M364.417,251.824a.828.828,0,0,0,.774-.533l.3-.8h2.131l.3.8a.828.828,0,1,0,1.549-.585l-2.019-5.35-.009-.023a.947.947,0,0,0-.879-.589h0a.948.948,0,0,0-.879.591l-.007.019-2.038,5.35a.829.829,0,0,0,.774,1.123ZM367,248.836h-.875l.44-1.154Z" transform="translate(-323.457 -217.727)"/>
        <path id="Trazado_1191343" data-name="Trazado 1191343" d="M253.577,244.79a.828.828,0,0,0-.581.79V251a.828.828,0,0,0,1.656,0v-2.76l2.153,3.118a.9.9,0,0,0,1.015.37.925.925,0,0,0,.634-.918l-.051-5.243a.828.828,0,0,0-.828-.82h-.008a.828.828,0,0,0-.82.836l.027,2.819-2.27-3.287A.828.828,0,0,0,253.577,244.79Z" transform="translate(-225.071 -217.727)"/>
        <path id="Trazado_1191344" data-name="Trazado 1191344" d="M124.271,248.748l.708,2.4.009.029a.949.949,0,0,0,.9.648h.005a.949.949,0,0,0,.9-.657l.009-.028.683-2.4.453,2.368a.828.828,0,1,0,1.626-.311l-1.012-5.3a.95.95,0,0,0-1.835-.1l-.009.029-.831,2.914-.862-2.922-.009-.03a.95.95,0,0,0-1.836.133l-.954,5.284a.828.828,0,0,0,1.629.294Z" transform="translate(-108.716 -217.728)"/>
        <path id="Trazado_1191345" data-name="Trazado 1191345" d="M424.771,250.988a.828.828,0,0,0-.828-.823h0l-1.068,0v-4.6a.828.828,0,0,0-1.656,0v5.422a.828.828,0,0,0,.688.816,4.756,4.756,0,0,0,.71.017c.292,0,.716,0,1.335,0A.828.828,0,0,0,424.771,250.988Z" transform="translate(-374.722 -217.728)"/>
        <path id="Trazado_1191346" data-name="Trazado 1191346" d="M312.308,244.743a.828.828,0,0,0-.828.828V249.3a2.408,2.408,0,0,0,1.233,2.1,2.646,2.646,0,0,0,1.445.416h0a2.785,2.785,0,0,0,1.266-.294,2.45,2.45,0,0,0,1.478-2.231v-3.73a.828.828,0,1,0-1.656,0v3.73c0,.23-.067.5-.567.752a1.13,1.13,0,0,1-.521.117h0a1,1,0,0,1-.556-.156c-.392-.251-.469-.45-.469-.709v-3.734A.828.828,0,0,0,312.308,244.743Z" transform="translate(-277.1 -217.728)"/>
      </g>
    </g>
  </g>
</svg>
