<svg xmlns="http://www.w3.org/2000/svg" xmlns:xlink="http://www.w3.org/1999/xlink" width="113" height="113" viewBox="0 0 113 113">
  <defs>
    <filter id="Trazado_982547" x="0" y="0" width="113" height="113" filterUnits="userSpaceOnUse">
      <feOffset dy="3" input="SourceAlpha"/>
      <feGaussianBlur stdDeviation="3" result="blur"/>
      <feFlood flood-opacity="0.161"/>
      <feComposite operator="in" in2="blur"/>
      <feComposite in="SourceGraphic"/>
    </filter>
  </defs>
  <g id="Grupo_1229001" data-name="Grupo 1229001" transform="translate(-7220 -3399.617)">
    <g id="Grupo_1227104" data-name="Grupo 1227104" transform="translate(6844 1817.021)">
      <g id="Grupo_1225955" data-name="Grupo 1225955" transform="translate(385 1588.596)">
        <g id="Grupo_1208028" data-name="Grupo 1208028">
          <g id="Grupo_1177675" data-name="Grupo 1177675" transform="translate(0 0)">
            <g id="Grupo_1176928" data-name="Grupo 1176928">
              <g id="Grupo_1172322" data-name="Grupo 1172322">
                <g id="Grupo_1164700" data-name="Grupo 1164700">
                  <g id="Grupo_1160931" data-name="Grupo 1160931">
                    <g id="Grupo_1160749" data-name="Grupo 1160749">
                      <g id="Grupo_1158891" data-name="Grupo 1158891">
                        <g id="Grupo_1157406" data-name="Grupo 1157406">
                          <g id="Grupo_1155793" data-name="Grupo 1155793">
                            <g id="Grupo_1154704" data-name="Grupo 1154704">
                              <g id="Grupo_1150790" data-name="Grupo 1150790">
                                <g id="Grupo_1154214" data-name="Grupo 1154214">
                                  <g id="Grupo_1152583" data-name="Grupo 1152583">
                                    <g id="Grupo_1146973" data-name="Grupo 1146973">
                                      <g id="Grupo_1146954" data-name="Grupo 1146954">
                                        <g transform="matrix(1, 0, 0, 1, -9, -6)" filter="url(#Trazado_982547)">
                                          <g id="Trazado_982547-2" data-name="Trazado 982547" transform="translate(9 6)" fill="#f9e3d4">
                                            <path d="M 47.5000114440918 93.49987030029297 C 41.28938293457031 93.49987030029297 35.26534652709961 92.28384399414062 29.5951976776123 89.88558959960938 C 24.11773109436035 87.56881713867188 19.19814491271973 84.25183868408203 14.97310447692871 80.02680206298828 C 10.74805164337158 75.80176544189453 7.43107795715332 70.88218688964844 5.114304542541504 65.40472412109375 C 2.716038227081299 59.73458862304688 1.500011444091797 53.71054840087891 1.500011444091797 47.49993515014648 C 1.500011444091797 41.28932189941406 2.716038227081299 35.26528167724609 5.114304542541504 29.59514808654785 C 7.43107795715332 24.1176815032959 10.74805164337158 19.1981086730957 14.97310447692871 14.97306823730469 C 19.19814491271973 10.74802875518799 24.11773109436035 7.431055068969727 29.5951976776123 5.11428165435791 C 35.26534652709961 2.716028451919556 41.28938293457031 1.500001788139343 47.5000114440918 1.500001788139343 C 53.71063995361328 1.500001788139343 59.73467636108398 2.716028451919556 65.40482330322266 5.11428165435791 C 70.88229370117188 7.431055068969727 75.8018798828125 10.74802875518799 80.02691650390625 14.97306823730469 C 84.25196838378906 19.1981086730957 87.56894683837891 24.1176815032959 89.88571929931641 29.59514808654785 C 92.28398132324219 35.26528167724609 93.50001525878906 41.28932189941406 93.50001525878906 47.49993515014648 C 93.50001525878906 53.71054840087891 92.28398132324219 59.73458862304688 89.88571929931641 65.40472412109375 C 87.56894683837891 70.88218688964844 84.25196838378906 75.80176544189453 80.02691650390625 80.02680206298828 C 75.8018798828125 84.25183868408203 70.88229370117188 87.56881713867188 65.40482330322266 89.88558959960938 C 59.73467636108398 92.28384399414062 53.71063995361328 93.49987030029297 47.5000114440918 93.49987030029297 Z" stroke="none"/>
                                            <path d="M 47.5000114440918 3 C 41.49122619628906 3 35.66378021240234 4.1761474609375 30.17951965332031 6.495796203613281 C 24.880859375 8.7369384765625 20.12153625488281 11.94596862792969 16.03376770019531 16.03373718261719 C 11.94598388671875 20.12149047851562 8.736968994140625 24.88081359863281 6.495811462402344 30.17947387695312 C 4.176162719726562 35.66371917724609 3.000007629394531 41.49116516113281 3.000007629394531 47.49993515014648 C 3.000007629394531 53.50870513916016 4.176162719726562 59.33615112304688 6.495811462402344 64.82039642333984 C 8.736968994140625 70.11905670166016 11.94598388671875 74.87837982177734 16.03376770019531 78.96613311767578 C 20.12153625488281 83.05390167236328 24.880859375 86.26293182373047 30.17951965332031 88.50407409667969 C 35.66378021240234 90.82372283935547 41.49122619628906 91.99987030029297 47.5000114440918 91.99987030029297 C 53.50879669189453 91.99987030029297 59.33624267578125 90.82372283935547 64.82050323486328 88.50407409667969 C 70.11916351318359 86.26293182373047 74.87848663330078 83.05390167236328 78.96625518798828 78.96613311767578 C 83.05403900146484 74.87837982177734 86.2630615234375 70.11905670166016 88.50421142578125 64.82039642333984 C 90.82386016845703 59.33615112304688 92.00001525878906 53.50870513916016 92.00001525878906 47.49993515014648 C 92.00001525878906 41.49116516113281 90.82386016845703 35.66371917724609 88.50421142578125 30.17947387695312 C 86.2630615234375 24.88081359863281 83.05403900146484 20.12149047851562 78.96625518798828 16.03373718261719 C 74.87848663330078 11.94596862792969 70.11916351318359 8.7369384765625 64.82050323486328 6.495796203613281 C 59.33624267578125 4.1761474609375 53.50879669189453 3 47.5000114440918 3 M 47.5000114440918 0 C 73.73353576660156 0 95.00001525878906 21.26644134521484 95.00001525878906 47.49993515014648 C 95.00001525878906 73.73342895507812 73.73353576660156 94.99987030029297 47.5000114440918 94.99987030029297 C 21.26648712158203 94.99987030029297 7.62939453125e-06 73.73342895507812 7.62939453125e-06 47.49993515014648 C 7.62939453125e-06 21.26644134521484 21.26648712158203 0 47.5000114440918 0 Z" stroke="none" fill="#eca675"/>
                                          </g>
                                        </g>
                                      </g>
                                    </g>
                                  </g>
                                </g>
                              </g>
                            </g>
                          </g>
                        </g>
                      </g>
                    </g>
                  </g>
                </g>
              </g>
            </g>
          </g>
        </g>
      </g>
    </g>
    <g id="comites" transform="translate(7215.304 3378.515)">
      <g id="Grupo_1229000" data-name="Grupo 1229000" transform="translate(27.027 42.855)">
        <path id="Trazado_1191347" data-name="Trazado 1191347" d="M333.554,208.56h3.286a7.523,7.523,0,0,1,7.5,7.505v4.9c-1.946.638-4.025,3.328-6.747,6.639q-2.165-4.981-10.35,1.868H326.05V216.065A7.523,7.523,0,0,1,333.554,208.56Z" transform="translate(-281.534 -184.293)" fill="#a61e22" fill-rule="evenodd"/>
        <path id="Trazado_1191348" data-name="Trazado 1191348" d="M335.131,208.56h3.286a7.523,7.523,0,0,1,7.5,7.505v1.3a17.382,17.382,0,0,1-8.259.676,19.1,19.1,0,0,1-9.749-4.03A7.539,7.539,0,0,1,335.131,208.56Z" transform="translate(-283.112 -184.293)" fill="#ed2024" fill-rule="evenodd"/>
        <path id="Trazado_1191349" data-name="Trazado 1191349" d="M119.781,206.1h3.889a8.915,8.915,0,0,1,8.887,8.887v12.591c-.542.254-1.012,5.912-1.451,6.2h-14.7c-2.23-1.27-4.056-8.12-5.508-9.756v-9.036A8.907,8.907,0,0,1,119.781,206.1Z" transform="translate(-99.065 -182.207)" fill="#9175b5" fill-rule="evenodd"/>
        <path id="Trazado_1191350" data-name="Trazado 1191350" d="M131.816,206.1H135.7a8.913,8.913,0,0,1,8.883,8.667c-1.5,3.238-5.137,5.193-9.383,4.65-5.429-.7-9.86-5.219-10.115-10.221A8.88,8.88,0,0,1,131.816,206.1Z" transform="translate(-111.1 -182.207)" fill="#b39ccb" fill-rule="evenodd"/>
        <path id="Trazado_1191351" data-name="Trazado 1191351" d="M87.424,64.06c2.063-.039,3.427-.409,4.448-2.3C85.96,54.235,76.354,48.8,66.361,48.8c-17.8,0-33.594,15.823-33.373,34.593.181,16.018,11.483,24.513,24.736,27.461,10.716,2.385,25.645,2.73,32.418-6.252a72.651,72.651,0,0,0,8.111-11.862c1.15-2.037,6.583-10.906-.46-9.249-1.873.439-3.858,3.018-6.484,6.217Q89,84.4,79.3,93.605q-2.5,1.137-7.458.336c-9.92-.22-5.271,6.51-19.226,1.934C26,81.636,61.4,34.587,87.424,64.06Z" transform="translate(-32.985 -48.8)" fill="#f598a2" fill-rule="evenodd"/>
        <path id="Trazado_1191352" data-name="Trazado 1191352" d="M103.808,81.081c1.615-.03,2.8-.267,3.734-1.274C101.669,74.214,91.563,68.87,83.253,68.87c-22.115,0-41.365,29-24.581,46.119,10.071,10.265,36.806,18.82,50.282-1.938.551-.848,4.241-8.275,8.348-12.176-.491-.556-1.455-.753-3.126-.362-1.873.439-3.858,3.018-6.484,6.217q-2.313-5.309-12.009,3.9-2.5,1.137-7.458.336c-9.92-.22-5.271,6.51-19.226,1.934C42.385,98.657,77.783,51.608,103.808,81.081Z" transform="translate(-49.369 -65.821)" fill="#f9b5b2" fill-rule="evenodd"/>
        <path id="Trazado_1191353" data-name="Trazado 1191353" d="M191.774,243h11.392a10.35,10.35,0,0,1,10.291,9.62q-3.074.788-8.237,5.689-2.5,1.137-7.458.336c-9.15-.2-5.9,5.511-16.3,2.8v-8.13A10.348,10.348,0,0,1,191.774,243Z" transform="translate(-158.907 -213.502)" fill="#69cad3" fill-rule="evenodd"/>
        <path id="Trazado_1191354" data-name="Trazado 1191354" d="M198.209,245.1H209.6a10.355,10.355,0,0,1,10.27,9.357q-3.035.884-8.038,5.632-2.5,1.137-7.458.336a12.305,12.305,0,0,0-4.874.706c-5.36-2.828-9.219-6.773-10.247-10.807A10.335,10.335,0,0,1,198.209,245.1Z" transform="translate(-165.514 -215.283)" fill="#9cd9e4" fill-rule="evenodd"/>
        <path id="Trazado_1191355" data-name="Trazado 1191355" d="M250.81,211.65h10.953V216.7a5.067,5.067,0,0,1-5.051,5.051h-.852a5.067,5.067,0,0,1-5.051-5.051Z" transform="translate(-217.723 -186.914)" fill="#f3c7ad" fill-rule="evenodd"/>
        <path id="Trazado_1191356" data-name="Trazado 1191356" d="M294.943,259.551l-.753-6.231-5.4,3.755Z" transform="translate(-249.934 -222.254)" fill="#2fae6e" fill-rule="evenodd"/>
        <path id="Trazado_1191357" data-name="Trazado 1191357" d="M248.28,259.237l.763-6.287,5.391,3.811Z" transform="translate(-215.577 -221.94)" fill="#2fae6e" fill-rule="evenodd"/>
        <path id="Trazado_1191358" data-name="Trazado 1191358" d="M276.343,275.35h-3.427L271.9,286.2a16.548,16.548,0,0,1,2.566-.125,25.148,25.148,0,0,0,2.91.314Z" transform="translate(-235.61 -240.938)" fill="#2fae6e" fill-rule="evenodd"/>
        <path id="Trazado_1191359" data-name="Trazado 1191359" d="M273.984,275.35h-1.068L271.9,286.2a16.548,16.548,0,0,1,2.566-.125c.181.03.357.056.53.082Z" transform="translate(-235.61 -240.938)" fill="#65c18e" fill-rule="evenodd"/>
        <path id="Trazado_1191360" data-name="Trazado 1191360" d="M279.844,258.42h-1.42a1.215,1.215,0,0,0-1.214,1.211v2.652a1.218,1.218,0,0,0,1.214,1.214h1.42a1.218,1.218,0,0,0,1.214-1.214v-2.652A1.216,1.216,0,0,0,279.844,258.42Z" transform="translate(-240.113 -226.579)" fill="#2fae6e" fill-rule="evenodd"/>
        <path id="Trazado_1191361" data-name="Trazado 1191361" d="M145.394,122.08a7.264,7.264,0,1,1-7.264,7.264,7.268,7.268,0,0,1,7.264-7.264Z" transform="translate(-122.159 -110.949)" fill="#f3c7ad" fill-rule="evenodd"/>
        <path id="Trazado_1191362" data-name="Trazado 1191362" d="M347.186,118.68a7,7,0,1,1-7,7A6.993,6.993,0,0,1,347.186,118.68Z" transform="translate(-293.526 -108.065)" fill="#f3c7ad" fill-rule="evenodd"/>
        <path id="Trazado_1191363" data-name="Trazado 1191363" d="M239.449,150.63c8.1,0,8.315-12.185,8.315-12.185-3.586-5.98-16.6-1.262-16.607-1.258-.176.194-.159.134-.159.478C231,144.826,234.777,150.63,239.449,150.63Z" transform="translate(-200.92 -122.259)" fill="#f3c7ad" fill-rule="evenodd"/>
        <path id="Trazado_1191364" data-name="Trazado 1191364" d="M216.335,85.268c2.333-1.007,1.016-4.267,2.253-5.184,3.143,1.554,7.156,1.49,10.558.633,1.455.835.211,3.156.349,4.116l2.859-.052c1.852-4.9,3.457-10.192-3.936-11.019-4.267-.474-8.6-5.787-13.15-3.143-3.7,2.149-1.5,6.217-.68,9.059C215.22,81.865,215.013,83.639,216.335,85.268Z" transform="translate(-185.815 -66.683)" fill="#fbcc1b" fill-rule="evenodd"/>
        <path id="Trazado_1191365" data-name="Trazado 1191365" d="M216.347,102.12c2.333-1.007,1.016-4.267,2.253-5.184,3.143,1.554,7.156,1.49,10.558.633,1.455.835.211,3.156.349,4.116l2.4-.043c1.107-3.867.922-7.35-4.964-8-4.267-.478-8.6-5.792-13.15-3.147a5.04,5.04,0,0,0-.589.4c-.043,1.877.917,3.974,1.4,5.644C215.232,98.717,215.025,100.491,216.347,102.12Z" transform="translate(-185.827 -83.535)" fill="#f7b219" fill-rule="evenodd"/>
      </g>
      <path id="Trazado_1191366" data-name="Trazado 1191366" d="M83.9,80.948v-5.1a1.063,1.063,0,1,1,2.127,0v5.421a32.711,32.711,0,0,1,2.743-3.032V74.627a6.46,6.46,0,0,0-5.843-6.416,8.112,8.112,0,0,1-4.473,0,6.462,6.462,0,0,0-5.029,3.284,11.431,11.431,0,0,1,9.076,9.27,4.179,4.179,0,0,1,1.4.182ZM57.784,59.769c.551-1.265-.043-3.307,1.382-4.366a1.063,1.063,0,0,1,1.1-.1c2.936,1.455,6.712,1.34,9.829.556a1.082,1.082,0,0,1,.788.108c1.636.939,1.322,2.579,1.028,3.957l.908-.017c.77-2.105,1.42-4.22,1.188-5.843-.223-1.554-1.417-2.73-4.5-3.07-4.431-.5-8.646-5.524-12.5-3.286-2.847,1.654-.943,5.253-.19,7.85C57.242,57.025,57.35,58.692,57.784,59.769Zm2.408-1.382c-.12,1.335-.254,2.807-1.627,3.708a13.388,13.388,0,0,0,2.54,5.637,5.863,5.863,0,0,0,4.452,2.433c4.513,0,6.257-4.539,6.914-8.13l-1.68.03a1.065,1.065,0,0,1-1.136-.908c-.134-.955.491-2.377.331-3.087a20.032,20.032,0,0,1-5.408.453,14.855,14.855,0,0,1-3.685-.676l-.667.164c-.014.117-.027.246-.035.375Zm-3.9,3.126a12.243,12.243,0,0,1-1.239-4.2,6.205,6.205,0,1,0,1.347,4.82C56.364,61.925,56.329,61.719,56.294,61.512Zm-2.277-7.691a17.712,17.712,0,0,1-.53-1.92q-1.039.51-2.028,1.11A8.242,8.242,0,0,1,54.017,53.822Zm-.69-4.189a4.746,4.746,0,0,1,2.617-3.759c3.368-1.955,6.393-.345,9.369,1.236.526.279,1.047.556,1.558.805.667.125,1.314.279,1.946.456.65.19,1.309.409,1.972.664A6.881,6.881,0,0,1,75,51.153c.491.305.99.638,1.486.99.378.272.763.561,1.145.866a7.966,7.966,0,0,1,3.673-.577c-5.74-5.215-13.413-8.606-21.244-8.517a32.022,32.022,0,0,0-22.347,9.934,33.42,33.42,0,0,0-9.632,23.6c.169,14.894,10.4,23.427,23.906,26.433C61.5,106,76.65,106.884,83.336,98.022a.7.7,0,0,1,.082-.094,58.349,58.349,0,0,0,3.952-5.184q2.021-2.951,4-6.463c.094-.172.155-.275.223-.4.917-1.6,3.074-5.36,2.683-7.022-.1-.444-.706-.629-2.2-.279a3.833,3.833,0,0,0-1.455.84.9.9,0,0,1-.194.169,39.84,39.84,0,0,0-3.659,4.121c-.1.125-.061.073,0,0l-.469.573q-2.08,6.206-6.325,9.12a16.013,16.013,0,0,1-10.735,2.433,1.063,1.063,0,0,1,.172-2.119c7.574.629,12.323-2.725,14.795-9.878-.589-1.033-1.361-1.068-2.42-.822-2.019.507-4.987,2.828-7.712,5.417a1.06,1.06,0,0,1-.293.2,9.452,9.452,0,0,1-3.509.744,22.116,22.116,0,0,1-4.482-.319c-3.708-.068-5.163.922-6.484,1.817-2.011,1.369-3.776,2.563-9.925.969a29.789,29.789,0,0,1-3.286-1.012c-.448-.263-1.042-.568-1.455-.852a19.945,19.945,0,0,1-2.023-1.455c-8.064-6.6-7.883-17-3.3-25.567a31.079,31.079,0,0,1,3.255-4.9A8.341,8.341,0,0,1,47,53.588a29.58,29.58,0,0,1,3.311-2.359,27.163,27.163,0,0,1,3.017-1.6Zm22.619,7.259a25.893,25.893,0,0,1-1.129,3.734c-.014.12-.026.249-.043.378a5.934,5.934,0,1,0,1.171-4.112Zm-2,8a14.082,14.082,0,0,1-1.817,3.858v.84a8.631,8.631,0,0,1,3.53-2.821A8.156,8.156,0,0,1,73.947,64.887ZM70,70.928a7.5,7.5,0,0,1-4.448,1.361,7.167,7.167,0,0,1-4.379-1.549c0,.427-.026,1.877.017,2.326l2.244,1.589a2.271,2.271,0,0,1,1.9-1.021h1.42a2.285,2.285,0,0,1,1.8.887l1.331-.925A15.292,15.292,0,0,0,70,70.928Zm-10.955-2.4a14.388,14.388,0,0,1-1.65-3A8.207,8.207,0,0,1,56.374,66.9a10.084,10.084,0,0,1,2.673,2.127V68.53ZM86.714,55.113a8.065,8.065,0,0,1-.995,11.652,8.6,8.6,0,0,1,5.175,7.862v2.119a4.469,4.469,0,0,1,.7-.232c3.014-.711,4.361.2,4.753,1.864.582,2.471-1.868,6.747-2.91,8.559l-.216.378h0c-1.2,2.187-2.9,4.879-4.091,6.623a60,60,0,0,1-4.1,5.374c-3.135,4.151-7.876,6.412-13.15,7.428-6.656,1.284-14.183.577-20.336-.793C36.915,102.687,25.96,93.2,25.96,77.068A35.5,35.5,0,0,1,36.2,52.37,34.159,34.159,0,0,1,60.4,41.79C70.593,41.792,80.528,47.273,86.714,55.113ZM54.559,68.38a8.309,8.309,0,0,1-9-.258,7.862,7.862,0,0,0-5.632,7.513v6.287a15.4,15.4,0,0,0,4.034,4.956c.082.065.169.134.249.2V77.039a1.063,1.063,0,0,1,2.127,0v11.5c.237.143.482.279.732.413.507.169.99.314,1.451.453V82.672a11.416,11.416,0,0,1,9.7-11.251A7.92,7.92,0,0,0,54.559,68.38ZM43.8,66.511a8.3,8.3,0,0,1-1.779-4.022,25.144,25.144,0,0,0-3.565,9.576A10.048,10.048,0,0,1,43.8,66.511ZM66.758,75.76h-1.42a.152.152,0,0,0-.15.15v2.648a.152.152,0,0,0,.15.15h1.42a.152.152,0,0,0,.15-.15V75.911A.153.153,0,0,0,66.758,75.76Zm2.277,1.019V77.8l1.732.693L70.44,75.8Zm-2.007,4.039H65.064l-.573,6.135a12.6,12.6,0,0,1,3.131.207Zm-3.969-3.147v-.7l-1.723-1.218L61.006,78.5Zm-.72,9.538.676-7.233-2.889,1.162a1.06,1.06,0,0,1-1.446-1.106h0l.671-5.524a6.355,6.355,0,0,1-.2-.779c-.014-.091-.03-.181-.043-.275a9.29,9.29,0,0,0-8.461,9.219v7.3a14.1,14.1,0,0,0,4.133.469v-5.1a1.063,1.063,0,1,1,2.127,0v4.525a10.671,10.671,0,0,0,1.214-.744A10.522,10.522,0,0,1,62.339,87.209Zm6.752-7.1.667,7.156c.143,0,.284,0,.422-.012a7.594,7.594,0,0,0,2.57-.5A28,28,0,0,1,80.035,81.4c.129-.061.263-.112.387-.164a9.294,9.294,0,0,0-8.181-7.763,1.049,1.049,0,0,1,.094.327l.753,6.235a1.062,1.062,0,0,1-1.446,1.106Zm17.675,3.6C86.857,83.6,86.986,83.442,86.766,83.707Z"/>
    </g>
  </g>
</svg>
