<svg xmlns="http://www.w3.org/2000/svg" xmlns:xlink="http://www.w3.org/1999/xlink" width="113" height="113" viewBox="0 0 113 113">
  <defs>
    <filter id="Trazado_982547" x="0" y="0" width="113" height="113" filterUnits="userSpaceOnUse">
      <feOffset dy="3" input="SourceAlpha"/>
      <feGaussianBlur stdDeviation="3" result="blur"/>
      <feFlood flood-opacity="0.161"/>
      <feComposite operator="in" in2="blur"/>
      <feComposite in="SourceGraphic"/>
    </filter>
  </defs>
  <g id="Grupo_1229009" data-name="Grupo 1229009" transform="translate(-7536 -3399.617)">
    <g id="Grupo_1227105" data-name="Grupo 1227105" transform="translate(6844 1817.021)">
      <g id="Grupo_1225956" data-name="Grupo 1225956" transform="translate(701 1588.596)">
        <g id="Grupo_1208038" data-name="Grupo 1208038">
          <g id="Grupo_1202104" data-name="Grupo 1202104">
            <g id="Grupo_1201923" data-name="Grupo 1201923" transform="translate(0 0)">
              <g id="Grupo_1176928" data-name="Grupo 1176928">
                <g id="Grupo_1172322" data-name="Grupo 1172322">
                  <g id="Grupo_1164700" data-name="Grupo 1164700">
                    <g id="Grupo_1160931" data-name="Grupo 1160931">
                      <g id="Grupo_1160749" data-name="Grupo 1160749">
                        <g id="Grupo_1158891" data-name="Grupo 1158891">
                          <g id="Grupo_1157406" data-name="Grupo 1157406">
                            <g id="Grupo_1155793" data-name="Grupo 1155793">
                              <g id="Grupo_1154704" data-name="Grupo 1154704">
                                <g id="Grupo_1150790" data-name="Grupo 1150790">
                                  <g id="Grupo_1154214" data-name="Grupo 1154214">
                                    <g id="Grupo_1152583" data-name="Grupo 1152583">
                                      <g id="Grupo_1146973" data-name="Grupo 1146973">
                                        <g id="Grupo_1146954" data-name="Grupo 1146954">
                                          <g transform="matrix(1, 0, 0, 1, -9, -6)" filter="url(#Trazado_982547)">
                                            <g id="Trazado_982547-2" data-name="Trazado 982547" transform="translate(9 6)" fill="#f9e3d4">
                                              <path d="M 47.5000114440918 93.49987030029297 C 41.28938293457031 93.49987030029297 35.26534652709961 92.28384399414062 29.5951976776123 89.88558959960938 C 24.11773109436035 87.56881713867188 19.19814491271973 84.25183868408203 14.97310447692871 80.02680206298828 C 10.74805164337158 75.80176544189453 7.43107795715332 70.88218688964844 5.114304542541504 65.40472412109375 C 2.716038227081299 59.73458862304688 1.500011444091797 53.71054840087891 1.500011444091797 47.49993515014648 C 1.500011444091797 41.28932189941406 2.716038227081299 35.26528167724609 5.114304542541504 29.59514808654785 C 7.43107795715332 24.1176815032959 10.74805164337158 19.1981086730957 14.97310447692871 14.97306823730469 C 19.19814491271973 10.74802875518799 24.11773109436035 7.431055068969727 29.5951976776123 5.11428165435791 C 35.26534652709961 2.716028451919556 41.28938293457031 1.500001788139343 47.5000114440918 1.500001788139343 C 53.71063995361328 1.500001788139343 59.73467636108398 2.716028451919556 65.40482330322266 5.11428165435791 C 70.88229370117188 7.431055068969727 75.8018798828125 10.74802875518799 80.02691650390625 14.97306823730469 C 84.25196838378906 19.1981086730957 87.56894683837891 24.1176815032959 89.88571929931641 29.59514808654785 C 92.28398132324219 35.26528167724609 93.50001525878906 41.28932189941406 93.50001525878906 47.49993515014648 C 93.50001525878906 53.71054840087891 92.28398132324219 59.73458862304688 89.88571929931641 65.40472412109375 C 87.56894683837891 70.88218688964844 84.25196838378906 75.80176544189453 80.02691650390625 80.02680206298828 C 75.8018798828125 84.25183868408203 70.88229370117188 87.56881713867188 65.40482330322266 89.88558959960938 C 59.73467636108398 92.28384399414062 53.71063995361328 93.49987030029297 47.5000114440918 93.49987030029297 Z" stroke="none"/>
                                              <path d="M 47.5000114440918 3 C 41.49122619628906 3 35.66378021240234 4.1761474609375 30.17951965332031 6.495796203613281 C 24.880859375 8.7369384765625 20.12153625488281 11.94596862792969 16.03376770019531 16.03373718261719 C 11.94598388671875 20.12149047851562 8.736968994140625 24.88081359863281 6.495811462402344 30.17947387695312 C 4.176162719726562 35.66371917724609 3.000007629394531 41.49116516113281 3.000007629394531 47.49993515014648 C 3.000007629394531 53.50870513916016 4.176162719726562 59.33615112304688 6.495811462402344 64.82039642333984 C 8.736968994140625 70.11905670166016 11.94598388671875 74.87837982177734 16.03376770019531 78.96613311767578 C 20.12153625488281 83.05390167236328 24.880859375 86.26293182373047 30.17951965332031 88.50407409667969 C 35.66378021240234 90.82372283935547 41.49122619628906 91.99987030029297 47.5000114440918 91.99987030029297 C 53.50879669189453 91.99987030029297 59.33624267578125 90.82372283935547 64.82050323486328 88.50407409667969 C 70.11916351318359 86.26293182373047 74.87848663330078 83.05390167236328 78.96625518798828 78.96613311767578 C 83.05403900146484 74.87837982177734 86.2630615234375 70.11905670166016 88.50421142578125 64.82039642333984 C 90.82386016845703 59.33615112304688 92.00001525878906 53.50870513916016 92.00001525878906 47.49993515014648 C 92.00001525878906 41.49116516113281 90.82386016845703 35.66371917724609 88.50421142578125 30.17947387695312 C 86.2630615234375 24.88081359863281 83.05403900146484 20.12149047851562 78.96625518798828 16.03373718261719 C 74.87848663330078 11.94596862792969 70.11916351318359 8.7369384765625 64.82050323486328 6.495796203613281 C 59.33624267578125 4.1761474609375 53.50879669189453 3 47.5000114440918 3 M 47.5000114440918 0 C 73.73353576660156 0 95.00001525878906 21.26644134521484 95.00001525878906 47.49993515014648 C 95.00001525878906 73.73342895507812 73.73353576660156 94.99987030029297 47.5000114440918 94.99987030029297 C 21.26648712158203 94.99987030029297 7.62939453125e-06 73.73342895507812 7.62939453125e-06 47.49993515014648 C 7.62939453125e-06 21.26644134521484 21.26648712158203 0 47.5000114440918 0 Z" stroke="none" fill="#eca675"/>
                                            </g>
                                          </g>
                                        </g>
                                      </g>
                                    </g>
                                  </g>
                                </g>
                              </g>
                            </g>
                          </g>
                        </g>
                      </g>
                    </g>
                  </g>
                </g>
              </g>
            </g>
          </g>
        </g>
      </g>
    </g>
    <g id="taller" transform="translate(7559.16 3417.63)">
      <g id="Grupo_1229007" data-name="Grupo 1229007" transform="translate(3.55 0.937)">
        <g id="Grupo_1229004" data-name="Grupo 1229004" transform="translate(0)">
          <path id="Trazado_1191367" data-name="Trazado 1191367" d="M119.195,293.712h-40a1.571,1.571,0,0,1-1.571-1.571V277.576a1.571,1.571,0,0,1,1.571-1.571h40a1.571,1.571,0,0,1,1.571,1.571v14.565A1.571,1.571,0,0,1,119.195,293.712Z" transform="translate(-69.407 -243.567)" fill="#fed5b0"/>
          <path id="Trazado_1191368" data-name="Trazado 1191368" d="M391.5,276.005h-4.11a1.571,1.571,0,0,1,1.571,1.571v14.565a1.571,1.571,0,0,1-1.571,1.571h4.11a1.571,1.571,0,0,0,1.571-1.571V277.576A1.571,1.571,0,0,0,391.5,276.005Z" transform="translate(-341.709 -243.567)" fill="#fdb97e"/>
          <path id="Trazado_1191369" data-name="Trazado 1191369" d="M287.885,28.548h2.8V24.095a4.151,4.151,0,0,0-4.151-4.151h-1.478v5.774A2.83,2.83,0,0,0,287.885,28.548Z" transform="translate(-251.751 -18.47)" fill="#a74b30"/>
          <path id="Trazado_1191370" data-name="Trazado 1191370" d="M287.885,28.548h2.8V24.095a4.151,4.151,0,0,0-4.151-4.151h-1.478v5.774A2.83,2.83,0,0,0,287.885,28.548Z" transform="translate(-251.751 -18.47)" fill="#a74b30"/>
          <path id="Trazado_1191371" data-name="Trazado 1191371" d="M178.015,201.516h-.981a3.318,3.318,0,0,0-3.318,3.318v5.69h19.9v-5.69a3.318,3.318,0,0,0-3.318-3.318Z" transform="translate(-153.876 -178.086)" fill="#d5e3f4"/>
          <path id="Trazado_1191372" data-name="Trazado 1191372" d="M233.642,158.1a3.062,3.062,0,0,1-3.062-3.062V148.68H236.7v6.359A3.062,3.062,0,0,1,233.642,158.1Z" transform="translate(-203.863 -131.639)" fill="#ffbfb1"/>
          <path id="Trazado_1191373" data-name="Trazado 1191373" d="M191.319,46.286l-.1,0a7.392,7.392,0,0,0-14.578,0l-.1,0a2.51,2.51,0,1,0,0,5.02l.1,0a7.392,7.392,0,0,0,14.578,0l.1,0a2.51,2.51,0,1,0,0-5.02Z" transform="translate(-154.149 -36.21)" fill="#ffcebf"/>
          <path id="Trazado_1191374" data-name="Trazado 1191374" d="M255.828,46.286l-.1,0a7.4,7.4,0,0,0-8.317-6.092,7.4,7.4,0,0,1,6.261,6.092l.1,0a2.51,2.51,0,1,1,0,5.02l-.1,0a7.4,7.4,0,0,1-6.261,6.092,7.4,7.4,0,0,0,8.317-6.092l.1,0a2.51,2.51,0,1,0,0-5.02Z" transform="translate(-218.658 -36.21)" fill="#ffbfb1"/>
          <path id="Trazado_1191375" data-name="Trazado 1191375" d="M190.708,7.751h-10.5V14.5a3.327,3.327,0,0,0,3.327,3.327h8.231A3.129,3.129,0,0,0,194.9,14.7V11.94a4.189,4.189,0,0,0-4.189-4.189Z" transform="translate(-159.584 -7.751)" fill="#c4573a"/>
          <path id="Trazado_1191376" data-name="Trazado 1191376" d="M244.617,7.751h-3.083a4.189,4.189,0,0,1,4.189,4.189V14.7a3.129,3.129,0,0,1-3.129,3.129h3.083a3.129,3.129,0,0,0,3.129-3.129V11.94A4.189,4.189,0,0,0,244.617,7.751Z" transform="translate(-213.493 -7.751)" fill="#a74b30"/>
          <path id="Trazado_1191377" data-name="Trazado 1191377" d="M199.34,226.593h13.68v5.975H199.34Z" transform="translate(-176.401 -200.13)" fill="#0078c8"/>
          <circle id="Elipse_14725" data-name="Elipse 14725" cx="5.713" cy="5.713" r="5.713" transform="translate(2.36 42.949)" fill="#ffcebf"/>
          <path id="Trazado_1191378" data-name="Trazado 1191378" d="M25.8,463.083H9.638a5.731,5.731,0,0,1,5.731-5.731h4.7A5.731,5.731,0,0,1,25.8,463.083Z" transform="translate(-9.638 -402.986)" fill="#3c87d0"/>
          <circle id="Elipse_14726" data-name="Elipse 14726" cx="5.713" cy="5.713" r="5.713" transform="translate(24.282 42.949)" fill="#ffcebf"/>
          <path id="Trazado_1191379" data-name="Trazado 1191379" d="M207.094,463.083H190.928a5.731,5.731,0,0,1,5.731-5.731h4.7A5.731,5.731,0,0,1,207.094,463.083Z" transform="translate(-169.006 -402.986)" fill="#3c87d0"/>
          <circle id="Elipse_14727" data-name="Elipse 14727" cx="5.713" cy="5.713" r="5.713" transform="translate(45.637 42.949)" fill="#ffcebf"/>
          <g id="Grupo_1229002" data-name="Grupo 1229002" transform="translate(13.37 35.945)">
            <path id="Trazado_1191380" data-name="Trazado 1191380" d="M383.693,463.083H367.527a5.731,5.731,0,0,1,5.731-5.731h4.7A5.731,5.731,0,0,1,383.693,463.083Z" transform="translate(-337.621 -438.931)" fill="#3c87d0"/>
            <path id="Trazado_1191381" data-name="Trazado 1191381" d="M237.321,308.275h-2.175a1.631,1.631,0,1,1,0-3.263h2.175a1.631,1.631,0,0,1,0,3.263Z" transform="translate(-219.813 -305.012)" fill="#3c87d0"/>
            <path id="Trazado_1191382" data-name="Trazado 1191382" d="M124.011,308.275h-2.175a1.631,1.631,0,1,1,0-3.263h2.175a1.631,1.631,0,0,1,0,3.263Z" transform="translate(-120.205 -305.012)" fill="#3c87d0"/>
            <path id="Trazado_1191383" data-name="Trazado 1191383" d="M350.631,308.275h-2.175a1.631,1.631,0,0,1,0-3.263h2.175a1.631,1.631,0,0,1,0,3.263Z" transform="translate(-319.422 -305.012)" fill="#3c87d0"/>
          </g>
          <g id="Grupo_1229003" data-name="Grupo 1229003" transform="translate(36.619 23.437)">
            <path id="Trazado_1191384" data-name="Trazado 1191384" d="M312.472,201.568v9h3.121v-5.69A3.317,3.317,0,0,0,312.472,201.568Z" transform="translate(-312.472 -201.568)" fill="#b3dafe"/>
          </g>
          <path id="Trazado_1191385" data-name="Trazado 1191385" d="M66.445,362.935a5.716,5.716,0,0,0-1.37.167,5.713,5.713,0,0,1,0,11.093,5.713,5.713,0,1,0,1.37-11.26Z" transform="translate(-58.372 -319.986)" fill="#ffbfb1"/>
          <path id="Trazado_1191386" data-name="Trazado 1191386" d="M76.006,457.352h-2.74A5.731,5.731,0,0,1,79,463.083h2.74A5.731,5.731,0,0,0,76.006,457.352Z" transform="translate(-65.572 -402.986)" fill="#0078c8"/>
          <path id="Trazado_1191387" data-name="Trazado 1191387" d="M247.735,362.935a5.716,5.716,0,0,0-1.37.167,5.713,5.713,0,0,1,0,11.093,5.713,5.713,0,1,0,1.37-11.26Z" transform="translate(-217.74 -319.986)" fill="#ffbfb1"/>
          <path id="Trazado_1191388" data-name="Trazado 1191388" d="M243.027,457.352h-2.74a5.731,5.731,0,0,1,5.731,5.731h2.74A5.731,5.731,0,0,0,243.027,457.352Z" transform="translate(-210.671 -402.986)" fill="#0078c8"/>
          <path id="Trazado_1191389" data-name="Trazado 1191389" d="M424.334,362.935a5.716,5.716,0,0,0-1.37.167,5.713,5.713,0,0,1,0,11.093,5.713,5.713,0,1,0,1.37-11.26Z" transform="translate(-372.984 -319.986)" fill="#ffbfb1"/>
          <path id="Trazado_1191390" data-name="Trazado 1191390" d="M433.9,457.352h-2.74a5.731,5.731,0,0,1,5.731,5.731h2.74A5.731,5.731,0,0,0,433.9,457.352Z" transform="translate(-380.185 -402.986)" fill="#0078c8"/>
        </g>
        <g id="Grupo_1229005" data-name="Grupo 1229005" transform="translate(33.387 14.956)">
          <path id="Trazado_1191391" data-name="Trazado 1191391" d="M287.416,132.741h-1.022a.652.652,0,1,1,0-1.3h1.022a.652.652,0,1,1,0,1.3Z" transform="translate(-285.742 -131.437)" fill="#ffb09e"/>
        </g>
        <g id="Grupo_1229006" data-name="Grupo 1229006" transform="translate(23.845 14.956)">
          <path id="Trazado_1191392" data-name="Trazado 1191392" d="M208.509,132.741h-1.022a.652.652,0,1,1,0-1.3h1.022a.652.652,0,1,1,0,1.3Z" transform="translate(-206.835 -131.437)" fill="#ffb09e"/>
        </g>
      </g>
      <g id="Grupo_1229008" data-name="Grupo 1229008" transform="translate(2.712)">
        <path id="Trazado_1191393" data-name="Trazado 1191393" d="M220.958,105.155v-1.361a.907.907,0,1,0-1.814,0v1.361a.907.907,0,1,0,1.814,0Z" transform="translate(-192.973 -90.446)"/>
        <path id="Trazado_1191394" data-name="Trazado 1191394" d="M279.721,106.062a.907.907,0,0,0,.907-.907v-1.361a.907.907,0,1,0-1.814,0v1.361A.907.907,0,0,0,279.721,106.062Z" transform="translate(-245.428 -90.446)"/>
        <path id="Trazado_1191395" data-name="Trazado 1191395" d="M238.475,136.633a2.479,2.479,0,0,0,2.477-2.477.907.907,0,0,0-1.814,0,.663.663,0,1,1-1.325,0,.907.907,0,1,0-1.814,0A2.479,2.479,0,0,0,238.475,136.633Z" transform="translate(-207.79 -117.137)"/>
        <path id="Trazado_1191396" data-name="Trazado 1191396" d="M59.217,54.641a6.615,6.615,0,0,0-3.332-11.627v-8.1a2.481,2.481,0,0,0-2.478-2.478H44.266v-.8a.907.907,0,1,0-1.814,0v.8H41.145V27.37a.907.907,0,0,0-.906-.907V25.254a2.419,2.419,0,0,1,2.207,2.219.907.907,0,0,0,1.809-.135,4.24,4.24,0,0,0-4.213-3.907H37.367V22.068a8.256,8.256,0,0,0,4.067-5.22A3.415,3.415,0,0,0,43.4,11.294a.9.9,0,0,0,.055-.309V6.532a5.061,5.061,0,0,0-5.134-5.058A5.079,5.079,0,0,0,34.743,0h-10.5a.907.907,0,0,0-.907.907V7.658a4.216,4.216,0,0,0,1.074,2.814,3.416,3.416,0,0,0,.95,6.376,8.256,8.256,0,0,0,4.067,5.22V23.43H26.777a4.229,4.229,0,0,0-4.225,4.224v4.783H13.411a2.481,2.481,0,0,0-2.478,2.478v1.43a.907.907,0,1,0,1.814,0v-1.43a.665.665,0,0,1,.664-.664h40a.665.665,0,0,1,.664.664V43.01a6.632,6.632,0,0,0-5.7,7.135H40.209c.015-.17.025-.394.025-.575a6.62,6.62,0,1,0-13.24,0c0,.191.012.423.025.575H18.287a6.422,6.422,0,0,0,.011-.99,6.616,6.616,0,0,0-5.551-6.12V40.577a.907.907,0,1,0-1.814,0v2.417A6.616,6.616,0,0,0,7.449,54.645,6.649,6.649,0,0,0,2.712,61a.907.907,0,0,0,.907.907H19.785A.907.907,0,0,0,20.692,61a6.649,6.649,0,0,0-4.751-6.363,6.647,6.647,0,0,0,1.924-2.683h9.578a6.647,6.647,0,0,0,1.928,2.687A6.649,6.649,0,0,0,24.634,61a.907.907,0,0,0,.907.907H41.706A.907.907,0,0,0,42.613,61a6.649,6.649,0,0,0-4.751-6.363,6.649,6.649,0,0,0,1.924-2.683H48.8a6.647,6.647,0,0,0,1.928,2.687A6.649,6.649,0,0,0,45.988,61a.907.907,0,0,0,.907.907H63.061A.907.907,0,0,0,63.968,61a6.65,6.65,0,0,0-4.751-6.363Zm-21.963-29.4h1.17v1.218h-1.7A3.94,3.94,0,0,0,37.254,25.244Zm4.39-18.712v3.546h-.226a8.29,8.29,0,0,0-1.579-3.094,10.13,10.13,0,0,0-.25-3.461l0-.01A3.249,3.249,0,0,1,41.644,6.532ZM25.151,1.814h9.591A3.288,3.288,0,0,1,37.91,4.236v0c.151.556.115.686.115,3.617A2.225,2.225,0,0,1,35.8,10.078H27.571a2.425,2.425,0,0,1-2.42-2.42V1.814ZM27,15.85a.907.907,0,0,0-.931-.757,1.6,1.6,0,1,1-.066-3.2.942.942,0,0,0,.555-.119,4.441,4.441,0,0,0,1.01.121H35.8a4.052,4.052,0,0,0,3.58-2.173,6.456,6.456,0,0,1,.409,1.416.938.938,0,0,0,1.048.757,1.6,1.6,0,1,1-.117,3.2.911.911,0,0,0-.931.757A6.462,6.462,0,0,1,33.4,21.256h0A6.465,6.465,0,0,1,27,15.85Zm6.395,7.22a8.475,8.475,0,0,0,2.155-.282v1.519a2.155,2.155,0,0,1-4.311,0V22.788A8.461,8.461,0,0,0,33.4,23.069Zm-5.027,2.175h1.17a3.949,3.949,0,0,0,.526,1.218h-1.7V25.244Zm-4,2.411a2.413,2.413,0,0,1,2.191-2.4v1.207a.907.907,0,0,0-.906.907v5.068H24.366Zm3.1,4.783V28.276H39.331v4.161ZM6.886,49.569a4.809,4.809,0,0,1,4.924-4.8h.006a4.8,4.8,0,0,1,.16,9.6h-.57a4.812,4.812,0,0,1-4.521-4.8Zm7.167,6.611A4.833,4.833,0,0,1,18.792,60.1H4.611A4.833,4.833,0,0,1,9.35,56.18ZM33.614,44.763a4.806,4.806,0,0,1,.285,9.6h-.57a4.806,4.806,0,0,1,.285-9.6Zm2.36,11.417A4.833,4.833,0,0,1,40.714,60.1H26.533a4.833,4.833,0,0,1,4.739-3.918Zm23.8-6.611a4.812,4.812,0,0,1-4.521,4.8h-.57a4.812,4.812,0,0,1-4.476-4.145c0-.019,0-.038-.007-.057a4.806,4.806,0,1,1,9.574-.6ZM47.888,60.1a4.833,4.833,0,0,1,4.739-3.918h4.7A4.833,4.833,0,0,1,62.068,60.1Z" transform="translate(-2.712)"/>
        <path id="Trazado_1191397" data-name="Trazado 1191397" d="M231.3,302.339a2.538,2.538,0,1,0,0-5.077h-2.175a2.538,2.538,0,1,0,0,5.077Zm-2.9-2.538a.725.725,0,0,1,.724-.724H231.3a.724.724,0,1,1,0,1.449h-2.175A.725.725,0,0,1,228.4,299.8Z" transform="translate(-199.517 -261.317)"/>
        <path id="Trazado_1191398" data-name="Trazado 1191398" d="M115.816,302.339h2.175a2.538,2.538,0,1,0,0-5.077h-2.175a2.538,2.538,0,0,0,0,5.077Zm0-3.263h2.175a.724.724,0,0,1,0,1.449h-2.175a.724.724,0,0,1,0-1.449Z" transform="translate(-99.908 -261.317)"/>
        <path id="Trazado_1191399" data-name="Trazado 1191399" d="M344.611,302.339a2.538,2.538,0,1,0,0-5.077h-2.175a2.538,2.538,0,0,0,0,5.077Zm-2.9-2.538a.725.725,0,0,1,.724-.724h2.175a.724.724,0,0,1,0,1.449h-2.175A.725.725,0,0,1,341.712,299.8Z" transform="translate(-299.125 -261.317)"/>
      </g>
    </g>
  </g>
</svg>
