<svg xmlns="http://www.w3.org/2000/svg" xmlns:xlink="http://www.w3.org/1999/xlink" width="113" height="113" viewBox="0 0 113 113">
  <defs>
    <filter id="Trazado_982547" x="0" y="0" width="113" height="113" filterUnits="userSpaceOnUse">
      <feOffset dy="3" input="SourceAlpha"/>
      <feGaussianBlur stdDeviation="3" result="blur"/>
      <feFlood flood-opacity="0.161"/>
      <feComposite operator="in" in2="blur"/>
      <feComposite in="SourceGraphic"/>
    </filter>
  </defs>
  <g id="Grupo_1229037" data-name="Grupo 1229037" transform="translate(-7220 -3794.617)">
    <g id="Grupo_1227106" data-name="Grupo 1227106" transform="translate(6844 2212.021)">
      <g id="Grupo_1225955" data-name="Grupo 1225955" transform="translate(385 1588.596)">
        <g id="Grupo_1208028" data-name="Grupo 1208028">
          <g id="Grupo_1177675" data-name="Grupo 1177675" transform="translate(0 0)">
            <g id="Grupo_1176928" data-name="Grupo 1176928">
              <g id="Grupo_1172322" data-name="Grupo 1172322">
                <g id="Grupo_1164700" data-name="Grupo 1164700">
                  <g id="Grupo_1160931" data-name="Grupo 1160931">
                    <g id="Grupo_1160749" data-name="Grupo 1160749">
                      <g id="Grupo_1158891" data-name="Grupo 1158891">
                        <g id="Grupo_1157406" data-name="Grupo 1157406">
                          <g id="Grupo_1155793" data-name="Grupo 1155793">
                            <g id="Grupo_1154704" data-name="Grupo 1154704">
                              <g id="Grupo_1150790" data-name="Grupo 1150790">
                                <g id="Grupo_1154214" data-name="Grupo 1154214">
                                  <g id="Grupo_1152583" data-name="Grupo 1152583">
                                    <g id="Grupo_1146973" data-name="Grupo 1146973">
                                      <g id="Grupo_1146954" data-name="Grupo 1146954">
                                        <g transform="matrix(1, 0, 0, 1, -9, -6)" filter="url(#Trazado_982547)">
                                          <g id="Trazado_982547-2" data-name="Trazado 982547" transform="translate(9 6)" fill="#f9e3d4">
                                            <path d="M 47.5000114440918 93.49987030029297 C 41.28938293457031 93.49987030029297 35.26534652709961 92.28384399414062 29.5951976776123 89.88558959960938 C 24.11773109436035 87.56881713867188 19.19814491271973 84.25183868408203 14.97310447692871 80.02680206298828 C 10.74805164337158 75.80176544189453 7.43107795715332 70.88218688964844 5.114304542541504 65.40472412109375 C 2.716038227081299 59.73458862304688 1.500011444091797 53.71054840087891 1.500011444091797 47.49993515014648 C 1.500011444091797 41.28932189941406 2.716038227081299 35.26528167724609 5.114304542541504 29.59514808654785 C 7.43107795715332 24.1176815032959 10.74805164337158 19.1981086730957 14.97310447692871 14.97306823730469 C 19.19814491271973 10.74802875518799 24.11773109436035 7.431055068969727 29.5951976776123 5.11428165435791 C 35.26534652709961 2.716028451919556 41.28938293457031 1.500001788139343 47.5000114440918 1.500001788139343 C 53.71063995361328 1.500001788139343 59.73467636108398 2.716028451919556 65.40482330322266 5.11428165435791 C 70.88229370117188 7.431055068969727 75.8018798828125 10.74802875518799 80.02691650390625 14.97306823730469 C 84.25196838378906 19.1981086730957 87.56894683837891 24.1176815032959 89.88571929931641 29.59514808654785 C 92.28398132324219 35.26528167724609 93.50001525878906 41.28932189941406 93.50001525878906 47.49993515014648 C 93.50001525878906 53.71054840087891 92.28398132324219 59.73458862304688 89.88571929931641 65.40472412109375 C 87.56894683837891 70.88218688964844 84.25196838378906 75.80176544189453 80.02691650390625 80.02680206298828 C 75.8018798828125 84.25183868408203 70.88229370117188 87.56881713867188 65.40482330322266 89.88558959960938 C 59.73467636108398 92.28384399414062 53.71063995361328 93.49987030029297 47.5000114440918 93.49987030029297 Z" stroke="none"/>
                                            <path d="M 47.5000114440918 3 C 41.49122619628906 3 35.66378021240234 4.1761474609375 30.17951965332031 6.495796203613281 C 24.880859375 8.7369384765625 20.12153625488281 11.94596862792969 16.03376770019531 16.03373718261719 C 11.94598388671875 20.12149047851562 8.736968994140625 24.88081359863281 6.495811462402344 30.17947387695312 C 4.176162719726562 35.66371917724609 3.000007629394531 41.49116516113281 3.000007629394531 47.49993515014648 C 3.000007629394531 53.50870513916016 4.176162719726562 59.33615112304688 6.495811462402344 64.82039642333984 C 8.736968994140625 70.11905670166016 11.94598388671875 74.87837982177734 16.03376770019531 78.96613311767578 C 20.12153625488281 83.05390167236328 24.880859375 86.26293182373047 30.17951965332031 88.50407409667969 C 35.66378021240234 90.82372283935547 41.49122619628906 91.99987030029297 47.5000114440918 91.99987030029297 C 53.50879669189453 91.99987030029297 59.33624267578125 90.82372283935547 64.82050323486328 88.50407409667969 C 70.11916351318359 86.26293182373047 74.87848663330078 83.05390167236328 78.96625518798828 78.96613311767578 C 83.05403900146484 74.87837982177734 86.2630615234375 70.11905670166016 88.50421142578125 64.82039642333984 C 90.82386016845703 59.33615112304688 92.00001525878906 53.50870513916016 92.00001525878906 47.49993515014648 C 92.00001525878906 41.49116516113281 90.82386016845703 35.66371917724609 88.50421142578125 30.17947387695312 C 86.2630615234375 24.88081359863281 83.05403900146484 20.12149047851562 78.96625518798828 16.03373718261719 C 74.87848663330078 11.94596862792969 70.11916351318359 8.7369384765625 64.82050323486328 6.495796203613281 C 59.33624267578125 4.1761474609375 53.50879669189453 3 47.5000114440918 3 M 47.5000114440918 0 C 73.73353576660156 0 95.00001525878906 21.26644134521484 95.00001525878906 47.49993515014648 C 95.00001525878906 73.73342895507812 73.73353576660156 94.99987030029297 47.5000114440918 94.99987030029297 C 21.26648712158203 94.99987030029297 7.62939453125e-06 73.73342895507812 7.62939453125e-06 47.49993515014648 C 7.62939453125e-06 21.26644134521484 21.26648712158203 0 47.5000114440918 0 Z" stroke="none" fill="#eca675"/>
                                          </g>
                                        </g>
                                      </g>
                                    </g>
                                  </g>
                                </g>
                              </g>
                            </g>
                          </g>
                        </g>
                      </g>
                    </g>
                  </g>
                </g>
              </g>
            </g>
          </g>
        </g>
      </g>
    </g>
    <g id="lista-de-verificacion_2_" data-name="lista-de-verificacion (2)" transform="translate(7214.11 3815)">
      <g id="Grupo_1229010" data-name="Grupo 1229010" transform="translate(39.832 0.942)">
        <path id="Trazado_1191400" data-name="Trazado 1191400" d="M91.065,69.942H48.422a2.031,2.031,0,0,1-2.031-2.031V9.531A2.031,2.031,0,0,1,48.422,7.5H91.065A2.031,2.031,0,0,1,93.1,9.531v58.38a2.031,2.031,0,0,1-2.031,2.031Z" transform="translate(-46.391 -7.5)" fill="#ecf4ff"/>
      </g>
      <g id="Grupo_1229011" data-name="Grupo 1229011" transform="translate(81.968 0.942)">
        <path id="Trazado_1191401" data-name="Trazado 1191401" d="M384.3,7.5h-2.538A2.031,2.031,0,0,1,383.8,9.531v58.38a2.031,2.031,0,0,1-2.031,2.031H384.3a2.031,2.031,0,0,0,2.031-2.031V9.531A2.031,2.031,0,0,0,384.3,7.5Z" transform="translate(-381.765 -7.5)" fill="#ddeafb"/>
      </g>
      <g id="Grupo_1229030" data-name="Grupo 1229030" transform="translate(44.782 9.065)">
        <g id="Grupo_1229017" data-name="Grupo 1229017" transform="translate(0)">
          <g id="Grupo_1229016" data-name="Grupo 1229016">
            <g id="Grupo_1229015" data-name="Grupo 1229015">
              <g id="Grupo_1229014" data-name="Grupo 1229014">
                <g id="Grupo_1229012" data-name="Grupo 1229012" transform="translate(0)">
                  <path id="Trazado_1191402" data-name="Trazado 1191402" d="M96.666,84.841H87.6a1.813,1.813,0,0,1-1.813-1.813V73.963A1.813,1.813,0,0,1,87.6,72.15h9.065a1.813,1.813,0,0,1,1.813,1.813v9.065A1.813,1.813,0,0,1,96.666,84.841Z" transform="translate(-85.788 -72.15)" fill="#b3e59f"/>
                </g>
                <g id="Grupo_1229013" data-name="Grupo 1229013" transform="translate(0 0.008)">
                  <path id="Trazado_1191403" data-name="Trazado 1191403" d="M96.819,72.212q.029.378.029.763A9.926,9.926,0,0,1,86.921,82.9a10.041,10.041,0,0,1-1.133-.065v.246A1.813,1.813,0,0,0,87.6,84.9h9.065a1.813,1.813,0,0,0,1.813-1.813V74.017a1.812,1.812,0,0,0-1.661-1.805Z" transform="translate(-85.788 -72.212)" fill="#95d6a4"/>
                </g>
              </g>
            </g>
          </g>
        </g>
        <g id="Grupo_1229023" data-name="Grupo 1229023" transform="translate(0 16.753)">
          <g id="Grupo_1229022" data-name="Grupo 1229022">
            <g id="Grupo_1229021" data-name="Grupo 1229021">
              <g id="Grupo_1229020" data-name="Grupo 1229020">
                <g id="Grupo_1229018" data-name="Grupo 1229018" transform="translate(0)">
                  <path id="Trazado_1191404" data-name="Trazado 1191404" d="M96.666,218.183H87.6a1.813,1.813,0,0,1-1.813-1.813v-9.065a1.813,1.813,0,0,1,1.813-1.813h9.065a1.813,1.813,0,0,1,1.813,1.813v9.065A1.813,1.813,0,0,1,96.666,218.183Z" transform="translate(-85.788 -205.492)" fill="#b3e59f"/>
                </g>
                <g id="Grupo_1229019" data-name="Grupo 1229019" transform="translate(0 0.008)">
                  <path id="Trazado_1191405" data-name="Trazado 1191405" d="M96.819,205.553q.029.378.029.763a9.927,9.927,0,0,1-11.06,9.862v.246a1.813,1.813,0,0,0,1.813,1.813h9.065a1.813,1.813,0,0,0,1.813-1.813v-9.065a1.812,1.812,0,0,0-1.661-1.805Z" transform="translate(-85.788 -205.553)" fill="#95d6a4"/>
                </g>
              </g>
            </g>
          </g>
        </g>
        <g id="Grupo_1229029" data-name="Grupo 1229029" transform="translate(0 33.505)">
          <g id="Grupo_1229028" data-name="Grupo 1229028">
            <g id="Grupo_1229027" data-name="Grupo 1229027">
              <g id="Grupo_1229026" data-name="Grupo 1229026">
                <g id="Grupo_1229024" data-name="Grupo 1229024" transform="translate(0)">
                  <path id="Trazado_1191406" data-name="Trazado 1191406" d="M96.666,351.525H87.6a1.813,1.813,0,0,1-1.813-1.813v-9.065a1.813,1.813,0,0,1,1.813-1.813h9.065a1.813,1.813,0,0,1,1.813,1.813v9.065A1.813,1.813,0,0,1,96.666,351.525Z" transform="translate(-85.788 -338.834)" fill="#b3e59f"/>
                </g>
                <g id="Grupo_1229025" data-name="Grupo 1229025" transform="translate(0 0.008)">
                  <path id="Trazado_1191407" data-name="Trazado 1191407" d="M96.819,338.895q.029.378.029.763a9.927,9.927,0,0,1-11.06,9.862v.246a1.813,1.813,0,0,0,1.813,1.813h9.065a1.813,1.813,0,0,0,1.813-1.813V340.7a1.812,1.812,0,0,0-1.661-1.805Z" transform="translate(-85.788 -338.895)" fill="#95d6a4"/>
                </g>
              </g>
            </g>
          </g>
        </g>
      </g>
      <g id="Grupo_1229035" data-name="Grupo 1229035" transform="translate(71.954 30.9)">
        <g id="Grupo_1229031" data-name="Grupo 1229031" transform="translate(0)">
          <path id="Trazado_1191408" data-name="Trazado 1191408" d="M304.766,277.4l-2.375,1.031-.294-2.572a5.077,5.077,0,0,1,.647-3.116l15.471-26.8,4.4,2.538-15.471,26.8a5.077,5.077,0,0,1-2.374,2.118Z" transform="translate(-302.064 -245.947)" fill="#4a80aa"/>
        </g>
        <g id="Grupo_1229032" data-name="Grupo 1229032" transform="translate(0.109 1.396)">
          <path id="Trazado_1191409" data-name="Trazado 1191409" d="M321.392,257.059l-15.471,26.8a5.076,5.076,0,0,1-2.375,2.118l-.615.267.218,1.907,2.375-1.031A5.077,5.077,0,0,0,307.9,285l15.471-26.8Z" transform="translate(-302.932 -257.059)" fill="#407093"/>
        </g>
        <g id="Grupo_1229033" data-name="Grupo 1229033" transform="translate(11.835 3.958)">
          <path id="Trazado_1191410" data-name="Trazado 1191410" d="M0,0H4.061V5.077H0Z" transform="matrix(0.5, -0.866, 0.866, 0.5, 0, 3.517)" fill="#ffe07d"/>
        </g>
        <g id="Grupo_1229034" data-name="Grupo 1229034" transform="translate(14.253 5.354)">
          <path id="Trazado_1191411" data-name="Trazado 1191411" d="M0,0H4.061V2.284H0Z" transform="matrix(0.5, -0.866, 0.866, 0.5, 0, 3.517)" fill="#ffd064"/>
        </g>
      </g>
      <g id="Grupo_1229036" data-name="Grupo 1229036" transform="translate(38.89 0)">
        <path id="Trazado_1191412" data-name="Trazado 1191412" d="M39.832,51.806a.942.942,0,0,0,.942-.942V2.973a1.089,1.089,0,0,1,1.088-1.088H84.506a1.089,1.089,0,0,1,1.088,1.088v9.986a.942.942,0,0,0,1.885,0V2.973A2.976,2.976,0,0,0,84.506,0H41.863A2.976,2.976,0,0,0,38.89,2.973V50.864a.942.942,0,0,0,.942.942Z" transform="translate(-38.89 0)"/>
        <path id="Trazado_1191413" data-name="Trazado 1191413" d="M92.863,67.405a2.758,2.758,0,0,0-2.755-2.755H81.042a2.758,2.758,0,0,0-2.755,2.755v9.065a2.759,2.759,0,0,0,2.755,2.755h9.065a2.759,2.759,0,0,0,2.755-2.755Zm-1.885,9.065a.872.872,0,0,1-.871.871H81.042a.872.872,0,0,1-.871-.871V67.405a.872.872,0,0,1,.871-.871h9.065a.872.872,0,0,1,.871.871Z" transform="translate(-73.337 -56.528)"/>
        <path id="Trazado_1191414" data-name="Trazado 1191414" d="M115.712,102.64l-2.549,2.549-.941-.941a.942.942,0,1,0-1.333,1.332l1.608,1.608a.942.942,0,0,0,1.333,0l3.215-3.215a.942.942,0,0,0-1.333-1.333Z" transform="translate(-101.602 -89.503)"/>
        <path id="Trazado_1191415" data-name="Trazado 1191415" d="M226.713,115.024h14.849a.942.942,0,1,0,0-1.885H226.713a.942.942,0,1,0,0,1.885Z" transform="translate(-202.292 -98.925)"/>
        <path id="Trazado_1191416" data-name="Trazado 1191416" d="M309.466,80.813h-9.011a.942.942,0,0,0,0,1.885h9.011a.942.942,0,0,0,0-1.885Z" transform="translate(-266.769 -70.66)"/>
        <path id="Trazado_1191417" data-name="Trazado 1191417" d="M226.713,82.7h4.823a.942.942,0,0,0,0-1.885h-4.823a.942.942,0,0,0,0,1.885Z" transform="translate(-202.292 -70.66)"/>
        <path id="Trazado_1191418" data-name="Trazado 1191418" d="M272.17,145.464a.942.942,0,1,0,0,1.885h4.95a.942.942,0,1,0,0-1.885Z" transform="translate(-242.038 -127.188)"/>
        <path id="Trazado_1191419" data-name="Trazado 1191419" d="M226.713,147.349h1.269a.942.942,0,1,0,0-1.885h-1.269a.942.942,0,0,0,0,1.885Z" transform="translate(-202.292 -127.188)"/>
        <path id="Trazado_1191420" data-name="Trazado 1191420" d="M92.863,200.747a2.758,2.758,0,0,0-2.755-2.755H81.042a2.758,2.758,0,0,0-2.755,2.755v9.065a2.758,2.758,0,0,0,2.755,2.755h9.065a2.758,2.758,0,0,0,2.755-2.755Zm-1.885,9.065a.872.872,0,0,1-.871.871H81.042a.872.872,0,0,1-.871-.871v-9.065a.872.872,0,0,1,.871-.871h9.065a.872.872,0,0,1,.871.871Z" transform="translate(-73.337 -173.117)"/>
        <path id="Trazado_1191421" data-name="Trazado 1191421" d="M115.712,235.981l-2.549,2.549-.941-.941a.942.942,0,0,0-1.333,1.333l1.608,1.608a.942.942,0,0,0,1.333,0l3.215-3.215a.942.942,0,0,0-1.333-1.333Z" transform="translate(-101.602 -206.092)"/>
        <path id="Trazado_1191422" data-name="Trazado 1191422" d="M242.5,247.421a.942.942,0,0,0-.942-.942H226.713a.942.942,0,0,0,0,1.885h14.849A.942.942,0,0,0,242.5,247.421Z" transform="translate(-202.292 -215.512)"/>
        <path id="Trazado_1191423" data-name="Trazado 1191423" d="M310.408,215.1a.942.942,0,0,0-.942-.942h-9.011a.942.942,0,0,0,0,1.885h9.011A.942.942,0,0,0,310.408,215.1Z" transform="translate(-266.769 -187.248)"/>
        <path id="Trazado_1191424" data-name="Trazado 1191424" d="M226.713,216.039h4.823a.942.942,0,0,0,0-1.885h-4.823a.942.942,0,1,0,0,1.885Z" transform="translate(-202.292 -187.248)"/>
        <path id="Trazado_1191425" data-name="Trazado 1191425" d="M278.063,279.747a.942.942,0,0,0-.942-.942h-4.95a.942.942,0,0,0,0,1.885h4.95A.942.942,0,0,0,278.063,279.747Z" transform="translate(-242.039 -243.777)"/>
        <path id="Trazado_1191426" data-name="Trazado 1191426" d="M226.713,280.69h1.269a.942.942,0,1,0,0-1.885h-1.269a.942.942,0,1,0,0,1.885Z" transform="translate(-202.292 -243.777)"/>
        <path id="Trazado_1191427" data-name="Trazado 1191427" d="M90.108,331.333H81.042a2.759,2.759,0,0,0-2.755,2.755v9.065a2.758,2.758,0,0,0,2.755,2.755h9.065a2.758,2.758,0,0,0,2.755-2.755v-9.065A2.759,2.759,0,0,0,90.108,331.333Zm.871,11.821a.872.872,0,0,1-.871.871H81.042a.872.872,0,0,1-.871-.871v-9.065a.872.872,0,0,1,.871-.871h9.065a.872.872,0,0,1,.871.871Z" transform="translate(-73.337 -289.705)"/>
        <path id="Trazado_1191428" data-name="Trazado 1191428" d="M115.712,369.322l-2.549,2.549-.941-.941a.942.942,0,0,0-1.333,1.333l1.608,1.608a.942.942,0,0,0,1.333,0l3.215-3.215a.942.942,0,0,0-1.333-1.333Z" transform="translate(-101.602 -322.68)"/>
        <path id="Trazado_1191429" data-name="Trazado 1191429" d="M226.713,349.381h4.823a.942.942,0,1,0,0-1.885h-4.823a.942.942,0,1,0,0,1.885Z" transform="translate(-202.292 -303.838)"/>
        <path id="Trazado_1191430" data-name="Trazado 1191430" d="M227.982,414.031a.942.942,0,0,0,0-1.885h-1.269a.942.942,0,0,0,0,1.885Z" transform="translate(-202.292 -360.365)"/>
        <path id="Trazado_1191431" data-name="Trazado 1191431" d="M93.412,147.421a.942.942,0,0,0-.439-.572l-4.4-2.538a.942.942,0,0,0-1.1.113V131.582a.942.942,0,0,0-1.885,0v16.01l-5.943,10.293H72.576a.942.942,0,1,0,0,1.885h5.988l-1.256,2.176h-14a.942.942,0,1,0,0,1.885H76.219l-1.257,2.177h-5.94a.942.942,0,1,0,0,1.885h4.851l-2.055,3.56a5.972,5.972,0,0,0-.767,3.694l.174,1.523H41.863a1.089,1.089,0,0,1-1.088-1.088v-6.092a.942.942,0,0,0-1.885,0v6.092a2.976,2.976,0,0,0,2.973,2.973H84.506a2.976,2.976,0,0,0,2.973-2.973V158.25l5.839-10.114a.942.942,0,0,0,.094-.715Zm-5.57,6.431-2.764-1.6,1.088-1.885,2.764,1.6ZM85.594,175.58a1.089,1.089,0,0,1-1.088,1.088H76.331a6.046,6.046,0,0,0,1.516-1.736l3.686-6.383a.942.942,0,0,0-1.632-.942l-3.686,6.384a4.165,4.165,0,0,1-1.934,1.725l-1.207.525-.15-1.308a4.1,4.1,0,0,1,.527-2.537l10.685-18.506,2.764,1.6L82.1,163.8a.942.942,0,0,0,1.632.942l1.863-3.226V175.58Zm4.278-25.245-2.764-1.6,1.342-2.325,2.764,1.6Z" transform="translate(-38.89 -114.227)"/>
      </g>
    </g>
  </g>
</svg>
