<svg xmlns="http://www.w3.org/2000/svg" xmlns:xlink="http://www.w3.org/1999/xlink" width="190" height="206" viewBox="0 0 190 206">
  <defs>
    <clipPath id="clip-path">
      <rect id="Rectángulo_422852" data-name="Rectángulo 422852" width="190" height="206" transform="translate(180 5638)" fill="#fff" stroke="#707070" stroke-width="1"/>
    </clipPath>
  </defs>
  <g id="Enmascarar_grupo_1225064" data-name="Enmascarar grupo 1225064" transform="translate(-180 -5638)" clip-path="url(#clip-path)">
    <g id="Grupo_1229248" data-name="Grupo 1229248" transform="translate(192.335 5642.271)">
      <g id="Grupo_1229185" data-name="Grupo 1229185" transform="translate(113.42 93.483)">
        <path id="Trazado_1191616" data-name="Trazado 1191616" d="M219.432,1055.09a7.144,7.144,0,0,0,6.332-10.45l-25.031-47.952a7.144,7.144,0,0,0-12.667,6.612l19.269,36.914-18.679.565c-3.944-.188-4.521,1.528-4.71,5.469a7.144,7.144,0,0,0,6.795,7.478l28.349,1.357C219.2,1055.087,219.318,1055.09,219.432,1055.09Z" transform="translate(-183.938 -992.849)" fill="#9e6369"/>
      </g>
      <g id="Grupo_1229247" data-name="Grupo 1229247" transform="translate(0 0)">
        <path id="Trazado_1191617" data-name="Trazado 1191617" d="M328.579,1018.073l69.364-.6L410.458,966.2c0-9.785-1.206-12.214-25.484-15.23l-39.507-2.865c-6.662,0-12.365,4.8-12.365,11.46Z" transform="translate(-278.585 -862.104)" fill="#fcd105"/>
        <g id="Grupo_1229186" data-name="Grupo 1229186" transform="translate(81.597 77.344)">
          <path id="Trazado_1191618" data-name="Trazado 1191618" d="M501.894,916.351a5.918,5.918,0,0,0,3.709-1.3c.022-.018,2.356-1.882,10.341-8.092a5.944,5.944,0,0,0-7.3-9.383c-8.082,6.286-10.375,8.118-10.468,8.193a5.944,5.944,0,0,0,3.717,10.585Z" transform="translate(-495.947 -896.32)" fill="#9e6369"/>
        </g>
        <path id="Trazado_1191619" data-name="Trazado 1191619" d="M587.317,683.411c.6,4.2,5.705,11.762,9.952,11.762s7.69-7.967,7.69-12.214-5.539-12.49-9.5-14.023C588.447,666.221,585.959,673.912,587.317,683.411Z" transform="translate(-516.287 -629.151)" fill="#0d0845"/>
        <ellipse id="Elipse_14763" data-name="Elipse 14763" cx="7.69" cy="7.69" rx="7.69" ry="7.69" transform="translate(145.897 32.547)" fill="#0d0845"/>
        <ellipse id="Elipse_14764" data-name="Elipse 14764" cx="17.416" cy="17.416" rx="17.416" ry="17.416" transform="translate(127.802 13.095)" fill="#0d0845"/>
        <circle id="Elipse_14765" data-name="Elipse 14765" cx="17.416" cy="17.416" r="17.416" transform="translate(77.816 49.26) rotate(-135)" fill="#0d0845"/>
        <path id="Trazado_1191620" data-name="Trazado 1191620" d="M227.492,588.143c0,17.988,20.011,30.987,38,30.987s31.547-15.225,34.154-33.023c2.639-18.019-8.067-35.36-33.551-31.892C236.54,546.223,227.492,570.154,227.492,588.143Z" transform="translate(-151.261 -532.751)" fill="#0d0845"/>
        <ellipse id="Elipse_14766" data-name="Elipse 14766" cx="7.69" cy="8.435" rx="7.69" ry="8.435" transform="translate(73.291 57.588)" fill="#9e6369"/>
        <ellipse id="Elipse_14767" data-name="Elipse 14767" cx="7.69" cy="8.435" rx="7.69" ry="8.435" transform="translate(133.758 57.437)" fill="#36334c"/>
        <path id="Trazado_1191621" data-name="Trazado 1191621" d="M248.27,705.718a31.215,31.215,0,0,0,31.063,31.364c17.156,0,31.435-14.046,31.063-31.364-.3-14.023-9.987-20.055-27.142-20.055S248.27,688.4,248.27,705.718Z" transform="translate(-165.102 -643.541)" fill="#9e6369"/>
        <ellipse id="Elipse_14768" data-name="Elipse 14768" cx="7.69" cy="7.69" rx="7.69" ry="7.69" transform="translate(149.29 22.368)" fill="#0d0845"/>
        <ellipse id="Elipse_14769" data-name="Elipse 14769" cx="7.69" cy="7.69" rx="7.69" ry="7.69" transform="translate(63.565 28.249)" fill="#0d0845"/>
        <ellipse id="Elipse_14770" data-name="Elipse 14770" cx="3.845" cy="3.845" rx="3.845" ry="3.845" transform="matrix(-0.227, -0.974, 0.974, -0.227, 136.014, 19.295)" fill="#0d0845"/>
        <circle id="Elipse_14771" data-name="Elipse 14771" cx="3.845" cy="3.845" r="3.845" transform="translate(157.461 26.282) rotate(-102.598)" fill="#0d0845"/>
        <ellipse id="Elipse_14772" data-name="Elipse 14772" cx="5.202" cy="5.202" rx="5.202" ry="5.202" transform="translate(141.599 9.702)" fill="#0d0845"/>
        <circle id="Elipse_14773" data-name="Elipse 14773" cx="3.845" cy="3.845" r="3.845" transform="translate(62.436 26.675) rotate(-135)" fill="#0d0845"/>
        <ellipse id="Elipse_14774" data-name="Elipse 14774" cx="3.845" cy="3.845" rx="3.845" ry="3.845" transform="translate(61.401 38.759) rotate(-103.415)" fill="#0d0845"/>
        <ellipse id="Elipse_14775" data-name="Elipse 14775" cx="3.845" cy="3.845" rx="3.845" ry="3.845" transform="matrix(-0.754, -0.657, 0.657, -0.754, 84.965, 14.222)" fill="#0d0845"/>
        <ellipse id="Elipse_14776" data-name="Elipse 14776" cx="5.735" cy="5.735" rx="5.735" ry="5.735" transform="translate(148.305 11.205)" fill="#0d0845"/>
        <ellipse id="Elipse_14777" data-name="Elipse 14777" cx="3.845" cy="3.845" rx="3.845" ry="3.845" transform="translate(60.851 11.059)" fill="#0d0845"/>
        <ellipse id="Elipse_14778" data-name="Elipse 14778" cx="3.845" cy="3.845" rx="3.845" ry="3.845" transform="translate(66.377 15.463) rotate(-103.415)" fill="#0d0845"/>
        <ellipse id="Elipse_14779" data-name="Elipse 14779" cx="5.202" cy="5.202" rx="5.202" ry="5.202" transform="translate(71.18 3.218)" fill="#0d0845"/>
        <ellipse id="Elipse_14780" data-name="Elipse 14780" cx="6.107" cy="6.107" rx="6.107" ry="6.107" transform="translate(86.863 16.714)" fill="#0d0845"/>
        <ellipse id="Elipse_14781" data-name="Elipse 14781" cx="6.107" cy="6.107" rx="6.107" ry="6.107" transform="translate(83.017 9.023)" fill="#0d0845"/>
        <circle id="Elipse_14782" data-name="Elipse 14782" cx="6.107" cy="6.107" r="6.107" transform="translate(59.796 36.352) rotate(-107.451)" fill="#0d0845"/>
        <circle id="Elipse_14783" data-name="Elipse 14783" cx="4.071" cy="4.071" r="4.071" transform="translate(146.577 53.232) rotate(-135)" fill="#0d0845"/>
        <ellipse id="Elipse_14784" data-name="Elipse 14784" cx="4.071" cy="4.071" rx="4.071" ry="4.071" transform="matrix(-0.244, -0.97, 0.97, -0.244, 130.951, 23.91)" fill="#0d0845"/>
        <ellipse id="Elipse_14785" data-name="Elipse 14785" cx="4.071" cy="4.071" rx="4.071" ry="4.071" transform="translate(156.922 40.403) rotate(-103.615)" fill="#0d0845"/>
        <ellipse id="Elipse_14786" data-name="Elipse 14786" cx="4.071" cy="4.071" rx="4.071" ry="4.071" transform="translate(73.744 39.558)" fill="#0d0845"/>
        <g id="Grupo_1229187" data-name="Grupo 1229187" transform="translate(76.379 61.62)">
          <path id="Trazado_1191622" data-name="Trazado 1191622" d="M621.637,810.13a.243.243,0,0,0,.05-.005.255.255,0,0,0,.2-.3c-1.43-7.149-7.415-7.54-7.475-7.543a.255.255,0,0,0-.027.51c.23.013,5.651.384,7,7.134A.255.255,0,0,0,621.637,810.13Z" transform="translate(-614.145 -802.281)" fill="#36334c"/>
        </g>
        <g id="Grupo_1229188" data-name="Grupo 1229188" transform="translate(78.59 65.003)">
          <path id="Trazado_1191623" data-name="Trazado 1191623" d="M624.246,823.962a.254.254,0,0,0,.18-.075,2.953,2.953,0,0,1,3.1-.685.255.255,0,0,0,.193-.472,3.459,3.459,0,0,0-3.657.8.255.255,0,0,0,.18.435Z" transform="translate(-623.991 -822.512)" fill="#36334c"/>
        </g>
        <g id="Grupo_1229189" data-name="Grupo 1229189" transform="translate(119.103 69.612)">
          <path id="Trazado_1191624" data-name="Trazado 1191624" d="M365.672,858.179a3.439,3.439,0,0,0,2.588-1.033c1.362-1.428,1.134-3.632-.716-6.935a.255.255,0,1,0-.445.249c2.266,4.046,1.537,5.553.792,6.334-1.9,1.99-5.532-.074-5.568-.1a.255.255,0,0,0-.256.442A8.193,8.193,0,0,0,365.672,858.179Z" transform="translate(-361.939 -850.08)" fill="#2c2c2d"/>
        </g>
        <ellipse id="Elipse_14787" data-name="Elipse 14787" cx="2.262" cy="3.619" rx="2.262" ry="3.619" transform="translate(131.119 65.947)" fill="#2c2c2d"/>
        <ellipse id="Elipse_14788" data-name="Elipse 14788" cx="2.262" cy="3.619" rx="2.262" ry="3.619" transform="translate(110.31 65.343)" fill="#2c2c2d"/>
        <ellipse id="Elipse_14789" data-name="Elipse 14789" cx="3.393" cy="3.054" rx="3.393" ry="3.054" transform="translate(105.309 72.883)" fill="#fb7682"/>
        <ellipse id="Elipse_14790" data-name="Elipse 14790" cx="2.806" cy="2.526" rx="2.806" ry="2.526" transform="translate(130.726 74.416)" fill="#fb7682"/>
        <ellipse id="Elipse_14791" data-name="Elipse 14791" cx="2.161" cy="2.161" rx="2.161" ry="2.161" transform="translate(118.604 80.523)" fill="#d890a3"/>
        <g id="Grupo_1229190" data-name="Grupo 1229190" transform="translate(117.595 81.826)">
          <path id="Trazado_1191625" data-name="Trazado 1191625" d="M381.737,924.264a7.805,7.805,0,0,0,2.291-.334.255.255,0,0,0-.15-.488,8.43,8.43,0,0,1-5.288-.291.255.255,0,0,0-.206.467A8.992,8.992,0,0,0,381.737,924.264Z" transform="translate(-378.232 -923.129)" fill="#2c2c2d"/>
        </g>
        <path id="Trazado_1191626" data-name="Trazado 1191626" d="M491.609,669.29c-17.492,3.167-22.015,14.627-22.015,19.15s-3.317,3.317-4.373.754-3.167-7.389-3.167-7.389l8.746-15.984Z" transform="translate(-382.053 -627.018)" fill="#0d0845"/>
        <g id="Grupo_1229191" data-name="Grupo 1229191" transform="translate(109.226 59.499)">
          <path id="Trazado_1191627" data-name="Trazado 1191627" d="M436.824,790.643a.255.255,0,0,0,.129-.475c-1.88-1.1-4.965-.287-5.1-.252a.255.255,0,0,0,.132.493c.03-.008,3.011-.789,4.706.2A.256.256,0,0,0,436.824,790.643Z" transform="translate(-431.668 -789.595)" fill="#0d0845"/>
        </g>
        <g id="Grupo_1229192" data-name="Grupo 1229192" transform="translate(132.312 60.551)">
          <path id="Trazado_1191628" data-name="Trazado 1191628" d="M295.954,796.956a.255.255,0,0,0,.1-.021c.027-.011,2.679-1.129,4.313-.111a.255.255,0,0,0,.27-.433c-1.861-1.16-4.666.024-4.784.075a.255.255,0,0,0,.1.49Z" transform="translate(-295.699 -795.883)" fill="#0d0845"/>
        </g>
        <g id="Grupo_1229193" data-name="Grupo 1229193" transform="translate(89.849 81.726)">
          <path id="Trazado_1191629" data-name="Trazado 1191629" d="M532.058,930.479a.255.255,0,0,0,.116-.483,27.95,27.95,0,0,1-8.957-7.362.255.255,0,1,0-.411.3,28.528,28.528,0,0,0,9.137,7.516A.254.254,0,0,0,532.058,930.479Z" transform="translate(-522.756 -922.529)" fill="#36334c"/>
        </g>
        <g id="Grupo_1229194" data-name="Grupo 1229194" transform="translate(0 155.709)">
          <path id="Trazado_1191630" data-name="Trazado 1191630" d="M124.666,1367.053h164.1a1.021,1.021,0,0,0,0-2.041h-164.1a1.021,1.021,0,1,0,0,2.041Z" transform="translate(-123.645 -1365.012)" fill="#0d0845"/>
        </g>
        <g id="Grupo_1229195" data-name="Grupo 1229195" transform="translate(55.967 81.822)">
          <path id="Trazado_1191631" data-name="Trazado 1191631" d="M522.885,996.253a7.147,7.147,0,0,0,7.044-5.936l10.1-58.859a7.144,7.144,0,1,0-14.083-2.417l-6.375,37.142L505.022,936.6A7.144,7.144,0,1,0,492.2,942.9l24.277,49.359A7.146,7.146,0,0,0,522.885,996.253Z" transform="translate(-491.465 -923.103)" fill="#9e6369"/>
        </g>
        <g id="Grupo_1229196" data-name="Grupo 1229196" transform="translate(79.746 65.773)">
          <path id="Trazado_1191632" data-name="Trazado 1191632" d="M491.717,847.5c5.786,7.049,13.621,10.3,17.846,6.982s3.086-11.821-2.545-18.993-13.734-10.438-17.846-6.982C484.448,832.476,485.962,840.489,491.717,847.5Z" transform="translate(-486.369 -827.121)" fill="#9e6369"/>
        </g>
        <path id="Trazado_1191633" data-name="Trazado 1191633" d="M502.749,819.526c-5.579,7.992,4.866,6.689,9.17,8.692s10.223-.7,11.488-3.414-2.482-5.537-6.786-7.539S504.465,817.068,502.749,819.526Z" transform="translate(-420.636 -752.424)" fill="#9e6369"/>
        <g id="Grupo_1229197" data-name="Grupo 1229197" transform="translate(79.595 63.619)">
          <path id="Trazado_1191634" data-name="Trazado 1191634" d="M510.443,842.68a.255.255,0,0,0,.251-.213l.452-2.714c.457-2.743.528-3.712-.839-7.739a23.3,23.3,0,0,0-3.626-6.635c.185-.117.475-.31.9-.616.912-.663,2.5-2.7,1.264-4.426a19.964,19.964,0,0,0-6.663-4.986c-3.162-1.405-6.357-1.478-10.358-.237-5.576,1.731-6.029,5.9-6.394,9.254l-.042.386a.255.255,0,1,0,.507.057l.042-.388c.366-3.37.781-7.19,6.037-8.821,3.874-1.2,6.958-1.136,10,.216a19.34,19.34,0,0,1,6.455,4.816c1.013,1.419-.365,3.146-1.149,3.716a10.322,10.322,0,0,1-1.1.733l-.29.148.212.247a22.484,22.484,0,0,1,3.721,6.7c1.332,3.922,1.269,4.791.819,7.491l-.452,2.714a.255.255,0,0,0,.21.294A.318.318,0,0,0,510.443,842.68Z" transform="translate(-485.382 -814.237)" fill="#2c2c2d"/>
        </g>
        <path id="Trazado_1191635" data-name="Trazado 1191635" d="M409.3,1259.973c-1.923-2.065-5.056-4.985-5.056-4.985l-1.923,2.92Z" transform="translate(-289.751 -1117.675)" fill="#9e6369"/>
        <ellipse id="Elipse_14792" data-name="Elipse 14792" cx="4.564" cy="2.757" rx="4.564" ry="2.757" transform="matrix(-0.886, -0.464, 0.464, -0.886, 113.061, 142.38)" fill="#9e6369"/>
        <g id="Grupo_1229198" data-name="Grupo 1229198" transform="translate(103.276 124.397)">
          <rect id="Rectángulo_422848" data-name="Rectángulo 422848" width="3.402" height="32.833" transform="translate(2.899 29.754) rotate(-148.427)" fill="#0d0845"/>
        </g>
        <path id="Trazado_1191636" data-name="Trazado 1191636" d="M376.4,1263.158c-2.938,6.219.571,12.173,7.13,12.471,14.279.649,12.5.028,13.975-4.493s-2.617-8.985-8.72-11.4C382.05,1257.064,379.675,1256.231,376.4,1263.158Z" transform="translate(-273.757 -1120)" fill="#9e6369"/>
        <g id="Grupo_1229199" data-name="Grupo 1229199" transform="translate(104.763 137.743)">
          <path id="Trazado_1191637" data-name="Trazado 1191637" d="M438.057,1259.807a.255.255,0,0,0,.1-.492c-3.225-1.3-5.834-1.885-7.755-1.725a4.967,4.967,0,0,0-2.539,1.5.255.255,0,0,0,.374.347,4.559,4.559,0,0,1,2.208-1.344c1.841-.153,4.371.415,7.521,1.69A.237.237,0,0,0,438.057,1259.807Z" transform="translate(-427.79 -1257.564)" fill="#2c2c2d"/>
        </g>
        <rect id="Rectángulo_422849" data-name="Rectángulo 422849" width="15.693" height="5.579" transform="translate(102.562 106.065) rotate(-168.673)" fill="#fb7682"/>
        <ellipse id="Elipse_14793" data-name="Elipse 14793" cx="4.675" cy="4.675" rx="4.675" ry="4.675" transform="translate(88.446 96.707)" fill="#fdcc8d"/>
        <g id="Grupo_1229200" data-name="Grupo 1229200" transform="translate(90.829 99.77)">
          <path id="Trazado_1191638" data-name="Trazado 1191638" d="M556.831,1034.954a.254.254,0,0,0,.191-.086l2.413-2.714a.255.255,0,0,0-.065-.391l-2.262-1.282a.255.255,0,0,0-.252.444l1.987,1.126-2.2,2.478a.255.255,0,0,0,.021.36A.247.247,0,0,0,556.831,1034.954Z" transform="translate(-556.576 -1030.447)" fill="#36334c"/>
        </g>
        <g id="Grupo_1229201" data-name="Grupo 1229201" transform="translate(115.107 22.188)">
          <path id="Trazado_1191639" data-name="Trazado 1191639" d="M383.626,586.783a.255.255,0,0,0,.255-.255c0-.116-.1-11.664-8.6-20.011a.255.255,0,0,0-.358.364c8.347,8.2,8.443,19.533,8.443,19.647A.255.255,0,0,0,383.626,586.783Z" transform="translate(-374.851 -566.444)" fill="#9e6369"/>
        </g>
        <path id="Trazado_1191640" data-name="Trazado 1191640" d="M275.679,988.158c5.428-3.317,7.841-4.825,9.5-4.373a13.552,13.552,0,0,1,6.635,5.278c2.262,3.167,9.651,16.587,9.651,16.587l-15.079,10.555-13.722-24.579Z" transform="translate(-160.242 -891.752)" fill="#fcd105"/>
        <path id="Trazado_1191641" data-name="Trazado 1191641" d="M362.439,1154.572l1.321.763a1.1,1.1,0,0,0,1.5-.4l2.227-3.858a1.1,1.1,0,0,0-.4-1.5l-1.321-.763a1.1,1.1,0,0,0-1.5.4l-2.227,3.858A1.1,1.1,0,0,0,362.439,1154.572Z" transform="translate(-241.334 -1029.125)" fill="#fdfcfb"/>
        <rect id="Rectángulo_422850" data-name="Rectángulo 422850" width="4.075" height="5.052" transform="translate(121.342 130.139) rotate(-147.467)" fill="#e8edfd"/>
        <g id="Grupo_1229202" data-name="Grupo 1229202" transform="translate(133.958 140.475)">
          <path id="Trazado_1191642" data-name="Trazado 1191642" d="M277.137,1274.839a.255.255,0,0,0,.015-.51l-7.263-.427a.255.255,0,1,0-.03.509l7.263.427Z" transform="translate(-269.618 -1273.901)" fill="#2c2c2d"/>
        </g>
        <path id="Trazado_1191643" data-name="Trazado 1191643" d="M642.256,958.476c5.881,6.786,12.666,25.333,12.666,25.333l-16.411,15.154s-10.731-20.131-10.957-24.654,3.845-13.8,3.845-13.8Z" transform="translate(-573.036 -870.74)" fill="#fcd105"/>
        <g id="Grupo_1229203" data-name="Grupo 1229203" transform="translate(54.564 109.572)">
          <path id="Trazado_1191644" data-name="Trazado 1191644" d="M635.234,1109.965l.261-.246,18.02-16.964a.255.255,0,1,0-.35-.372L635.407,1109.1l-8.9-19.878a.255.255,0,1,0-.466.209Z" transform="translate(-626.018 -1089.072)" fill="#36334c"/>
        </g>
        <g id="Grupo_1229204" data-name="Grupo 1229204" transform="translate(125.939 115.1)">
          <path id="Trazado_1191645" data-name="Trazado 1191645" d="M343.24,1137.224a.255.255,0,0,0,.25-.2l3.016-14.576a.255.255,0,0,0-.5-.1l-3.016,14.576a.255.255,0,0,0,.2.3A.242.242,0,0,0,343.24,1137.224Z" transform="translate(-342.985 -1122.138)" fill="#36334c"/>
        </g>
        <path id="Trazado_1191646" data-name="Trazado 1191646" d="M104.953,1344.642c4.646-2.759,11.251-2.777,18.656.926s10.254,35.319,13.1,38.452,5.412,3.133,5.412,3.133h36.743a8.553,8.553,0,0,1-4.842-5.7c-1.424-4.557-6.836-27.913-9.684-33.325s-5.732-6.391-5.732-6.391H113.035a16.03,16.03,0,0,0-4.878.694,29.264,29.264,0,0,0-5.875,3.2l.961.036Z" transform="translate(-9.157 -1189.92)" fill="#e8edfd"/>
        <path id="Trazado_1191647" data-name="Trazado 1191647" d="M84.608,1583.153c3.7-.285,4.771-6.2,4.771-6.2h35.177c-.047,1.946-1.519,5.507-2.991,6.124Z" transform="translate(48.11 -1385.812)" fill="#7c94ef"/>
        <g id="Grupo_1229205" data-name="Grupo 1229205" transform="translate(94.092 152.46)">
          <path id="Trazado_1191648" data-name="Trazado 1191648" d="M349,1390.442a14.112,14.112,0,0,0,1.5-.082l-.054-.507c-2.226.237-6.194.118-7.751-3.34-.683-1.518-1.705-6.381-2.787-11.529-.619-2.945-1.259-5.99-1.9-8.719l-.1-.42c-1.737-7.437-3.236-13.86-7.192-16.747a20.977,20.977,0,0,0-10.381-3.466,16.687,16.687,0,0,0-6.521.834,27.607,27.607,0,0,0-4.286,2.268l.277.428a27.7,27.7,0,0,1,4.187-2.218,16.389,16.389,0,0,1,6.3-.8,20.478,20.478,0,0,1,10.127,3.37c3.8,2.775,5.283,9.113,7,16.451l.1.42c.636,2.723,1.276,5.765,1.894,8.707,1.135,5.4,2.115,10.065,2.821,11.633C343.316,1389.148,345.694,1390.442,349,1390.442Z" transform="translate(-309.526 -1345.58)" fill="#7c94ef"/>
        </g>
        <path id="Trazado_1191649" data-name="Trazado 1191649" d="M450.472,1350.188h-20.9s2.528-1.424,3.81-2.1a8.084,8.084,0,0,1,4.451-.961,17.56,17.56,0,0,1,6.836.712c2.528.748,4.237,1.424,4.237,1.424l1.709.926Z" transform="translate(-335.628 -1194.361)" fill="#7c94ef"/>
        <g id="Grupo_1229206" data-name="Grupo 1229206" transform="translate(130.955 183.614)">
          <path id="Trazado_1191650" data-name="Trazado 1191650" d="M154.473,1533.445H183.1a.766.766,0,0,0,0-1.531H154.473a.766.766,0,0,0,0,1.531Z" transform="translate(-153.708 -1531.914)" fill="#433fab"/>
        </g>
        <g id="Grupo_1229207" data-name="Grupo 1229207" transform="translate(129.246 178.204)">
          <path id="Trazado_1191651" data-name="Trazado 1191651" d="M164.694,1501.085H193.32a.766.766,0,0,0,0-1.531H164.694a.766.766,0,0,0,0,1.531Z" transform="translate(-163.929 -1499.554)" fill="#433fab"/>
        </g>
        <g id="Grupo_1229208" data-name="Grupo 1229208" transform="translate(127.822 172.792)">
          <path id="Trazado_1191652" data-name="Trazado 1191652" d="M173.212,1468.715h28.625a.766.766,0,0,0,0-1.531H173.212a.766.766,0,0,0,0,1.531Z" transform="translate(-172.447 -1467.184)" fill="#433fab"/>
        </g>
        <g id="Grupo_1229209" data-name="Grupo 1229209" transform="translate(126.54 167.665)">
          <path id="Trazado_1191653" data-name="Trazado 1191653" d="M180.878,1438.055H209.5a.765.765,0,1,0,0-1.531H180.878a.765.765,0,1,0,0,1.531Z" transform="translate(-180.113 -1436.524)" fill="#433fab"/>
        </g>
        <g id="Grupo_1229210" data-name="Grupo 1229210" transform="translate(124.974 162.395)">
          <path id="Trazado_1191654" data-name="Trazado 1191654" d="M190.249,1406.535h28.625a.765.765,0,1,0,0-1.531H190.248a.765.765,0,1,0,0,1.531Z" transform="translate(-189.483 -1405.004)" fill="#433fab"/>
        </g>
        <g id="Grupo_1229211" data-name="Grupo 1229211" transform="translate(122.553 156.841)">
          <path id="Trazado_1191655" data-name="Trazado 1191655" d="M204.727,1373.315h28.625a.765.765,0,1,0,0-1.531H204.727a.765.765,0,1,0,0,1.531Z" transform="translate(-203.962 -1371.784)" fill="#433fab"/>
        </g>
        <g id="Grupo_1229212" data-name="Grupo 1229212" transform="translate(118.138 152.569)">
          <path id="Trazado_1191656" data-name="Trazado 1191656" d="M231.132,1347.765h28.625a.765.765,0,1,0,0-1.531H231.132a.765.765,0,1,0,0,1.531Z" transform="translate(-230.367 -1346.234)" fill="#433fab"/>
        </g>
        <g id="Grupo_1229213" data-name="Grupo 1229213" transform="translate(111.478 109.789)">
          <path id="Trazado_1191657" data-name="Trazado 1191657" d="M427.892,1092.709a.337.337,0,0,0,.158-.039l3.167-1.659a.34.34,0,0,0-.316-.6l-3.167,1.659a.34.34,0,0,0,.158.641Z" transform="translate(-427.551 -1090.37)" fill="#7c94ef"/>
        </g>
        <g id="Grupo_1229214" data-name="Grupo 1229214" transform="translate(56.613 149.575)">
          <path id="Trazado_1191658" data-name="Trazado 1191658" d="M757.087,1330.578a.339.339,0,0,0,.157-.039l2.991-1.567a.34.34,0,1,0-.316-.6l-2.991,1.566a.34.34,0,0,0,.158.642Z" transform="translate(-756.746 -1328.331)" fill="#7c94ef"/>
        </g>
        <g id="Grupo_1229215" data-name="Grupo 1229215" transform="translate(128.092 98.988)">
          <path id="Trazado_1191659" data-name="Trazado 1191659" d="M343.976,1029.962a.341.341,0,0,0,.334-.407l-.7-3.505a.34.34,0,1,0-.667.133l.7,3.505A.341.341,0,0,0,343.976,1029.962Z" transform="translate(-342.935 -1025.776)" fill="#7c94ef"/>
        </g>
        <g id="Grupo_1229216" data-name="Grupo 1229216" transform="translate(64.257 108.437)">
          <path id="Trazado_1191660" data-name="Trazado 1191660" d="M725.765,1086.471a.34.34,0,0,0,.334-.407l-.7-3.505a.34.34,0,1,0-.667.133l.7,3.505A.339.339,0,0,0,725.765,1086.471Z" transform="translate(-724.724 -1082.286)" fill="#7c94ef"/>
        </g>
        <g id="Grupo_1229217" data-name="Grupo 1229217" transform="translate(60.713 91.464)">
          <path id="Trazado_1191661" data-name="Trazado 1191661" d="M731.526,983.119a.338.338,0,0,0,.158-.039l3.164-1.664a.34.34,0,1,0-.317-.6l-3.164,1.664a.34.34,0,0,0,.159.641Z" transform="translate(-731.186 -980.775)" fill="#7c94ef"/>
        </g>
        <g id="Grupo_1229218" data-name="Grupo 1229218" transform="translate(97.724 138.236)">
          <path id="Trazado_1191662" data-name="Trazado 1191662" d="M525.792,1264.5a.341.341,0,0,0,.334-.407l-.662-3.311a.34.34,0,0,0-.667.133l.662,3.311A.34.34,0,0,0,525.792,1264.5Z" transform="translate(-524.79 -1260.511)" fill="#7c94ef"/>
        </g>
        <g id="Grupo_1229219" data-name="Grupo 1229219" transform="translate(111.043 128.863)">
          <path id="Trazado_1191663" data-name="Trazado 1191663" d="M434.432,1207.4a.339.339,0,0,0,.228-.087l2.508-2.26a.34.34,0,0,0-.455-.506l-2.508,2.26a.34.34,0,0,0-.025.48A.335.335,0,0,0,434.432,1207.4Z" transform="translate(-434.092 -1204.455)" fill="#7c94ef"/>
        </g>
        <g id="Grupo_1229220" data-name="Grupo 1229220" transform="translate(74.256 97.433)">
          <path id="Trazado_1191664" data-name="Trazado 1191664" d="M652.41,1018.19a.34.34,0,0,0,.1-.666l-3.421-1.036a.34.34,0,1,0-.2.651l3.421,1.036A.344.344,0,0,0,652.41,1018.19Z" transform="translate(-648.648 -1016.474)" fill="#7c94ef"/>
        </g>
        <g id="Grupo_1229221" data-name="Grupo 1229221" transform="translate(66.605 138.779)">
          <path id="Trazado_1191665" data-name="Trazado 1191665" d="M705.265,1267.377a.34.34,0,0,0,.3-.172l1.664-2.938a.34.34,0,1,0-.592-.335l-1.664,2.938a.34.34,0,0,0,.128.464A.35.35,0,0,0,705.265,1267.377Z" transform="translate(-704.925 -1263.759)" fill="#7c94ef"/>
        </g>
        <g id="Grupo_1229222" data-name="Grupo 1229222" transform="translate(102.077 119.749)">
          <path id="Trazado_1191666" data-name="Trazado 1191666" d="M486.016,1151.66a.34.34,0,0,0,.1-.666l-3.421-1.036a.34.34,0,1,0-.2.651l3.421,1.036A.3.3,0,0,0,486.016,1151.66Z" transform="translate(-482.254 -1149.944)" fill="#7c94ef"/>
        </g>
        <g id="Grupo_1229223" data-name="Grupo 1229223" transform="translate(55.638 127.155)">
          <path id="Trazado_1191667" data-name="Trazado 1191667" d="M764.709,1195.9a.34.34,0,0,0,.1-.666l-3.231-.978a.34.34,0,1,0-.2.651l3.231.978A.345.345,0,0,0,764.709,1195.9Z" transform="translate(-761.137 -1194.238)" fill="#7c94ef"/>
        </g>
        <g id="Grupo_1229224" data-name="Grupo 1229224" transform="translate(81.556 123.293)">
          <path id="Trazado_1191668" data-name="Trazado 1191668" d="M614.7,1182.86a.255.255,0,0,0,.251-.21l2.011-11.209a.255.255,0,1,0-.5-.09l-2.011,11.209a.255.255,0,0,0,.206.3A.286.286,0,0,0,614.7,1182.86Z" transform="translate(-614.445 -1171.141)" fill="#2c2c2d"/>
        </g>
        <g id="Grupo_1229225" data-name="Grupo 1229225" transform="translate(98.294 72.326)">
          <path id="Trazado_1191669" data-name="Trazado 1191669" d="M516.854,868.935a.255.255,0,0,0,.187-.429l-1.96-2.111a.255.255,0,1,0-.374.347l1.96,2.111A.253.253,0,0,0,516.854,868.935Z" transform="translate(-514.639 -866.314)" fill="#2c2c2d"/>
        </g>
        <g id="Grupo_1229226" data-name="Grupo 1229226" transform="translate(84.521 85.546)">
          <path id="Trazado_1191670" data-name="Trazado 1191670" d="M587.969,957.247a.255.255,0,0,0,.254-.237l.459-6.587-4.188-4.955a.255.255,0,0,0-.39.33l4.055,4.8-.445,6.381a.255.255,0,0,0,.237.272Z" transform="translate(-584.044 -945.377)" fill="#2c2c2d"/>
        </g>
        <g id="Grupo_1229227" data-name="Grupo 1229227" transform="translate(70.764 1.88)">
          <path id="Trazado_1191671" data-name="Trazado 1191671" d="M626.573,451.95l.5-.1a6.15,6.15,0,0,1,.8-4.148,5.3,5.3,0,0,1,3.573-2.137,4.367,4.367,0,0,1,3.384.812,6.176,6.176,0,0,1,2.447,4.2l.506-.069a6.689,6.689,0,0,0-2.656-4.545,4.872,4.872,0,0,0-3.778-.9,5.793,5.793,0,0,0-3.9,2.357A6.562,6.562,0,0,0,626.573,451.95Z" transform="translate(-626.483 -444.984)" fill="#0d0845"/>
        </g>
        <g id="Grupo_1229228" data-name="Grupo 1229228" transform="translate(150.478 39.175)">
          <path id="Trazado_1191672" data-name="Trazado 1191672" d="M154.52,678.042a5.194,5.194,0,0,0,1.131-.124,8.564,8.564,0,0,0,5.138-3.981,7.084,7.084,0,0,0,.477-5.9l-.483.164a6.587,6.587,0,0,1-.438,5.486,8.017,8.017,0,0,1-4.8,3.733,5.864,5.864,0,0,1-4.677-1.274l-.338.382A6.568,6.568,0,0,0,154.52,678.042Z" transform="translate(-150.526 -668.037)" fill="#0d0845"/>
        </g>
        <g id="Grupo_1229240" data-name="Grupo 1229240" transform="translate(6.865 103.266)">
          <g id="Grupo_1229229" data-name="Grupo 1229229" transform="translate(25.575 47.036)">
            <path id="Trazado_1191673" data-name="Trazado 1191673" d="M802.513,1333.188h19.724a.255.255,0,1,0,0-.51H802.513a.255.255,0,0,0,0,.51Z" transform="translate(-802.258 -1332.678)" fill="#93a5f4"/>
          </g>
          <g id="Grupo_1229230" data-name="Grupo 1229230" transform="translate(32.838 48.603)">
            <path id="Trazado_1191674" data-name="Trazado 1191674" d="M763.757,1342.558H782.7a.255.255,0,1,0,0-.51H763.757a.255.255,0,1,0,0,.51Z" transform="translate(-763.502 -1342.048)" fill="#93a5f4"/>
          </g>
          <path id="Trazado_1191675" data-name="Trazado 1191675" d="M719.013,1296.04h.271a3.973,3.973,0,0,1,3.975,3.974v3.587a3.974,3.974,0,0,1-3.975,3.974H665.367V1296.04h53.646Z" transform="translate(-654.562 -1255.13)" fill="#433fab"/>
          <g id="Grupo_1229231" data-name="Grupo 1229231" transform="translate(0.213 40.919)">
            <path id="Trazado_1191676" data-name="Trazado 1191676" d="M1012.487,1297.64a.765.765,0,0,0,0-1.531l-10.859-.017a.766.766,0,0,0,0,1.531l10.859.017Z" transform="translate(-1000.862 -1296.092)" fill="#433fab"/>
          </g>
          <g id="Grupo_1229232" data-name="Grupo 1229232" transform="translate(0 50.925)">
            <path id="Trazado_1191677" data-name="Trazado 1191677" d="M1000.558,1357.465h11.251a.765.765,0,1,0,0-1.531h-11.251a.765.765,0,1,0,0,1.531Z" transform="translate(-999.792 -1355.934)" fill="#433fab"/>
          </g>
          <path id="Trazado_1191678" data-name="Trazado 1191678" d="M705.485,1307.576h4.782a19.045,19.045,0,0,0,.007-11.535h-4.78A14.569,14.569,0,0,1,705.485,1307.576Z" transform="translate(-649.175 -1255.13)" fill="#fcd105"/>
          <path id="Trazado_1191679" data-name="Trazado 1191679" d="M684.19,1307.576a14.567,14.567,0,0,0,.009-11.535h1.155a15.63,15.63,0,0,1-.009,11.535Z" transform="translate(-620.902 -1255.13)" fill="#fcd105"/>
          <path id="Trazado_1191680" data-name="Trazado 1191680" d="M928.08,1307.576h4.782a19.045,19.045,0,0,0,.007-11.535h-4.78A14.568,14.568,0,0,1,928.08,1307.576Z" transform="translate(-908.987 -1255.13)" fill="#fcd105"/>
          <path id="Trazado_1191681" data-name="Trazado 1191681" d="M906.785,1307.576a14.567,14.567,0,0,0,.009-11.535h1.155a15.63,15.63,0,0,1-.009,11.535Z" transform="translate(-880.715 -1255.13)" fill="#fcd105"/>
          <path id="Trazado_1191682" data-name="Trazado 1191682" d="M1000.964,1313.714h10.562a1.089,1.089,0,0,0,1.089-1.089v-6.295a1.089,1.089,0,0,0-1.089-1.09h-10.562Z" transform="translate(-1000.03 -1262.791)" fill="#e8edfd"/>
          <g id="Grupo_1229233" data-name="Grupo 1229233" transform="translate(1.269 44.473)">
            <path id="Trazado_1191683" data-name="Trazado 1191683" d="M1017.014,1317.858h8.165a.255.255,0,0,0,0-.51h-8.165a.255.255,0,1,0,0,.51Z" transform="translate(-1016.759 -1317.348)" fill="#433fab"/>
          </g>
          <g id="Grupo_1229234" data-name="Grupo 1229234" transform="translate(1.365 46.561)">
            <path id="Trazado_1191684" data-name="Trazado 1191684" d="M1041.43,1330.348h3.988a.255.255,0,0,0,0-.51h-3.988a.255.255,0,0,0,0,.51Z" transform="translate(-1041.175 -1329.838)" fill="#433fab"/>
          </g>
          <rect id="Rectángulo_422851" data-name="Rectángulo 422851" width="54.901" height="8.331" transform="translate(7.031 31.878)" fill="#e8edfd"/>
          <g id="Grupo_1229235" data-name="Grupo 1229235" transform="translate(3.884 30.374)">
            <path id="Trazado_1191685" data-name="Trazado 1191685" d="M699.467,1243.623h56.642a.765.765,0,0,0,0-1.531H700.253a6.161,6.161,0,0,1,0-7.54h55.858a.766.766,0,0,0,0-1.531H699.468l-.229.312a7.752,7.752,0,0,0,0,9.975Z" transform="translate(-697.42 -1233.021)" fill="#36334c"/>
          </g>
          <g id="Grupo_1229236" data-name="Grupo 1229236" transform="translate(34.594 31.928)">
            <path id="Trazado_1191686" data-name="Trazado 1191686" d="M866.537,1249.756a.255.255,0,0,0,.255-.255v-6.931a.255.255,0,0,0-.51,0v6.931A.255.255,0,0,0,866.537,1249.756Z" transform="translate(-866.282 -1242.315)" fill="#433fab"/>
          </g>
          <g id="Grupo_1229237" data-name="Grupo 1229237" transform="translate(50.355 32.794)">
            <path id="Trazado_1191687" data-name="Trazado 1191687" d="M708.393,1248.008h10.681a.255.255,0,1,0,0-.51H708.393a.255.255,0,1,0,0,.51Z" transform="translate(-708.138 -1247.498)" fill="#433fab"/>
          </g>
          <g id="Grupo_1229238" data-name="Grupo 1229238" transform="translate(48.218 34.077)">
            <path id="Trazado_1191688" data-name="Trazado 1191688" d="M722.873,1255.678h10.4a.255.255,0,1,0,0-.51h-10.4a.255.255,0,1,0,0,.51Z" transform="translate(-722.618 -1255.168)" fill="#433fab"/>
          </g>
          <path id="Trazado_1191689" data-name="Trazado 1191689" d="M821.028,1123.46c.763,5.662,4.753,11.474,9.215,9.385,4.178,2.279,8.516-4.053,9.365-9.6s-1.579-12.334-9.365-8.727C821.6,1111.008,820.264,1117.8,821.028,1123.46Z" transform="translate(-797.065 -1103.118)" fill="#fb7682"/>
          <path id="Trazado_1191690" data-name="Trazado 1191690" d="M898.326,1128.066c-.509,1.6-.071,3.166.979,3.5s2.312-.692,2.821-2.291.071-3.166-.979-3.5S898.835,1126.468,898.326,1128.066Z" transform="translate(-872.556 -1113.28)" fill="#fdfcfb"/>
          <ellipse id="Elipse_14794" data-name="Elipse 14794" cx="0.855" cy="0.997" rx="0.855" ry="0.997" transform="translate(25.202 18.95)" fill="#fdfcfb"/>
          <g id="Grupo_1229239" data-name="Grupo 1229239" transform="translate(28.614 2.662)">
            <path id="Trazado_1191691" data-name="Trazado 1191691" d="M877.138,1076.79a.766.766,0,0,0,.753-.634c.4-2.278.019-7.053-4.26-8.815a.765.765,0,1,0-.583,1.416c4.225,1.74,3.344,7.082,3.335,7.136a.766.766,0,0,0,.622.886A.938.938,0,0,0,877.138,1076.79Z" transform="translate(-872.574 -1067.283)" fill="#36334c"/>
          </g>
          <path id="Trazado_1191692" data-name="Trazado 1191692" d="M837.988,1053.23c-1.823,2.01-1.35,5.409-1.35,5.409s3.429.141,5.253-1.869,1.35-5.409,1.35-5.409S839.812,1051.221,837.988,1053.23Z" transform="translate(-803.226 -1051.359)" fill="#36334c"/>
        </g>
        <g id="Grupo_1229244" data-name="Grupo 1229244" transform="translate(32.589 71.897)">
          <g id="Grupo_1229243" data-name="Grupo 1229243" transform="translate(2.925 0)">
            <path id="Trazado_1191694" data-name="Trazado 1191694" d="M675.056,331.982a1.222,1.222,0,0,1,.014-.3c.3-1.742,1.841-4.977,5.55-4.755a13.282,13.282,0,0,1,3.888,1.024c2.393.9,3.7,1.3,5.068-.232,1.8-2.018,1.763-5.576-.073-7.931-1.746-2.24-4.5-2.611-7.558-1.017a1.226,1.226,0,0,1-1.134-2.175,9.29,9.29,0,0,1,6.207-1.11,7.448,7.448,0,0,1,4.42,2.794c2.571,3.3,2.559,8.161-.029,11.069-2.547,2.862-5.44,1.773-7.765.9a11.3,11.3,0,0,0-3.17-.871c-2.394-.143-2.934,2.433-2.987,2.727a1.226,1.226,0,0,1-2.43-.119Z" transform="translate(-675.053 -315.333)" fill="#433fab"/>
          </g>
          <path id="Trazado_1191695" data-name="Trazado 1191695" d="M664.243,405.91A1.783,1.783,0,1,1,665.886,404,1.784,1.784,0,0,1,664.243,405.91Z" transform="translate(-662.324 -382.357)" fill="#433fab"/>
        </g>
        <g id="Grupo_1229246" data-name="Grupo 1229246" transform="translate(15.368 37.749)">
          <g id="Grupo_1229245" data-name="Grupo 1229245" transform="translate(0 0)">
            <path id="Trazado_1191696" data-name="Trazado 1191696" d="M529.143,217.786a2.217,2.217,0,0,1-.287-.464c-1.342-2.9-2.356-9.316,3.407-12.789a24.058,24.058,0,0,1,6.852-2.458c4.5-1.109,6.863-1.859,7.327-5.544.611-4.853-3.086-10.13-8.241-11.762-4.9-1.553-9.4.718-12.324,6.232a2.221,2.221,0,1,1-3.922-2.083,16.824,16.824,0,0,1,8.125-8.02,13.489,13.489,0,0,1,9.461-.363c7.22,2.287,12.186,9.556,11.306,16.55-.866,6.883-6.3,8.224-10.67,9.3a20.47,20.47,0,0,0-5.624,1.95c-3.72,2.241-1.884,6.639-1.663,7.133a2.22,2.22,0,0,1-3.749,2.315Z" transform="translate(-521.696 -179.854)" fill="#433fab"/>
          </g>
          <path id="Trazado_1191697" data-name="Trazado 1191697" d="M560.75,375.057a3.229,3.229,0,1,1,.491-4.54A3.229,3.229,0,0,1,560.75,375.057Z" transform="translate(-547.731 -325.786)" fill="#433fab"/>
        </g>
      </g>
      <path id="Trazado_1191698" data-name="Trazado 1191698" d="M379.433,1278.9l5.71-.294.27,5.753Z" transform="translate(-262.042 -1137.348)" fill="#9e6369"/>
    </g>
  </g>
</svg>
